G04 MADE WITH FRITZING*
G04 WWW.FRITZING.ORG*
G04 DOUBLE SIDED*
G04 HOLES PLATED*
G04 CONTOUR ON CENTER OF CONTOUR VECTOR*
%ASAXBY*%
%FSLAX23Y23*%
%MOIN*%
%OFA0B0*%
%SFA1.0B1.0*%
%ADD10C,0.080000*%
%ADD11C,0.092000*%
%ADD12C,0.088000*%
%ADD13C,0.085000*%
%ADD14C,0.089370*%
%ADD15C,0.132047*%
%ADD16C,0.090000*%
%ADD17C,0.085433*%
%ADD18R,0.092000X0.092000*%
%ADD19R,0.430011X0.345756*%
%ADD20R,0.049253X0.142747*%
%ADD21R,0.167480X0.072992*%
%LNMASK1*%
G90*
G70*
G54D10*
X752Y799D03*
X752Y699D03*
G54D11*
X280Y428D03*
X280Y130D03*
X398Y305D03*
X398Y603D03*
G54D12*
X122Y821D03*
X122Y721D03*
G54D11*
X355Y1193D03*
X455Y1193D03*
X555Y1193D03*
G54D13*
X752Y124D03*
X752Y524D03*
X356Y1020D03*
X756Y1020D03*
X240Y1019D03*
X240Y619D03*
X398Y760D03*
X498Y760D03*
X598Y760D03*
G54D14*
X122Y288D03*
G54D13*
X870Y1042D03*
X870Y642D03*
X516Y530D03*
X516Y130D03*
G54D15*
X791Y1193D03*
G54D14*
X1028Y130D03*
G54D15*
X122Y1193D03*
G54D12*
X122Y130D03*
G54D13*
X634Y530D03*
X634Y130D03*
G54D14*
X1028Y1193D03*
G54D11*
X336Y900D03*
X634Y900D03*
G54D16*
X988Y681D03*
X988Y1081D03*
G54D11*
X988Y546D03*
X988Y248D03*
G54D17*
X1328Y452D03*
X1488Y772D03*
G54D18*
X280Y429D03*
X398Y304D03*
X355Y1193D03*
X335Y900D03*
X988Y547D03*
G54D19*
X1367Y228D03*
G54D20*
X1233Y642D03*
X1300Y642D03*
X1367Y642D03*
X1433Y642D03*
X1500Y642D03*
G54D21*
X1225Y1036D03*
X1539Y1036D03*
G04 End of Mask1*
M02*