; NON-PLATED HOLES START AT T1
; THROUGH (PLATED) HOLES START AT T100
M48
INCH
T100C0.035433
T101C0.035000
T102C0.038000
T103C0.043307
T104C0.030000
T105C0.042000
T106C0.040000
T107C0.039370
%
T100
X013280Y004517
X014880Y007717
T101
X005158Y001301
X008702Y010419
X007520Y005238
X007520Y001238
X006339Y001301
X003559Y010200
X008702Y006419
X007559Y010200
X003977Y007600
X002402Y010185
X002402Y006185
X006339Y005301
X004977Y007600
X005158Y005301
X005977Y007600
T102
X001221Y008206
X001221Y001301
X001221Y007206
T103
X001221Y011931
X007914Y011931
T104
X007520Y006992
X007520Y007994
T105
X003552Y011931
X003359Y008999
X003977Y006025
X006339Y008999
X004552Y011931
X009883Y005462
X002796Y001301
X005552Y011931
X009883Y002482
X003977Y003045
X002796Y004281
T106
X009883Y006812
X009883Y010812
T107
X010276Y001301
X010276Y011931
X001221Y002875
T00
M30
