G04 MADE WITH FRITZING*
G04 WWW.FRITZING.ORG*
G04 DOUBLE SIDED*
G04 HOLES PLATED*
G04 CONTOUR ON CENTER OF CONTOUR VECTOR*
%ASAXBY*%
%FSLAX23Y23*%
%MOIN*%
%OFA0B0*%
%SFA1.0B1.0*%
%ADD10C,0.070000*%
%ADD11C,0.082000*%
%ADD12C,0.078000*%
%ADD13C,0.075000*%
%ADD14C,0.079370*%
%ADD15C,0.122047*%
%ADD16C,0.080000*%
%ADD17C,0.075433*%
%ADD18R,0.082000X0.082000*%
%ADD19R,0.420011X0.335756*%
%ADD20R,0.039253X0.132747*%
%ADD21R,0.157480X0.062992*%
%ADD22C,0.032000*%
%ADD23C,0.048000*%
%LNCOPPER1*%
G90*
G70*
G54D10*
X752Y799D03*
X752Y699D03*
G54D11*
X280Y428D03*
X280Y130D03*
X398Y305D03*
X398Y603D03*
G54D12*
X122Y821D03*
X122Y721D03*
G54D11*
X355Y1193D03*
X455Y1193D03*
X555Y1193D03*
G54D13*
X752Y124D03*
X752Y524D03*
X356Y1020D03*
X756Y1020D03*
X240Y1019D03*
X240Y619D03*
X398Y760D03*
X498Y760D03*
X598Y760D03*
G54D14*
X122Y288D03*
G54D13*
X870Y1042D03*
X870Y642D03*
X516Y530D03*
X516Y130D03*
G54D15*
X791Y1193D03*
G54D14*
X1028Y130D03*
G54D15*
X122Y1193D03*
G54D12*
X122Y130D03*
G54D13*
X634Y530D03*
X634Y130D03*
G54D14*
X1028Y1193D03*
G54D11*
X336Y900D03*
X634Y900D03*
G54D16*
X988Y681D03*
X988Y1081D03*
G54D11*
X988Y546D03*
X988Y248D03*
G54D17*
X1328Y452D03*
X1488Y772D03*
G54D18*
X280Y429D03*
X398Y304D03*
X355Y1193D03*
X335Y900D03*
X988Y547D03*
G54D19*
X1367Y228D03*
G54D20*
X1233Y642D03*
X1300Y642D03*
X1367Y642D03*
X1433Y642D03*
X1500Y642D03*
G54D21*
X1225Y1036D03*
X1539Y1036D03*
G54D22*
X258Y617D02*
X377Y605D01*
D02*
X141Y130D02*
X259Y130D01*
D02*
X498Y130D02*
X301Y130D01*
D02*
X1151Y1050D02*
X1008Y1078D01*
D02*
X1288Y703D02*
X1230Y1010D01*
D02*
X615Y764D02*
X738Y796D01*
D02*
X650Y886D02*
X741Y809D01*
D02*
X1219Y619D02*
X999Y266D01*
D02*
X1366Y581D02*
X1365Y533D01*
D02*
X1365Y533D02*
X1234Y537D01*
D02*
X1234Y537D02*
X1234Y581D01*
D02*
X1485Y1010D02*
X1456Y996D01*
X1456Y996D02*
X1381Y698D01*
D02*
X1442Y581D02*
X1456Y484D01*
X1456Y484D02*
X1345Y456D01*
G54D23*
D02*
X134Y1175D02*
X183Y1101D01*
D02*
X183Y1101D02*
X445Y1103D01*
D02*
X445Y1103D02*
X453Y1172D01*
G54D22*
D02*
X863Y1026D02*
X823Y945D01*
D02*
X823Y945D02*
X717Y945D01*
D02*
X717Y945D02*
X470Y1179D01*
D02*
X1494Y703D02*
X1490Y754D01*
D02*
X616Y530D02*
X533Y530D01*
D02*
X138Y276D02*
X205Y227D01*
D02*
X205Y227D02*
X602Y208D01*
D02*
X602Y208D02*
X627Y146D01*
D02*
X766Y134D02*
X848Y196D01*
X848Y196D02*
X869Y624D01*
D02*
X1009Y137D02*
X848Y196D01*
G04 End of Copper1*
M02*