<?xml version='1.0' encoding='UTF-8' standalone='no'?>
<!-- Created with Fritzing (http://www.fritzing.org/) -->
<svg xmlns="http://www.w3.org/2000/svg"  baseProfile="tiny" width="1.96728in" viewBox="0 0 141.644 79.4341" x="0in" version="1.2" xmlns:svg="http://www.w3.org/2000/svg" y="0in" height="1.10325in">
 <g partID="57660">
  <g  id="board">
   <rect  stroke-width="0.5" fill="none" id="boardoutline" fill-opacity="0.5" stroke="black" width="141.068" x="0.288" height="78.8581" y="0.288"/>
  </g>
 </g>
 <g partID="146760">
  <g transform="translate(74.0504,14.7698)">
   <g transform="matrix(0,1,-1,0,0,0)">
    <g  id="copper0">
     <rect  stroke-width="1.44" fill="none" stroke="black" width="4.464" x="0.72" height="4.464" y="1.368"/>
     <circle  stroke-width="1.44" cx="3.024" cy="3.6" fill="none" id="connector0pin" stroke="black" r="2.232"/>
     <circle  stroke-width="1.44" cx="24.48" cy="3.6" fill="none" id="connector1pin" stroke="black" r="2.232"/>
    </g>
   </g>
  </g>
 </g>
 <g partID="194430">
  <g transform="translate(11.4104,32.1938)">
   <g  id="copper0">
    <rect  stroke-width="1.44" fill="none" stroke="black" width="4.464" x="6.408" height="4.464" y="12.168"/>
    <circle  stroke-width="1.44" cx="8.64" cy="14.4" fill="none" id="connector0pad" stroke="black" r="2.232"/>
    <circle  stroke-width="1.44" cx="15.84" cy="14.4" fill="none" id="connector1pad" stroke="black" r="2.232"/>
    <circle  stroke-width="1.44" cx="23.04" cy="14.4" fill="none" id="connector2pad" stroke="black" r="2.232"/>
   </g>
  </g>
 </g>
 <g partID="194460">
  <g transform="translate(60.0104,75.7538)">
   <g transform="matrix(-1,0,0,-1,0,0)">
    <g  id="copper0">
     <rect  stroke-width="1.44" fill="none" id="rect11" stroke="black" width="3.96" x="1.98" height="3.96" y="5.58"/>
     <circle  stroke-width="1.44" cx="3.96" cy="7.56" fill="none" id="connector0pin" stroke="black" r="1.98"/>
     <circle  stroke-width="1.44" cx="11.16" cy="7.56" fill="none" id="connector1pin" stroke="black" r="1.98"/>
    </g>
   </g>
  </g>
 </g>
 <g partID="243290">
  <g transform="translate(81.2504,42.4178)">
   <g transform="matrix(0,-1,1,0,0,0)">
    <g  id="copper0">
     <rect  stroke-width="1.44" fill="none" stroke="black" width="4.464" x="0.72" height="4.464" y="1.368"/>
     <circle  stroke-width="1.44" cx="3.024" cy="3.6" fill="none" id="connector0pin" stroke="black" r="2.232"/>
     <circle  stroke-width="1.44" cx="24.48" cy="3.6" fill="none" id="connector1pin" stroke="black" r="2.232"/>
    </g>
   </g>
  </g>
 </g>
 <g partID="318320">
  <g transform="translate(1.7624,2.60176)">
   <g id="copper0" flipped="1">
    <g transform="matrix(-1, 0, 0, 1, 7.776, 0)">
     <g>
      <g>
       <g>
        <circle stroke-width="1.08" cx="3.888" cy="7.992" fill="none" id="connector0pad" connectorname="1" stroke="black" r="2.124"/>
        <path stroke-width="0" d="m3.888,0a2.664,2.664,0,0,1,2.664,2.664l0,5.328a2.664,2.664,0,0,1,-2.664,2.664l0,0a2.664,2.664,0,0,1,-2.664,-2.664l0,-5.328a2.664,2.664,0,0,1,2.664,-2.664l0,0zM2.304,7.992a1.584,1.584,0,1,0,3.168,0,1.584,1.584,0,1,0,-3.168,0z" fill="black" stroke="none"/>
        <g id="copper0">
         <circle stroke-width="1.08" cx="3.888" cy="7.992" fill="none" id="connector0pad" connectorname="1" stroke="black" r="2.124"/>
         <path stroke-width="0" d="m3.888,0a2.664,2.664,0,0,1,2.664,2.664l0,5.328a2.664,2.664,0,0,1,-2.664,2.664l0,0a2.664,2.664,0,0,1,-2.664,-2.664l0,-5.328a2.664,2.664,0,0,1,2.664,-2.664l0,0zM2.304,7.992a1.584,1.584,0,1,0,3.168,0,1.584,1.584,0,1,0,-3.168,0z" fill="black" stroke="none"/>
        </g>
       </g>
       <g>
        <circle stroke-width="1.08" cx="3.888" cy="7.992" fill="none" id="connector0pad" connectorname="1" stroke="black" r="2.124"/>
        <path stroke-width="0" d="m3.888,0a2.664,2.664,0,0,1,2.664,2.664l0,5.328a2.664,2.664,0,0,1,-2.664,2.664l0,0a2.664,2.664,0,0,1,-2.664,-2.664l0,-5.328a2.664,2.664,0,0,1,2.664,-2.664l0,0zM2.304,7.992a1.584,1.584,0,1,0,3.168,0,1.584,1.584,0,1,0,-3.168,0z" fill="black" stroke="none"/>
       </g>
      </g>
     </g>
    </g>
   </g>
  </g>
 </g>
 <g partID="293190">
  <g transform="translate(80.9624,60.2018)">
   <g id="copper0" flipped="1">
    <g transform="matrix(-1, 0, 0, 1, 7.776, 0)">
     <g>
      <g>
       <g>
        <circle stroke-width="1.08" cx="3.888" cy="7.992" fill="none" id="connector0pad" connectorname="1" stroke="black" r="2.124"/>
        <path stroke-width="0" d="m3.888,0a2.664,2.664,0,0,1,2.664,2.664l0,5.328a2.664,2.664,0,0,1,-2.664,2.664l0,0a2.664,2.664,0,0,1,-2.664,-2.664l0,-5.328a2.664,2.664,0,0,1,2.664,-2.664l0,0zM2.304,7.992a1.584,1.584,0,1,0,3.168,0,1.584,1.584,0,1,0,-3.168,0z" fill="black" stroke="none"/>
        <g id="copper0">
         <circle stroke-width="1.08" cx="3.888" cy="7.992" fill="none" id="connector0pad" connectorname="1" stroke="black" r="2.124"/>
         <path stroke-width="0" d="m3.888,0a2.664,2.664,0,0,1,2.664,2.664l0,5.328a2.664,2.664,0,0,1,-2.664,2.664l0,0a2.664,2.664,0,0,1,-2.664,-2.664l0,-5.328a2.664,2.664,0,0,1,2.664,-2.664l0,0zM2.304,7.992a1.584,1.584,0,1,0,3.168,0,1.584,1.584,0,1,0,-3.168,0z" fill="black" stroke="none"/>
        </g>
       </g>
       <g>
        <circle stroke-width="1.08" cx="3.888" cy="7.992" fill="none" id="connector0pad" connectorname="1" stroke="black" r="2.124"/>
        <path stroke-width="0" d="m3.888,0a2.664,2.664,0,0,1,2.664,2.664l0,5.328a2.664,2.664,0,0,1,-2.664,2.664l0,0a2.664,2.664,0,0,1,-2.664,-2.664l0,-5.328a2.664,2.664,0,0,1,2.664,-2.664l0,0zM2.304,7.992a1.584,1.584,0,1,0,3.168,0,1.584,1.584,0,1,0,-3.168,0z" fill="black" stroke="none"/>
       </g>
      </g>
     </g>
    </g>
   </g>
  </g>
 </g>
 <g partID="293100">
  <g transform="translate(109.762,60.2018)">
   <g id="copper0" flipped="1">
    <g transform="matrix(-1, 0, 0, 1, 7.776, 0)">
     <g>
      <g>
       <g>
        <circle stroke-width="1.08" cx="3.888" cy="7.992" fill="none" id="connector0pad" connectorname="1" stroke="black" r="2.124"/>
        <path stroke-width="0" d="m3.888,0a2.664,2.664,0,0,1,2.664,2.664l0,5.328a2.664,2.664,0,0,1,-2.664,2.664l0,0a2.664,2.664,0,0,1,-2.664,-2.664l0,-5.328a2.664,2.664,0,0,1,2.664,-2.664l0,0zM2.304,7.992a1.584,1.584,0,1,0,3.168,0,1.584,1.584,0,1,0,-3.168,0z" fill="black" stroke="none"/>
        <g id="copper0">
         <circle stroke-width="1.08" cx="3.888" cy="7.992" fill="none" id="connector0pad" connectorname="1" stroke="black" r="2.124"/>
         <path stroke-width="0" d="m3.888,0a2.664,2.664,0,0,1,2.664,2.664l0,5.328a2.664,2.664,0,0,1,-2.664,2.664l0,0a2.664,2.664,0,0,1,-2.664,-2.664l0,-5.328a2.664,2.664,0,0,1,2.664,-2.664l0,0zM2.304,7.992a1.584,1.584,0,1,0,3.168,0,1.584,1.584,0,1,0,-3.168,0z" fill="black" stroke="none"/>
        </g>
       </g>
       <g>
        <circle stroke-width="1.08" cx="3.888" cy="7.992" fill="none" id="connector0pad" connectorname="1" stroke="black" r="2.124"/>
        <path stroke-width="0" d="m3.888,0a2.664,2.664,0,0,1,2.664,2.664l0,5.328a2.664,2.664,0,0,1,-2.664,2.664l0,0a2.664,2.664,0,0,1,-2.664,-2.664l0,-5.328a2.664,2.664,0,0,1,2.664,-2.664l0,0zM2.304,7.992a1.584,1.584,0,1,0,3.168,0,1.584,1.584,0,1,0,-3.168,0z" fill="black" stroke="none"/>
       </g>
      </g>
     </g>
    </g>
   </g>
  </g>
 </g>
 <g partID="292930">
  <g transform="translate(66.5624,60.2018)">
   <g id="copper0" flipped="1">
    <g transform="matrix(-1, 0, 0, 1, 7.776, 0)">
     <g>
      <g>
       <g>
        <circle stroke-width="1.08" cx="3.888" cy="7.992" fill="none" id="connector0pad" connectorname="1" stroke="black" r="2.124"/>
        <path stroke-width="0" d="m3.888,0a2.664,2.664,0,0,1,2.664,2.664l0,5.328a2.664,2.664,0,0,1,-2.664,2.664l0,0a2.664,2.664,0,0,1,-2.664,-2.664l0,-5.328a2.664,2.664,0,0,1,2.664,-2.664l0,0zM2.304,7.992a1.584,1.584,0,1,0,3.168,0,1.584,1.584,0,1,0,-3.168,0z" fill="black" stroke="none"/>
        <g id="copper0">
         <circle stroke-width="1.08" cx="3.888" cy="7.992" fill="none" id="connector0pad" connectorname="1" stroke="black" r="2.124"/>
         <path stroke-width="0" d="m3.888,0a2.664,2.664,0,0,1,2.664,2.664l0,5.328a2.664,2.664,0,0,1,-2.664,2.664l0,0a2.664,2.664,0,0,1,-2.664,-2.664l0,-5.328a2.664,2.664,0,0,1,2.664,-2.664l0,0zM2.304,7.992a1.584,1.584,0,1,0,3.168,0,1.584,1.584,0,1,0,-3.168,0z" fill="black" stroke="none"/>
        </g>
       </g>
       <g>
        <circle stroke-width="1.08" cx="3.888" cy="7.992" fill="none" id="connector0pad" connectorname="1" stroke="black" r="2.124"/>
        <path stroke-width="0" d="m3.888,0a2.664,2.664,0,0,1,2.664,2.664l0,5.328a2.664,2.664,0,0,1,-2.664,2.664l0,0a2.664,2.664,0,0,1,-2.664,-2.664l0,-5.328a2.664,2.664,0,0,1,2.664,-2.664l0,0zM2.304,7.992a1.584,1.584,0,1,0,3.168,0,1.584,1.584,0,1,0,-3.168,0z" fill="black" stroke="none"/>
       </g>
      </g>
     </g>
    </g>
   </g>
  </g>
 </g>
 <g partID="292820">
  <g transform="translate(124.162,2.60176)">
   <g id="copper0" flipped="1">
    <g transform="matrix(-1, 0, 0, 1, 7.776, 0)">
     <g>
      <g>
       <g>
        <circle stroke-width="1.08" cx="3.888" cy="7.992" fill="none" id="connector0pad" connectorname="1" stroke="black" r="2.124"/>
        <path stroke-width="0" d="m3.888,0a2.664,2.664,0,0,1,2.664,2.664l0,5.328a2.664,2.664,0,0,1,-2.664,2.664l0,0a2.664,2.664,0,0,1,-2.664,-2.664l0,-5.328a2.664,2.664,0,0,1,2.664,-2.664l0,0zM2.304,7.992a1.584,1.584,0,1,0,3.168,0,1.584,1.584,0,1,0,-3.168,0z" fill="black" stroke="none"/>
        <g id="copper0">
         <circle stroke-width="1.08" cx="3.888" cy="7.992" fill="none" id="connector0pad" connectorname="1" stroke="black" r="2.124"/>
         <path stroke-width="0" d="m3.888,0a2.664,2.664,0,0,1,2.664,2.664l0,5.328a2.664,2.664,0,0,1,-2.664,2.664l0,0a2.664,2.664,0,0,1,-2.664,-2.664l0,-5.328a2.664,2.664,0,0,1,2.664,-2.664l0,0zM2.304,7.992a1.584,1.584,0,1,0,3.168,0,1.584,1.584,0,1,0,-3.168,0z" fill="black" stroke="none"/>
        </g>
       </g>
       <g>
        <circle stroke-width="1.08" cx="3.888" cy="7.992" fill="none" id="connector0pad" connectorname="1" stroke="black" r="2.124"/>
        <path stroke-width="0" d="m3.888,0a2.664,2.664,0,0,1,2.664,2.664l0,5.328a2.664,2.664,0,0,1,-2.664,2.664l0,0a2.664,2.664,0,0,1,-2.664,-2.664l0,-5.328a2.664,2.664,0,0,1,2.664,-2.664l0,0zM2.304,7.992a1.584,1.584,0,1,0,3.168,0,1.584,1.584,0,1,0,-3.168,0z" fill="black" stroke="none"/>
       </g>
      </g>
     </g>
    </g>
   </g>
  </g>
 </g>
 <g partID="292670">
  <g transform="translate(1.7624,38.6018)">
   <g id="copper0" flipped="1">
    <g transform="matrix(-1, 0, 0, 1, 7.776, 0)">
     <g>
      <g>
       <g>
        <circle stroke-width="1.08" cx="3.888" cy="7.992" fill="none" id="connector0pad" connectorname="1" stroke="black" r="2.124"/>
        <path stroke-width="0" d="m3.888,0a2.664,2.664,0,0,1,2.664,2.664l0,5.328a2.664,2.664,0,0,1,-2.664,2.664l0,0a2.664,2.664,0,0,1,-2.664,-2.664l0,-5.328a2.664,2.664,0,0,1,2.664,-2.664l0,0zM2.304,7.992a1.584,1.584,0,1,0,3.168,0,1.584,1.584,0,1,0,-3.168,0z" fill="black" stroke="none"/>
        <g id="copper0">
         <circle stroke-width="1.08" cx="3.888" cy="7.992" fill="none" id="connector0pad" connectorname="1" stroke="black" r="2.124"/>
         <path stroke-width="0" d="m3.888,0a2.664,2.664,0,0,1,2.664,2.664l0,5.328a2.664,2.664,0,0,1,-2.664,2.664l0,0a2.664,2.664,0,0,1,-2.664,-2.664l0,-5.328a2.664,2.664,0,0,1,2.664,-2.664l0,0zM2.304,7.992a1.584,1.584,0,1,0,3.168,0,1.584,1.584,0,1,0,-3.168,0z" fill="black" stroke="none"/>
        </g>
       </g>
       <g>
        <circle stroke-width="1.08" cx="3.888" cy="7.992" fill="none" id="connector0pad" connectorname="1" stroke="black" r="2.124"/>
        <path stroke-width="0" d="m3.888,0a2.664,2.664,0,0,1,2.664,2.664l0,5.328a2.664,2.664,0,0,1,-2.664,2.664l0,0a2.664,2.664,0,0,1,-2.664,-2.664l0,-5.328a2.664,2.664,0,0,1,2.664,-2.664l0,0zM2.304,7.992a1.584,1.584,0,1,0,3.168,0,1.584,1.584,0,1,0,-3.168,0z" fill="black" stroke="none"/>
       </g>
      </g>
     </g>
    </g>
   </g>
  </g>
 </g>
 <g partID="292480">
  <g transform="translate(109.762,2.60176)">
   <g id="copper0" flipped="1">
    <g transform="matrix(-1, 0, 0, 1, 7.776, 0)">
     <g>
      <g>
       <g>
        <circle stroke-width="1.08" cx="3.888" cy="7.992" fill="none" id="connector0pad" connectorname="1" stroke="black" r="2.124"/>
        <path stroke-width="0" d="m3.888,0a2.664,2.664,0,0,1,2.664,2.664l0,5.328a2.664,2.664,0,0,1,-2.664,2.664l0,0a2.664,2.664,0,0,1,-2.664,-2.664l0,-5.328a2.664,2.664,0,0,1,2.664,-2.664l0,0zM2.304,7.992a1.584,1.584,0,1,0,3.168,0,1.584,1.584,0,1,0,-3.168,0z" fill="black" stroke="none"/>
        <g id="copper0">
         <circle stroke-width="1.08" cx="3.888" cy="7.992" fill="none" id="connector0pad" connectorname="1" stroke="black" r="2.124"/>
         <path stroke-width="0" d="m3.888,0a2.664,2.664,0,0,1,2.664,2.664l0,5.328a2.664,2.664,0,0,1,-2.664,2.664l0,0a2.664,2.664,0,0,1,-2.664,-2.664l0,-5.328a2.664,2.664,0,0,1,2.664,-2.664l0,0zM2.304,7.992a1.584,1.584,0,1,0,3.168,0,1.584,1.584,0,1,0,-3.168,0z" fill="black" stroke="none"/>
        </g>
       </g>
       <g>
        <circle stroke-width="1.08" cx="3.888" cy="7.992" fill="none" id="connector0pad" connectorname="1" stroke="black" r="2.124"/>
        <path stroke-width="0" d="m3.888,0a2.664,2.664,0,0,1,2.664,2.664l0,5.328a2.664,2.664,0,0,1,-2.664,2.664l0,0a2.664,2.664,0,0,1,-2.664,-2.664l0,-5.328a2.664,2.664,0,0,1,2.664,-2.664l0,0zM2.304,7.992a1.584,1.584,0,1,0,3.168,0,1.584,1.584,0,1,0,-3.168,0z" fill="black" stroke="none"/>
       </g>
      </g>
     </g>
    </g>
   </g>
  </g>
 </g>
 <g partID="292390">
  <g transform="translate(1.7624,17.0018)">
   <g id="copper0" flipped="1">
    <g transform="matrix(-1, 0, 0, 1, 7.776, 0)">
     <g>
      <g>
       <g>
        <circle stroke-width="1.08" cx="3.888" cy="7.992" fill="none" id="connector0pad" connectorname="1" stroke="black" r="2.124"/>
        <path stroke-width="0" d="m3.888,0a2.664,2.664,0,0,1,2.664,2.664l0,5.328a2.664,2.664,0,0,1,-2.664,2.664l0,0a2.664,2.664,0,0,1,-2.664,-2.664l0,-5.328a2.664,2.664,0,0,1,2.664,-2.664l0,0zM2.304,7.992a1.584,1.584,0,1,0,3.168,0,1.584,1.584,0,1,0,-3.168,0z" fill="black" stroke="none"/>
        <g id="copper0">
         <circle stroke-width="1.08" cx="3.888" cy="7.992" fill="none" id="connector0pad" connectorname="1" stroke="black" r="2.124"/>
         <path stroke-width="0" d="m3.888,0a2.664,2.664,0,0,1,2.664,2.664l0,5.328a2.664,2.664,0,0,1,-2.664,2.664l0,0a2.664,2.664,0,0,1,-2.664,-2.664l0,-5.328a2.664,2.664,0,0,1,2.664,-2.664l0,0zM2.304,7.992a1.584,1.584,0,1,0,3.168,0,1.584,1.584,0,1,0,-3.168,0z" fill="black" stroke="none"/>
        </g>
       </g>
       <g>
        <circle stroke-width="1.08" cx="3.888" cy="7.992" fill="none" id="connector0pad" connectorname="1" stroke="black" r="2.124"/>
        <path stroke-width="0" d="m3.888,0a2.664,2.664,0,0,1,2.664,2.664l0,5.328a2.664,2.664,0,0,1,-2.664,2.664l0,0a2.664,2.664,0,0,1,-2.664,-2.664l0,-5.328a2.664,2.664,0,0,1,2.664,-2.664l0,0zM2.304,7.992a1.584,1.584,0,1,0,3.168,0,1.584,1.584,0,1,0,-3.168,0z" fill="black" stroke="none"/>
       </g>
      </g>
     </g>
    </g>
   </g>
  </g>
 </g>
 <g partID="292080">
  <g transform="translate(95.3624,60.2018)">
   <g id="copper0" flipped="1">
    <g transform="matrix(-1, 0, 0, 1, 7.776, 0)">
     <g>
      <g>
       <g>
        <circle stroke-width="1.08" cx="3.888" cy="7.992" fill="none" id="connector0pad" connectorname="1" stroke="black" r="2.124"/>
        <path stroke-width="0" d="m3.888,0a2.664,2.664,0,0,1,2.664,2.664l0,5.328a2.664,2.664,0,0,1,-2.664,2.664l0,0a2.664,2.664,0,0,1,-2.664,-2.664l0,-5.328a2.664,2.664,0,0,1,2.664,-2.664l0,0zM2.304,7.992a1.584,1.584,0,1,0,3.168,0,1.584,1.584,0,1,0,-3.168,0z" fill="black" stroke="none"/>
        <g id="copper0">
         <circle stroke-width="1.08" cx="3.888" cy="7.992" fill="none" id="connector0pad" connectorname="1" stroke="black" r="2.124"/>
         <path stroke-width="0" d="m3.888,0a2.664,2.664,0,0,1,2.664,2.664l0,5.328a2.664,2.664,0,0,1,-2.664,2.664l0,0a2.664,2.664,0,0,1,-2.664,-2.664l0,-5.328a2.664,2.664,0,0,1,2.664,-2.664l0,0zM2.304,7.992a1.584,1.584,0,1,0,3.168,0,1.584,1.584,0,1,0,-3.168,0z" fill="black" stroke="none"/>
        </g>
       </g>
       <g>
        <circle stroke-width="1.08" cx="3.888" cy="7.992" fill="none" id="connector0pad" connectorname="1" stroke="black" r="2.124"/>
        <path stroke-width="0" d="m3.888,0a2.664,2.664,0,0,1,2.664,2.664l0,5.328a2.664,2.664,0,0,1,-2.664,2.664l0,0a2.664,2.664,0,0,1,-2.664,-2.664l0,-5.328a2.664,2.664,0,0,1,2.664,-2.664l0,0zM2.304,7.992a1.584,1.584,0,1,0,3.168,0,1.584,1.584,0,1,0,-3.168,0z" fill="black" stroke="none"/>
       </g>
      </g>
     </g>
    </g>
   </g>
  </g>
 </g>
 <g partID="291810">
  <g transform="translate(59.3624,2.60176)">
   <g id="copper0" flipped="1">
    <g transform="matrix(-1, 0, 0, 1, 7.776, 0)">
     <g>
      <g>
       <g>
        <circle stroke-width="1.08" cx="3.888" cy="7.992" fill="none" id="connector0pad" connectorname="1" stroke="black" r="2.124"/>
        <path stroke-width="0" d="m3.888,0a2.664,2.664,0,0,1,2.664,2.664l0,5.328a2.664,2.664,0,0,1,-2.664,2.664l0,0a2.664,2.664,0,0,1,-2.664,-2.664l0,-5.328a2.664,2.664,0,0,1,2.664,-2.664l0,0zM2.304,7.992a1.584,1.584,0,1,0,3.168,0,1.584,1.584,0,1,0,-3.168,0z" fill="black" stroke="none"/>
        <g id="copper0">
         <circle stroke-width="1.08" cx="3.888" cy="7.992" fill="none" id="connector0pad" connectorname="1" stroke="black" r="2.124"/>
         <path stroke-width="0" d="m3.888,0a2.664,2.664,0,0,1,2.664,2.664l0,5.328a2.664,2.664,0,0,1,-2.664,2.664l0,0a2.664,2.664,0,0,1,-2.664,-2.664l0,-5.328a2.664,2.664,0,0,1,2.664,-2.664l0,0zM2.304,7.992a1.584,1.584,0,1,0,3.168,0,1.584,1.584,0,1,0,-3.168,0z" fill="black" stroke="none"/>
        </g>
       </g>
       <g>
        <circle stroke-width="1.08" cx="3.888" cy="7.992" fill="none" id="connector0pad" connectorname="1" stroke="black" r="2.124"/>
        <path stroke-width="0" d="m3.888,0a2.664,2.664,0,0,1,2.664,2.664l0,5.328a2.664,2.664,0,0,1,-2.664,2.664l0,0a2.664,2.664,0,0,1,-2.664,-2.664l0,-5.328a2.664,2.664,0,0,1,2.664,-2.664l0,0zM2.304,7.992a1.584,1.584,0,1,0,3.168,0,1.584,1.584,0,1,0,-3.168,0z" fill="black" stroke="none"/>
       </g>
      </g>
     </g>
    </g>
   </g>
  </g>
 </g>
 <g partID="327060">
  <g transform="translate(61.0904,58.8338)">
   <g transform="matrix(-1,0,0,-1,0,0)">
    <g  id="copper0">
     <circle  stroke-width="1.44" cx="5.04" cy="5.04" fill="none" id="connector0pin" stroke="black" r="2.088"/>
     <circle  stroke-width="1.44" cx="5.04" cy="12.24" fill="none" id="connector1pin" stroke="black" r="2.088"/>
    </g>
   </g>
  </g>
 </g>
 <g partID="324940">
  <g transform="translate(51.0104,27.1538)">
   <g  id="copper0">
    <circle  stroke-width="1.44" cx="5.04" cy="5.04" fill="none" id="connector0pin" stroke="black" r="2.088"/>
    <circle  stroke-width="1.44" cx="5.04" cy="12.24" fill="none" id="connector1pin" stroke="black" r="2.088"/>
   </g>
  </g>
 </g>
 <g partID="62710">
  <g transform="translate(132.154,56.4938)">
   <g transform="matrix(0,-1,1,0,0,0)">
    <g  id="copper0">
     <g  id="copper1">
      <!-- <rect width="55" x="10" y="15.5" fill="none" height="55" stroke="rgb(255, 191, 0)" stroke-width="20" />  -->
      <circle  stroke-width="1.44" cx="2.7" fill="none" cy="3.096" id="connector0pin" stroke="black" r="1.98"/>
      <circle  stroke-width="1.44" cx="31.5" fill="none" cy="3.096" id="connector1pin" stroke="black" r="1.98"/>
     </g>
    </g>
   </g>
  </g>
 </g>
 <g partID="62390">
  <g transform="translate(109.15,49.6898)">
   <g transform="matrix(-1,0,0,-1,0,0)">
    <g  id="copper0">
     <g  id="copper1">
      <!-- <rect width="55" x="10" y="15.5" fill="none" height="55" stroke="rgb(255, 191, 0)" stroke-width="20" />  -->
      <circle  stroke-width="1.44" cx="2.7" fill="none" cy="3.096" id="connector0pin" stroke="black" r="1.98"/>
      <circle  stroke-width="1.44" cx="31.5" fill="none" cy="3.096" id="connector1pin" stroke="black" r="1.98"/>
     </g>
    </g>
   </g>
  </g>
 </g>
 <g partID="60080">
  <g transform="translate(10.1504,29.0978)">
   <g  id="copper0">
    <g  id="copper1">
     <!-- <rect width="55" x="10" y="15.5" fill="none" height="55" stroke="rgb(255, 191, 0)" stroke-width="20" />  -->
     <circle  stroke-width="1.44" cx="2.7" fill="none" cy="3.096" id="connector0pin" stroke="black" r="1.98"/>
     <circle  stroke-width="1.44" cx="31.5" fill="none" cy="3.096" id="connector1pin" stroke="black" r="1.98"/>
    </g>
   </g>
  </g>
 </g>
 <g partID="61720">
  <g transform="translate(124.954,56.4938)">
   <g transform="matrix(0,-1,1,0,0,0)">
    <g  id="copper0">
     <g  id="copper1">
      <!-- <rect width="55" x="10" y="15.5" fill="none" height="55" stroke="rgb(255, 191, 0)" stroke-width="20" />  -->
      <circle  stroke-width="1.44" cx="2.7" fill="none" cy="3.096" id="connector0pin" stroke="black" r="1.98"/>
      <circle  stroke-width="1.44" cx="31.5" fill="none" cy="3.096" id="connector1pin" stroke="black" r="1.98"/>
     </g>
    </g>
   </g>
  </g>
 </g>
 <g partID="61090">
  <g transform="translate(89.3504,50.6978)">
   <g  id="copper0">
    <g  id="copper1">
     <!-- <rect width="55" x="10" y="15.5" fill="none" height="55" stroke="rgb(255, 191, 0)" stroke-width="20" />  -->
     <circle  stroke-width="1.44" cx="2.7" fill="none" cy="3.096" id="connector0pin" stroke="black" r="1.98"/>
     <circle  stroke-width="1.44" cx="31.5" fill="none" cy="3.096" id="connector1pin" stroke="black" r="1.98"/>
    </g>
   </g>
  </g>
 </g>
 <g partID="60130">
  <g transform="translate(51.9464,7.89376)">
   <g transform="matrix(0,1,-1,0,0,0)">
    <g  id="copper0">
     <g  id="copper1">
      <!-- <rect width="55" x="10" y="15.5" fill="none" height="55" stroke="rgb(255, 191, 0)" stroke-width="20" />  -->
      <circle  stroke-width="1.44" cx="2.7" fill="none" cy="3.096" id="connector0pin" stroke="black" r="1.98"/>
      <circle  stroke-width="1.44" cx="31.5" fill="none" cy="3.096" id="connector1pin" stroke="black" r="1.98"/>
     </g>
    </g>
   </g>
  </g>
 </g>
 <g partID="60250">
  <g transform="translate(43.0904,32.1938)">
   <g transform="matrix(-1,0,0,-1,0,0)">
    <g  id="copper0">
     <rect  stroke-width="1.44" fill="none" stroke="black" width="4.464" x="6.408" height="4.464" y="12.168"/>
     <circle  stroke-width="1.44" cx="8.64" cy="14.4" fill="none" id="connector0pad" stroke="black" r="2.232"/>
     <circle  stroke-width="1.44" cx="15.84" cy="14.4" fill="none" id="connector1pad" stroke="black" r="2.232"/>
     <circle  stroke-width="1.44" cx="23.04" cy="14.4" fill="none" id="connector2pad" stroke="black" r="2.232"/>
    </g>
   </g>
  </g>
 </g>
 <g partID="62070">
  <g transform="translate(105.442,50.1938)">
   <g transform="matrix(0,-1,1,0,0,0)">
    <g  id="copper0">
     <circle  stroke-width="1.44" cx="3.6" cy="8.208" fill="none" id="connector0pin" stroke="black" r="1.98"/>
     <circle  stroke-width="1.44" cx="10.8" cy="8.208" fill="none" id="connector1pin" stroke="black" r="1.98"/>
     <circle  stroke-width="1.44" cx="18" cy="8.208" fill="none" id="connector2pin" stroke="black" r="1.98"/>
    </g>
   </g>
  </g>
 </g>
 <g partID="60990">
  <g transform="translate(91.0424,28.5938)">
   <g transform="matrix(0,-1,1,0,0,0)">
    <g  id="copper0">
     <circle  stroke-width="1.44" cx="3.6" cy="8.208" fill="none" id="connector0pin" stroke="black" r="1.98"/>
     <circle  stroke-width="1.44" cx="10.8" cy="8.208" fill="none" id="connector1pin" stroke="black" r="1.98"/>
     <circle  stroke-width="1.44" cx="18" cy="8.208" fill="none" id="connector2pin" stroke="black" r="1.98"/>
    </g>
   </g>
  </g>
 </g>
 <g partID="313930">
  <line stroke-width="1.728" y2="46.5889" stroke-linecap="round" x1="114.898" stroke="black" y1="46.4209" x2="113.686"/>
 </g>
 <g partID="313920">
  <line stroke-width="1.728" y2="66.6098" stroke-linecap="round" x1="113.686" stroke="black" y1="46.5889" x2="113.653"/>
 </g>
 <g partID="319590">
  <line stroke-width="1.728" y2="53.7341" stroke-linecap="round" x1="35.8068" stroke="black" y1="47.2619" x2="48.9453"/>
 </g>
 <g partID="319580">
  <line stroke-width="1.728" y2="66.9338" stroke-linecap="round" x1="48.9456" stroke="black" y1="53.7342" x2="48.859"/>
 </g>
 <g partID="313630">
  <line stroke-width="1.728" y2="24.9366" stroke-linecap="round" x1="127.052" stroke="black" y1="24.225" x2="127.976"/>
 </g>
 <g partID="313620">
  <line stroke-width="1.728" y2="18.0978" stroke-linecap="round" x1="127.976" stroke="black" y1="24.9366" x2="100.473"/>
 </g>
 <g partID="311760">
  <line stroke-width="1.728" y2="68.2412" stroke-linecap="round" x1="78.0499" stroke="black" y1="47.7887" x2="84.8881"/>
 </g>
 <g partID="311750">
  <line stroke-width="1.728" y2="69.4342" stroke-linecap="round" x1="84.888" stroke="black" y1="68.2412" x2="85.8355"/>
 </g>
 <g partID="313270">
  <line stroke-width="1.728" y2="46.5889" stroke-linecap="round" x1="21.5605" stroke="black" y1="46.518" x2="20.1477"/>
 </g>
 <g partID="313260">
  <line stroke-width="1.728" y2="46.5932" stroke-linecap="round" x1="20.148" stroke="black" y1="46.5889" x2="7.23472"/>
 </g>
 <g partID="317970">
  <line stroke-width="1.728" y2="3.5008" stroke-linecap="round" x1="56.0904" stroke="black" y1="3.5008" x2="34.4381"/>
 </g>
 <g partID="317870">
  <line stroke-width="1.728" y2="16.443" stroke-linecap="round" x1="34.4384" stroke="black" y1="3.5008" x2="27.9299"/>
 </g>
 <g partID="317880">
  <line stroke-width="1.728" y2="3.5008" stroke-linecap="round" x1="62.1251" stroke="black" y1="9.47898" x2="56.0905"/>
 </g>
 <g partID="328090">
  <line stroke-width="1.728" y2="32.2984" stroke-linecap="round" x1="49.7503" stroke="black" y1="38.5118" x2="56.0905"/>
 </g>
 <g partID="328080">
  <line stroke-width="1.728" y2="33.4711" stroke-linecap="round" x1="56.0904" stroke="black" y1="32.2984" x2="56.54"/>
 </g>
 <g partID="328810">
  <line stroke-width="1.728" y2="75.3864" stroke-linecap="round" x1="48.867" stroke="black" y1="69.4537" x2="48.9452"/>
 </g>
 <g partID="328800">
  <line stroke-width="1.728" y2="75.3866" stroke-linecap="round" x1="48.9456" stroke="black" y1="75.3866" x2="63.2361"/>
 </g>
 <g partID="328880">
  <line stroke-width="1.728" y2="69.3122" stroke-linecap="round" x1="63.236" stroke="black" y1="75.3866" x2="69.3289"/>
 </g>
 <g partID="314870">
  <line stroke-width="1.728" y2="10.6461" stroke-linecap="round" x1="69.3763" stroke="black" y1="16.7296" x2="63.2358"/>
 </g>
 <g partID="314860">
  <line stroke-width="1.728" y2="12.1192" stroke-linecap="round" x1="63.236" stroke="black" y1="10.6461" x2="62.8237"/>
 </g>
 <g partID="328490">
  <line stroke-width="1.728" y2="39.4436" stroke-linecap="round" x1="57.0171" stroke="black" y1="52.8258" x2="70.381"/>
 </g>
 <g partID="328480">
  <line stroke-width="1.728" y2="40.6733" stroke-linecap="round" x1="70.3808" stroke="black" y1="39.4436" x2="69.9407"/>
 </g>
 <g partID="318570">
  <line stroke-width="1.728" y2="24.9366" stroke-linecap="round" x1="5.64932" stroke="black" y1="12.1778" x2="5.64064"/>
 </g>
 <g partID="318560">
  <line stroke-width="1.728" y2="23.4323" stroke-linecap="round" x1="5.6408" stroke="black" y1="24.9366" x2="5.38408"/>
 </g>
 <g partID="312950">
  <line stroke-width="1.728" y2="17.7914" stroke-linecap="round" x1="41.0862" stroke="black" y1="31.0671" x2="34.4382"/>
 </g>
 <g partID="312940">
  <line stroke-width="1.728" y2="17.4973" stroke-linecap="round" x1="34.4384" stroke="black" y1="17.7914" x2="32.968"/>
 </g>
 <g partID="313050">
  <line stroke-width="1.728" y2="24.9366" stroke-linecap="round" x1="18.6957" stroke="black" y1="18.4653" x2="5.64064"/>
 </g>
 <g partID="313040">
  <line stroke-width="1.728" y2="23.4323" stroke-linecap="round" x1="5.6408" stroke="black" y1="24.9366" x2="5.38408"/>
 </g>
 <g partID="314710">
  <line stroke-width="1.728" y2="17.7913" stroke-linecap="round" x1="83.3385" stroke="black" y1="17.9225" x2="70.381"/>
 </g>
 <g partID="314700">
  <line stroke-width="1.728" y2="17.7407" stroke-linecap="round" x1="70.3808" stroke="black" y1="17.7914" x2="68.9391"/>
 </g>
 <g partID="313430">
  <line stroke-width="1.728" y2="24.9366" stroke-linecap="round" x1="136.305" stroke="black" y1="24.3046" x2="135.338"/>
 </g>
 <g partID="313420">
  <line stroke-width="1.728" y2="12.0059" stroke-linecap="round" x1="135.338" stroke="black" y1="24.9366" x2="128.768"/>
 </g>
 <g partID="328190">
  <line stroke-width="1.728" y2="46.5889" stroke-linecap="round" x1="56.058" stroke="black" y1="40.7617" x2="56.0905"/>
 </g>
 <g partID="328180">
  <line stroke-width="1.728" y2="46.4285" stroke-linecap="round" x1="56.0904" stroke="black" y1="46.5889" x2="57.4083"/>
 </g>
 <g partID="317800">
  <line stroke-width="1.728" y2="24.9366" stroke-linecap="round" x1="48.8587" stroke="black" y1="38.1338" x2="48.9452"/>
 </g>
 <g partID="317790">
  <line stroke-width="1.728" y2="24.9923" stroke-linecap="round" x1="48.9456" stroke="black" y1="24.9366" x2="97.9907"/>
 </g>
 <g partID="327970">
  <line stroke-width="1.728" y2="46.5889" stroke-linecap="round" x1="27.2928" stroke="black" y1="39.4436" x2="56.0904"/>
 </g>
 <g partID="327870">
  <line stroke-width="1.728" y2="46.4285" stroke-linecap="round" x1="56.0904" stroke="black" y1="46.5889" x2="57.4083"/>
 </g>
 <g partID="327880">
  <line stroke-width="1.728" y2="39.4436" stroke-linecap="round" x1="27.2594" stroke="black" y1="45.0818" x2="27.2929"/>
 </g>
 <g partID="313170">
  <line stroke-width="1.728" y2="24.9366" stroke-linecap="round" x1="11.9624" stroke="black" y1="31.2999" x2="5.64064"/>
 </g>
 <g partID="313160">
  <line stroke-width="1.728" y2="23.4323" stroke-linecap="round" x1="5.6408" stroke="black" y1="24.9366" x2="5.38408"/>
 </g>
 <g partID="314090">
  <line stroke-width="1.728" y2="39.4436" stroke-linecap="round" x1="85.7617" stroke="black" y1="40.6003" x2="84.8881"/>
 </g>
 <g partID="314080">
  <line stroke-width="1.728" y2="52.6664" stroke-linecap="round" x1="84.888" stroke="black" y1="39.4436" x2="91.4876"/>
 </g>
 <g partID="313730">
  <line stroke-width="1.728" y2="53.7341" stroke-linecap="round" x1="127.068" stroke="black" y1="53.0049" x2="127.976"/>
 </g>
 <g partID="313720">
  <line stroke-width="1.728" y2="53.7832" stroke-linecap="round" x1="127.976" stroke="black" y1="53.7342" x2="122.11"/>
 </g>
 <g partID="328980">
  <line stroke-width="1.728" y2="53.7342" stroke-linecap="round" x1="56.0539" stroke="black" y1="66.9338" x2="56.0905"/>
 </g>
 <g partID="328970">
  <line stroke-width="1.728" y2="52.6587" stroke-linecap="round" x1="56.0904" stroke="black" y1="53.7342" x2="56.8138"/>
 </g>
 <g partID="317640">
  <line stroke-width="1.728" y2="32.2984" stroke-linecap="round" x1="112.39" stroke="black" y1="32.1968" x2="70.381"/>
 </g>
 <g partID="317630">
  <line stroke-width="1.728" y2="37.7379" stroke-linecap="round" x1="70.3808" stroke="black" y1="32.2984" x2="70.4351"/>
 </g>
 <g partID="312830">
  <line stroke-width="1.728" y2="17.7913" stroke-linecap="round" x1="47.7232" stroke="black" y1="11.1567" x2="34.4382"/>
 </g>
 <g partID="312820">
  <line stroke-width="1.728" y2="17.4973" stroke-linecap="round" x1="34.4384" stroke="black" y1="17.7914" x2="32.968"/>
 </g>
 <g partID="313810">
  <line stroke-width="1.728" y2="68.2412" stroke-linecap="round" x1="92.6079" stroke="black" y1="54.9237" x2="99.1786"/>
 </g>
 <g partID="313800">
  <line stroke-width="1.728" y2="69.0666" stroke-linecap="round" x1="99.1784" stroke="black" y1="68.2412" x2="97.9284"/>
 </g>
 <g partID="313510">
  <line stroke-width="1.728" y2="24.9366" stroke-linecap="round" x1="134.942" stroke="black" y1="52.572" x2="127.976"/>
 </g>
 <g partID="313500">
  <line stroke-width="1.728" y2="24.225" stroke-linecap="round" x1="127.976" stroke="black" y1="24.9366" x2="127.052"/>
 </g>
 <g partID="329710">
  <line stroke-width="1.728" y2="10.5948" stroke-linecap="round" x1="106.46" stroke="black" y1="10.5995" x2="100.51"/>
 </g>
 <g partID="329720">
  <line stroke-width="1.728" y2="10.5995" stroke-linecap="round" x1="112.066" stroke="black" y1="10.595" x2="106.46"/>
 </g>
 <g partID="329830">
  <line stroke-width="1.728" y2="40.2843" stroke-linecap="round" x1="106.46" stroke="black" y1="46.5773" x2="112.759"/>
 </g>
 <g partID="329840">
  <line stroke-width="1.728" y2="46.5773" stroke-linecap="round" x1="107.101" stroke="black" y1="45.5147" x2="106.46"/>
 </g>
</svg>
