<?xml version='1.0' encoding='UTF-8' standalone='no'?>
<!-- Created with Fritzing (http://www.fritzing.org/) -->
<svg xmlns="http://www.w3.org/2000/svg"  baseProfile="tiny" width="1.96728in" viewBox="0 0 141.644 79.4341" x="0in" version="1.2" xmlns:svg="http://www.w3.org/2000/svg" y="0in" height="1.10325in">
 <g partID="57662">
  <g id="silkscreen0">
   <rect stroke-width="0.576" fill="none" stroke="black" width="141.068" x="0.288" height="78.8581" y="0.288"/>
  </g>
 </g>
 <g partID="57660">
  <g id="board">
   <rect stroke-width="0.5" fill="none" id="boardoutline" fill-opacity="0.5" stroke="black" width="141.068" x="0.288" height="78.8581" y="0.288"/>
  </g>
 </g>
 <g partID="318322">
  <g transform="translate(1.7624,2.60176)">
   <g id="silkscreen0" flipped="1">
    <g transform="matrix(-1, 0, 0, 1, 7.776, 0)">
     <g>
      <g>
       <g>
        <line stroke-width="0.576" y2="9.792" x1="0.288" stroke-linecap="round" y1="6.192" stroke="black" x2="0.288" class="other"/>
        <line stroke-width="0.576" y2="11.592" x1="0.288" stroke-linecap="round" y1="9.792" stroke="black" x2="2.088" class="other"/>
        <line stroke-width="0.576" y2="11.592" x1="2.088" stroke-linecap="round" y1="11.592" stroke="black" x2="5.688" class="other"/>
        <line stroke-width="0.576" y2="9.792" x1="5.688" stroke-linecap="round" y1="11.592" stroke="black" x2="7.488" class="other"/>
        <line stroke-width="0.576" y2="6.192" x1="7.488" stroke-linecap="round" y1="9.792" stroke="black" x2="7.488" class="other"/>
       </g>
      </g>
     </g>
    </g>
   </g>
  </g>
 </g>
 <g partID="293192">
  <g transform="translate(80.9624,60.2018)">
   <g id="silkscreen0" flipped="1">
    <g transform="matrix(-1, 0, 0, 1, 7.776, 0)">
     <g>
      <g>
       <g>
        <line stroke-width="0.576" y2="9.792" x1="0.288" stroke-linecap="round" y1="6.192" stroke="black" x2="0.288" class="other"/>
        <line stroke-width="0.576" y2="11.592" x1="0.288" stroke-linecap="round" y1="9.792" stroke="black" x2="2.088" class="other"/>
        <line stroke-width="0.576" y2="11.592" x1="2.088" stroke-linecap="round" y1="11.592" stroke="black" x2="5.688" class="other"/>
        <line stroke-width="0.576" y2="9.792" x1="5.688" stroke-linecap="round" y1="11.592" stroke="black" x2="7.488" class="other"/>
        <line stroke-width="0.576" y2="6.192" x1="7.488" stroke-linecap="round" y1="9.792" stroke="black" x2="7.488" class="other"/>
       </g>
      </g>
     </g>
    </g>
   </g>
  </g>
 </g>
 <g partID="293102">
  <g transform="translate(109.762,60.2018)">
   <g id="silkscreen0" flipped="1">
    <g transform="matrix(-1, 0, 0, 1, 7.776, 0)">
     <g>
      <g>
       <g>
        <line stroke-width="0.576" y2="9.792" x1="0.288" stroke-linecap="round" y1="6.192" stroke="black" x2="0.288" class="other"/>
        <line stroke-width="0.576" y2="11.592" x1="0.288" stroke-linecap="round" y1="9.792" stroke="black" x2="2.088" class="other"/>
        <line stroke-width="0.576" y2="11.592" x1="2.088" stroke-linecap="round" y1="11.592" stroke="black" x2="5.688" class="other"/>
        <line stroke-width="0.576" y2="9.792" x1="5.688" stroke-linecap="round" y1="11.592" stroke="black" x2="7.488" class="other"/>
        <line stroke-width="0.576" y2="6.192" x1="7.488" stroke-linecap="round" y1="9.792" stroke="black" x2="7.488" class="other"/>
       </g>
      </g>
     </g>
    </g>
   </g>
  </g>
 </g>
 <g partID="292932">
  <g transform="translate(66.5624,60.2018)">
   <g id="silkscreen0" flipped="1">
    <g transform="matrix(-1, 0, 0, 1, 7.776, 0)">
     <g>
      <g>
       <g>
        <line stroke-width="0.576" y2="9.792" x1="0.288" stroke-linecap="round" y1="6.192" stroke="black" x2="0.288" class="other"/>
        <line stroke-width="0.576" y2="11.592" x1="0.288" stroke-linecap="round" y1="9.792" stroke="black" x2="2.088" class="other"/>
        <line stroke-width="0.576" y2="11.592" x1="2.088" stroke-linecap="round" y1="11.592" stroke="black" x2="5.688" class="other"/>
        <line stroke-width="0.576" y2="9.792" x1="5.688" stroke-linecap="round" y1="11.592" stroke="black" x2="7.488" class="other"/>
        <line stroke-width="0.576" y2="6.192" x1="7.488" stroke-linecap="round" y1="9.792" stroke="black" x2="7.488" class="other"/>
       </g>
      </g>
     </g>
    </g>
   </g>
  </g>
 </g>
 <g partID="292822">
  <g transform="translate(124.162,2.60176)">
   <g id="silkscreen0" flipped="1">
    <g transform="matrix(-1, 0, 0, 1, 7.776, 0)">
     <g>
      <g>
       <g>
        <line stroke-width="0.576" y2="9.792" x1="0.288" stroke-linecap="round" y1="6.192" stroke="black" x2="0.288" class="other"/>
        <line stroke-width="0.576" y2="11.592" x1="0.288" stroke-linecap="round" y1="9.792" stroke="black" x2="2.088" class="other"/>
        <line stroke-width="0.576" y2="11.592" x1="2.088" stroke-linecap="round" y1="11.592" stroke="black" x2="5.688" class="other"/>
        <line stroke-width="0.576" y2="9.792" x1="5.688" stroke-linecap="round" y1="11.592" stroke="black" x2="7.488" class="other"/>
        <line stroke-width="0.576" y2="6.192" x1="7.488" stroke-linecap="round" y1="9.792" stroke="black" x2="7.488" class="other"/>
       </g>
      </g>
     </g>
    </g>
   </g>
  </g>
 </g>
 <g partID="292672">
  <g transform="translate(1.7624,38.6018)">
   <g id="silkscreen0" flipped="1">
    <g transform="matrix(-1, 0, 0, 1, 7.776, 0)">
     <g>
      <g>
       <g>
        <line stroke-width="0.576" y2="9.792" x1="0.288" stroke-linecap="round" y1="6.192" stroke="black" x2="0.288" class="other"/>
        <line stroke-width="0.576" y2="11.592" x1="0.288" stroke-linecap="round" y1="9.792" stroke="black" x2="2.088" class="other"/>
        <line stroke-width="0.576" y2="11.592" x1="2.088" stroke-linecap="round" y1="11.592" stroke="black" x2="5.688" class="other"/>
        <line stroke-width="0.576" y2="9.792" x1="5.688" stroke-linecap="round" y1="11.592" stroke="black" x2="7.488" class="other"/>
        <line stroke-width="0.576" y2="6.192" x1="7.488" stroke-linecap="round" y1="9.792" stroke="black" x2="7.488" class="other"/>
       </g>
      </g>
     </g>
    </g>
   </g>
  </g>
 </g>
 <g partID="292482">
  <g transform="translate(109.762,2.60176)">
   <g id="silkscreen0" flipped="1">
    <g transform="matrix(-1, 0, 0, 1, 7.776, 0)">
     <g>
      <g>
       <g>
        <line stroke-width="0.576" y2="9.792" x1="0.288" stroke-linecap="round" y1="6.192" stroke="black" x2="0.288" class="other"/>
        <line stroke-width="0.576" y2="11.592" x1="0.288" stroke-linecap="round" y1="9.792" stroke="black" x2="2.088" class="other"/>
        <line stroke-width="0.576" y2="11.592" x1="2.088" stroke-linecap="round" y1="11.592" stroke="black" x2="5.688" class="other"/>
        <line stroke-width="0.576" y2="9.792" x1="5.688" stroke-linecap="round" y1="11.592" stroke="black" x2="7.488" class="other"/>
        <line stroke-width="0.576" y2="6.192" x1="7.488" stroke-linecap="round" y1="9.792" stroke="black" x2="7.488" class="other"/>
       </g>
      </g>
     </g>
    </g>
   </g>
  </g>
 </g>
 <g partID="292392">
  <g transform="translate(1.7624,17.0018)">
   <g id="silkscreen0" flipped="1">
    <g transform="matrix(-1, 0, 0, 1, 7.776, 0)">
     <g>
      <g>
       <g>
        <line stroke-width="0.576" y2="9.792" x1="0.288" stroke-linecap="round" y1="6.192" stroke="black" x2="0.288" class="other"/>
        <line stroke-width="0.576" y2="11.592" x1="0.288" stroke-linecap="round" y1="9.792" stroke="black" x2="2.088" class="other"/>
        <line stroke-width="0.576" y2="11.592" x1="2.088" stroke-linecap="round" y1="11.592" stroke="black" x2="5.688" class="other"/>
        <line stroke-width="0.576" y2="9.792" x1="5.688" stroke-linecap="round" y1="11.592" stroke="black" x2="7.488" class="other"/>
        <line stroke-width="0.576" y2="6.192" x1="7.488" stroke-linecap="round" y1="9.792" stroke="black" x2="7.488" class="other"/>
       </g>
      </g>
     </g>
    </g>
   </g>
  </g>
 </g>
 <g partID="292082">
  <g transform="translate(95.3624,60.2018)">
   <g id="silkscreen0" flipped="1">
    <g transform="matrix(-1, 0, 0, 1, 7.776, 0)">
     <g>
      <g>
       <g>
        <line stroke-width="0.576" y2="9.792" x1="0.288" stroke-linecap="round" y1="6.192" stroke="black" x2="0.288" class="other"/>
        <line stroke-width="0.576" y2="11.592" x1="0.288" stroke-linecap="round" y1="9.792" stroke="black" x2="2.088" class="other"/>
        <line stroke-width="0.576" y2="11.592" x1="2.088" stroke-linecap="round" y1="11.592" stroke="black" x2="5.688" class="other"/>
        <line stroke-width="0.576" y2="9.792" x1="5.688" stroke-linecap="round" y1="11.592" stroke="black" x2="7.488" class="other"/>
        <line stroke-width="0.576" y2="6.192" x1="7.488" stroke-linecap="round" y1="9.792" stroke="black" x2="7.488" class="other"/>
       </g>
      </g>
     </g>
    </g>
   </g>
  </g>
 </g>
 <g partID="291812">
  <g transform="translate(59.3624,2.60176)">
   <g id="silkscreen0" flipped="1">
    <g transform="matrix(-1, 0, 0, 1, 7.776, 0)">
     <g>
      <g>
       <g>
        <line stroke-width="0.576" y2="9.792" x1="0.288" stroke-linecap="round" y1="6.192" stroke="black" x2="0.288" class="other"/>
        <line stroke-width="0.576" y2="11.592" x1="0.288" stroke-linecap="round" y1="9.792" stroke="black" x2="2.088" class="other"/>
        <line stroke-width="0.576" y2="11.592" x1="2.088" stroke-linecap="round" y1="11.592" stroke="black" x2="5.688" class="other"/>
        <line stroke-width="0.576" y2="9.792" x1="5.688" stroke-linecap="round" y1="11.592" stroke="black" x2="7.488" class="other"/>
        <line stroke-width="0.576" y2="6.192" x1="7.488" stroke-linecap="round" y1="9.792" stroke="black" x2="7.488" class="other"/>
       </g>
      </g>
     </g>
    </g>
   </g>
  </g>
 </g>
 <g partID="57662">
  <g id="silkscreen0">
   <rect stroke-width="0.576" fill="none" stroke="black" width="141.068" x="0.288" height="78.8581" y="0.288"/>
  </g>
 </g>
 <g partID="146760">
  <g transform="translate(74.0504,14.7698)">
   <g transform="matrix(0,1,-1,0,0,0)">
    <g id="copper0">
     <rect stroke-width="2.16" fill="white" stroke="white" width="4.464" x="0.72" height="4.464" y="1.368"/>
     <circle stroke-width="2.16" cx="3.024" cy="3.6" fill="white" id="connector0pin" stroke="white" r="2.232"/>
     <circle stroke-width="2.16" cx="24.48" cy="3.6" fill="white" id="connector1pin" stroke="white" r="2.232"/>
    </g>
   </g>
  </g>
 </g>
 <g partID="194430">
  <g transform="translate(11.4104,32.1938)">
   <g id="copper0">
    <rect stroke-width="2.16" fill="white" stroke="white" width="4.464" x="6.408" height="4.464" y="12.168"/>
    <circle stroke-width="2.16" cx="8.64" cy="14.4" fill="white" id="connector0pad" stroke="white" r="2.232"/>
    <circle stroke-width="2.16" cx="15.84" cy="14.4" fill="white" id="connector1pad" stroke="white" r="2.232"/>
    <circle stroke-width="2.16" cx="23.04" cy="14.4" fill="white" id="connector2pad" stroke="white" r="2.232"/>
   </g>
  </g>
 </g>
 <g partID="194460">
  <g transform="translate(60.0104,75.7538)">
   <g transform="matrix(-1,0,0,-1,0,0)">
    <g id="copper0">
     <rect stroke-width="2.16" fill="white" id="rect11" stroke="white" width="3.96" x="1.98" height="3.96" y="5.58"/>
     <circle stroke-width="2.16" cx="3.96" cy="7.56" fill="white" id="connector0pin" stroke="white" r="1.98"/>
     <circle stroke-width="2.16" cx="11.16" cy="7.56" fill="white" id="connector1pin" stroke="white" r="1.98"/>
    </g>
   </g>
  </g>
 </g>
 <g partID="243290">
  <g transform="translate(81.2504,42.4178)">
   <g transform="matrix(0,-1,1,0,0,0)">
    <g id="copper0">
     <rect stroke-width="2.16" fill="white" stroke="white" width="4.464" x="0.72" height="4.464" y="1.368"/>
     <circle stroke-width="2.16" cx="3.024" cy="3.6" fill="white" id="connector0pin" stroke="white" r="2.232"/>
     <circle stroke-width="2.16" cx="24.48" cy="3.6" fill="white" id="connector1pin" stroke="white" r="2.232"/>
    </g>
   </g>
  </g>
 </g>
 <g partID="318320">
  <g transform="translate(1.7624,2.60176)">
   <g id="copper0" flipped="1">
    <g transform="matrix(-1, 0, 0, 1, 7.776, 0)">
     <g>
      <g>
       <g>
        <circle stroke-width="1.8" cx="3.888" cy="7.992" fill="white" id="connector0pad" connectorname="1" stroke="white" r="2.124"/>
        <path stroke-width="0.72" d="m3.888,0a2.664,2.664,0,0,1,2.664,2.664l0,5.328a2.664,2.664,0,0,1,-2.664,2.664l0,0a2.664,2.664,0,0,1,-2.664,-2.664l0,-5.328a2.664,2.664,0,0,1,2.664,-2.664l0,0zM2.304,7.992a1.584,1.584,0,1,0,3.168,0,1.584,1.584,0,1,0,-3.168,0z" fill="white" stroke="white"/>
        <g id="copper0">
         <circle stroke-width="1.8" cx="3.888" cy="7.992" fill="white" id="connector0pad" connectorname="1" stroke="white" r="2.124"/>
         <path stroke-width="0.72" d="m3.888,0a2.664,2.664,0,0,1,2.664,2.664l0,5.328a2.664,2.664,0,0,1,-2.664,2.664l0,0a2.664,2.664,0,0,1,-2.664,-2.664l0,-5.328a2.664,2.664,0,0,1,2.664,-2.664l0,0zM2.304,7.992a1.584,1.584,0,1,0,3.168,0,1.584,1.584,0,1,0,-3.168,0z" fill="white" stroke="white"/>
        </g>
       </g>
       <g>
        <circle stroke-width="1.8" cx="3.888" cy="7.992" fill="white" id="connector0pad" connectorname="1" stroke="white" r="2.124"/>
        <path stroke-width="0.72" d="m3.888,0a2.664,2.664,0,0,1,2.664,2.664l0,5.328a2.664,2.664,0,0,1,-2.664,2.664l0,0a2.664,2.664,0,0,1,-2.664,-2.664l0,-5.328a2.664,2.664,0,0,1,2.664,-2.664l0,0zM2.304,7.992a1.584,1.584,0,1,0,3.168,0,1.584,1.584,0,1,0,-3.168,0z" fill="white" stroke="white"/>
       </g>
      </g>
     </g>
    </g>
   </g>
  </g>
 </g>
 <g partID="293190">
  <g transform="translate(80.9624,60.2018)">
   <g id="copper0" flipped="1">
    <g transform="matrix(-1, 0, 0, 1, 7.776, 0)">
     <g>
      <g>
       <g>
        <circle stroke-width="1.8" cx="3.888" cy="7.992" fill="white" id="connector0pad" connectorname="1" stroke="white" r="2.124"/>
        <path stroke-width="0.72" d="m3.888,0a2.664,2.664,0,0,1,2.664,2.664l0,5.328a2.664,2.664,0,0,1,-2.664,2.664l0,0a2.664,2.664,0,0,1,-2.664,-2.664l0,-5.328a2.664,2.664,0,0,1,2.664,-2.664l0,0zM2.304,7.992a1.584,1.584,0,1,0,3.168,0,1.584,1.584,0,1,0,-3.168,0z" fill="white" stroke="white"/>
        <g id="copper0">
         <circle stroke-width="1.8" cx="3.888" cy="7.992" fill="white" id="connector0pad" connectorname="1" stroke="white" r="2.124"/>
         <path stroke-width="0.72" d="m3.888,0a2.664,2.664,0,0,1,2.664,2.664l0,5.328a2.664,2.664,0,0,1,-2.664,2.664l0,0a2.664,2.664,0,0,1,-2.664,-2.664l0,-5.328a2.664,2.664,0,0,1,2.664,-2.664l0,0zM2.304,7.992a1.584,1.584,0,1,0,3.168,0,1.584,1.584,0,1,0,-3.168,0z" fill="white" stroke="white"/>
        </g>
       </g>
       <g>
        <circle stroke-width="1.8" cx="3.888" cy="7.992" fill="white" id="connector0pad" connectorname="1" stroke="white" r="2.124"/>
        <path stroke-width="0.72" d="m3.888,0a2.664,2.664,0,0,1,2.664,2.664l0,5.328a2.664,2.664,0,0,1,-2.664,2.664l0,0a2.664,2.664,0,0,1,-2.664,-2.664l0,-5.328a2.664,2.664,0,0,1,2.664,-2.664l0,0zM2.304,7.992a1.584,1.584,0,1,0,3.168,0,1.584,1.584,0,1,0,-3.168,0z" fill="white" stroke="white"/>
       </g>
      </g>
     </g>
    </g>
   </g>
  </g>
 </g>
 <g partID="293100">
  <g transform="translate(109.762,60.2018)">
   <g id="copper0" flipped="1">
    <g transform="matrix(-1, 0, 0, 1, 7.776, 0)">
     <g>
      <g>
       <g>
        <circle stroke-width="1.8" cx="3.888" cy="7.992" fill="white" id="connector0pad" connectorname="1" stroke="white" r="2.124"/>
        <path stroke-width="0.72" d="m3.888,0a2.664,2.664,0,0,1,2.664,2.664l0,5.328a2.664,2.664,0,0,1,-2.664,2.664l0,0a2.664,2.664,0,0,1,-2.664,-2.664l0,-5.328a2.664,2.664,0,0,1,2.664,-2.664l0,0zM2.304,7.992a1.584,1.584,0,1,0,3.168,0,1.584,1.584,0,1,0,-3.168,0z" fill="white" stroke="white"/>
        <g id="copper0">
         <circle stroke-width="1.8" cx="3.888" cy="7.992" fill="white" id="connector0pad" connectorname="1" stroke="white" r="2.124"/>
         <path stroke-width="0.72" d="m3.888,0a2.664,2.664,0,0,1,2.664,2.664l0,5.328a2.664,2.664,0,0,1,-2.664,2.664l0,0a2.664,2.664,0,0,1,-2.664,-2.664l0,-5.328a2.664,2.664,0,0,1,2.664,-2.664l0,0zM2.304,7.992a1.584,1.584,0,1,0,3.168,0,1.584,1.584,0,1,0,-3.168,0z" fill="white" stroke="white"/>
        </g>
       </g>
       <g>
        <circle stroke-width="1.8" cx="3.888" cy="7.992" fill="white" id="connector0pad" connectorname="1" stroke="white" r="2.124"/>
        <path stroke-width="0.72" d="m3.888,0a2.664,2.664,0,0,1,2.664,2.664l0,5.328a2.664,2.664,0,0,1,-2.664,2.664l0,0a2.664,2.664,0,0,1,-2.664,-2.664l0,-5.328a2.664,2.664,0,0,1,2.664,-2.664l0,0zM2.304,7.992a1.584,1.584,0,1,0,3.168,0,1.584,1.584,0,1,0,-3.168,0z" fill="white" stroke="white"/>
       </g>
      </g>
     </g>
    </g>
   </g>
  </g>
 </g>
 <g partID="292930">
  <g transform="translate(66.5624,60.2018)">
   <g id="copper0" flipped="1">
    <g transform="matrix(-1, 0, 0, 1, 7.776, 0)">
     <g>
      <g>
       <g>
        <circle stroke-width="1.8" cx="3.888" cy="7.992" fill="white" id="connector0pad" connectorname="1" stroke="white" r="2.124"/>
        <path stroke-width="0.72" d="m3.888,0a2.664,2.664,0,0,1,2.664,2.664l0,5.328a2.664,2.664,0,0,1,-2.664,2.664l0,0a2.664,2.664,0,0,1,-2.664,-2.664l0,-5.328a2.664,2.664,0,0,1,2.664,-2.664l0,0zM2.304,7.992a1.584,1.584,0,1,0,3.168,0,1.584,1.584,0,1,0,-3.168,0z" fill="white" stroke="white"/>
        <g id="copper0">
         <circle stroke-width="1.8" cx="3.888" cy="7.992" fill="white" id="connector0pad" connectorname="1" stroke="white" r="2.124"/>
         <path stroke-width="0.72" d="m3.888,0a2.664,2.664,0,0,1,2.664,2.664l0,5.328a2.664,2.664,0,0,1,-2.664,2.664l0,0a2.664,2.664,0,0,1,-2.664,-2.664l0,-5.328a2.664,2.664,0,0,1,2.664,-2.664l0,0zM2.304,7.992a1.584,1.584,0,1,0,3.168,0,1.584,1.584,0,1,0,-3.168,0z" fill="white" stroke="white"/>
        </g>
       </g>
       <g>
        <circle stroke-width="1.8" cx="3.888" cy="7.992" fill="white" id="connector0pad" connectorname="1" stroke="white" r="2.124"/>
        <path stroke-width="0.72" d="m3.888,0a2.664,2.664,0,0,1,2.664,2.664l0,5.328a2.664,2.664,0,0,1,-2.664,2.664l0,0a2.664,2.664,0,0,1,-2.664,-2.664l0,-5.328a2.664,2.664,0,0,1,2.664,-2.664l0,0zM2.304,7.992a1.584,1.584,0,1,0,3.168,0,1.584,1.584,0,1,0,-3.168,0z" fill="white" stroke="white"/>
       </g>
      </g>
     </g>
    </g>
   </g>
  </g>
 </g>
 <g partID="292820">
  <g transform="translate(124.162,2.60176)">
   <g id="copper0" flipped="1">
    <g transform="matrix(-1, 0, 0, 1, 7.776, 0)">
     <g>
      <g>
       <g>
        <circle stroke-width="1.8" cx="3.888" cy="7.992" fill="white" id="connector0pad" connectorname="1" stroke="white" r="2.124"/>
        <path stroke-width="0.72" d="m3.888,0a2.664,2.664,0,0,1,2.664,2.664l0,5.328a2.664,2.664,0,0,1,-2.664,2.664l0,0a2.664,2.664,0,0,1,-2.664,-2.664l0,-5.328a2.664,2.664,0,0,1,2.664,-2.664l0,0zM2.304,7.992a1.584,1.584,0,1,0,3.168,0,1.584,1.584,0,1,0,-3.168,0z" fill="white" stroke="white"/>
        <g id="copper0">
         <circle stroke-width="1.8" cx="3.888" cy="7.992" fill="white" id="connector0pad" connectorname="1" stroke="white" r="2.124"/>
         <path stroke-width="0.72" d="m3.888,0a2.664,2.664,0,0,1,2.664,2.664l0,5.328a2.664,2.664,0,0,1,-2.664,2.664l0,0a2.664,2.664,0,0,1,-2.664,-2.664l0,-5.328a2.664,2.664,0,0,1,2.664,-2.664l0,0zM2.304,7.992a1.584,1.584,0,1,0,3.168,0,1.584,1.584,0,1,0,-3.168,0z" fill="white" stroke="white"/>
        </g>
       </g>
       <g>
        <circle stroke-width="1.8" cx="3.888" cy="7.992" fill="white" id="connector0pad" connectorname="1" stroke="white" r="2.124"/>
        <path stroke-width="0.72" d="m3.888,0a2.664,2.664,0,0,1,2.664,2.664l0,5.328a2.664,2.664,0,0,1,-2.664,2.664l0,0a2.664,2.664,0,0,1,-2.664,-2.664l0,-5.328a2.664,2.664,0,0,1,2.664,-2.664l0,0zM2.304,7.992a1.584,1.584,0,1,0,3.168,0,1.584,1.584,0,1,0,-3.168,0z" fill="white" stroke="white"/>
       </g>
      </g>
     </g>
    </g>
   </g>
  </g>
 </g>
 <g partID="292670">
  <g transform="translate(1.7624,38.6018)">
   <g id="copper0" flipped="1">
    <g transform="matrix(-1, 0, 0, 1, 7.776, 0)">
     <g>
      <g>
       <g>
        <circle stroke-width="1.8" cx="3.888" cy="7.992" fill="white" id="connector0pad" connectorname="1" stroke="white" r="2.124"/>
        <path stroke-width="0.72" d="m3.888,0a2.664,2.664,0,0,1,2.664,2.664l0,5.328a2.664,2.664,0,0,1,-2.664,2.664l0,0a2.664,2.664,0,0,1,-2.664,-2.664l0,-5.328a2.664,2.664,0,0,1,2.664,-2.664l0,0zM2.304,7.992a1.584,1.584,0,1,0,3.168,0,1.584,1.584,0,1,0,-3.168,0z" fill="white" stroke="white"/>
        <g id="copper0">
         <circle stroke-width="1.8" cx="3.888" cy="7.992" fill="white" id="connector0pad" connectorname="1" stroke="white" r="2.124"/>
         <path stroke-width="0.72" d="m3.888,0a2.664,2.664,0,0,1,2.664,2.664l0,5.328a2.664,2.664,0,0,1,-2.664,2.664l0,0a2.664,2.664,0,0,1,-2.664,-2.664l0,-5.328a2.664,2.664,0,0,1,2.664,-2.664l0,0zM2.304,7.992a1.584,1.584,0,1,0,3.168,0,1.584,1.584,0,1,0,-3.168,0z" fill="white" stroke="white"/>
        </g>
       </g>
       <g>
        <circle stroke-width="1.8" cx="3.888" cy="7.992" fill="white" id="connector0pad" connectorname="1" stroke="white" r="2.124"/>
        <path stroke-width="0.72" d="m3.888,0a2.664,2.664,0,0,1,2.664,2.664l0,5.328a2.664,2.664,0,0,1,-2.664,2.664l0,0a2.664,2.664,0,0,1,-2.664,-2.664l0,-5.328a2.664,2.664,0,0,1,2.664,-2.664l0,0zM2.304,7.992a1.584,1.584,0,1,0,3.168,0,1.584,1.584,0,1,0,-3.168,0z" fill="white" stroke="white"/>
       </g>
      </g>
     </g>
    </g>
   </g>
  </g>
 </g>
 <g partID="292480">
  <g transform="translate(109.762,2.60176)">
   <g id="copper0" flipped="1">
    <g transform="matrix(-1, 0, 0, 1, 7.776, 0)">
     <g>
      <g>
       <g>
        <circle stroke-width="1.8" cx="3.888" cy="7.992" fill="white" id="connector0pad" connectorname="1" stroke="white" r="2.124"/>
        <path stroke-width="0.72" d="m3.888,0a2.664,2.664,0,0,1,2.664,2.664l0,5.328a2.664,2.664,0,0,1,-2.664,2.664l0,0a2.664,2.664,0,0,1,-2.664,-2.664l0,-5.328a2.664,2.664,0,0,1,2.664,-2.664l0,0zM2.304,7.992a1.584,1.584,0,1,0,3.168,0,1.584,1.584,0,1,0,-3.168,0z" fill="white" stroke="white"/>
        <g id="copper0">
         <circle stroke-width="1.8" cx="3.888" cy="7.992" fill="white" id="connector0pad" connectorname="1" stroke="white" r="2.124"/>
         <path stroke-width="0.72" d="m3.888,0a2.664,2.664,0,0,1,2.664,2.664l0,5.328a2.664,2.664,0,0,1,-2.664,2.664l0,0a2.664,2.664,0,0,1,-2.664,-2.664l0,-5.328a2.664,2.664,0,0,1,2.664,-2.664l0,0zM2.304,7.992a1.584,1.584,0,1,0,3.168,0,1.584,1.584,0,1,0,-3.168,0z" fill="white" stroke="white"/>
        </g>
       </g>
       <g>
        <circle stroke-width="1.8" cx="3.888" cy="7.992" fill="white" id="connector0pad" connectorname="1" stroke="white" r="2.124"/>
        <path stroke-width="0.72" d="m3.888,0a2.664,2.664,0,0,1,2.664,2.664l0,5.328a2.664,2.664,0,0,1,-2.664,2.664l0,0a2.664,2.664,0,0,1,-2.664,-2.664l0,-5.328a2.664,2.664,0,0,1,2.664,-2.664l0,0zM2.304,7.992a1.584,1.584,0,1,0,3.168,0,1.584,1.584,0,1,0,-3.168,0z" fill="white" stroke="white"/>
       </g>
      </g>
     </g>
    </g>
   </g>
  </g>
 </g>
 <g partID="292390">
  <g transform="translate(1.7624,17.0018)">
   <g id="copper0" flipped="1">
    <g transform="matrix(-1, 0, 0, 1, 7.776, 0)">
     <g>
      <g>
       <g>
        <circle stroke-width="1.8" cx="3.888" cy="7.992" fill="white" id="connector0pad" connectorname="1" stroke="white" r="2.124"/>
        <path stroke-width="0.72" d="m3.888,0a2.664,2.664,0,0,1,2.664,2.664l0,5.328a2.664,2.664,0,0,1,-2.664,2.664l0,0a2.664,2.664,0,0,1,-2.664,-2.664l0,-5.328a2.664,2.664,0,0,1,2.664,-2.664l0,0zM2.304,7.992a1.584,1.584,0,1,0,3.168,0,1.584,1.584,0,1,0,-3.168,0z" fill="white" stroke="white"/>
        <g id="copper0">
         <circle stroke-width="1.8" cx="3.888" cy="7.992" fill="white" id="connector0pad" connectorname="1" stroke="white" r="2.124"/>
         <path stroke-width="0.72" d="m3.888,0a2.664,2.664,0,0,1,2.664,2.664l0,5.328a2.664,2.664,0,0,1,-2.664,2.664l0,0a2.664,2.664,0,0,1,-2.664,-2.664l0,-5.328a2.664,2.664,0,0,1,2.664,-2.664l0,0zM2.304,7.992a1.584,1.584,0,1,0,3.168,0,1.584,1.584,0,1,0,-3.168,0z" fill="white" stroke="white"/>
        </g>
       </g>
       <g>
        <circle stroke-width="1.8" cx="3.888" cy="7.992" fill="white" id="connector0pad" connectorname="1" stroke="white" r="2.124"/>
        <path stroke-width="0.72" d="m3.888,0a2.664,2.664,0,0,1,2.664,2.664l0,5.328a2.664,2.664,0,0,1,-2.664,2.664l0,0a2.664,2.664,0,0,1,-2.664,-2.664l0,-5.328a2.664,2.664,0,0,1,2.664,-2.664l0,0zM2.304,7.992a1.584,1.584,0,1,0,3.168,0,1.584,1.584,0,1,0,-3.168,0z" fill="white" stroke="white"/>
       </g>
      </g>
     </g>
    </g>
   </g>
  </g>
 </g>
 <g partID="292080">
  <g transform="translate(95.3624,60.2018)">
   <g id="copper0" flipped="1">
    <g transform="matrix(-1, 0, 0, 1, 7.776, 0)">
     <g>
      <g>
       <g>
        <circle stroke-width="1.8" cx="3.888" cy="7.992" fill="white" id="connector0pad" connectorname="1" stroke="white" r="2.124"/>
        <path stroke-width="0.72" d="m3.888,0a2.664,2.664,0,0,1,2.664,2.664l0,5.328a2.664,2.664,0,0,1,-2.664,2.664l0,0a2.664,2.664,0,0,1,-2.664,-2.664l0,-5.328a2.664,2.664,0,0,1,2.664,-2.664l0,0zM2.304,7.992a1.584,1.584,0,1,0,3.168,0,1.584,1.584,0,1,0,-3.168,0z" fill="white" stroke="white"/>
        <g id="copper0">
         <circle stroke-width="1.8" cx="3.888" cy="7.992" fill="white" id="connector0pad" connectorname="1" stroke="white" r="2.124"/>
         <path stroke-width="0.72" d="m3.888,0a2.664,2.664,0,0,1,2.664,2.664l0,5.328a2.664,2.664,0,0,1,-2.664,2.664l0,0a2.664,2.664,0,0,1,-2.664,-2.664l0,-5.328a2.664,2.664,0,0,1,2.664,-2.664l0,0zM2.304,7.992a1.584,1.584,0,1,0,3.168,0,1.584,1.584,0,1,0,-3.168,0z" fill="white" stroke="white"/>
        </g>
       </g>
       <g>
        <circle stroke-width="1.8" cx="3.888" cy="7.992" fill="white" id="connector0pad" connectorname="1" stroke="white" r="2.124"/>
        <path stroke-width="0.72" d="m3.888,0a2.664,2.664,0,0,1,2.664,2.664l0,5.328a2.664,2.664,0,0,1,-2.664,2.664l0,0a2.664,2.664,0,0,1,-2.664,-2.664l0,-5.328a2.664,2.664,0,0,1,2.664,-2.664l0,0zM2.304,7.992a1.584,1.584,0,1,0,3.168,0,1.584,1.584,0,1,0,-3.168,0z" fill="white" stroke="white"/>
       </g>
      </g>
     </g>
    </g>
   </g>
  </g>
 </g>
 <g partID="291810">
  <g transform="translate(59.3624,2.60176)">
   <g id="copper0" flipped="1">
    <g transform="matrix(-1, 0, 0, 1, 7.776, 0)">
     <g>
      <g>
       <g>
        <circle stroke-width="1.8" cx="3.888" cy="7.992" fill="white" id="connector0pad" connectorname="1" stroke="white" r="2.124"/>
        <path stroke-width="0.72" d="m3.888,0a2.664,2.664,0,0,1,2.664,2.664l0,5.328a2.664,2.664,0,0,1,-2.664,2.664l0,0a2.664,2.664,0,0,1,-2.664,-2.664l0,-5.328a2.664,2.664,0,0,1,2.664,-2.664l0,0zM2.304,7.992a1.584,1.584,0,1,0,3.168,0,1.584,1.584,0,1,0,-3.168,0z" fill="white" stroke="white"/>
        <g id="copper0">
         <circle stroke-width="1.8" cx="3.888" cy="7.992" fill="white" id="connector0pad" connectorname="1" stroke="white" r="2.124"/>
         <path stroke-width="0.72" d="m3.888,0a2.664,2.664,0,0,1,2.664,2.664l0,5.328a2.664,2.664,0,0,1,-2.664,2.664l0,0a2.664,2.664,0,0,1,-2.664,-2.664l0,-5.328a2.664,2.664,0,0,1,2.664,-2.664l0,0zM2.304,7.992a1.584,1.584,0,1,0,3.168,0,1.584,1.584,0,1,0,-3.168,0z" fill="white" stroke="white"/>
        </g>
       </g>
       <g>
        <circle stroke-width="1.8" cx="3.888" cy="7.992" fill="white" id="connector0pad" connectorname="1" stroke="white" r="2.124"/>
        <path stroke-width="0.72" d="m3.888,0a2.664,2.664,0,0,1,2.664,2.664l0,5.328a2.664,2.664,0,0,1,-2.664,2.664l0,0a2.664,2.664,0,0,1,-2.664,-2.664l0,-5.328a2.664,2.664,0,0,1,2.664,-2.664l0,0zM2.304,7.992a1.584,1.584,0,1,0,3.168,0,1.584,1.584,0,1,0,-3.168,0z" fill="white" stroke="white"/>
       </g>
      </g>
     </g>
    </g>
   </g>
  </g>
 </g>
 <g partID="327060">
  <g transform="translate(61.0904,58.8338)">
   <g transform="matrix(-1,0,0,-1,0,0)">
    <g id="copper0">
     <circle stroke-width="2.16" cx="5.04" cy="5.04" fill="white" id="connector0pin" stroke="white" r="2.088"/>
     <circle stroke-width="2.16" cx="5.04" cy="12.24" fill="white" id="connector1pin" stroke="white" r="2.088"/>
    </g>
   </g>
  </g>
 </g>
 <g partID="324940">
  <g transform="translate(51.0104,27.1538)">
   <g id="copper0">
    <circle stroke-width="2.16" cx="5.04" cy="5.04" fill="white" id="connector0pin" stroke="white" r="2.088"/>
    <circle stroke-width="2.16" cx="5.04" cy="12.24" fill="white" id="connector1pin" stroke="white" r="2.088"/>
   </g>
  </g>
 </g>
 <g partID="62710">
  <g transform="translate(132.154,56.4938)">
   <g transform="matrix(0,-1,1,0,0,0)">
    <g id="copper0">
     <g id="copper1">
      <!-- <rect width="55" x="10" y="15.5" fill="none" height="55" stroke="rgb(255, 191, 0)" stroke-width="20" />  -->
      <circle stroke-width="2.16" cx="2.7" fill="white" cy="3.096" id="connector0pin" stroke="white" r="1.98"/>
      <circle stroke-width="2.16" cx="31.5" fill="white" cy="3.096" id="connector1pin" stroke="white" r="1.98"/>
     </g>
    </g>
   </g>
  </g>
 </g>
 <g partID="62390">
  <g transform="translate(109.15,49.6898)">
   <g transform="matrix(-1,0,0,-1,0,0)">
    <g id="copper0">
     <g id="copper1">
      <!-- <rect width="55" x="10" y="15.5" fill="none" height="55" stroke="rgb(255, 191, 0)" stroke-width="20" />  -->
      <circle stroke-width="2.16" cx="2.7" fill="white" cy="3.096" id="connector0pin" stroke="white" r="1.98"/>
      <circle stroke-width="2.16" cx="31.5" fill="white" cy="3.096" id="connector1pin" stroke="white" r="1.98"/>
     </g>
    </g>
   </g>
  </g>
 </g>
 <g partID="60080">
  <g transform="translate(10.1504,29.0978)">
   <g id="copper0">
    <g id="copper1">
     <!-- <rect width="55" x="10" y="15.5" fill="none" height="55" stroke="rgb(255, 191, 0)" stroke-width="20" />  -->
     <circle stroke-width="2.16" cx="2.7" fill="white" cy="3.096" id="connector0pin" stroke="white" r="1.98"/>
     <circle stroke-width="2.16" cx="31.5" fill="white" cy="3.096" id="connector1pin" stroke="white" r="1.98"/>
    </g>
   </g>
  </g>
 </g>
 <g partID="61720">
  <g transform="translate(124.954,56.4938)">
   <g transform="matrix(0,-1,1,0,0,0)">
    <g id="copper0">
     <g id="copper1">
      <!-- <rect width="55" x="10" y="15.5" fill="none" height="55" stroke="rgb(255, 191, 0)" stroke-width="20" />  -->
      <circle stroke-width="2.16" cx="2.7" fill="white" cy="3.096" id="connector0pin" stroke="white" r="1.98"/>
      <circle stroke-width="2.16" cx="31.5" fill="white" cy="3.096" id="connector1pin" stroke="white" r="1.98"/>
     </g>
    </g>
   </g>
  </g>
 </g>
 <g partID="61090">
  <g transform="translate(89.3504,50.6978)">
   <g id="copper0">
    <g id="copper1">
     <!-- <rect width="55" x="10" y="15.5" fill="none" height="55" stroke="rgb(255, 191, 0)" stroke-width="20" />  -->
     <circle stroke-width="2.16" cx="2.7" fill="white" cy="3.096" id="connector0pin" stroke="white" r="1.98"/>
     <circle stroke-width="2.16" cx="31.5" fill="white" cy="3.096" id="connector1pin" stroke="white" r="1.98"/>
    </g>
   </g>
  </g>
 </g>
 <g partID="60130">
  <g transform="translate(51.9464,7.89376)">
   <g transform="matrix(0,1,-1,0,0,0)">
    <g id="copper0">
     <g id="copper1">
      <!-- <rect width="55" x="10" y="15.5" fill="none" height="55" stroke="rgb(255, 191, 0)" stroke-width="20" />  -->
      <circle stroke-width="2.16" cx="2.7" fill="white" cy="3.096" id="connector0pin" stroke="white" r="1.98"/>
      <circle stroke-width="2.16" cx="31.5" fill="white" cy="3.096" id="connector1pin" stroke="white" r="1.98"/>
     </g>
    </g>
   </g>
  </g>
 </g>
 <g partID="60250">
  <g transform="translate(43.0904,32.1938)">
   <g transform="matrix(-1,0,0,-1,0,0)">
    <g id="copper0">
     <rect stroke-width="2.16" fill="white" stroke="white" width="4.464" x="6.408" height="4.464" y="12.168"/>
     <circle stroke-width="2.16" cx="8.64" cy="14.4" fill="white" id="connector0pad" stroke="white" r="2.232"/>
     <circle stroke-width="2.16" cx="15.84" cy="14.4" fill="white" id="connector1pad" stroke="white" r="2.232"/>
     <circle stroke-width="2.16" cx="23.04" cy="14.4" fill="white" id="connector2pad" stroke="white" r="2.232"/>
    </g>
   </g>
  </g>
 </g>
 <g partID="62070">
  <g transform="translate(105.442,50.1938)">
   <g transform="matrix(0,-1,1,0,0,0)">
    <g id="copper0">
     <circle stroke-width="2.16" cx="3.6" cy="8.208" fill="white" id="connector0pin" stroke="white" r="1.98"/>
     <circle stroke-width="2.16" cx="10.8" cy="8.208" fill="white" id="connector1pin" stroke="white" r="1.98"/>
     <circle stroke-width="2.16" cx="18" cy="8.208" fill="white" id="connector2pin" stroke="white" r="1.98"/>
    </g>
   </g>
  </g>
 </g>
 <g partID="60990">
  <g transform="translate(91.0424,28.5938)">
   <g transform="matrix(0,-1,1,0,0,0)">
    <g id="copper0">
     <circle stroke-width="2.16" cx="3.6" cy="8.208" fill="white" id="connector0pin" stroke="white" r="1.98"/>
     <circle stroke-width="2.16" cx="10.8" cy="8.208" fill="white" id="connector1pin" stroke="white" r="1.98"/>
     <circle stroke-width="2.16" cx="18" cy="8.208" fill="white" id="connector2pin" stroke="white" r="1.98"/>
    </g>
   </g>
  </g>
 </g>
</svg>
