G04 MADE WITH FRITZING*
G04 WWW.FRITZING.ORG*
G04 SINGLE SIDED*
G04 HOLES NOT PLATED*
G04 CONTOUR ON CENTER OF CONTOUR VECTOR*
%ASAXBY*%
%FSLAX23Y23*%
%MOIN*%
%OFA0B0*%
%SFA1.0B1.0*%
%ADD10C,0.010000*%
%ADD11C,0.005000*%
%ADD12R,0.001000X0.001000*%
%LNSILK0*%
G90*
G70*
G54D10*
X1658Y937D02*
X1658Y1037D01*
D02*
X1658Y1037D02*
X1758Y1037D01*
D02*
X1758Y1037D02*
X1758Y937D01*
D02*
X1758Y937D02*
X1658Y937D01*
G54D11*
D02*
X1658Y972D02*
X1693Y937D01*
G54D10*
D02*
X1658Y737D02*
X1658Y837D01*
D02*
X1658Y837D02*
X1758Y837D01*
D02*
X1758Y837D02*
X1758Y737D01*
D02*
X1758Y737D02*
X1658Y737D01*
G54D11*
D02*
X1658Y772D02*
X1693Y737D01*
G54D10*
D02*
X58Y337D02*
X58Y437D01*
D02*
X58Y437D02*
X158Y437D01*
D02*
X158Y437D02*
X158Y337D01*
D02*
X158Y337D02*
X58Y337D01*
D02*
X58Y237D02*
X58Y337D01*
D02*
X58Y337D02*
X158Y337D01*
D02*
X158Y337D02*
X158Y237D01*
D02*
X158Y237D02*
X58Y237D01*
D02*
X1658Y837D02*
X1658Y937D01*
D02*
X1658Y937D02*
X1758Y937D01*
D02*
X1758Y937D02*
X1758Y837D01*
D02*
X1758Y837D02*
X1658Y837D01*
G54D11*
D02*
X1658Y872D02*
X1693Y837D01*
G54D10*
D02*
X658Y937D02*
X558Y937D01*
G54D11*
D02*
X558Y972D02*
X593Y937D01*
G54D10*
D02*
X1358Y837D02*
X1258Y837D01*
G54D11*
D02*
X1258Y872D02*
X1293Y837D01*
G54D12*
X1Y1196D02*
X1821Y1196D01*
X1Y1195D02*
X1821Y1195D01*
X1Y1194D02*
X1821Y1194D01*
X1Y1193D02*
X1821Y1193D01*
X1Y1192D02*
X1821Y1192D01*
X1Y1191D02*
X1821Y1191D01*
X1Y1190D02*
X1821Y1190D01*
X1Y1189D02*
X1821Y1189D01*
X1Y1188D02*
X8Y1188D01*
X1814Y1188D02*
X1821Y1188D01*
X1Y1187D02*
X8Y1187D01*
X1814Y1187D02*
X1821Y1187D01*
X1Y1186D02*
X8Y1186D01*
X1814Y1186D02*
X1821Y1186D01*
X1Y1185D02*
X8Y1185D01*
X1814Y1185D02*
X1821Y1185D01*
X1Y1184D02*
X8Y1184D01*
X1814Y1184D02*
X1821Y1184D01*
X1Y1183D02*
X8Y1183D01*
X1814Y1183D02*
X1821Y1183D01*
X1Y1182D02*
X8Y1182D01*
X1814Y1182D02*
X1821Y1182D01*
X1Y1181D02*
X8Y1181D01*
X1814Y1181D02*
X1821Y1181D01*
X1Y1180D02*
X8Y1180D01*
X1814Y1180D02*
X1821Y1180D01*
X1Y1179D02*
X8Y1179D01*
X1814Y1179D02*
X1821Y1179D01*
X1Y1178D02*
X8Y1178D01*
X1814Y1178D02*
X1821Y1178D01*
X1Y1177D02*
X8Y1177D01*
X1814Y1177D02*
X1821Y1177D01*
X1Y1176D02*
X8Y1176D01*
X1814Y1176D02*
X1821Y1176D01*
X1Y1175D02*
X8Y1175D01*
X1814Y1175D02*
X1821Y1175D01*
X1Y1174D02*
X8Y1174D01*
X1814Y1174D02*
X1821Y1174D01*
X1Y1173D02*
X8Y1173D01*
X1814Y1173D02*
X1821Y1173D01*
X1Y1172D02*
X8Y1172D01*
X1814Y1172D02*
X1821Y1172D01*
X1Y1171D02*
X8Y1171D01*
X1814Y1171D02*
X1821Y1171D01*
X1Y1170D02*
X8Y1170D01*
X1814Y1170D02*
X1821Y1170D01*
X1Y1169D02*
X8Y1169D01*
X1814Y1169D02*
X1821Y1169D01*
X1Y1168D02*
X8Y1168D01*
X1814Y1168D02*
X1821Y1168D01*
X1Y1167D02*
X8Y1167D01*
X1814Y1167D02*
X1821Y1167D01*
X1Y1166D02*
X8Y1166D01*
X1814Y1166D02*
X1821Y1166D01*
X1Y1165D02*
X8Y1165D01*
X1814Y1165D02*
X1821Y1165D01*
X1Y1164D02*
X8Y1164D01*
X1814Y1164D02*
X1821Y1164D01*
X1Y1163D02*
X8Y1163D01*
X1814Y1163D02*
X1821Y1163D01*
X1Y1162D02*
X8Y1162D01*
X1814Y1162D02*
X1821Y1162D01*
X1Y1161D02*
X8Y1161D01*
X1814Y1161D02*
X1821Y1161D01*
X1Y1160D02*
X8Y1160D01*
X1814Y1160D02*
X1821Y1160D01*
X1Y1159D02*
X8Y1159D01*
X1814Y1159D02*
X1821Y1159D01*
X1Y1158D02*
X8Y1158D01*
X1814Y1158D02*
X1821Y1158D01*
X1Y1157D02*
X8Y1157D01*
X1814Y1157D02*
X1821Y1157D01*
X1Y1156D02*
X8Y1156D01*
X1814Y1156D02*
X1821Y1156D01*
X1Y1155D02*
X8Y1155D01*
X1814Y1155D02*
X1821Y1155D01*
X1Y1154D02*
X8Y1154D01*
X1814Y1154D02*
X1821Y1154D01*
X1Y1153D02*
X8Y1153D01*
X1814Y1153D02*
X1821Y1153D01*
X1Y1152D02*
X8Y1152D01*
X1814Y1152D02*
X1821Y1152D01*
X1Y1151D02*
X8Y1151D01*
X1814Y1151D02*
X1821Y1151D01*
X1Y1150D02*
X8Y1150D01*
X1814Y1150D02*
X1821Y1150D01*
X1Y1149D02*
X8Y1149D01*
X1814Y1149D02*
X1821Y1149D01*
X1Y1148D02*
X8Y1148D01*
X1814Y1148D02*
X1821Y1148D01*
X1Y1147D02*
X8Y1147D01*
X1814Y1147D02*
X1821Y1147D01*
X1Y1146D02*
X8Y1146D01*
X1814Y1146D02*
X1821Y1146D01*
X1Y1145D02*
X8Y1145D01*
X1814Y1145D02*
X1821Y1145D01*
X1Y1144D02*
X8Y1144D01*
X1814Y1144D02*
X1821Y1144D01*
X1Y1143D02*
X8Y1143D01*
X1814Y1143D02*
X1821Y1143D01*
X1Y1142D02*
X8Y1142D01*
X559Y1142D02*
X575Y1142D01*
X641Y1142D02*
X657Y1142D01*
X1814Y1142D02*
X1821Y1142D01*
X1Y1141D02*
X8Y1141D01*
X559Y1141D02*
X573Y1141D01*
X643Y1141D02*
X658Y1141D01*
X1814Y1141D02*
X1821Y1141D01*
X1Y1140D02*
X8Y1140D01*
X559Y1140D02*
X572Y1140D01*
X645Y1140D02*
X658Y1140D01*
X1814Y1140D02*
X1821Y1140D01*
X1Y1139D02*
X8Y1139D01*
X559Y1139D02*
X570Y1139D01*
X646Y1139D02*
X658Y1139D01*
X1814Y1139D02*
X1821Y1139D01*
X1Y1138D02*
X8Y1138D01*
X559Y1138D02*
X569Y1138D01*
X647Y1138D02*
X658Y1138D01*
X1814Y1138D02*
X1821Y1138D01*
X1Y1137D02*
X8Y1137D01*
X554Y1137D02*
X568Y1137D01*
X649Y1137D02*
X662Y1137D01*
X1814Y1137D02*
X1821Y1137D01*
X1Y1136D02*
X8Y1136D01*
X554Y1136D02*
X566Y1136D01*
X650Y1136D02*
X663Y1136D01*
X1814Y1136D02*
X1821Y1136D01*
X1Y1135D02*
X8Y1135D01*
X554Y1135D02*
X565Y1135D01*
X651Y1135D02*
X663Y1135D01*
X1814Y1135D02*
X1821Y1135D01*
X1Y1134D02*
X8Y1134D01*
X554Y1134D02*
X564Y1134D01*
X652Y1134D02*
X663Y1134D01*
X1814Y1134D02*
X1821Y1134D01*
X1Y1133D02*
X8Y1133D01*
X554Y1133D02*
X563Y1133D01*
X653Y1133D02*
X663Y1133D01*
X1814Y1133D02*
X1821Y1133D01*
X1Y1132D02*
X8Y1132D01*
X554Y1132D02*
X562Y1132D01*
X654Y1132D02*
X663Y1132D01*
X1814Y1132D02*
X1821Y1132D01*
X1Y1131D02*
X8Y1131D01*
X554Y1131D02*
X561Y1131D01*
X655Y1131D02*
X663Y1131D01*
X1814Y1131D02*
X1821Y1131D01*
X1Y1130D02*
X8Y1130D01*
X554Y1130D02*
X560Y1130D01*
X656Y1130D02*
X663Y1130D01*
X1814Y1130D02*
X1821Y1130D01*
X1Y1129D02*
X8Y1129D01*
X554Y1129D02*
X559Y1129D01*
X657Y1129D02*
X663Y1129D01*
X1814Y1129D02*
X1821Y1129D01*
X1Y1128D02*
X8Y1128D01*
X554Y1128D02*
X558Y1128D01*
X658Y1128D02*
X663Y1128D01*
X1814Y1128D02*
X1821Y1128D01*
X1Y1127D02*
X8Y1127D01*
X554Y1127D02*
X558Y1127D01*
X659Y1127D02*
X663Y1127D01*
X1814Y1127D02*
X1821Y1127D01*
X1Y1126D02*
X8Y1126D01*
X554Y1126D02*
X557Y1126D01*
X659Y1126D02*
X663Y1126D01*
X1814Y1126D02*
X1821Y1126D01*
X1Y1125D02*
X8Y1125D01*
X554Y1125D02*
X556Y1125D01*
X660Y1125D02*
X663Y1125D01*
X1814Y1125D02*
X1821Y1125D01*
X1Y1124D02*
X8Y1124D01*
X554Y1124D02*
X555Y1124D01*
X661Y1124D02*
X663Y1124D01*
X1814Y1124D02*
X1821Y1124D01*
X1Y1123D02*
X8Y1123D01*
X554Y1123D02*
X555Y1123D01*
X662Y1123D02*
X663Y1123D01*
X1814Y1123D02*
X1821Y1123D01*
X1Y1122D02*
X8Y1122D01*
X554Y1122D02*
X554Y1122D01*
X662Y1122D02*
X663Y1122D01*
X1814Y1122D02*
X1821Y1122D01*
X1Y1121D02*
X8Y1121D01*
X663Y1121D02*
X663Y1121D01*
X1814Y1121D02*
X1821Y1121D01*
X1Y1120D02*
X8Y1120D01*
X663Y1120D02*
X663Y1120D01*
X1814Y1120D02*
X1821Y1120D01*
X1Y1119D02*
X8Y1119D01*
X1814Y1119D02*
X1821Y1119D01*
X1Y1118D02*
X8Y1118D01*
X1814Y1118D02*
X1821Y1118D01*
X1Y1117D02*
X8Y1117D01*
X1814Y1117D02*
X1821Y1117D01*
X1Y1116D02*
X8Y1116D01*
X1814Y1116D02*
X1821Y1116D01*
X1Y1115D02*
X8Y1115D01*
X1814Y1115D02*
X1821Y1115D01*
X1Y1114D02*
X8Y1114D01*
X1814Y1114D02*
X1821Y1114D01*
X1Y1113D02*
X8Y1113D01*
X1814Y1113D02*
X1821Y1113D01*
X1Y1112D02*
X8Y1112D01*
X1814Y1112D02*
X1821Y1112D01*
X1Y1111D02*
X8Y1111D01*
X1814Y1111D02*
X1821Y1111D01*
X1Y1110D02*
X8Y1110D01*
X1814Y1110D02*
X1821Y1110D01*
X1Y1109D02*
X8Y1109D01*
X1814Y1109D02*
X1821Y1109D01*
X1Y1108D02*
X8Y1108D01*
X1814Y1108D02*
X1821Y1108D01*
X1Y1107D02*
X8Y1107D01*
X1814Y1107D02*
X1821Y1107D01*
X1Y1106D02*
X8Y1106D01*
X1814Y1106D02*
X1821Y1106D01*
X1Y1105D02*
X8Y1105D01*
X1814Y1105D02*
X1821Y1105D01*
X1Y1104D02*
X8Y1104D01*
X1814Y1104D02*
X1821Y1104D01*
X1Y1103D02*
X8Y1103D01*
X1814Y1103D02*
X1821Y1103D01*
X1Y1102D02*
X8Y1102D01*
X1814Y1102D02*
X1821Y1102D01*
X1Y1101D02*
X8Y1101D01*
X1814Y1101D02*
X1821Y1101D01*
X1Y1100D02*
X8Y1100D01*
X1814Y1100D02*
X1821Y1100D01*
X1Y1099D02*
X8Y1099D01*
X1814Y1099D02*
X1821Y1099D01*
X1Y1098D02*
X8Y1098D01*
X1814Y1098D02*
X1821Y1098D01*
X1Y1097D02*
X8Y1097D01*
X1814Y1097D02*
X1821Y1097D01*
X1Y1096D02*
X8Y1096D01*
X1814Y1096D02*
X1821Y1096D01*
X1Y1095D02*
X8Y1095D01*
X1814Y1095D02*
X1821Y1095D01*
X1Y1094D02*
X8Y1094D01*
X1814Y1094D02*
X1821Y1094D01*
X1Y1093D02*
X8Y1093D01*
X1814Y1093D02*
X1821Y1093D01*
X1Y1092D02*
X8Y1092D01*
X1814Y1092D02*
X1821Y1092D01*
X1Y1091D02*
X8Y1091D01*
X1814Y1091D02*
X1821Y1091D01*
X1Y1090D02*
X8Y1090D01*
X1814Y1090D02*
X1821Y1090D01*
X1Y1089D02*
X8Y1089D01*
X1814Y1089D02*
X1821Y1089D01*
X1Y1088D02*
X8Y1088D01*
X1814Y1088D02*
X1821Y1088D01*
X1Y1087D02*
X8Y1087D01*
X1814Y1087D02*
X1821Y1087D01*
X1Y1086D02*
X8Y1086D01*
X1814Y1086D02*
X1821Y1086D01*
X1Y1085D02*
X8Y1085D01*
X1814Y1085D02*
X1821Y1085D01*
X1Y1084D02*
X8Y1084D01*
X1814Y1084D02*
X1821Y1084D01*
X1Y1083D02*
X8Y1083D01*
X1814Y1083D02*
X1821Y1083D01*
X1Y1082D02*
X8Y1082D01*
X1814Y1082D02*
X1821Y1082D01*
X1Y1081D02*
X8Y1081D01*
X1814Y1081D02*
X1821Y1081D01*
X1Y1080D02*
X8Y1080D01*
X1814Y1080D02*
X1821Y1080D01*
X1Y1079D02*
X8Y1079D01*
X1814Y1079D02*
X1821Y1079D01*
X1Y1078D02*
X8Y1078D01*
X1814Y1078D02*
X1821Y1078D01*
X1Y1077D02*
X8Y1077D01*
X1814Y1077D02*
X1821Y1077D01*
X1Y1076D02*
X8Y1076D01*
X1814Y1076D02*
X1821Y1076D01*
X1Y1075D02*
X8Y1075D01*
X1814Y1075D02*
X1821Y1075D01*
X1Y1074D02*
X8Y1074D01*
X1814Y1074D02*
X1821Y1074D01*
X1Y1073D02*
X8Y1073D01*
X1814Y1073D02*
X1821Y1073D01*
X1Y1072D02*
X8Y1072D01*
X1814Y1072D02*
X1821Y1072D01*
X1Y1071D02*
X8Y1071D01*
X1814Y1071D02*
X1821Y1071D01*
X1Y1070D02*
X8Y1070D01*
X1814Y1070D02*
X1821Y1070D01*
X1Y1069D02*
X8Y1069D01*
X1814Y1069D02*
X1821Y1069D01*
X1Y1068D02*
X8Y1068D01*
X1814Y1068D02*
X1821Y1068D01*
X1Y1067D02*
X8Y1067D01*
X1814Y1067D02*
X1821Y1067D01*
X1Y1066D02*
X8Y1066D01*
X1814Y1066D02*
X1821Y1066D01*
X1Y1065D02*
X8Y1065D01*
X1814Y1065D02*
X1821Y1065D01*
X1Y1064D02*
X8Y1064D01*
X1814Y1064D02*
X1821Y1064D01*
X1Y1063D02*
X8Y1063D01*
X1814Y1063D02*
X1821Y1063D01*
X1Y1062D02*
X8Y1062D01*
X1814Y1062D02*
X1821Y1062D01*
X1Y1061D02*
X8Y1061D01*
X1814Y1061D02*
X1821Y1061D01*
X1Y1060D02*
X8Y1060D01*
X1814Y1060D02*
X1821Y1060D01*
X1Y1059D02*
X8Y1059D01*
X1814Y1059D02*
X1821Y1059D01*
X1Y1058D02*
X8Y1058D01*
X1814Y1058D02*
X1821Y1058D01*
X1Y1057D02*
X8Y1057D01*
X1814Y1057D02*
X1821Y1057D01*
X1Y1056D02*
X8Y1056D01*
X1814Y1056D02*
X1821Y1056D01*
X1Y1055D02*
X8Y1055D01*
X1814Y1055D02*
X1821Y1055D01*
X1Y1054D02*
X8Y1054D01*
X663Y1054D02*
X663Y1054D01*
X1814Y1054D02*
X1821Y1054D01*
X1Y1053D02*
X8Y1053D01*
X554Y1053D02*
X554Y1053D01*
X663Y1053D02*
X663Y1053D01*
X1814Y1053D02*
X1821Y1053D01*
X1Y1052D02*
X8Y1052D01*
X554Y1052D02*
X554Y1052D01*
X662Y1052D02*
X663Y1052D01*
X1814Y1052D02*
X1821Y1052D01*
X1Y1051D02*
X8Y1051D01*
X554Y1051D02*
X555Y1051D01*
X661Y1051D02*
X663Y1051D01*
X1814Y1051D02*
X1821Y1051D01*
X1Y1050D02*
X8Y1050D01*
X554Y1050D02*
X556Y1050D01*
X661Y1050D02*
X663Y1050D01*
X1814Y1050D02*
X1821Y1050D01*
X1Y1049D02*
X8Y1049D01*
X554Y1049D02*
X556Y1049D01*
X660Y1049D02*
X663Y1049D01*
X1814Y1049D02*
X1821Y1049D01*
X1Y1048D02*
X8Y1048D01*
X554Y1048D02*
X557Y1048D01*
X659Y1048D02*
X663Y1048D01*
X1814Y1048D02*
X1821Y1048D01*
X1Y1047D02*
X8Y1047D01*
X554Y1047D02*
X558Y1047D01*
X658Y1047D02*
X663Y1047D01*
X1814Y1047D02*
X1821Y1047D01*
X1Y1046D02*
X8Y1046D01*
X554Y1046D02*
X559Y1046D01*
X658Y1046D02*
X663Y1046D01*
X1814Y1046D02*
X1821Y1046D01*
X1Y1045D02*
X8Y1045D01*
X554Y1045D02*
X560Y1045D01*
X657Y1045D02*
X663Y1045D01*
X1814Y1045D02*
X1821Y1045D01*
X1Y1044D02*
X8Y1044D01*
X554Y1044D02*
X560Y1044D01*
X656Y1044D02*
X663Y1044D01*
X1814Y1044D02*
X1821Y1044D01*
X1Y1043D02*
X8Y1043D01*
X554Y1043D02*
X561Y1043D01*
X655Y1043D02*
X663Y1043D01*
X1814Y1043D02*
X1821Y1043D01*
X1Y1042D02*
X8Y1042D01*
X554Y1042D02*
X562Y1042D01*
X654Y1042D02*
X663Y1042D01*
X1814Y1042D02*
X1821Y1042D01*
X1Y1041D02*
X8Y1041D01*
X554Y1041D02*
X563Y1041D01*
X653Y1041D02*
X663Y1041D01*
X1814Y1041D02*
X1821Y1041D01*
X1Y1040D02*
X8Y1040D01*
X554Y1040D02*
X564Y1040D01*
X652Y1040D02*
X663Y1040D01*
X1814Y1040D02*
X1821Y1040D01*
X1Y1039D02*
X8Y1039D01*
X554Y1039D02*
X566Y1039D01*
X651Y1039D02*
X663Y1039D01*
X1814Y1039D02*
X1821Y1039D01*
X1Y1038D02*
X8Y1038D01*
X554Y1038D02*
X567Y1038D01*
X650Y1038D02*
X663Y1038D01*
X1814Y1038D02*
X1821Y1038D01*
X1Y1037D02*
X8Y1037D01*
X554Y1037D02*
X568Y1037D01*
X648Y1037D02*
X662Y1037D01*
X1814Y1037D02*
X1821Y1037D01*
X1Y1036D02*
X8Y1036D01*
X554Y1036D02*
X569Y1036D01*
X647Y1036D02*
X663Y1036D01*
X1814Y1036D02*
X1821Y1036D01*
X1Y1035D02*
X8Y1035D01*
X554Y1035D02*
X571Y1035D01*
X645Y1035D02*
X663Y1035D01*
X1814Y1035D02*
X1821Y1035D01*
X1Y1034D02*
X8Y1034D01*
X554Y1034D02*
X572Y1034D01*
X644Y1034D02*
X663Y1034D01*
X1814Y1034D02*
X1821Y1034D01*
X1Y1033D02*
X8Y1033D01*
X554Y1033D02*
X574Y1033D01*
X642Y1033D02*
X663Y1033D01*
X1814Y1033D02*
X1821Y1033D01*
X1Y1032D02*
X8Y1032D01*
X554Y1032D02*
X563Y1032D01*
X654Y1032D02*
X663Y1032D01*
X1814Y1032D02*
X1821Y1032D01*
X1Y1031D02*
X8Y1031D01*
X554Y1031D02*
X563Y1031D01*
X654Y1031D02*
X663Y1031D01*
X1814Y1031D02*
X1821Y1031D01*
X1Y1030D02*
X8Y1030D01*
X554Y1030D02*
X563Y1030D01*
X654Y1030D02*
X663Y1030D01*
X1814Y1030D02*
X1821Y1030D01*
X1Y1029D02*
X8Y1029D01*
X554Y1029D02*
X563Y1029D01*
X654Y1029D02*
X663Y1029D01*
X1814Y1029D02*
X1821Y1029D01*
X1Y1028D02*
X8Y1028D01*
X554Y1028D02*
X563Y1028D01*
X654Y1028D02*
X663Y1028D01*
X1814Y1028D02*
X1821Y1028D01*
X1Y1027D02*
X8Y1027D01*
X554Y1027D02*
X563Y1027D01*
X654Y1027D02*
X663Y1027D01*
X1814Y1027D02*
X1821Y1027D01*
X1Y1026D02*
X8Y1026D01*
X554Y1026D02*
X563Y1026D01*
X654Y1026D02*
X663Y1026D01*
X1814Y1026D02*
X1821Y1026D01*
X1Y1025D02*
X8Y1025D01*
X554Y1025D02*
X563Y1025D01*
X654Y1025D02*
X663Y1025D01*
X1814Y1025D02*
X1821Y1025D01*
X1Y1024D02*
X8Y1024D01*
X554Y1024D02*
X563Y1024D01*
X654Y1024D02*
X663Y1024D01*
X1814Y1024D02*
X1821Y1024D01*
X1Y1023D02*
X8Y1023D01*
X554Y1023D02*
X563Y1023D01*
X654Y1023D02*
X663Y1023D01*
X1814Y1023D02*
X1821Y1023D01*
X1Y1022D02*
X8Y1022D01*
X554Y1022D02*
X563Y1022D01*
X654Y1022D02*
X663Y1022D01*
X1814Y1022D02*
X1821Y1022D01*
X1Y1021D02*
X8Y1021D01*
X554Y1021D02*
X563Y1021D01*
X654Y1021D02*
X663Y1021D01*
X1814Y1021D02*
X1821Y1021D01*
X1Y1020D02*
X8Y1020D01*
X554Y1020D02*
X563Y1020D01*
X654Y1020D02*
X663Y1020D01*
X1814Y1020D02*
X1821Y1020D01*
X1Y1019D02*
X8Y1019D01*
X554Y1019D02*
X563Y1019D01*
X654Y1019D02*
X663Y1019D01*
X1814Y1019D02*
X1821Y1019D01*
X1Y1018D02*
X8Y1018D01*
X554Y1018D02*
X563Y1018D01*
X654Y1018D02*
X663Y1018D01*
X1814Y1018D02*
X1821Y1018D01*
X1Y1017D02*
X8Y1017D01*
X554Y1017D02*
X563Y1017D01*
X654Y1017D02*
X663Y1017D01*
X1814Y1017D02*
X1821Y1017D01*
X1Y1016D02*
X8Y1016D01*
X554Y1016D02*
X563Y1016D01*
X654Y1016D02*
X663Y1016D01*
X1814Y1016D02*
X1821Y1016D01*
X1Y1015D02*
X8Y1015D01*
X554Y1015D02*
X563Y1015D01*
X654Y1015D02*
X663Y1015D01*
X1814Y1015D02*
X1821Y1015D01*
X1Y1014D02*
X8Y1014D01*
X554Y1014D02*
X563Y1014D01*
X654Y1014D02*
X663Y1014D01*
X1814Y1014D02*
X1821Y1014D01*
X1Y1013D02*
X8Y1013D01*
X554Y1013D02*
X563Y1013D01*
X654Y1013D02*
X663Y1013D01*
X1814Y1013D02*
X1821Y1013D01*
X1Y1012D02*
X8Y1012D01*
X554Y1012D02*
X563Y1012D01*
X654Y1012D02*
X663Y1012D01*
X1814Y1012D02*
X1821Y1012D01*
X1Y1011D02*
X8Y1011D01*
X554Y1011D02*
X563Y1011D01*
X654Y1011D02*
X663Y1011D01*
X1814Y1011D02*
X1821Y1011D01*
X1Y1010D02*
X8Y1010D01*
X554Y1010D02*
X563Y1010D01*
X654Y1010D02*
X663Y1010D01*
X1814Y1010D02*
X1821Y1010D01*
X1Y1009D02*
X8Y1009D01*
X554Y1009D02*
X563Y1009D01*
X654Y1009D02*
X663Y1009D01*
X1814Y1009D02*
X1821Y1009D01*
X1Y1008D02*
X8Y1008D01*
X554Y1008D02*
X563Y1008D01*
X654Y1008D02*
X663Y1008D01*
X1814Y1008D02*
X1821Y1008D01*
X1Y1007D02*
X8Y1007D01*
X554Y1007D02*
X563Y1007D01*
X654Y1007D02*
X663Y1007D01*
X1814Y1007D02*
X1821Y1007D01*
X1Y1006D02*
X8Y1006D01*
X554Y1006D02*
X563Y1006D01*
X654Y1006D02*
X663Y1006D01*
X1814Y1006D02*
X1821Y1006D01*
X1Y1005D02*
X8Y1005D01*
X554Y1005D02*
X563Y1005D01*
X654Y1005D02*
X663Y1005D01*
X1814Y1005D02*
X1821Y1005D01*
X1Y1004D02*
X8Y1004D01*
X554Y1004D02*
X563Y1004D01*
X654Y1004D02*
X663Y1004D01*
X1814Y1004D02*
X1821Y1004D01*
X1Y1003D02*
X8Y1003D01*
X554Y1003D02*
X563Y1003D01*
X654Y1003D02*
X663Y1003D01*
X1814Y1003D02*
X1821Y1003D01*
X1Y1002D02*
X8Y1002D01*
X554Y1002D02*
X563Y1002D01*
X654Y1002D02*
X663Y1002D01*
X1814Y1002D02*
X1821Y1002D01*
X1Y1001D02*
X8Y1001D01*
X554Y1001D02*
X563Y1001D01*
X654Y1001D02*
X663Y1001D01*
X1814Y1001D02*
X1821Y1001D01*
X1Y1000D02*
X8Y1000D01*
X554Y1000D02*
X563Y1000D01*
X654Y1000D02*
X663Y1000D01*
X1814Y1000D02*
X1821Y1000D01*
X1Y999D02*
X8Y999D01*
X554Y999D02*
X563Y999D01*
X654Y999D02*
X663Y999D01*
X1814Y999D02*
X1821Y999D01*
X1Y998D02*
X8Y998D01*
X554Y998D02*
X563Y998D01*
X654Y998D02*
X663Y998D01*
X1814Y998D02*
X1821Y998D01*
X1Y997D02*
X8Y997D01*
X554Y997D02*
X563Y997D01*
X654Y997D02*
X663Y997D01*
X1814Y997D02*
X1821Y997D01*
X1Y996D02*
X8Y996D01*
X554Y996D02*
X563Y996D01*
X654Y996D02*
X663Y996D01*
X1814Y996D02*
X1821Y996D01*
X1Y995D02*
X8Y995D01*
X554Y995D02*
X563Y995D01*
X654Y995D02*
X663Y995D01*
X1814Y995D02*
X1821Y995D01*
X1Y994D02*
X8Y994D01*
X554Y994D02*
X563Y994D01*
X654Y994D02*
X663Y994D01*
X1814Y994D02*
X1821Y994D01*
X1Y993D02*
X8Y993D01*
X554Y993D02*
X563Y993D01*
X654Y993D02*
X663Y993D01*
X1814Y993D02*
X1821Y993D01*
X1Y992D02*
X8Y992D01*
X554Y992D02*
X563Y992D01*
X654Y992D02*
X663Y992D01*
X1814Y992D02*
X1821Y992D01*
X1Y991D02*
X8Y991D01*
X554Y991D02*
X563Y991D01*
X654Y991D02*
X663Y991D01*
X1814Y991D02*
X1821Y991D01*
X1Y990D02*
X8Y990D01*
X554Y990D02*
X563Y990D01*
X654Y990D02*
X663Y990D01*
X1814Y990D02*
X1821Y990D01*
X1Y989D02*
X8Y989D01*
X554Y989D02*
X563Y989D01*
X654Y989D02*
X663Y989D01*
X1814Y989D02*
X1821Y989D01*
X1Y988D02*
X8Y988D01*
X554Y988D02*
X563Y988D01*
X654Y988D02*
X663Y988D01*
X1814Y988D02*
X1821Y988D01*
X1Y987D02*
X8Y987D01*
X554Y987D02*
X563Y987D01*
X654Y987D02*
X663Y987D01*
X1814Y987D02*
X1821Y987D01*
X1Y986D02*
X8Y986D01*
X554Y986D02*
X563Y986D01*
X654Y986D02*
X663Y986D01*
X1814Y986D02*
X1821Y986D01*
X1Y985D02*
X8Y985D01*
X554Y985D02*
X563Y985D01*
X654Y985D02*
X663Y985D01*
X1814Y985D02*
X1821Y985D01*
X1Y984D02*
X8Y984D01*
X554Y984D02*
X563Y984D01*
X654Y984D02*
X663Y984D01*
X1814Y984D02*
X1821Y984D01*
X1Y983D02*
X8Y983D01*
X554Y983D02*
X563Y983D01*
X654Y983D02*
X663Y983D01*
X1814Y983D02*
X1821Y983D01*
X1Y982D02*
X8Y982D01*
X554Y982D02*
X563Y982D01*
X654Y982D02*
X663Y982D01*
X1814Y982D02*
X1821Y982D01*
X1Y981D02*
X8Y981D01*
X554Y981D02*
X563Y981D01*
X654Y981D02*
X663Y981D01*
X1814Y981D02*
X1821Y981D01*
X1Y980D02*
X8Y980D01*
X554Y980D02*
X563Y980D01*
X654Y980D02*
X663Y980D01*
X1814Y980D02*
X1821Y980D01*
X1Y979D02*
X8Y979D01*
X554Y979D02*
X563Y979D01*
X654Y979D02*
X663Y979D01*
X1814Y979D02*
X1821Y979D01*
X1Y978D02*
X8Y978D01*
X554Y978D02*
X563Y978D01*
X654Y978D02*
X663Y978D01*
X1814Y978D02*
X1821Y978D01*
X1Y977D02*
X8Y977D01*
X554Y977D02*
X563Y977D01*
X654Y977D02*
X663Y977D01*
X1814Y977D02*
X1821Y977D01*
X1Y976D02*
X8Y976D01*
X554Y976D02*
X563Y976D01*
X654Y976D02*
X663Y976D01*
X1814Y976D02*
X1821Y976D01*
X1Y975D02*
X8Y975D01*
X554Y975D02*
X563Y975D01*
X654Y975D02*
X663Y975D01*
X1814Y975D02*
X1821Y975D01*
X1Y974D02*
X8Y974D01*
X554Y974D02*
X563Y974D01*
X654Y974D02*
X663Y974D01*
X1814Y974D02*
X1821Y974D01*
X1Y973D02*
X8Y973D01*
X554Y973D02*
X563Y973D01*
X654Y973D02*
X663Y973D01*
X1814Y973D02*
X1821Y973D01*
X1Y972D02*
X8Y972D01*
X554Y972D02*
X563Y972D01*
X654Y972D02*
X663Y972D01*
X1814Y972D02*
X1821Y972D01*
X1Y971D02*
X8Y971D01*
X554Y971D02*
X563Y971D01*
X654Y971D02*
X663Y971D01*
X1814Y971D02*
X1821Y971D01*
X1Y970D02*
X8Y970D01*
X554Y970D02*
X563Y970D01*
X654Y970D02*
X663Y970D01*
X1814Y970D02*
X1821Y970D01*
X1Y969D02*
X8Y969D01*
X554Y969D02*
X563Y969D01*
X654Y969D02*
X663Y969D01*
X1814Y969D02*
X1821Y969D01*
X1Y968D02*
X8Y968D01*
X554Y968D02*
X563Y968D01*
X654Y968D02*
X663Y968D01*
X1814Y968D02*
X1821Y968D01*
X1Y967D02*
X8Y967D01*
X554Y967D02*
X563Y967D01*
X654Y967D02*
X663Y967D01*
X1814Y967D02*
X1821Y967D01*
X1Y966D02*
X8Y966D01*
X554Y966D02*
X563Y966D01*
X654Y966D02*
X663Y966D01*
X1814Y966D02*
X1821Y966D01*
X1Y965D02*
X8Y965D01*
X554Y965D02*
X563Y965D01*
X654Y965D02*
X663Y965D01*
X1814Y965D02*
X1821Y965D01*
X1Y964D02*
X8Y964D01*
X554Y964D02*
X563Y964D01*
X654Y964D02*
X663Y964D01*
X1814Y964D02*
X1821Y964D01*
X1Y963D02*
X8Y963D01*
X554Y963D02*
X563Y963D01*
X654Y963D02*
X663Y963D01*
X1814Y963D02*
X1821Y963D01*
X1Y962D02*
X8Y962D01*
X554Y962D02*
X563Y962D01*
X654Y962D02*
X663Y962D01*
X1814Y962D02*
X1821Y962D01*
X1Y961D02*
X8Y961D01*
X554Y961D02*
X563Y961D01*
X654Y961D02*
X663Y961D01*
X1814Y961D02*
X1821Y961D01*
X1Y960D02*
X8Y960D01*
X554Y960D02*
X563Y960D01*
X654Y960D02*
X663Y960D01*
X1814Y960D02*
X1821Y960D01*
X1Y959D02*
X8Y959D01*
X554Y959D02*
X563Y959D01*
X654Y959D02*
X663Y959D01*
X1814Y959D02*
X1821Y959D01*
X1Y958D02*
X8Y958D01*
X554Y958D02*
X563Y958D01*
X654Y958D02*
X663Y958D01*
X1814Y958D02*
X1821Y958D01*
X1Y957D02*
X8Y957D01*
X554Y957D02*
X563Y957D01*
X654Y957D02*
X663Y957D01*
X1814Y957D02*
X1821Y957D01*
X1Y956D02*
X8Y956D01*
X554Y956D02*
X563Y956D01*
X654Y956D02*
X663Y956D01*
X1814Y956D02*
X1821Y956D01*
X1Y955D02*
X8Y955D01*
X554Y955D02*
X563Y955D01*
X654Y955D02*
X663Y955D01*
X1814Y955D02*
X1821Y955D01*
X1Y954D02*
X8Y954D01*
X554Y954D02*
X563Y954D01*
X654Y954D02*
X663Y954D01*
X1814Y954D02*
X1821Y954D01*
X1Y953D02*
X8Y953D01*
X554Y953D02*
X563Y953D01*
X654Y953D02*
X663Y953D01*
X1814Y953D02*
X1821Y953D01*
X1Y952D02*
X8Y952D01*
X554Y952D02*
X563Y952D01*
X654Y952D02*
X663Y952D01*
X1814Y952D02*
X1821Y952D01*
X1Y951D02*
X8Y951D01*
X554Y951D02*
X563Y951D01*
X654Y951D02*
X663Y951D01*
X1814Y951D02*
X1821Y951D01*
X1Y950D02*
X8Y950D01*
X554Y950D02*
X563Y950D01*
X654Y950D02*
X663Y950D01*
X1814Y950D02*
X1821Y950D01*
X1Y949D02*
X8Y949D01*
X554Y949D02*
X563Y949D01*
X654Y949D02*
X663Y949D01*
X1814Y949D02*
X1821Y949D01*
X1Y948D02*
X8Y948D01*
X554Y948D02*
X563Y948D01*
X654Y948D02*
X663Y948D01*
X1814Y948D02*
X1821Y948D01*
X1Y947D02*
X8Y947D01*
X554Y947D02*
X563Y947D01*
X654Y947D02*
X663Y947D01*
X1814Y947D02*
X1821Y947D01*
X1Y946D02*
X8Y946D01*
X554Y946D02*
X563Y946D01*
X654Y946D02*
X663Y946D01*
X1814Y946D02*
X1821Y946D01*
X1Y945D02*
X8Y945D01*
X554Y945D02*
X563Y945D01*
X654Y945D02*
X663Y945D01*
X1814Y945D02*
X1821Y945D01*
X1Y944D02*
X8Y944D01*
X554Y944D02*
X563Y944D01*
X654Y944D02*
X663Y944D01*
X1814Y944D02*
X1821Y944D01*
X1Y943D02*
X8Y943D01*
X554Y943D02*
X563Y943D01*
X654Y943D02*
X663Y943D01*
X1814Y943D02*
X1821Y943D01*
X1Y942D02*
X8Y942D01*
X554Y942D02*
X563Y942D01*
X654Y942D02*
X663Y942D01*
X1259Y942D02*
X1262Y942D01*
X1355Y942D02*
X1357Y942D01*
X1814Y942D02*
X1821Y942D01*
X1Y941D02*
X8Y941D01*
X554Y941D02*
X563Y941D01*
X654Y941D02*
X663Y941D01*
X1259Y941D02*
X1358Y941D01*
X1814Y941D02*
X1821Y941D01*
X1Y940D02*
X8Y940D01*
X554Y940D02*
X563Y940D01*
X654Y940D02*
X663Y940D01*
X1259Y940D02*
X1358Y940D01*
X1814Y940D02*
X1821Y940D01*
X1Y939D02*
X8Y939D01*
X554Y939D02*
X563Y939D01*
X654Y939D02*
X663Y939D01*
X1259Y939D02*
X1358Y939D01*
X1814Y939D02*
X1821Y939D01*
X1Y938D02*
X8Y938D01*
X554Y938D02*
X563Y938D01*
X654Y938D02*
X663Y938D01*
X1259Y938D02*
X1358Y938D01*
X1814Y938D02*
X1821Y938D01*
X1Y937D02*
X8Y937D01*
X1254Y937D02*
X1362Y937D01*
X1814Y937D02*
X1821Y937D01*
X1Y936D02*
X8Y936D01*
X1254Y936D02*
X1363Y936D01*
X1814Y936D02*
X1821Y936D01*
X1Y935D02*
X8Y935D01*
X1254Y935D02*
X1363Y935D01*
X1814Y935D02*
X1821Y935D01*
X1Y934D02*
X8Y934D01*
X1254Y934D02*
X1363Y934D01*
X1814Y934D02*
X1821Y934D01*
X1Y933D02*
X8Y933D01*
X1254Y933D02*
X1363Y933D01*
X1814Y933D02*
X1821Y933D01*
X1Y932D02*
X8Y932D01*
X1254Y932D02*
X1263Y932D01*
X1353Y932D02*
X1363Y932D01*
X1814Y932D02*
X1821Y932D01*
X1Y931D02*
X8Y931D01*
X1254Y931D02*
X1263Y931D01*
X1353Y931D02*
X1363Y931D01*
X1814Y931D02*
X1821Y931D01*
X1Y930D02*
X8Y930D01*
X1254Y930D02*
X1263Y930D01*
X1353Y930D02*
X1363Y930D01*
X1814Y930D02*
X1821Y930D01*
X1Y929D02*
X8Y929D01*
X1254Y929D02*
X1263Y929D01*
X1353Y929D02*
X1363Y929D01*
X1814Y929D02*
X1821Y929D01*
X1Y928D02*
X8Y928D01*
X1254Y928D02*
X1263Y928D01*
X1353Y928D02*
X1363Y928D01*
X1814Y928D02*
X1821Y928D01*
X1Y927D02*
X8Y927D01*
X1254Y927D02*
X1263Y927D01*
X1353Y927D02*
X1363Y927D01*
X1814Y927D02*
X1821Y927D01*
X1Y926D02*
X8Y926D01*
X1254Y926D02*
X1263Y926D01*
X1353Y926D02*
X1363Y926D01*
X1814Y926D02*
X1821Y926D01*
X1Y925D02*
X8Y925D01*
X1254Y925D02*
X1263Y925D01*
X1353Y925D02*
X1363Y925D01*
X1814Y925D02*
X1821Y925D01*
X1Y924D02*
X8Y924D01*
X1254Y924D02*
X1263Y924D01*
X1353Y924D02*
X1363Y924D01*
X1814Y924D02*
X1821Y924D01*
X1Y923D02*
X8Y923D01*
X1254Y923D02*
X1263Y923D01*
X1353Y923D02*
X1363Y923D01*
X1814Y923D02*
X1821Y923D01*
X1Y922D02*
X8Y922D01*
X1254Y922D02*
X1263Y922D01*
X1353Y922D02*
X1363Y922D01*
X1814Y922D02*
X1821Y922D01*
X1Y921D02*
X8Y921D01*
X1254Y921D02*
X1263Y921D01*
X1353Y921D02*
X1363Y921D01*
X1814Y921D02*
X1821Y921D01*
X1Y920D02*
X8Y920D01*
X1254Y920D02*
X1263Y920D01*
X1353Y920D02*
X1363Y920D01*
X1814Y920D02*
X1821Y920D01*
X1Y919D02*
X8Y919D01*
X1254Y919D02*
X1263Y919D01*
X1353Y919D02*
X1363Y919D01*
X1814Y919D02*
X1821Y919D01*
X1Y918D02*
X8Y918D01*
X1254Y918D02*
X1263Y918D01*
X1353Y918D02*
X1363Y918D01*
X1814Y918D02*
X1821Y918D01*
X1Y917D02*
X8Y917D01*
X1254Y917D02*
X1263Y917D01*
X1353Y917D02*
X1363Y917D01*
X1814Y917D02*
X1821Y917D01*
X1Y916D02*
X8Y916D01*
X1254Y916D02*
X1263Y916D01*
X1353Y916D02*
X1363Y916D01*
X1814Y916D02*
X1821Y916D01*
X1Y915D02*
X8Y915D01*
X1254Y915D02*
X1263Y915D01*
X1353Y915D02*
X1363Y915D01*
X1814Y915D02*
X1821Y915D01*
X1Y914D02*
X8Y914D01*
X1254Y914D02*
X1263Y914D01*
X1353Y914D02*
X1363Y914D01*
X1814Y914D02*
X1821Y914D01*
X1Y913D02*
X8Y913D01*
X1254Y913D02*
X1263Y913D01*
X1353Y913D02*
X1363Y913D01*
X1814Y913D02*
X1821Y913D01*
X1Y912D02*
X8Y912D01*
X1254Y912D02*
X1263Y912D01*
X1353Y912D02*
X1363Y912D01*
X1814Y912D02*
X1821Y912D01*
X1Y911D02*
X8Y911D01*
X1254Y911D02*
X1263Y911D01*
X1353Y911D02*
X1363Y911D01*
X1814Y911D02*
X1821Y911D01*
X1Y910D02*
X8Y910D01*
X1254Y910D02*
X1263Y910D01*
X1353Y910D02*
X1363Y910D01*
X1814Y910D02*
X1821Y910D01*
X1Y909D02*
X8Y909D01*
X1254Y909D02*
X1263Y909D01*
X1353Y909D02*
X1363Y909D01*
X1814Y909D02*
X1821Y909D01*
X1Y908D02*
X8Y908D01*
X1254Y908D02*
X1263Y908D01*
X1353Y908D02*
X1363Y908D01*
X1814Y908D02*
X1821Y908D01*
X1Y907D02*
X8Y907D01*
X1254Y907D02*
X1263Y907D01*
X1353Y907D02*
X1363Y907D01*
X1814Y907D02*
X1821Y907D01*
X1Y906D02*
X8Y906D01*
X1254Y906D02*
X1263Y906D01*
X1353Y906D02*
X1363Y906D01*
X1814Y906D02*
X1821Y906D01*
X1Y905D02*
X8Y905D01*
X1254Y905D02*
X1263Y905D01*
X1353Y905D02*
X1363Y905D01*
X1814Y905D02*
X1821Y905D01*
X1Y904D02*
X8Y904D01*
X1254Y904D02*
X1263Y904D01*
X1353Y904D02*
X1363Y904D01*
X1814Y904D02*
X1821Y904D01*
X1Y903D02*
X8Y903D01*
X1254Y903D02*
X1263Y903D01*
X1353Y903D02*
X1363Y903D01*
X1814Y903D02*
X1821Y903D01*
X1Y902D02*
X8Y902D01*
X1254Y902D02*
X1263Y902D01*
X1353Y902D02*
X1363Y902D01*
X1814Y902D02*
X1821Y902D01*
X1Y901D02*
X8Y901D01*
X1254Y901D02*
X1263Y901D01*
X1353Y901D02*
X1363Y901D01*
X1814Y901D02*
X1821Y901D01*
X1Y900D02*
X8Y900D01*
X1254Y900D02*
X1263Y900D01*
X1353Y900D02*
X1363Y900D01*
X1814Y900D02*
X1821Y900D01*
X1Y899D02*
X8Y899D01*
X1254Y899D02*
X1263Y899D01*
X1353Y899D02*
X1363Y899D01*
X1814Y899D02*
X1821Y899D01*
X1Y898D02*
X8Y898D01*
X1254Y898D02*
X1263Y898D01*
X1353Y898D02*
X1363Y898D01*
X1814Y898D02*
X1821Y898D01*
X1Y897D02*
X8Y897D01*
X1254Y897D02*
X1263Y897D01*
X1353Y897D02*
X1363Y897D01*
X1814Y897D02*
X1821Y897D01*
X1Y896D02*
X8Y896D01*
X1254Y896D02*
X1263Y896D01*
X1353Y896D02*
X1363Y896D01*
X1814Y896D02*
X1821Y896D01*
X1Y895D02*
X8Y895D01*
X1254Y895D02*
X1263Y895D01*
X1353Y895D02*
X1363Y895D01*
X1814Y895D02*
X1821Y895D01*
X1Y894D02*
X8Y894D01*
X1254Y894D02*
X1263Y894D01*
X1353Y894D02*
X1363Y894D01*
X1814Y894D02*
X1821Y894D01*
X1Y893D02*
X8Y893D01*
X1254Y893D02*
X1263Y893D01*
X1353Y893D02*
X1363Y893D01*
X1814Y893D02*
X1821Y893D01*
X1Y892D02*
X8Y892D01*
X1254Y892D02*
X1263Y892D01*
X1353Y892D02*
X1363Y892D01*
X1814Y892D02*
X1821Y892D01*
X1Y891D02*
X8Y891D01*
X1254Y891D02*
X1263Y891D01*
X1353Y891D02*
X1363Y891D01*
X1814Y891D02*
X1821Y891D01*
X1Y890D02*
X8Y890D01*
X1254Y890D02*
X1263Y890D01*
X1353Y890D02*
X1363Y890D01*
X1814Y890D02*
X1821Y890D01*
X1Y889D02*
X8Y889D01*
X1254Y889D02*
X1263Y889D01*
X1353Y889D02*
X1363Y889D01*
X1814Y889D02*
X1821Y889D01*
X1Y888D02*
X8Y888D01*
X1254Y888D02*
X1263Y888D01*
X1353Y888D02*
X1363Y888D01*
X1814Y888D02*
X1821Y888D01*
X1Y887D02*
X8Y887D01*
X1254Y887D02*
X1263Y887D01*
X1353Y887D02*
X1363Y887D01*
X1814Y887D02*
X1821Y887D01*
X1Y886D02*
X8Y886D01*
X1254Y886D02*
X1263Y886D01*
X1353Y886D02*
X1363Y886D01*
X1814Y886D02*
X1821Y886D01*
X1Y885D02*
X8Y885D01*
X1254Y885D02*
X1263Y885D01*
X1353Y885D02*
X1363Y885D01*
X1814Y885D02*
X1821Y885D01*
X1Y884D02*
X8Y884D01*
X1254Y884D02*
X1263Y884D01*
X1353Y884D02*
X1363Y884D01*
X1814Y884D02*
X1821Y884D01*
X1Y883D02*
X8Y883D01*
X1254Y883D02*
X1263Y883D01*
X1353Y883D02*
X1363Y883D01*
X1814Y883D02*
X1821Y883D01*
X1Y882D02*
X8Y882D01*
X1254Y882D02*
X1263Y882D01*
X1353Y882D02*
X1363Y882D01*
X1814Y882D02*
X1821Y882D01*
X1Y881D02*
X8Y881D01*
X1254Y881D02*
X1263Y881D01*
X1353Y881D02*
X1363Y881D01*
X1814Y881D02*
X1821Y881D01*
X1Y880D02*
X8Y880D01*
X1254Y880D02*
X1263Y880D01*
X1353Y880D02*
X1363Y880D01*
X1814Y880D02*
X1821Y880D01*
X1Y879D02*
X8Y879D01*
X1254Y879D02*
X1263Y879D01*
X1353Y879D02*
X1363Y879D01*
X1814Y879D02*
X1821Y879D01*
X1Y878D02*
X8Y878D01*
X1254Y878D02*
X1263Y878D01*
X1353Y878D02*
X1363Y878D01*
X1814Y878D02*
X1821Y878D01*
X1Y877D02*
X8Y877D01*
X1254Y877D02*
X1263Y877D01*
X1353Y877D02*
X1363Y877D01*
X1814Y877D02*
X1821Y877D01*
X1Y876D02*
X8Y876D01*
X1254Y876D02*
X1263Y876D01*
X1353Y876D02*
X1363Y876D01*
X1814Y876D02*
X1821Y876D01*
X1Y875D02*
X8Y875D01*
X1254Y875D02*
X1263Y875D01*
X1353Y875D02*
X1363Y875D01*
X1814Y875D02*
X1821Y875D01*
X1Y874D02*
X8Y874D01*
X1254Y874D02*
X1263Y874D01*
X1353Y874D02*
X1363Y874D01*
X1814Y874D02*
X1821Y874D01*
X1Y873D02*
X8Y873D01*
X1254Y873D02*
X1263Y873D01*
X1353Y873D02*
X1363Y873D01*
X1814Y873D02*
X1821Y873D01*
X1Y872D02*
X8Y872D01*
X1254Y872D02*
X1263Y872D01*
X1353Y872D02*
X1363Y872D01*
X1814Y872D02*
X1821Y872D01*
X1Y871D02*
X8Y871D01*
X1254Y871D02*
X1263Y871D01*
X1353Y871D02*
X1363Y871D01*
X1814Y871D02*
X1821Y871D01*
X1Y870D02*
X8Y870D01*
X1254Y870D02*
X1263Y870D01*
X1353Y870D02*
X1363Y870D01*
X1814Y870D02*
X1821Y870D01*
X1Y869D02*
X8Y869D01*
X1254Y869D02*
X1263Y869D01*
X1353Y869D02*
X1363Y869D01*
X1814Y869D02*
X1821Y869D01*
X1Y868D02*
X8Y868D01*
X1254Y868D02*
X1263Y868D01*
X1353Y868D02*
X1363Y868D01*
X1814Y868D02*
X1821Y868D01*
X1Y867D02*
X8Y867D01*
X1254Y867D02*
X1263Y867D01*
X1353Y867D02*
X1363Y867D01*
X1814Y867D02*
X1821Y867D01*
X1Y866D02*
X8Y866D01*
X1254Y866D02*
X1263Y866D01*
X1353Y866D02*
X1363Y866D01*
X1814Y866D02*
X1821Y866D01*
X1Y865D02*
X8Y865D01*
X1254Y865D02*
X1263Y865D01*
X1353Y865D02*
X1363Y865D01*
X1814Y865D02*
X1821Y865D01*
X1Y864D02*
X8Y864D01*
X1254Y864D02*
X1263Y864D01*
X1353Y864D02*
X1363Y864D01*
X1814Y864D02*
X1821Y864D01*
X1Y863D02*
X8Y863D01*
X1254Y863D02*
X1263Y863D01*
X1353Y863D02*
X1363Y863D01*
X1814Y863D02*
X1821Y863D01*
X1Y862D02*
X8Y862D01*
X1254Y862D02*
X1263Y862D01*
X1353Y862D02*
X1363Y862D01*
X1814Y862D02*
X1821Y862D01*
X1Y861D02*
X8Y861D01*
X1254Y861D02*
X1263Y861D01*
X1353Y861D02*
X1363Y861D01*
X1814Y861D02*
X1821Y861D01*
X1Y860D02*
X8Y860D01*
X1254Y860D02*
X1263Y860D01*
X1353Y860D02*
X1363Y860D01*
X1814Y860D02*
X1821Y860D01*
X1Y859D02*
X8Y859D01*
X1254Y859D02*
X1263Y859D01*
X1353Y859D02*
X1363Y859D01*
X1814Y859D02*
X1821Y859D01*
X1Y858D02*
X8Y858D01*
X1254Y858D02*
X1263Y858D01*
X1353Y858D02*
X1363Y858D01*
X1814Y858D02*
X1821Y858D01*
X1Y857D02*
X8Y857D01*
X1254Y857D02*
X1263Y857D01*
X1353Y857D02*
X1363Y857D01*
X1814Y857D02*
X1821Y857D01*
X1Y856D02*
X8Y856D01*
X1254Y856D02*
X1263Y856D01*
X1353Y856D02*
X1363Y856D01*
X1814Y856D02*
X1821Y856D01*
X1Y855D02*
X8Y855D01*
X1254Y855D02*
X1263Y855D01*
X1353Y855D02*
X1363Y855D01*
X1814Y855D02*
X1821Y855D01*
X1Y854D02*
X8Y854D01*
X1254Y854D02*
X1263Y854D01*
X1353Y854D02*
X1363Y854D01*
X1814Y854D02*
X1821Y854D01*
X1Y853D02*
X8Y853D01*
X1254Y853D02*
X1263Y853D01*
X1353Y853D02*
X1363Y853D01*
X1814Y853D02*
X1821Y853D01*
X1Y852D02*
X8Y852D01*
X1254Y852D02*
X1263Y852D01*
X1353Y852D02*
X1363Y852D01*
X1814Y852D02*
X1821Y852D01*
X1Y851D02*
X8Y851D01*
X1254Y851D02*
X1263Y851D01*
X1353Y851D02*
X1363Y851D01*
X1814Y851D02*
X1821Y851D01*
X1Y850D02*
X8Y850D01*
X1254Y850D02*
X1263Y850D01*
X1353Y850D02*
X1363Y850D01*
X1814Y850D02*
X1821Y850D01*
X1Y849D02*
X8Y849D01*
X1254Y849D02*
X1263Y849D01*
X1353Y849D02*
X1363Y849D01*
X1814Y849D02*
X1821Y849D01*
X1Y848D02*
X8Y848D01*
X1254Y848D02*
X1263Y848D01*
X1353Y848D02*
X1363Y848D01*
X1814Y848D02*
X1821Y848D01*
X1Y847D02*
X8Y847D01*
X1254Y847D02*
X1263Y847D01*
X1353Y847D02*
X1363Y847D01*
X1814Y847D02*
X1821Y847D01*
X1Y846D02*
X8Y846D01*
X1254Y846D02*
X1263Y846D01*
X1353Y846D02*
X1363Y846D01*
X1814Y846D02*
X1821Y846D01*
X1Y845D02*
X8Y845D01*
X1254Y845D02*
X1263Y845D01*
X1353Y845D02*
X1363Y845D01*
X1814Y845D02*
X1821Y845D01*
X1Y844D02*
X8Y844D01*
X1254Y844D02*
X1263Y844D01*
X1353Y844D02*
X1363Y844D01*
X1814Y844D02*
X1821Y844D01*
X1Y843D02*
X8Y843D01*
X1254Y843D02*
X1263Y843D01*
X1353Y843D02*
X1363Y843D01*
X1814Y843D02*
X1821Y843D01*
X1Y842D02*
X8Y842D01*
X159Y842D02*
X175Y842D01*
X242Y842D02*
X258Y842D01*
X1254Y842D02*
X1263Y842D01*
X1353Y842D02*
X1363Y842D01*
X1814Y842D02*
X1821Y842D01*
X1Y841D02*
X8Y841D01*
X159Y841D02*
X173Y841D01*
X243Y841D02*
X258Y841D01*
X1254Y841D02*
X1263Y841D01*
X1353Y841D02*
X1363Y841D01*
X1814Y841D02*
X1821Y841D01*
X1Y840D02*
X8Y840D01*
X159Y840D02*
X171Y840D01*
X245Y840D02*
X258Y840D01*
X1254Y840D02*
X1263Y840D01*
X1353Y840D02*
X1363Y840D01*
X1814Y840D02*
X1821Y840D01*
X1Y839D02*
X8Y839D01*
X159Y839D02*
X170Y839D01*
X246Y839D02*
X258Y839D01*
X1254Y839D02*
X1263Y839D01*
X1353Y839D02*
X1363Y839D01*
X1814Y839D02*
X1821Y839D01*
X1Y838D02*
X8Y838D01*
X159Y838D02*
X169Y838D01*
X248Y838D02*
X258Y838D01*
X1254Y838D02*
X1263Y838D01*
X1353Y838D02*
X1363Y838D01*
X1814Y838D02*
X1821Y838D01*
X1Y837D02*
X8Y837D01*
X154Y837D02*
X167Y837D01*
X249Y837D02*
X263Y837D01*
X1814Y837D02*
X1821Y837D01*
X1Y836D02*
X8Y836D01*
X154Y836D02*
X166Y836D01*
X250Y836D02*
X263Y836D01*
X1814Y836D02*
X1821Y836D01*
X1Y835D02*
X8Y835D01*
X154Y835D02*
X165Y835D01*
X251Y835D02*
X263Y835D01*
X1814Y835D02*
X1821Y835D01*
X1Y834D02*
X8Y834D01*
X154Y834D02*
X164Y834D01*
X252Y834D02*
X263Y834D01*
X1814Y834D02*
X1821Y834D01*
X1Y833D02*
X8Y833D01*
X154Y833D02*
X163Y833D01*
X254Y833D02*
X261Y833D01*
X1814Y833D02*
X1821Y833D01*
X1Y832D02*
X8Y832D01*
X154Y832D02*
X162Y832D01*
X255Y832D02*
X261Y832D01*
X1814Y832D02*
X1821Y832D01*
X1Y831D02*
X8Y831D01*
X154Y831D02*
X161Y831D01*
X255Y831D02*
X261Y831D01*
X1814Y831D02*
X1821Y831D01*
X1Y830D02*
X8Y830D01*
X154Y830D02*
X160Y830D01*
X256Y830D02*
X261Y830D01*
X1814Y830D02*
X1821Y830D01*
X1Y829D02*
X8Y829D01*
X154Y829D02*
X159Y829D01*
X257Y829D02*
X261Y829D01*
X1814Y829D02*
X1821Y829D01*
X1Y828D02*
X8Y828D01*
X154Y828D02*
X158Y828D01*
X258Y828D02*
X261Y828D01*
X1814Y828D02*
X1821Y828D01*
X1Y827D02*
X8Y827D01*
X154Y827D02*
X158Y827D01*
X259Y827D02*
X261Y827D01*
X1814Y827D02*
X1821Y827D01*
X1Y826D02*
X8Y826D01*
X154Y826D02*
X157Y826D01*
X260Y826D02*
X261Y826D01*
X1814Y826D02*
X1821Y826D01*
X1Y825D02*
X8Y825D01*
X154Y825D02*
X156Y825D01*
X260Y825D02*
X261Y825D01*
X1814Y825D02*
X1821Y825D01*
X1Y824D02*
X8Y824D01*
X154Y824D02*
X155Y824D01*
X261Y824D02*
X261Y824D01*
X1814Y824D02*
X1821Y824D01*
X1Y823D02*
X8Y823D01*
X154Y823D02*
X155Y823D01*
X1814Y823D02*
X1821Y823D01*
X1Y822D02*
X8Y822D01*
X154Y822D02*
X154Y822D01*
X1814Y822D02*
X1821Y822D01*
X1Y821D02*
X8Y821D01*
X1814Y821D02*
X1821Y821D01*
X1Y820D02*
X8Y820D01*
X1814Y820D02*
X1821Y820D01*
X1Y819D02*
X8Y819D01*
X1814Y819D02*
X1821Y819D01*
X1Y818D02*
X8Y818D01*
X1814Y818D02*
X1821Y818D01*
X1Y817D02*
X8Y817D01*
X1814Y817D02*
X1821Y817D01*
X1Y816D02*
X8Y816D01*
X1814Y816D02*
X1821Y816D01*
X1Y815D02*
X8Y815D01*
X1814Y815D02*
X1821Y815D01*
X1Y814D02*
X8Y814D01*
X1814Y814D02*
X1821Y814D01*
X1Y813D02*
X8Y813D01*
X1814Y813D02*
X1821Y813D01*
X1Y812D02*
X8Y812D01*
X1814Y812D02*
X1821Y812D01*
X1Y811D02*
X8Y811D01*
X1814Y811D02*
X1821Y811D01*
X1Y810D02*
X8Y810D01*
X1814Y810D02*
X1821Y810D01*
X1Y809D02*
X8Y809D01*
X1814Y809D02*
X1821Y809D01*
X1Y808D02*
X8Y808D01*
X1814Y808D02*
X1821Y808D01*
X1Y807D02*
X8Y807D01*
X1814Y807D02*
X1821Y807D01*
X1Y806D02*
X8Y806D01*
X1814Y806D02*
X1821Y806D01*
X1Y805D02*
X8Y805D01*
X1814Y805D02*
X1821Y805D01*
X1Y804D02*
X8Y804D01*
X1814Y804D02*
X1821Y804D01*
X1Y803D02*
X8Y803D01*
X1814Y803D02*
X1821Y803D01*
X1Y802D02*
X8Y802D01*
X1814Y802D02*
X1821Y802D01*
X1Y801D02*
X8Y801D01*
X1814Y801D02*
X1821Y801D01*
X1Y800D02*
X8Y800D01*
X1814Y800D02*
X1821Y800D01*
X1Y799D02*
X8Y799D01*
X1814Y799D02*
X1821Y799D01*
X1Y798D02*
X8Y798D01*
X1814Y798D02*
X1821Y798D01*
X1Y797D02*
X8Y797D01*
X1814Y797D02*
X1821Y797D01*
X1Y796D02*
X8Y796D01*
X1814Y796D02*
X1821Y796D01*
X1Y795D02*
X8Y795D01*
X1814Y795D02*
X1821Y795D01*
X1Y794D02*
X8Y794D01*
X1814Y794D02*
X1821Y794D01*
X1Y793D02*
X8Y793D01*
X1814Y793D02*
X1821Y793D01*
X1Y792D02*
X8Y792D01*
X1814Y792D02*
X1821Y792D01*
X1Y791D02*
X8Y791D01*
X1814Y791D02*
X1821Y791D01*
X1Y790D02*
X8Y790D01*
X1814Y790D02*
X1821Y790D01*
X1Y789D02*
X8Y789D01*
X1814Y789D02*
X1821Y789D01*
X1Y788D02*
X8Y788D01*
X1814Y788D02*
X1821Y788D01*
X1Y787D02*
X8Y787D01*
X1814Y787D02*
X1821Y787D01*
X1Y786D02*
X8Y786D01*
X1814Y786D02*
X1821Y786D01*
X1Y785D02*
X8Y785D01*
X1814Y785D02*
X1821Y785D01*
X1Y784D02*
X8Y784D01*
X1814Y784D02*
X1821Y784D01*
X1Y783D02*
X8Y783D01*
X1814Y783D02*
X1821Y783D01*
X1Y782D02*
X8Y782D01*
X1814Y782D02*
X1821Y782D01*
X1Y781D02*
X8Y781D01*
X1814Y781D02*
X1821Y781D01*
X1Y780D02*
X8Y780D01*
X1814Y780D02*
X1821Y780D01*
X1Y779D02*
X8Y779D01*
X1814Y779D02*
X1821Y779D01*
X1Y778D02*
X8Y778D01*
X1814Y778D02*
X1821Y778D01*
X1Y777D02*
X8Y777D01*
X1814Y777D02*
X1821Y777D01*
X1Y776D02*
X8Y776D01*
X1814Y776D02*
X1821Y776D01*
X1Y775D02*
X8Y775D01*
X1814Y775D02*
X1821Y775D01*
X1Y774D02*
X8Y774D01*
X1814Y774D02*
X1821Y774D01*
X1Y773D02*
X8Y773D01*
X1814Y773D02*
X1821Y773D01*
X1Y772D02*
X8Y772D01*
X1814Y772D02*
X1821Y772D01*
X1Y771D02*
X8Y771D01*
X1814Y771D02*
X1821Y771D01*
X1Y770D02*
X8Y770D01*
X1814Y770D02*
X1821Y770D01*
X1Y769D02*
X8Y769D01*
X1814Y769D02*
X1821Y769D01*
X1Y768D02*
X8Y768D01*
X1814Y768D02*
X1821Y768D01*
X1Y767D02*
X8Y767D01*
X1814Y767D02*
X1821Y767D01*
X1Y766D02*
X8Y766D01*
X1814Y766D02*
X1821Y766D01*
X1Y765D02*
X8Y765D01*
X1814Y765D02*
X1821Y765D01*
X1Y764D02*
X8Y764D01*
X1814Y764D02*
X1821Y764D01*
X1Y763D02*
X8Y763D01*
X1814Y763D02*
X1821Y763D01*
X1Y762D02*
X8Y762D01*
X1814Y762D02*
X1821Y762D01*
X1Y761D02*
X8Y761D01*
X1814Y761D02*
X1821Y761D01*
X1Y760D02*
X8Y760D01*
X1814Y760D02*
X1821Y760D01*
X1Y759D02*
X8Y759D01*
X1814Y759D02*
X1821Y759D01*
X1Y758D02*
X8Y758D01*
X1814Y758D02*
X1821Y758D01*
X1Y757D02*
X8Y757D01*
X1814Y757D02*
X1821Y757D01*
X1Y756D02*
X8Y756D01*
X1814Y756D02*
X1821Y756D01*
X1Y755D02*
X8Y755D01*
X1814Y755D02*
X1821Y755D01*
X1Y754D02*
X8Y754D01*
X1814Y754D02*
X1821Y754D01*
X1Y753D02*
X8Y753D01*
X154Y753D02*
X154Y753D01*
X1814Y753D02*
X1821Y753D01*
X1Y752D02*
X8Y752D01*
X154Y752D02*
X154Y752D01*
X1814Y752D02*
X1821Y752D01*
X1Y751D02*
X8Y751D01*
X154Y751D02*
X155Y751D01*
X261Y751D02*
X261Y751D01*
X1814Y751D02*
X1821Y751D01*
X1Y750D02*
X8Y750D01*
X154Y750D02*
X156Y750D01*
X260Y750D02*
X261Y750D01*
X1814Y750D02*
X1821Y750D01*
X1Y749D02*
X8Y749D01*
X154Y749D02*
X157Y749D01*
X260Y749D02*
X261Y749D01*
X1814Y749D02*
X1821Y749D01*
X1Y748D02*
X8Y748D01*
X154Y748D02*
X157Y748D01*
X259Y748D02*
X261Y748D01*
X1814Y748D02*
X1821Y748D01*
X1Y747D02*
X8Y747D01*
X154Y747D02*
X158Y747D01*
X258Y747D02*
X261Y747D01*
X1814Y747D02*
X1821Y747D01*
X1Y746D02*
X8Y746D01*
X154Y746D02*
X159Y746D01*
X257Y746D02*
X261Y746D01*
X1814Y746D02*
X1821Y746D01*
X1Y745D02*
X8Y745D01*
X154Y745D02*
X160Y745D01*
X257Y745D02*
X261Y745D01*
X1814Y745D02*
X1821Y745D01*
X1Y744D02*
X8Y744D01*
X154Y744D02*
X161Y744D01*
X256Y744D02*
X261Y744D01*
X1814Y744D02*
X1821Y744D01*
X1Y743D02*
X8Y743D01*
X154Y743D02*
X162Y743D01*
X255Y743D02*
X261Y743D01*
X1814Y743D02*
X1821Y743D01*
X1Y742D02*
X8Y742D01*
X154Y742D02*
X163Y742D01*
X254Y742D02*
X261Y742D01*
X1814Y742D02*
X1821Y742D01*
X1Y741D02*
X8Y741D01*
X154Y741D02*
X164Y741D01*
X253Y741D02*
X263Y741D01*
X1814Y741D02*
X1821Y741D01*
X1Y740D02*
X8Y740D01*
X154Y740D02*
X165Y740D01*
X252Y740D02*
X263Y740D01*
X1814Y740D02*
X1821Y740D01*
X1Y739D02*
X8Y739D01*
X154Y739D02*
X166Y739D01*
X250Y739D02*
X263Y739D01*
X1814Y739D02*
X1821Y739D01*
X1Y738D02*
X8Y738D01*
X154Y738D02*
X167Y738D01*
X249Y738D02*
X263Y738D01*
X1814Y738D02*
X1821Y738D01*
X1Y737D02*
X8Y737D01*
X159Y737D02*
X168Y737D01*
X248Y737D02*
X258Y737D01*
X1814Y737D02*
X1821Y737D01*
X1Y736D02*
X8Y736D01*
X159Y736D02*
X170Y736D01*
X247Y736D02*
X258Y736D01*
X1814Y736D02*
X1821Y736D01*
X1Y735D02*
X8Y735D01*
X159Y735D02*
X171Y735D01*
X245Y735D02*
X258Y735D01*
X1814Y735D02*
X1821Y735D01*
X1Y734D02*
X8Y734D01*
X159Y734D02*
X173Y734D01*
X244Y734D02*
X258Y734D01*
X1814Y734D02*
X1821Y734D01*
X1Y733D02*
X8Y733D01*
X159Y733D02*
X174Y733D01*
X242Y733D02*
X258Y733D01*
X1814Y733D02*
X1821Y733D01*
X1Y732D02*
X8Y732D01*
X1814Y732D02*
X1821Y732D01*
X1Y731D02*
X8Y731D01*
X1814Y731D02*
X1821Y731D01*
X1Y730D02*
X8Y730D01*
X1814Y730D02*
X1821Y730D01*
X1Y729D02*
X8Y729D01*
X1814Y729D02*
X1821Y729D01*
X1Y728D02*
X8Y728D01*
X1814Y728D02*
X1821Y728D01*
X1Y727D02*
X8Y727D01*
X1814Y727D02*
X1821Y727D01*
X1Y726D02*
X8Y726D01*
X1814Y726D02*
X1821Y726D01*
X1Y725D02*
X8Y725D01*
X1814Y725D02*
X1821Y725D01*
X1Y724D02*
X8Y724D01*
X1814Y724D02*
X1821Y724D01*
X1Y723D02*
X8Y723D01*
X1814Y723D02*
X1821Y723D01*
X1Y722D02*
X8Y722D01*
X1814Y722D02*
X1821Y722D01*
X1Y721D02*
X8Y721D01*
X1814Y721D02*
X1821Y721D01*
X1Y720D02*
X8Y720D01*
X1814Y720D02*
X1821Y720D01*
X1Y719D02*
X8Y719D01*
X1814Y719D02*
X1821Y719D01*
X1Y718D02*
X8Y718D01*
X1814Y718D02*
X1821Y718D01*
X1Y717D02*
X8Y717D01*
X1814Y717D02*
X1821Y717D01*
X1Y716D02*
X8Y716D01*
X1814Y716D02*
X1821Y716D01*
X1Y715D02*
X8Y715D01*
X1814Y715D02*
X1821Y715D01*
X1Y714D02*
X8Y714D01*
X1814Y714D02*
X1821Y714D01*
X1Y713D02*
X8Y713D01*
X1814Y713D02*
X1821Y713D01*
X1Y712D02*
X8Y712D01*
X1814Y712D02*
X1821Y712D01*
X1Y711D02*
X8Y711D01*
X1814Y711D02*
X1821Y711D01*
X1Y710D02*
X8Y710D01*
X1814Y710D02*
X1821Y710D01*
X1Y709D02*
X8Y709D01*
X1814Y709D02*
X1821Y709D01*
X1Y708D02*
X8Y708D01*
X1814Y708D02*
X1821Y708D01*
X1Y707D02*
X8Y707D01*
X1814Y707D02*
X1821Y707D01*
X1Y706D02*
X8Y706D01*
X1814Y706D02*
X1821Y706D01*
X1Y705D02*
X8Y705D01*
X1814Y705D02*
X1821Y705D01*
X1Y704D02*
X8Y704D01*
X1814Y704D02*
X1821Y704D01*
X1Y703D02*
X8Y703D01*
X1814Y703D02*
X1821Y703D01*
X1Y702D02*
X8Y702D01*
X1814Y702D02*
X1821Y702D01*
X1Y701D02*
X8Y701D01*
X1814Y701D02*
X1821Y701D01*
X1Y700D02*
X8Y700D01*
X1814Y700D02*
X1821Y700D01*
X1Y699D02*
X8Y699D01*
X1814Y699D02*
X1821Y699D01*
X1Y698D02*
X8Y698D01*
X1814Y698D02*
X1821Y698D01*
X1Y697D02*
X8Y697D01*
X1814Y697D02*
X1821Y697D01*
X1Y696D02*
X8Y696D01*
X1814Y696D02*
X1821Y696D01*
X1Y695D02*
X8Y695D01*
X1814Y695D02*
X1821Y695D01*
X1Y694D02*
X8Y694D01*
X1814Y694D02*
X1821Y694D01*
X1Y693D02*
X8Y693D01*
X1814Y693D02*
X1821Y693D01*
X1Y692D02*
X8Y692D01*
X1814Y692D02*
X1821Y692D01*
X1Y691D02*
X8Y691D01*
X1814Y691D02*
X1821Y691D01*
X1Y690D02*
X8Y690D01*
X1814Y690D02*
X1821Y690D01*
X1Y689D02*
X8Y689D01*
X1814Y689D02*
X1821Y689D01*
X1Y688D02*
X8Y688D01*
X1814Y688D02*
X1821Y688D01*
X1Y687D02*
X8Y687D01*
X1814Y687D02*
X1821Y687D01*
X1Y686D02*
X8Y686D01*
X1814Y686D02*
X1821Y686D01*
X1Y685D02*
X8Y685D01*
X1814Y685D02*
X1821Y685D01*
X1Y684D02*
X8Y684D01*
X1814Y684D02*
X1821Y684D01*
X1Y683D02*
X8Y683D01*
X1814Y683D02*
X1821Y683D01*
X1Y682D02*
X8Y682D01*
X1814Y682D02*
X1821Y682D01*
X1Y681D02*
X8Y681D01*
X1814Y681D02*
X1821Y681D01*
X1Y680D02*
X8Y680D01*
X1814Y680D02*
X1821Y680D01*
X1Y679D02*
X8Y679D01*
X1814Y679D02*
X1821Y679D01*
X1Y678D02*
X8Y678D01*
X1814Y678D02*
X1821Y678D01*
X1Y677D02*
X8Y677D01*
X1814Y677D02*
X1821Y677D01*
X1Y676D02*
X8Y676D01*
X1814Y676D02*
X1821Y676D01*
X1Y675D02*
X8Y675D01*
X1814Y675D02*
X1821Y675D01*
X1Y674D02*
X8Y674D01*
X1814Y674D02*
X1821Y674D01*
X1Y673D02*
X8Y673D01*
X1814Y673D02*
X1821Y673D01*
X1Y672D02*
X8Y672D01*
X1814Y672D02*
X1821Y672D01*
X1Y671D02*
X8Y671D01*
X1814Y671D02*
X1821Y671D01*
X1Y670D02*
X8Y670D01*
X1814Y670D02*
X1821Y670D01*
X1Y669D02*
X8Y669D01*
X1814Y669D02*
X1821Y669D01*
X1Y668D02*
X8Y668D01*
X1814Y668D02*
X1821Y668D01*
X1Y667D02*
X8Y667D01*
X1814Y667D02*
X1821Y667D01*
X1Y666D02*
X8Y666D01*
X1814Y666D02*
X1821Y666D01*
X1Y665D02*
X8Y665D01*
X1814Y665D02*
X1821Y665D01*
X1Y664D02*
X8Y664D01*
X1814Y664D02*
X1821Y664D01*
X1Y663D02*
X8Y663D01*
X1814Y663D02*
X1821Y663D01*
X1Y662D02*
X8Y662D01*
X1814Y662D02*
X1821Y662D01*
X1Y661D02*
X8Y661D01*
X1814Y661D02*
X1821Y661D01*
X1Y660D02*
X8Y660D01*
X1814Y660D02*
X1821Y660D01*
X1Y659D02*
X8Y659D01*
X1814Y659D02*
X1821Y659D01*
X1Y658D02*
X8Y658D01*
X1814Y658D02*
X1821Y658D01*
X1Y657D02*
X8Y657D01*
X1814Y657D02*
X1821Y657D01*
X1Y656D02*
X8Y656D01*
X1814Y656D02*
X1821Y656D01*
X1Y655D02*
X8Y655D01*
X1814Y655D02*
X1821Y655D01*
X1Y654D02*
X8Y654D01*
X1814Y654D02*
X1821Y654D01*
X1Y653D02*
X8Y653D01*
X1814Y653D02*
X1821Y653D01*
X1Y652D02*
X8Y652D01*
X1814Y652D02*
X1821Y652D01*
X1Y651D02*
X8Y651D01*
X1814Y651D02*
X1821Y651D01*
X1Y650D02*
X8Y650D01*
X1814Y650D02*
X1821Y650D01*
X1Y649D02*
X8Y649D01*
X1814Y649D02*
X1821Y649D01*
X1Y648D02*
X8Y648D01*
X1814Y648D02*
X1821Y648D01*
X1Y647D02*
X8Y647D01*
X1814Y647D02*
X1821Y647D01*
X1Y646D02*
X8Y646D01*
X1814Y646D02*
X1821Y646D01*
X1Y645D02*
X8Y645D01*
X1814Y645D02*
X1821Y645D01*
X1Y644D02*
X8Y644D01*
X1814Y644D02*
X1821Y644D01*
X1Y643D02*
X8Y643D01*
X1814Y643D02*
X1821Y643D01*
X1Y642D02*
X8Y642D01*
X1814Y642D02*
X1821Y642D01*
X1Y641D02*
X8Y641D01*
X1814Y641D02*
X1821Y641D01*
X1Y640D02*
X8Y640D01*
X1814Y640D02*
X1821Y640D01*
X1Y639D02*
X8Y639D01*
X1814Y639D02*
X1821Y639D01*
X1Y638D02*
X8Y638D01*
X1814Y638D02*
X1821Y638D01*
X1Y637D02*
X8Y637D01*
X1814Y637D02*
X1821Y637D01*
X1Y636D02*
X8Y636D01*
X1814Y636D02*
X1821Y636D01*
X1Y635D02*
X8Y635D01*
X1814Y635D02*
X1821Y635D01*
X1Y634D02*
X8Y634D01*
X1814Y634D02*
X1821Y634D01*
X1Y633D02*
X8Y633D01*
X1814Y633D02*
X1821Y633D01*
X1Y632D02*
X8Y632D01*
X1814Y632D02*
X1821Y632D01*
X1Y631D02*
X8Y631D01*
X1814Y631D02*
X1821Y631D01*
X1Y630D02*
X8Y630D01*
X1814Y630D02*
X1821Y630D01*
X1Y629D02*
X8Y629D01*
X1814Y629D02*
X1821Y629D01*
X1Y628D02*
X8Y628D01*
X1814Y628D02*
X1821Y628D01*
X1Y627D02*
X8Y627D01*
X1814Y627D02*
X1821Y627D01*
X1Y626D02*
X8Y626D01*
X1814Y626D02*
X1821Y626D01*
X1Y625D02*
X8Y625D01*
X1814Y625D02*
X1821Y625D01*
X1Y624D02*
X8Y624D01*
X1814Y624D02*
X1821Y624D01*
X1Y623D02*
X8Y623D01*
X1814Y623D02*
X1821Y623D01*
X1Y622D02*
X8Y622D01*
X1814Y622D02*
X1821Y622D01*
X1Y621D02*
X8Y621D01*
X1814Y621D02*
X1821Y621D01*
X1Y620D02*
X8Y620D01*
X1814Y620D02*
X1821Y620D01*
X1Y619D02*
X8Y619D01*
X1814Y619D02*
X1821Y619D01*
X1Y618D02*
X8Y618D01*
X1814Y618D02*
X1821Y618D01*
X1Y617D02*
X8Y617D01*
X1814Y617D02*
X1821Y617D01*
X1Y616D02*
X8Y616D01*
X1814Y616D02*
X1821Y616D01*
X1Y615D02*
X8Y615D01*
X1814Y615D02*
X1821Y615D01*
X1Y614D02*
X8Y614D01*
X1814Y614D02*
X1821Y614D01*
X1Y613D02*
X8Y613D01*
X1814Y613D02*
X1821Y613D01*
X1Y612D02*
X8Y612D01*
X1814Y612D02*
X1821Y612D01*
X1Y611D02*
X8Y611D01*
X1814Y611D02*
X1821Y611D01*
X1Y610D02*
X8Y610D01*
X1814Y610D02*
X1821Y610D01*
X1Y609D02*
X8Y609D01*
X1814Y609D02*
X1821Y609D01*
X1Y608D02*
X8Y608D01*
X1814Y608D02*
X1821Y608D01*
X1Y607D02*
X8Y607D01*
X1814Y607D02*
X1821Y607D01*
X1Y606D02*
X8Y606D01*
X1814Y606D02*
X1821Y606D01*
X1Y605D02*
X8Y605D01*
X1814Y605D02*
X1821Y605D01*
X1Y604D02*
X8Y604D01*
X1814Y604D02*
X1821Y604D01*
X1Y603D02*
X8Y603D01*
X1814Y603D02*
X1821Y603D01*
X1Y602D02*
X8Y602D01*
X1814Y602D02*
X1821Y602D01*
X1Y601D02*
X8Y601D01*
X1814Y601D02*
X1821Y601D01*
X1Y600D02*
X8Y600D01*
X1814Y600D02*
X1821Y600D01*
X1Y599D02*
X8Y599D01*
X1814Y599D02*
X1821Y599D01*
X1Y598D02*
X8Y598D01*
X1814Y598D02*
X1821Y598D01*
X1Y597D02*
X8Y597D01*
X1814Y597D02*
X1821Y597D01*
X1Y596D02*
X8Y596D01*
X1814Y596D02*
X1821Y596D01*
X1Y595D02*
X8Y595D01*
X1814Y595D02*
X1821Y595D01*
X1Y594D02*
X8Y594D01*
X1814Y594D02*
X1821Y594D01*
X1Y593D02*
X8Y593D01*
X1814Y593D02*
X1821Y593D01*
X1Y592D02*
X8Y592D01*
X1814Y592D02*
X1821Y592D01*
X1Y591D02*
X8Y591D01*
X1814Y591D02*
X1821Y591D01*
X1Y590D02*
X8Y590D01*
X1814Y590D02*
X1821Y590D01*
X1Y589D02*
X8Y589D01*
X1814Y589D02*
X1821Y589D01*
X1Y588D02*
X8Y588D01*
X1814Y588D02*
X1821Y588D01*
X1Y587D02*
X8Y587D01*
X1814Y587D02*
X1821Y587D01*
X1Y586D02*
X8Y586D01*
X1814Y586D02*
X1821Y586D01*
X1Y585D02*
X8Y585D01*
X1814Y585D02*
X1821Y585D01*
X1Y584D02*
X8Y584D01*
X1814Y584D02*
X1821Y584D01*
X1Y583D02*
X8Y583D01*
X1814Y583D02*
X1821Y583D01*
X1Y582D02*
X8Y582D01*
X1814Y582D02*
X1821Y582D01*
X1Y581D02*
X8Y581D01*
X1814Y581D02*
X1821Y581D01*
X1Y580D02*
X8Y580D01*
X1814Y580D02*
X1821Y580D01*
X1Y579D02*
X8Y579D01*
X1814Y579D02*
X1821Y579D01*
X1Y578D02*
X8Y578D01*
X1814Y578D02*
X1821Y578D01*
X1Y577D02*
X8Y577D01*
X1814Y577D02*
X1821Y577D01*
X1Y576D02*
X8Y576D01*
X1814Y576D02*
X1821Y576D01*
X1Y575D02*
X8Y575D01*
X1814Y575D02*
X1821Y575D01*
X1Y574D02*
X8Y574D01*
X1814Y574D02*
X1821Y574D01*
X1Y573D02*
X8Y573D01*
X1814Y573D02*
X1821Y573D01*
X1Y572D02*
X8Y572D01*
X1814Y572D02*
X1821Y572D01*
X1Y571D02*
X8Y571D01*
X1814Y571D02*
X1821Y571D01*
X1Y570D02*
X8Y570D01*
X1814Y570D02*
X1821Y570D01*
X1Y569D02*
X8Y569D01*
X1814Y569D02*
X1821Y569D01*
X1Y568D02*
X8Y568D01*
X1814Y568D02*
X1821Y568D01*
X1Y567D02*
X8Y567D01*
X1814Y567D02*
X1821Y567D01*
X1Y566D02*
X8Y566D01*
X1814Y566D02*
X1821Y566D01*
X1Y565D02*
X8Y565D01*
X1814Y565D02*
X1821Y565D01*
X1Y564D02*
X8Y564D01*
X1814Y564D02*
X1821Y564D01*
X1Y563D02*
X8Y563D01*
X1814Y563D02*
X1821Y563D01*
X1Y562D02*
X8Y562D01*
X1814Y562D02*
X1821Y562D01*
X1Y561D02*
X8Y561D01*
X1814Y561D02*
X1821Y561D01*
X1Y560D02*
X8Y560D01*
X1814Y560D02*
X1821Y560D01*
X1Y559D02*
X8Y559D01*
X1814Y559D02*
X1821Y559D01*
X1Y558D02*
X8Y558D01*
X1814Y558D02*
X1821Y558D01*
X1Y557D02*
X8Y557D01*
X1814Y557D02*
X1821Y557D01*
X1Y556D02*
X8Y556D01*
X1814Y556D02*
X1821Y556D01*
X1Y555D02*
X8Y555D01*
X1814Y555D02*
X1821Y555D01*
X1Y554D02*
X8Y554D01*
X1814Y554D02*
X1821Y554D01*
X1Y553D02*
X8Y553D01*
X1814Y553D02*
X1821Y553D01*
X1Y552D02*
X8Y552D01*
X1814Y552D02*
X1821Y552D01*
X1Y551D02*
X8Y551D01*
X1814Y551D02*
X1821Y551D01*
X1Y550D02*
X8Y550D01*
X1814Y550D02*
X1821Y550D01*
X1Y549D02*
X8Y549D01*
X1814Y549D02*
X1821Y549D01*
X1Y548D02*
X8Y548D01*
X1814Y548D02*
X1821Y548D01*
X1Y547D02*
X8Y547D01*
X1814Y547D02*
X1821Y547D01*
X1Y546D02*
X8Y546D01*
X1814Y546D02*
X1821Y546D01*
X1Y545D02*
X8Y545D01*
X1814Y545D02*
X1821Y545D01*
X1Y544D02*
X8Y544D01*
X1814Y544D02*
X1821Y544D01*
X1Y543D02*
X8Y543D01*
X1814Y543D02*
X1821Y543D01*
X1Y542D02*
X8Y542D01*
X1814Y542D02*
X1821Y542D01*
X1Y541D02*
X8Y541D01*
X1814Y541D02*
X1821Y541D01*
X1Y540D02*
X8Y540D01*
X1814Y540D02*
X1821Y540D01*
X1Y539D02*
X8Y539D01*
X1814Y539D02*
X1821Y539D01*
X1Y538D02*
X8Y538D01*
X1814Y538D02*
X1821Y538D01*
X1Y537D02*
X8Y537D01*
X1814Y537D02*
X1821Y537D01*
X1Y536D02*
X8Y536D01*
X1814Y536D02*
X1821Y536D01*
X1Y535D02*
X8Y535D01*
X1814Y535D02*
X1821Y535D01*
X1Y534D02*
X8Y534D01*
X1814Y534D02*
X1821Y534D01*
X1Y533D02*
X8Y533D01*
X1814Y533D02*
X1821Y533D01*
X1Y532D02*
X8Y532D01*
X1814Y532D02*
X1821Y532D01*
X1Y531D02*
X8Y531D01*
X1814Y531D02*
X1821Y531D01*
X1Y530D02*
X8Y530D01*
X1814Y530D02*
X1821Y530D01*
X1Y529D02*
X8Y529D01*
X1814Y529D02*
X1821Y529D01*
X1Y528D02*
X8Y528D01*
X1814Y528D02*
X1821Y528D01*
X1Y527D02*
X8Y527D01*
X1814Y527D02*
X1821Y527D01*
X1Y526D02*
X8Y526D01*
X1814Y526D02*
X1821Y526D01*
X1Y525D02*
X8Y525D01*
X1814Y525D02*
X1821Y525D01*
X1Y524D02*
X8Y524D01*
X1814Y524D02*
X1821Y524D01*
X1Y523D02*
X8Y523D01*
X1814Y523D02*
X1821Y523D01*
X1Y522D02*
X8Y522D01*
X1814Y522D02*
X1821Y522D01*
X1Y521D02*
X8Y521D01*
X1814Y521D02*
X1821Y521D01*
X1Y520D02*
X8Y520D01*
X1814Y520D02*
X1821Y520D01*
X1Y519D02*
X8Y519D01*
X1814Y519D02*
X1821Y519D01*
X1Y518D02*
X8Y518D01*
X1814Y518D02*
X1821Y518D01*
X1Y517D02*
X8Y517D01*
X1814Y517D02*
X1821Y517D01*
X1Y516D02*
X8Y516D01*
X1814Y516D02*
X1821Y516D01*
X1Y515D02*
X8Y515D01*
X1814Y515D02*
X1821Y515D01*
X1Y514D02*
X8Y514D01*
X1814Y514D02*
X1821Y514D01*
X1Y513D02*
X8Y513D01*
X1814Y513D02*
X1821Y513D01*
X1Y512D02*
X8Y512D01*
X1814Y512D02*
X1821Y512D01*
X1Y511D02*
X8Y511D01*
X1814Y511D02*
X1821Y511D01*
X1Y510D02*
X8Y510D01*
X1814Y510D02*
X1821Y510D01*
X1Y509D02*
X8Y509D01*
X1814Y509D02*
X1821Y509D01*
X1Y508D02*
X8Y508D01*
X1814Y508D02*
X1821Y508D01*
X1Y507D02*
X8Y507D01*
X1814Y507D02*
X1821Y507D01*
X1Y506D02*
X8Y506D01*
X1814Y506D02*
X1821Y506D01*
X1Y505D02*
X8Y505D01*
X1814Y505D02*
X1821Y505D01*
X1Y504D02*
X8Y504D01*
X1814Y504D02*
X1821Y504D01*
X1Y503D02*
X8Y503D01*
X1814Y503D02*
X1821Y503D01*
X1Y502D02*
X8Y502D01*
X1814Y502D02*
X1821Y502D01*
X1Y501D02*
X8Y501D01*
X1814Y501D02*
X1821Y501D01*
X1Y500D02*
X8Y500D01*
X1814Y500D02*
X1821Y500D01*
X1Y499D02*
X8Y499D01*
X1814Y499D02*
X1821Y499D01*
X1Y498D02*
X8Y498D01*
X1814Y498D02*
X1821Y498D01*
X1Y497D02*
X8Y497D01*
X1814Y497D02*
X1821Y497D01*
X1Y496D02*
X8Y496D01*
X1814Y496D02*
X1821Y496D01*
X1Y495D02*
X8Y495D01*
X1814Y495D02*
X1821Y495D01*
X1Y494D02*
X8Y494D01*
X1814Y494D02*
X1821Y494D01*
X1Y493D02*
X8Y493D01*
X1814Y493D02*
X1821Y493D01*
X1Y492D02*
X8Y492D01*
X1814Y492D02*
X1821Y492D01*
X1Y491D02*
X8Y491D01*
X1814Y491D02*
X1821Y491D01*
X1Y490D02*
X8Y490D01*
X1814Y490D02*
X1821Y490D01*
X1Y489D02*
X8Y489D01*
X1814Y489D02*
X1821Y489D01*
X1Y488D02*
X8Y488D01*
X1814Y488D02*
X1821Y488D01*
X1Y487D02*
X8Y487D01*
X1814Y487D02*
X1821Y487D01*
X1Y486D02*
X8Y486D01*
X1814Y486D02*
X1821Y486D01*
X1Y485D02*
X8Y485D01*
X1814Y485D02*
X1821Y485D01*
X1Y484D02*
X8Y484D01*
X1814Y484D02*
X1821Y484D01*
X1Y483D02*
X8Y483D01*
X1814Y483D02*
X1821Y483D01*
X1Y482D02*
X8Y482D01*
X1814Y482D02*
X1821Y482D01*
X1Y481D02*
X8Y481D01*
X1814Y481D02*
X1821Y481D01*
X1Y480D02*
X8Y480D01*
X1814Y480D02*
X1821Y480D01*
X1Y479D02*
X8Y479D01*
X1814Y479D02*
X1821Y479D01*
X1Y478D02*
X8Y478D01*
X1814Y478D02*
X1821Y478D01*
X1Y477D02*
X8Y477D01*
X1814Y477D02*
X1821Y477D01*
X1Y476D02*
X8Y476D01*
X1814Y476D02*
X1821Y476D01*
X1Y475D02*
X8Y475D01*
X1814Y475D02*
X1821Y475D01*
X1Y474D02*
X8Y474D01*
X1814Y474D02*
X1821Y474D01*
X1Y473D02*
X8Y473D01*
X1814Y473D02*
X1821Y473D01*
X1Y472D02*
X8Y472D01*
X1814Y472D02*
X1821Y472D01*
X1Y471D02*
X8Y471D01*
X1814Y471D02*
X1821Y471D01*
X1Y470D02*
X8Y470D01*
X1814Y470D02*
X1821Y470D01*
X1Y469D02*
X8Y469D01*
X1814Y469D02*
X1821Y469D01*
X1Y468D02*
X8Y468D01*
X1814Y468D02*
X1821Y468D01*
X1Y467D02*
X8Y467D01*
X1814Y467D02*
X1821Y467D01*
X1Y466D02*
X8Y466D01*
X1814Y466D02*
X1821Y466D01*
X1Y465D02*
X8Y465D01*
X1814Y465D02*
X1821Y465D01*
X1Y464D02*
X8Y464D01*
X1814Y464D02*
X1821Y464D01*
X1Y463D02*
X8Y463D01*
X1814Y463D02*
X1821Y463D01*
X1Y462D02*
X8Y462D01*
X1814Y462D02*
X1821Y462D01*
X1Y461D02*
X8Y461D01*
X1814Y461D02*
X1821Y461D01*
X1Y460D02*
X8Y460D01*
X1814Y460D02*
X1821Y460D01*
X1Y459D02*
X8Y459D01*
X1814Y459D02*
X1821Y459D01*
X1Y458D02*
X8Y458D01*
X1814Y458D02*
X1821Y458D01*
X1Y457D02*
X8Y457D01*
X1814Y457D02*
X1821Y457D01*
X1Y456D02*
X8Y456D01*
X1814Y456D02*
X1821Y456D01*
X1Y455D02*
X8Y455D01*
X1814Y455D02*
X1821Y455D01*
X1Y454D02*
X8Y454D01*
X1814Y454D02*
X1821Y454D01*
X1Y453D02*
X8Y453D01*
X1814Y453D02*
X1821Y453D01*
X1Y452D02*
X8Y452D01*
X1814Y452D02*
X1821Y452D01*
X1Y451D02*
X8Y451D01*
X1814Y451D02*
X1821Y451D01*
X1Y450D02*
X8Y450D01*
X1814Y450D02*
X1821Y450D01*
X1Y449D02*
X8Y449D01*
X1814Y449D02*
X1821Y449D01*
X1Y448D02*
X8Y448D01*
X1814Y448D02*
X1821Y448D01*
X1Y447D02*
X8Y447D01*
X1814Y447D02*
X1821Y447D01*
X1Y446D02*
X8Y446D01*
X1814Y446D02*
X1821Y446D01*
X1Y445D02*
X8Y445D01*
X1814Y445D02*
X1821Y445D01*
X1Y444D02*
X8Y444D01*
X1814Y444D02*
X1821Y444D01*
X1Y443D02*
X8Y443D01*
X1814Y443D02*
X1821Y443D01*
X1Y442D02*
X8Y442D01*
X1814Y442D02*
X1821Y442D01*
X1Y441D02*
X8Y441D01*
X1814Y441D02*
X1821Y441D01*
X1Y440D02*
X8Y440D01*
X1814Y440D02*
X1821Y440D01*
X1Y439D02*
X8Y439D01*
X1814Y439D02*
X1821Y439D01*
X1Y438D02*
X8Y438D01*
X1814Y438D02*
X1821Y438D01*
X1Y437D02*
X8Y437D01*
X1814Y437D02*
X1821Y437D01*
X1Y436D02*
X8Y436D01*
X1814Y436D02*
X1821Y436D01*
X1Y435D02*
X8Y435D01*
X1814Y435D02*
X1821Y435D01*
X1Y434D02*
X8Y434D01*
X1814Y434D02*
X1821Y434D01*
X1Y433D02*
X8Y433D01*
X1814Y433D02*
X1821Y433D01*
X1Y432D02*
X8Y432D01*
X1814Y432D02*
X1821Y432D01*
X1Y431D02*
X8Y431D01*
X1814Y431D02*
X1821Y431D01*
X1Y430D02*
X8Y430D01*
X1814Y430D02*
X1821Y430D01*
X1Y429D02*
X8Y429D01*
X1814Y429D02*
X1821Y429D01*
X1Y428D02*
X8Y428D01*
X1814Y428D02*
X1821Y428D01*
X1Y427D02*
X8Y427D01*
X1814Y427D02*
X1821Y427D01*
X1Y426D02*
X8Y426D01*
X1814Y426D02*
X1821Y426D01*
X1Y425D02*
X8Y425D01*
X1814Y425D02*
X1821Y425D01*
X1Y424D02*
X8Y424D01*
X1814Y424D02*
X1821Y424D01*
X1Y423D02*
X8Y423D01*
X1814Y423D02*
X1821Y423D01*
X1Y422D02*
X8Y422D01*
X1814Y422D02*
X1821Y422D01*
X1Y421D02*
X8Y421D01*
X1814Y421D02*
X1821Y421D01*
X1Y420D02*
X8Y420D01*
X1814Y420D02*
X1821Y420D01*
X1Y419D02*
X8Y419D01*
X1814Y419D02*
X1821Y419D01*
X1Y418D02*
X8Y418D01*
X1814Y418D02*
X1821Y418D01*
X1Y417D02*
X8Y417D01*
X1814Y417D02*
X1821Y417D01*
X1Y416D02*
X8Y416D01*
X1814Y416D02*
X1821Y416D01*
X1Y415D02*
X8Y415D01*
X1814Y415D02*
X1821Y415D01*
X1Y414D02*
X8Y414D01*
X1814Y414D02*
X1821Y414D01*
X1Y413D02*
X8Y413D01*
X1814Y413D02*
X1821Y413D01*
X1Y412D02*
X8Y412D01*
X1814Y412D02*
X1821Y412D01*
X1Y411D02*
X8Y411D01*
X1814Y411D02*
X1821Y411D01*
X1Y410D02*
X8Y410D01*
X1814Y410D02*
X1821Y410D01*
X1Y409D02*
X8Y409D01*
X1814Y409D02*
X1821Y409D01*
X1Y408D02*
X8Y408D01*
X1814Y408D02*
X1821Y408D01*
X1Y407D02*
X8Y407D01*
X1814Y407D02*
X1821Y407D01*
X1Y406D02*
X8Y406D01*
X1814Y406D02*
X1821Y406D01*
X1Y405D02*
X8Y405D01*
X1814Y405D02*
X1821Y405D01*
X1Y404D02*
X8Y404D01*
X1814Y404D02*
X1821Y404D01*
X1Y403D02*
X8Y403D01*
X1814Y403D02*
X1821Y403D01*
X1Y402D02*
X8Y402D01*
X1814Y402D02*
X1821Y402D01*
X1Y401D02*
X8Y401D01*
X1814Y401D02*
X1821Y401D01*
X1Y400D02*
X8Y400D01*
X1814Y400D02*
X1821Y400D01*
X1Y399D02*
X8Y399D01*
X1814Y399D02*
X1821Y399D01*
X1Y398D02*
X8Y398D01*
X1814Y398D02*
X1821Y398D01*
X1Y397D02*
X8Y397D01*
X1814Y397D02*
X1821Y397D01*
X1Y396D02*
X8Y396D01*
X1814Y396D02*
X1821Y396D01*
X1Y395D02*
X8Y395D01*
X1814Y395D02*
X1821Y395D01*
X1Y394D02*
X8Y394D01*
X1814Y394D02*
X1821Y394D01*
X1Y393D02*
X8Y393D01*
X1814Y393D02*
X1821Y393D01*
X1Y392D02*
X8Y392D01*
X1814Y392D02*
X1821Y392D01*
X1Y391D02*
X8Y391D01*
X1814Y391D02*
X1821Y391D01*
X1Y390D02*
X8Y390D01*
X1814Y390D02*
X1821Y390D01*
X1Y389D02*
X8Y389D01*
X1814Y389D02*
X1821Y389D01*
X1Y388D02*
X8Y388D01*
X1814Y388D02*
X1821Y388D01*
X1Y387D02*
X8Y387D01*
X1814Y387D02*
X1821Y387D01*
X1Y386D02*
X8Y386D01*
X1814Y386D02*
X1821Y386D01*
X1Y385D02*
X8Y385D01*
X1814Y385D02*
X1821Y385D01*
X1Y384D02*
X8Y384D01*
X1814Y384D02*
X1821Y384D01*
X1Y383D02*
X8Y383D01*
X1814Y383D02*
X1821Y383D01*
X1Y382D02*
X8Y382D01*
X1814Y382D02*
X1821Y382D01*
X1Y381D02*
X8Y381D01*
X1814Y381D02*
X1821Y381D01*
X1Y380D02*
X8Y380D01*
X1814Y380D02*
X1821Y380D01*
X1Y379D02*
X8Y379D01*
X1814Y379D02*
X1821Y379D01*
X1Y378D02*
X8Y378D01*
X1814Y378D02*
X1821Y378D01*
X1Y377D02*
X8Y377D01*
X1814Y377D02*
X1821Y377D01*
X1Y376D02*
X8Y376D01*
X1814Y376D02*
X1821Y376D01*
X1Y375D02*
X8Y375D01*
X1814Y375D02*
X1821Y375D01*
X1Y374D02*
X8Y374D01*
X60Y374D02*
X60Y374D01*
X1814Y374D02*
X1821Y374D01*
X1Y373D02*
X8Y373D01*
X59Y373D02*
X61Y373D01*
X1814Y373D02*
X1821Y373D01*
X1Y372D02*
X8Y372D01*
X58Y372D02*
X62Y372D01*
X1814Y372D02*
X1821Y372D01*
X1Y371D02*
X8Y371D01*
X57Y371D02*
X63Y371D01*
X1814Y371D02*
X1821Y371D01*
X1Y370D02*
X8Y370D01*
X58Y370D02*
X64Y370D01*
X1814Y370D02*
X1821Y370D01*
X1Y369D02*
X8Y369D01*
X59Y369D02*
X65Y369D01*
X1814Y369D02*
X1821Y369D01*
X1Y368D02*
X8Y368D01*
X60Y368D02*
X66Y368D01*
X1814Y368D02*
X1821Y368D01*
X1Y367D02*
X8Y367D01*
X61Y367D02*
X67Y367D01*
X1814Y367D02*
X1821Y367D01*
X1Y366D02*
X8Y366D01*
X62Y366D02*
X68Y366D01*
X1814Y366D02*
X1821Y366D01*
X1Y365D02*
X8Y365D01*
X63Y365D02*
X69Y365D01*
X1814Y365D02*
X1821Y365D01*
X1Y364D02*
X8Y364D01*
X64Y364D02*
X70Y364D01*
X1814Y364D02*
X1821Y364D01*
X1Y363D02*
X8Y363D01*
X65Y363D02*
X71Y363D01*
X1814Y363D02*
X1821Y363D01*
X1Y362D02*
X8Y362D01*
X66Y362D02*
X72Y362D01*
X1814Y362D02*
X1821Y362D01*
X1Y361D02*
X8Y361D01*
X67Y361D02*
X73Y361D01*
X1814Y361D02*
X1821Y361D01*
X1Y360D02*
X8Y360D01*
X68Y360D02*
X74Y360D01*
X1814Y360D02*
X1821Y360D01*
X1Y359D02*
X8Y359D01*
X69Y359D02*
X74Y359D01*
X1814Y359D02*
X1821Y359D01*
X1Y358D02*
X8Y358D01*
X70Y358D02*
X75Y358D01*
X1814Y358D02*
X1821Y358D01*
X1Y357D02*
X8Y357D01*
X71Y357D02*
X76Y357D01*
X1814Y357D02*
X1821Y357D01*
X1Y356D02*
X8Y356D01*
X72Y356D02*
X77Y356D01*
X1814Y356D02*
X1821Y356D01*
X1Y355D02*
X8Y355D01*
X73Y355D02*
X78Y355D01*
X1814Y355D02*
X1821Y355D01*
X1Y354D02*
X8Y354D01*
X74Y354D02*
X79Y354D01*
X1814Y354D02*
X1821Y354D01*
X1Y353D02*
X8Y353D01*
X75Y353D02*
X81Y353D01*
X1814Y353D02*
X1821Y353D01*
X1Y352D02*
X8Y352D01*
X76Y352D02*
X82Y352D01*
X1814Y352D02*
X1821Y352D01*
X1Y351D02*
X8Y351D01*
X77Y351D02*
X83Y351D01*
X1814Y351D02*
X1821Y351D01*
X1Y350D02*
X8Y350D01*
X78Y350D02*
X84Y350D01*
X1814Y350D02*
X1821Y350D01*
X1Y349D02*
X8Y349D01*
X79Y349D02*
X85Y349D01*
X1814Y349D02*
X1821Y349D01*
X1Y348D02*
X8Y348D01*
X80Y348D02*
X86Y348D01*
X1814Y348D02*
X1821Y348D01*
X1Y347D02*
X8Y347D01*
X81Y347D02*
X87Y347D01*
X1814Y347D02*
X1821Y347D01*
X1Y346D02*
X8Y346D01*
X82Y346D02*
X88Y346D01*
X1814Y346D02*
X1821Y346D01*
X1Y345D02*
X8Y345D01*
X83Y345D02*
X89Y345D01*
X1814Y345D02*
X1821Y345D01*
X1Y344D02*
X8Y344D01*
X84Y344D02*
X90Y344D01*
X1814Y344D02*
X1821Y344D01*
X1Y343D02*
X8Y343D01*
X85Y343D02*
X91Y343D01*
X1814Y343D02*
X1821Y343D01*
X1Y342D02*
X8Y342D01*
X86Y342D02*
X92Y342D01*
X1814Y342D02*
X1821Y342D01*
X1Y341D02*
X8Y341D01*
X87Y341D02*
X93Y341D01*
X1814Y341D02*
X1821Y341D01*
X1Y340D02*
X8Y340D01*
X88Y340D02*
X94Y340D01*
X1814Y340D02*
X1821Y340D01*
X1Y339D02*
X8Y339D01*
X89Y339D02*
X94Y339D01*
X1814Y339D02*
X1821Y339D01*
X1Y338D02*
X8Y338D01*
X90Y338D02*
X93Y338D01*
X1814Y338D02*
X1821Y338D01*
X1Y337D02*
X8Y337D01*
X91Y337D02*
X92Y337D01*
X1814Y337D02*
X1821Y337D01*
X1Y336D02*
X8Y336D01*
X1814Y336D02*
X1821Y336D01*
X1Y335D02*
X8Y335D01*
X1814Y335D02*
X1821Y335D01*
X1Y334D02*
X8Y334D01*
X1814Y334D02*
X1821Y334D01*
X1Y333D02*
X8Y333D01*
X1814Y333D02*
X1821Y333D01*
X1Y332D02*
X8Y332D01*
X1814Y332D02*
X1821Y332D01*
X1Y331D02*
X8Y331D01*
X1814Y331D02*
X1821Y331D01*
X1Y330D02*
X8Y330D01*
X1814Y330D02*
X1821Y330D01*
X1Y329D02*
X8Y329D01*
X1814Y329D02*
X1821Y329D01*
X1Y328D02*
X8Y328D01*
X1814Y328D02*
X1821Y328D01*
X1Y327D02*
X8Y327D01*
X1814Y327D02*
X1821Y327D01*
X1Y326D02*
X8Y326D01*
X1814Y326D02*
X1821Y326D01*
X1Y325D02*
X8Y325D01*
X1814Y325D02*
X1821Y325D01*
X1Y324D02*
X8Y324D01*
X1814Y324D02*
X1821Y324D01*
X1Y323D02*
X8Y323D01*
X1814Y323D02*
X1821Y323D01*
X1Y322D02*
X8Y322D01*
X1814Y322D02*
X1821Y322D01*
X1Y321D02*
X8Y321D01*
X1814Y321D02*
X1821Y321D01*
X1Y320D02*
X8Y320D01*
X1814Y320D02*
X1821Y320D01*
X1Y319D02*
X8Y319D01*
X1814Y319D02*
X1821Y319D01*
X1Y318D02*
X8Y318D01*
X1814Y318D02*
X1821Y318D01*
X1Y317D02*
X8Y317D01*
X1814Y317D02*
X1821Y317D01*
X1Y316D02*
X8Y316D01*
X1814Y316D02*
X1821Y316D01*
X1Y315D02*
X8Y315D01*
X1814Y315D02*
X1821Y315D01*
X1Y314D02*
X8Y314D01*
X1814Y314D02*
X1821Y314D01*
X1Y313D02*
X8Y313D01*
X1814Y313D02*
X1821Y313D01*
X1Y312D02*
X8Y312D01*
X1814Y312D02*
X1821Y312D01*
X1Y311D02*
X8Y311D01*
X1814Y311D02*
X1821Y311D01*
X1Y310D02*
X8Y310D01*
X1814Y310D02*
X1821Y310D01*
X1Y309D02*
X8Y309D01*
X1814Y309D02*
X1821Y309D01*
X1Y308D02*
X8Y308D01*
X1814Y308D02*
X1821Y308D01*
X1Y307D02*
X8Y307D01*
X1814Y307D02*
X1821Y307D01*
X1Y306D02*
X8Y306D01*
X1814Y306D02*
X1821Y306D01*
X1Y305D02*
X8Y305D01*
X1814Y305D02*
X1821Y305D01*
X1Y304D02*
X8Y304D01*
X1814Y304D02*
X1821Y304D01*
X1Y303D02*
X8Y303D01*
X1814Y303D02*
X1821Y303D01*
X1Y302D02*
X8Y302D01*
X1814Y302D02*
X1821Y302D01*
X1Y301D02*
X8Y301D01*
X1814Y301D02*
X1821Y301D01*
X1Y300D02*
X8Y300D01*
X1814Y300D02*
X1821Y300D01*
X1Y299D02*
X8Y299D01*
X1814Y299D02*
X1821Y299D01*
X1Y298D02*
X8Y298D01*
X1814Y298D02*
X1821Y298D01*
X1Y297D02*
X8Y297D01*
X1814Y297D02*
X1821Y297D01*
X1Y296D02*
X8Y296D01*
X1814Y296D02*
X1821Y296D01*
X1Y295D02*
X8Y295D01*
X1814Y295D02*
X1821Y295D01*
X1Y294D02*
X8Y294D01*
X1814Y294D02*
X1821Y294D01*
X1Y293D02*
X8Y293D01*
X1814Y293D02*
X1821Y293D01*
X1Y292D02*
X8Y292D01*
X1814Y292D02*
X1821Y292D01*
X1Y291D02*
X8Y291D01*
X1814Y291D02*
X1821Y291D01*
X1Y290D02*
X8Y290D01*
X1814Y290D02*
X1821Y290D01*
X1Y289D02*
X8Y289D01*
X1814Y289D02*
X1821Y289D01*
X1Y288D02*
X8Y288D01*
X1814Y288D02*
X1821Y288D01*
X1Y287D02*
X8Y287D01*
X1814Y287D02*
X1821Y287D01*
X1Y286D02*
X8Y286D01*
X1814Y286D02*
X1821Y286D01*
X1Y285D02*
X8Y285D01*
X1814Y285D02*
X1821Y285D01*
X1Y284D02*
X8Y284D01*
X1814Y284D02*
X1821Y284D01*
X1Y283D02*
X8Y283D01*
X1814Y283D02*
X1821Y283D01*
X1Y282D02*
X8Y282D01*
X1814Y282D02*
X1821Y282D01*
X1Y281D02*
X8Y281D01*
X1814Y281D02*
X1821Y281D01*
X1Y280D02*
X8Y280D01*
X1814Y280D02*
X1821Y280D01*
X1Y279D02*
X8Y279D01*
X1814Y279D02*
X1821Y279D01*
X1Y278D02*
X8Y278D01*
X1814Y278D02*
X1821Y278D01*
X1Y277D02*
X8Y277D01*
X1814Y277D02*
X1821Y277D01*
X1Y276D02*
X8Y276D01*
X1814Y276D02*
X1821Y276D01*
X1Y275D02*
X8Y275D01*
X1814Y275D02*
X1821Y275D01*
X1Y274D02*
X8Y274D01*
X60Y274D02*
X60Y274D01*
X1814Y274D02*
X1821Y274D01*
X1Y273D02*
X8Y273D01*
X59Y273D02*
X61Y273D01*
X1814Y273D02*
X1821Y273D01*
X1Y272D02*
X8Y272D01*
X58Y272D02*
X62Y272D01*
X1814Y272D02*
X1821Y272D01*
X1Y271D02*
X8Y271D01*
X57Y271D02*
X63Y271D01*
X1814Y271D02*
X1821Y271D01*
X1Y270D02*
X8Y270D01*
X58Y270D02*
X64Y270D01*
X1814Y270D02*
X1821Y270D01*
X1Y269D02*
X8Y269D01*
X59Y269D02*
X65Y269D01*
X1814Y269D02*
X1821Y269D01*
X1Y268D02*
X8Y268D01*
X60Y268D02*
X66Y268D01*
X1814Y268D02*
X1821Y268D01*
X1Y267D02*
X8Y267D01*
X61Y267D02*
X67Y267D01*
X1814Y267D02*
X1821Y267D01*
X1Y266D02*
X8Y266D01*
X62Y266D02*
X68Y266D01*
X1814Y266D02*
X1821Y266D01*
X1Y265D02*
X8Y265D01*
X63Y265D02*
X69Y265D01*
X1814Y265D02*
X1821Y265D01*
X1Y264D02*
X8Y264D01*
X64Y264D02*
X70Y264D01*
X1814Y264D02*
X1821Y264D01*
X1Y263D02*
X8Y263D01*
X65Y263D02*
X71Y263D01*
X1814Y263D02*
X1821Y263D01*
X1Y262D02*
X8Y262D01*
X66Y262D02*
X72Y262D01*
X1814Y262D02*
X1821Y262D01*
X1Y261D02*
X8Y261D01*
X67Y261D02*
X73Y261D01*
X1814Y261D02*
X1821Y261D01*
X1Y260D02*
X8Y260D01*
X68Y260D02*
X74Y260D01*
X1814Y260D02*
X1821Y260D01*
X1Y259D02*
X8Y259D01*
X69Y259D02*
X74Y259D01*
X1814Y259D02*
X1821Y259D01*
X1Y258D02*
X8Y258D01*
X70Y258D02*
X75Y258D01*
X1814Y258D02*
X1821Y258D01*
X1Y257D02*
X8Y257D01*
X71Y257D02*
X76Y257D01*
X1814Y257D02*
X1821Y257D01*
X1Y256D02*
X8Y256D01*
X72Y256D02*
X77Y256D01*
X1814Y256D02*
X1821Y256D01*
X1Y255D02*
X8Y255D01*
X73Y255D02*
X78Y255D01*
X1814Y255D02*
X1821Y255D01*
X1Y254D02*
X8Y254D01*
X74Y254D02*
X80Y254D01*
X1814Y254D02*
X1821Y254D01*
X1Y253D02*
X8Y253D01*
X75Y253D02*
X81Y253D01*
X1814Y253D02*
X1821Y253D01*
X1Y252D02*
X8Y252D01*
X76Y252D02*
X82Y252D01*
X1814Y252D02*
X1821Y252D01*
X1Y251D02*
X8Y251D01*
X77Y251D02*
X83Y251D01*
X1814Y251D02*
X1821Y251D01*
X1Y250D02*
X8Y250D01*
X78Y250D02*
X84Y250D01*
X1814Y250D02*
X1821Y250D01*
X1Y249D02*
X8Y249D01*
X79Y249D02*
X85Y249D01*
X1814Y249D02*
X1821Y249D01*
X1Y248D02*
X8Y248D01*
X80Y248D02*
X86Y248D01*
X1814Y248D02*
X1821Y248D01*
X1Y247D02*
X8Y247D01*
X81Y247D02*
X87Y247D01*
X1814Y247D02*
X1821Y247D01*
X1Y246D02*
X8Y246D01*
X82Y246D02*
X88Y246D01*
X1814Y246D02*
X1821Y246D01*
X1Y245D02*
X8Y245D01*
X83Y245D02*
X89Y245D01*
X1814Y245D02*
X1821Y245D01*
X1Y244D02*
X8Y244D01*
X84Y244D02*
X90Y244D01*
X1814Y244D02*
X1821Y244D01*
X1Y243D02*
X8Y243D01*
X85Y243D02*
X91Y243D01*
X1814Y243D02*
X1821Y243D01*
X1Y242D02*
X8Y242D01*
X86Y242D02*
X92Y242D01*
X1814Y242D02*
X1821Y242D01*
X1Y241D02*
X8Y241D01*
X87Y241D02*
X93Y241D01*
X1814Y241D02*
X1821Y241D01*
X1Y240D02*
X8Y240D01*
X88Y240D02*
X94Y240D01*
X1814Y240D02*
X1821Y240D01*
X1Y239D02*
X8Y239D01*
X89Y239D02*
X94Y239D01*
X1814Y239D02*
X1821Y239D01*
X1Y238D02*
X8Y238D01*
X90Y238D02*
X93Y238D01*
X1814Y238D02*
X1821Y238D01*
X1Y237D02*
X8Y237D01*
X91Y237D02*
X92Y237D01*
X1814Y237D02*
X1821Y237D01*
X1Y236D02*
X8Y236D01*
X1814Y236D02*
X1821Y236D01*
X1Y235D02*
X8Y235D01*
X1814Y235D02*
X1821Y235D01*
X1Y234D02*
X8Y234D01*
X1814Y234D02*
X1821Y234D01*
X1Y233D02*
X8Y233D01*
X1814Y233D02*
X1821Y233D01*
X1Y232D02*
X8Y232D01*
X1814Y232D02*
X1821Y232D01*
X1Y231D02*
X8Y231D01*
X1814Y231D02*
X1821Y231D01*
X1Y230D02*
X8Y230D01*
X1814Y230D02*
X1821Y230D01*
X1Y229D02*
X8Y229D01*
X1814Y229D02*
X1821Y229D01*
X1Y228D02*
X8Y228D01*
X1814Y228D02*
X1821Y228D01*
X1Y227D02*
X8Y227D01*
X1814Y227D02*
X1821Y227D01*
X1Y226D02*
X8Y226D01*
X1814Y226D02*
X1821Y226D01*
X1Y225D02*
X8Y225D01*
X1814Y225D02*
X1821Y225D01*
X1Y224D02*
X8Y224D01*
X1814Y224D02*
X1821Y224D01*
X1Y223D02*
X8Y223D01*
X1814Y223D02*
X1821Y223D01*
X1Y222D02*
X8Y222D01*
X1814Y222D02*
X1821Y222D01*
X1Y221D02*
X8Y221D01*
X1814Y221D02*
X1821Y221D01*
X1Y220D02*
X8Y220D01*
X1814Y220D02*
X1821Y220D01*
X1Y219D02*
X8Y219D01*
X1814Y219D02*
X1821Y219D01*
X1Y218D02*
X8Y218D01*
X1814Y218D02*
X1821Y218D01*
X1Y217D02*
X8Y217D01*
X1814Y217D02*
X1821Y217D01*
X1Y216D02*
X8Y216D01*
X1814Y216D02*
X1821Y216D01*
X1Y215D02*
X8Y215D01*
X1814Y215D02*
X1821Y215D01*
X1Y214D02*
X8Y214D01*
X1814Y214D02*
X1821Y214D01*
X1Y213D02*
X8Y213D01*
X1814Y213D02*
X1821Y213D01*
X1Y212D02*
X8Y212D01*
X1814Y212D02*
X1821Y212D01*
X1Y211D02*
X8Y211D01*
X1814Y211D02*
X1821Y211D01*
X1Y210D02*
X8Y210D01*
X1814Y210D02*
X1821Y210D01*
X1Y209D02*
X8Y209D01*
X1814Y209D02*
X1821Y209D01*
X1Y208D02*
X8Y208D01*
X1814Y208D02*
X1821Y208D01*
X1Y207D02*
X8Y207D01*
X1814Y207D02*
X1821Y207D01*
X1Y206D02*
X8Y206D01*
X1814Y206D02*
X1821Y206D01*
X1Y205D02*
X8Y205D01*
X1814Y205D02*
X1821Y205D01*
X1Y204D02*
X8Y204D01*
X1814Y204D02*
X1821Y204D01*
X1Y203D02*
X8Y203D01*
X1814Y203D02*
X1821Y203D01*
X1Y202D02*
X8Y202D01*
X1814Y202D02*
X1821Y202D01*
X1Y201D02*
X8Y201D01*
X1814Y201D02*
X1821Y201D01*
X1Y200D02*
X8Y200D01*
X1814Y200D02*
X1821Y200D01*
X1Y199D02*
X8Y199D01*
X1814Y199D02*
X1821Y199D01*
X1Y198D02*
X8Y198D01*
X1814Y198D02*
X1821Y198D01*
X1Y197D02*
X8Y197D01*
X1814Y197D02*
X1821Y197D01*
X1Y196D02*
X8Y196D01*
X1814Y196D02*
X1821Y196D01*
X1Y195D02*
X8Y195D01*
X1814Y195D02*
X1821Y195D01*
X1Y194D02*
X8Y194D01*
X1814Y194D02*
X1821Y194D01*
X1Y193D02*
X8Y193D01*
X1814Y193D02*
X1821Y193D01*
X1Y192D02*
X8Y192D01*
X1814Y192D02*
X1821Y192D01*
X1Y191D02*
X8Y191D01*
X1814Y191D02*
X1821Y191D01*
X1Y190D02*
X8Y190D01*
X1814Y190D02*
X1821Y190D01*
X1Y189D02*
X8Y189D01*
X1814Y189D02*
X1821Y189D01*
X1Y188D02*
X8Y188D01*
X1814Y188D02*
X1821Y188D01*
X1Y187D02*
X8Y187D01*
X1814Y187D02*
X1821Y187D01*
X1Y186D02*
X8Y186D01*
X1814Y186D02*
X1821Y186D01*
X1Y185D02*
X8Y185D01*
X1814Y185D02*
X1821Y185D01*
X1Y184D02*
X8Y184D01*
X1814Y184D02*
X1821Y184D01*
X1Y183D02*
X8Y183D01*
X1814Y183D02*
X1821Y183D01*
X1Y182D02*
X8Y182D01*
X1814Y182D02*
X1821Y182D01*
X1Y181D02*
X8Y181D01*
X1814Y181D02*
X1821Y181D01*
X1Y180D02*
X8Y180D01*
X1814Y180D02*
X1821Y180D01*
X1Y179D02*
X8Y179D01*
X1814Y179D02*
X1821Y179D01*
X1Y178D02*
X8Y178D01*
X1814Y178D02*
X1821Y178D01*
X1Y177D02*
X8Y177D01*
X1814Y177D02*
X1821Y177D01*
X1Y176D02*
X8Y176D01*
X1814Y176D02*
X1821Y176D01*
X1Y175D02*
X8Y175D01*
X1814Y175D02*
X1821Y175D01*
X1Y174D02*
X8Y174D01*
X1814Y174D02*
X1821Y174D01*
X1Y173D02*
X8Y173D01*
X1814Y173D02*
X1821Y173D01*
X1Y172D02*
X8Y172D01*
X1814Y172D02*
X1821Y172D01*
X1Y171D02*
X8Y171D01*
X1814Y171D02*
X1821Y171D01*
X1Y170D02*
X8Y170D01*
X1814Y170D02*
X1821Y170D01*
X1Y169D02*
X8Y169D01*
X1814Y169D02*
X1821Y169D01*
X1Y168D02*
X8Y168D01*
X1814Y168D02*
X1821Y168D01*
X1Y167D02*
X8Y167D01*
X1814Y167D02*
X1821Y167D01*
X1Y166D02*
X8Y166D01*
X1814Y166D02*
X1821Y166D01*
X1Y165D02*
X8Y165D01*
X1814Y165D02*
X1821Y165D01*
X1Y164D02*
X8Y164D01*
X1814Y164D02*
X1821Y164D01*
X1Y163D02*
X8Y163D01*
X1814Y163D02*
X1821Y163D01*
X1Y162D02*
X8Y162D01*
X1814Y162D02*
X1821Y162D01*
X1Y161D02*
X8Y161D01*
X1814Y161D02*
X1821Y161D01*
X1Y160D02*
X8Y160D01*
X1814Y160D02*
X1821Y160D01*
X1Y159D02*
X8Y159D01*
X1814Y159D02*
X1821Y159D01*
X1Y158D02*
X8Y158D01*
X1814Y158D02*
X1821Y158D01*
X1Y157D02*
X8Y157D01*
X1814Y157D02*
X1821Y157D01*
X1Y156D02*
X8Y156D01*
X1814Y156D02*
X1821Y156D01*
X1Y155D02*
X8Y155D01*
X1814Y155D02*
X1821Y155D01*
X1Y154D02*
X8Y154D01*
X1814Y154D02*
X1821Y154D01*
X1Y153D02*
X8Y153D01*
X1814Y153D02*
X1821Y153D01*
X1Y152D02*
X8Y152D01*
X1814Y152D02*
X1821Y152D01*
X1Y151D02*
X8Y151D01*
X1814Y151D02*
X1821Y151D01*
X1Y150D02*
X8Y150D01*
X1814Y150D02*
X1821Y150D01*
X1Y149D02*
X8Y149D01*
X1814Y149D02*
X1821Y149D01*
X1Y148D02*
X8Y148D01*
X1814Y148D02*
X1821Y148D01*
X1Y147D02*
X8Y147D01*
X1814Y147D02*
X1821Y147D01*
X1Y146D02*
X8Y146D01*
X1814Y146D02*
X1821Y146D01*
X1Y145D02*
X8Y145D01*
X1814Y145D02*
X1821Y145D01*
X1Y144D02*
X8Y144D01*
X1814Y144D02*
X1821Y144D01*
X1Y143D02*
X8Y143D01*
X1814Y143D02*
X1821Y143D01*
X1Y142D02*
X8Y142D01*
X1814Y142D02*
X1821Y142D01*
X1Y141D02*
X8Y141D01*
X1814Y141D02*
X1821Y141D01*
X1Y140D02*
X8Y140D01*
X1814Y140D02*
X1821Y140D01*
X1Y139D02*
X8Y139D01*
X1814Y139D02*
X1821Y139D01*
X1Y138D02*
X8Y138D01*
X1814Y138D02*
X1821Y138D01*
X1Y137D02*
X8Y137D01*
X1814Y137D02*
X1821Y137D01*
X1Y136D02*
X8Y136D01*
X1814Y136D02*
X1821Y136D01*
X1Y135D02*
X8Y135D01*
X1814Y135D02*
X1821Y135D01*
X1Y134D02*
X8Y134D01*
X1814Y134D02*
X1821Y134D01*
X1Y133D02*
X8Y133D01*
X1814Y133D02*
X1821Y133D01*
X1Y132D02*
X8Y132D01*
X1814Y132D02*
X1821Y132D01*
X1Y131D02*
X8Y131D01*
X1814Y131D02*
X1821Y131D01*
X1Y130D02*
X8Y130D01*
X1814Y130D02*
X1821Y130D01*
X1Y129D02*
X8Y129D01*
X1814Y129D02*
X1821Y129D01*
X1Y128D02*
X8Y128D01*
X1814Y128D02*
X1821Y128D01*
X1Y127D02*
X8Y127D01*
X1814Y127D02*
X1821Y127D01*
X1Y126D02*
X8Y126D01*
X1814Y126D02*
X1821Y126D01*
X1Y125D02*
X8Y125D01*
X1814Y125D02*
X1821Y125D01*
X1Y124D02*
X8Y124D01*
X1814Y124D02*
X1821Y124D01*
X1Y123D02*
X8Y123D01*
X1814Y123D02*
X1821Y123D01*
X1Y122D02*
X8Y122D01*
X1814Y122D02*
X1821Y122D01*
X1Y121D02*
X8Y121D01*
X1814Y121D02*
X1821Y121D01*
X1Y120D02*
X8Y120D01*
X1814Y120D02*
X1821Y120D01*
X1Y119D02*
X8Y119D01*
X1814Y119D02*
X1821Y119D01*
X1Y118D02*
X8Y118D01*
X1814Y118D02*
X1821Y118D01*
X1Y117D02*
X8Y117D01*
X1814Y117D02*
X1821Y117D01*
X1Y116D02*
X8Y116D01*
X1814Y116D02*
X1821Y116D01*
X1Y115D02*
X8Y115D01*
X1814Y115D02*
X1821Y115D01*
X1Y114D02*
X8Y114D01*
X1814Y114D02*
X1821Y114D01*
X1Y113D02*
X8Y113D01*
X1814Y113D02*
X1821Y113D01*
X1Y112D02*
X8Y112D01*
X1814Y112D02*
X1821Y112D01*
X1Y111D02*
X8Y111D01*
X1814Y111D02*
X1821Y111D01*
X1Y110D02*
X8Y110D01*
X1814Y110D02*
X1821Y110D01*
X1Y109D02*
X8Y109D01*
X1814Y109D02*
X1821Y109D01*
X1Y108D02*
X8Y108D01*
X1814Y108D02*
X1821Y108D01*
X1Y107D02*
X8Y107D01*
X1814Y107D02*
X1821Y107D01*
X1Y106D02*
X8Y106D01*
X1814Y106D02*
X1821Y106D01*
X1Y105D02*
X8Y105D01*
X1814Y105D02*
X1821Y105D01*
X1Y104D02*
X8Y104D01*
X1814Y104D02*
X1821Y104D01*
X1Y103D02*
X8Y103D01*
X1814Y103D02*
X1821Y103D01*
X1Y102D02*
X8Y102D01*
X1814Y102D02*
X1821Y102D01*
X1Y101D02*
X8Y101D01*
X1814Y101D02*
X1821Y101D01*
X1Y100D02*
X8Y100D01*
X1814Y100D02*
X1821Y100D01*
X1Y99D02*
X8Y99D01*
X1814Y99D02*
X1821Y99D01*
X1Y98D02*
X8Y98D01*
X1814Y98D02*
X1821Y98D01*
X1Y97D02*
X8Y97D01*
X1814Y97D02*
X1821Y97D01*
X1Y96D02*
X8Y96D01*
X1814Y96D02*
X1821Y96D01*
X1Y95D02*
X8Y95D01*
X1814Y95D02*
X1821Y95D01*
X1Y94D02*
X8Y94D01*
X1814Y94D02*
X1821Y94D01*
X1Y93D02*
X8Y93D01*
X1814Y93D02*
X1821Y93D01*
X1Y92D02*
X8Y92D01*
X1814Y92D02*
X1821Y92D01*
X1Y91D02*
X8Y91D01*
X1814Y91D02*
X1821Y91D01*
X1Y90D02*
X8Y90D01*
X1814Y90D02*
X1821Y90D01*
X1Y89D02*
X8Y89D01*
X1814Y89D02*
X1821Y89D01*
X1Y88D02*
X8Y88D01*
X1814Y88D02*
X1821Y88D01*
X1Y87D02*
X8Y87D01*
X1814Y87D02*
X1821Y87D01*
X1Y86D02*
X8Y86D01*
X1814Y86D02*
X1821Y86D01*
X1Y85D02*
X8Y85D01*
X1814Y85D02*
X1821Y85D01*
X1Y84D02*
X8Y84D01*
X1814Y84D02*
X1821Y84D01*
X1Y83D02*
X8Y83D01*
X1814Y83D02*
X1821Y83D01*
X1Y82D02*
X8Y82D01*
X1814Y82D02*
X1821Y82D01*
X1Y81D02*
X8Y81D01*
X1814Y81D02*
X1821Y81D01*
X1Y80D02*
X8Y80D01*
X1814Y80D02*
X1821Y80D01*
X1Y79D02*
X8Y79D01*
X1814Y79D02*
X1821Y79D01*
X1Y78D02*
X8Y78D01*
X1814Y78D02*
X1821Y78D01*
X1Y77D02*
X8Y77D01*
X1814Y77D02*
X1821Y77D01*
X1Y76D02*
X8Y76D01*
X1814Y76D02*
X1821Y76D01*
X1Y75D02*
X8Y75D01*
X1814Y75D02*
X1821Y75D01*
X1Y74D02*
X8Y74D01*
X1814Y74D02*
X1821Y74D01*
X1Y73D02*
X8Y73D01*
X1814Y73D02*
X1821Y73D01*
X1Y72D02*
X8Y72D01*
X1814Y72D02*
X1821Y72D01*
X1Y71D02*
X8Y71D01*
X1814Y71D02*
X1821Y71D01*
X1Y70D02*
X8Y70D01*
X1814Y70D02*
X1821Y70D01*
X1Y69D02*
X8Y69D01*
X1814Y69D02*
X1821Y69D01*
X1Y68D02*
X8Y68D01*
X1814Y68D02*
X1821Y68D01*
X1Y67D02*
X8Y67D01*
X1814Y67D02*
X1821Y67D01*
X1Y66D02*
X8Y66D01*
X1814Y66D02*
X1821Y66D01*
X1Y65D02*
X8Y65D01*
X1814Y65D02*
X1821Y65D01*
X1Y64D02*
X8Y64D01*
X1814Y64D02*
X1821Y64D01*
X1Y63D02*
X8Y63D01*
X1814Y63D02*
X1821Y63D01*
X1Y62D02*
X8Y62D01*
X1814Y62D02*
X1821Y62D01*
X1Y61D02*
X8Y61D01*
X1814Y61D02*
X1821Y61D01*
X1Y60D02*
X8Y60D01*
X1814Y60D02*
X1821Y60D01*
X1Y59D02*
X8Y59D01*
X1814Y59D02*
X1821Y59D01*
X1Y58D02*
X8Y58D01*
X1814Y58D02*
X1821Y58D01*
X1Y57D02*
X8Y57D01*
X1814Y57D02*
X1821Y57D01*
X1Y56D02*
X8Y56D01*
X1814Y56D02*
X1821Y56D01*
X1Y55D02*
X8Y55D01*
X1814Y55D02*
X1821Y55D01*
X1Y54D02*
X8Y54D01*
X1814Y54D02*
X1821Y54D01*
X1Y53D02*
X8Y53D01*
X1814Y53D02*
X1821Y53D01*
X1Y52D02*
X8Y52D01*
X1814Y52D02*
X1821Y52D01*
X1Y51D02*
X8Y51D01*
X1814Y51D02*
X1821Y51D01*
X1Y50D02*
X8Y50D01*
X1814Y50D02*
X1821Y50D01*
X1Y49D02*
X8Y49D01*
X1814Y49D02*
X1821Y49D01*
X1Y48D02*
X8Y48D01*
X1814Y48D02*
X1821Y48D01*
X1Y47D02*
X8Y47D01*
X1814Y47D02*
X1821Y47D01*
X1Y46D02*
X8Y46D01*
X1814Y46D02*
X1821Y46D01*
X1Y45D02*
X8Y45D01*
X1814Y45D02*
X1821Y45D01*
X1Y44D02*
X8Y44D01*
X1814Y44D02*
X1821Y44D01*
X1Y43D02*
X8Y43D01*
X1814Y43D02*
X1821Y43D01*
X1Y42D02*
X8Y42D01*
X1814Y42D02*
X1821Y42D01*
X1Y41D02*
X8Y41D01*
X1814Y41D02*
X1821Y41D01*
X1Y40D02*
X8Y40D01*
X1814Y40D02*
X1821Y40D01*
X1Y39D02*
X8Y39D01*
X1814Y39D02*
X1821Y39D01*
X1Y38D02*
X8Y38D01*
X1814Y38D02*
X1821Y38D01*
X1Y37D02*
X8Y37D01*
X1814Y37D02*
X1821Y37D01*
X1Y36D02*
X8Y36D01*
X1814Y36D02*
X1821Y36D01*
X1Y35D02*
X8Y35D01*
X1814Y35D02*
X1821Y35D01*
X1Y34D02*
X8Y34D01*
X1814Y34D02*
X1821Y34D01*
X1Y33D02*
X8Y33D01*
X1814Y33D02*
X1821Y33D01*
X1Y32D02*
X8Y32D01*
X1814Y32D02*
X1821Y32D01*
X1Y31D02*
X8Y31D01*
X1814Y31D02*
X1821Y31D01*
X1Y30D02*
X8Y30D01*
X1814Y30D02*
X1821Y30D01*
X1Y29D02*
X8Y29D01*
X1814Y29D02*
X1821Y29D01*
X1Y28D02*
X8Y28D01*
X1814Y28D02*
X1821Y28D01*
X1Y27D02*
X8Y27D01*
X1814Y27D02*
X1821Y27D01*
X1Y26D02*
X8Y26D01*
X1814Y26D02*
X1821Y26D01*
X1Y25D02*
X8Y25D01*
X1814Y25D02*
X1821Y25D01*
X1Y24D02*
X8Y24D01*
X1814Y24D02*
X1821Y24D01*
X1Y23D02*
X8Y23D01*
X1814Y23D02*
X1821Y23D01*
X1Y22D02*
X8Y22D01*
X1814Y22D02*
X1821Y22D01*
X1Y21D02*
X8Y21D01*
X1814Y21D02*
X1821Y21D01*
X1Y20D02*
X8Y20D01*
X1814Y20D02*
X1821Y20D01*
X1Y19D02*
X8Y19D01*
X1814Y19D02*
X1821Y19D01*
X1Y18D02*
X8Y18D01*
X1814Y18D02*
X1821Y18D01*
X1Y17D02*
X8Y17D01*
X1814Y17D02*
X1821Y17D01*
X1Y16D02*
X8Y16D01*
X1814Y16D02*
X1821Y16D01*
X1Y15D02*
X8Y15D01*
X1814Y15D02*
X1821Y15D01*
X1Y14D02*
X8Y14D01*
X1814Y14D02*
X1821Y14D01*
X1Y13D02*
X8Y13D01*
X1814Y13D02*
X1821Y13D01*
X1Y12D02*
X8Y12D01*
X1814Y12D02*
X1821Y12D01*
X1Y11D02*
X8Y11D01*
X1814Y11D02*
X1821Y11D01*
X1Y10D02*
X8Y10D01*
X1814Y10D02*
X1821Y10D01*
X1Y9D02*
X8Y9D01*
X1814Y9D02*
X1821Y9D01*
X1Y8D02*
X1821Y8D01*
X1Y7D02*
X1821Y7D01*
X1Y6D02*
X1821Y6D01*
X1Y5D02*
X1821Y5D01*
X1Y4D02*
X1821Y4D01*
X1Y3D02*
X1821Y3D01*
X1Y2D02*
X1821Y2D01*
X1Y1D02*
X1821Y1D01*
D02*
G04 End of Silk0*
M02*