G04 MADE WITH FRITZING*
G04 WWW.FRITZING.ORG*
G04 SINGLE SIDED*
G04 HOLES NOT PLATED*
G04 CONTOUR ON CENTER OF CONTOUR VECTOR*
%ASAXBY*%
%FSLAX23Y23*%
%MOIN*%
%OFA0B0*%
%SFA1.0B1.0*%
%ADD10C,0.210000X0.19*%
%ADD11R,1.821250X1.196930X1.805250X1.180930*%
%ADD12C,0.008000*%
%ADD13C,0.021000*%
%ADD14C,0.010000*%
%ADD15C,0.020000*%
%ADD16C,0.005000*%
%ADD17R,0.001000X0.001000*%
%LNSILK1*%
G90*
G70*
G54D10*
X1408Y537D03*
G54D12*
X4Y1193D02*
X1817Y1193D01*
X1817Y4D01*
X4Y4D01*
X4Y1193D01*
D02*
G54D13*
X834Y761D02*
X981Y614D01*
G54D14*
D02*
X349Y787D02*
X362Y787D01*
D02*
X557Y787D02*
X564Y787D01*
D02*
X362Y832D02*
X557Y832D01*
D02*
X557Y832D02*
X557Y742D01*
D02*
X557Y742D02*
X362Y742D01*
D02*
X362Y742D02*
X362Y832D01*
G54D15*
D02*
X382Y742D02*
X382Y832D01*
G54D14*
D02*
X1208Y1107D02*
X1608Y1107D01*
D02*
X1608Y1107D02*
X1608Y927D01*
D02*
X1608Y927D02*
X1208Y927D01*
D02*
X1208Y927D02*
X1208Y1107D01*
D02*
X1208Y1107D02*
X1608Y1107D01*
D02*
X1608Y1107D02*
X1608Y1047D01*
D02*
X1608Y1047D02*
X1208Y1047D01*
D02*
X1208Y1047D02*
X1208Y1107D01*
G54D16*
D02*
X1338Y1107D02*
X1338Y1047D01*
D02*
X1478Y1107D02*
X1478Y1047D01*
G54D14*
D02*
X158Y137D02*
X158Y237D01*
D02*
X158Y237D02*
X58Y237D01*
D02*
X58Y237D02*
X58Y137D01*
D02*
X58Y137D02*
X158Y137D01*
G54D16*
D02*
X158Y172D02*
X123Y137D01*
G54D14*
D02*
X1245Y787D02*
X1317Y787D01*
D02*
X1517Y787D02*
X1570Y787D01*
D02*
X1317Y820D02*
X1517Y820D01*
D02*
X1517Y820D02*
X1517Y754D01*
D02*
X1517Y754D02*
X1317Y754D01*
D02*
X1317Y754D02*
X1317Y820D01*
D02*
X570Y187D02*
X498Y187D01*
D02*
X298Y187D02*
X245Y187D01*
D02*
X498Y154D02*
X298Y154D01*
D02*
X298Y154D02*
X298Y220D01*
D02*
X298Y220D02*
X498Y220D01*
D02*
X498Y220D02*
X498Y154D01*
D02*
X952Y170D02*
X1059Y170D01*
D02*
X1359Y170D02*
X1470Y170D01*
D02*
X1059Y220D02*
X1359Y220D01*
D02*
X1359Y220D02*
X1359Y120D01*
D02*
X1359Y120D02*
X1059Y120D01*
D02*
X1059Y120D02*
X1059Y220D01*
D02*
X1170Y887D02*
X1098Y887D01*
D02*
X898Y887D02*
X845Y887D01*
D02*
X1098Y854D02*
X898Y854D01*
D02*
X898Y854D02*
X898Y920D01*
D02*
X898Y920D02*
X1098Y920D01*
D02*
X1098Y920D02*
X1098Y854D01*
D02*
X470Y687D02*
X398Y687D01*
D02*
X198Y687D02*
X145Y687D01*
D02*
X398Y654D02*
X198Y654D01*
D02*
X198Y654D02*
X198Y720D01*
D02*
X198Y720D02*
X398Y720D01*
D02*
X398Y720D02*
X398Y654D01*
D02*
X1208Y325D02*
X1208Y397D01*
D02*
X1208Y597D02*
X1208Y650D01*
D02*
X1175Y397D02*
X1175Y597D01*
D02*
X1175Y597D02*
X1241Y597D01*
D02*
X1241Y597D02*
X1241Y397D01*
D02*
X1241Y397D02*
X1175Y397D01*
D02*
X245Y287D02*
X317Y287D01*
D02*
X517Y287D02*
X570Y287D01*
D02*
X317Y320D02*
X517Y320D01*
D02*
X517Y320D02*
X517Y254D01*
D02*
X517Y254D02*
X317Y254D01*
D02*
X317Y254D02*
X317Y320D01*
D02*
X345Y487D02*
X417Y487D01*
D02*
X617Y487D02*
X670Y487D01*
D02*
X417Y520D02*
X617Y520D01*
D02*
X617Y520D02*
X617Y454D01*
D02*
X617Y454D02*
X417Y454D01*
D02*
X417Y454D02*
X417Y520D01*
D02*
X1108Y750D02*
X1108Y678D01*
D02*
X1108Y478D02*
X1108Y425D01*
D02*
X1141Y678D02*
X1141Y478D01*
D02*
X1141Y478D02*
X1075Y478D01*
D02*
X1075Y478D02*
X1075Y678D01*
D02*
X1075Y678D02*
X1141Y678D01*
D02*
X245Y587D02*
X317Y587D01*
D02*
X517Y587D02*
X570Y587D01*
D02*
X317Y620D02*
X517Y620D01*
D02*
X517Y620D02*
X517Y554D01*
D02*
X517Y554D02*
X317Y554D01*
D02*
X317Y554D02*
X317Y620D01*
D02*
X708Y1107D02*
X1108Y1107D01*
D02*
X1108Y1107D02*
X1108Y927D01*
D02*
X1108Y927D02*
X708Y927D01*
D02*
X708Y927D02*
X708Y1107D01*
D02*
X708Y1107D02*
X1108Y1107D01*
D02*
X1108Y1107D02*
X1108Y1047D01*
D02*
X1108Y1047D02*
X708Y1047D01*
D02*
X708Y1047D02*
X708Y1107D01*
G54D16*
D02*
X838Y1107D02*
X838Y1047D01*
D02*
X978Y1107D02*
X978Y1047D01*
G54D14*
D02*
X108Y1107D02*
X508Y1107D01*
D02*
X508Y1107D02*
X508Y927D01*
D02*
X508Y927D02*
X108Y927D01*
D02*
X108Y927D02*
X108Y1107D01*
D02*
X108Y1107D02*
X508Y1107D01*
D02*
X508Y1107D02*
X508Y1047D01*
D02*
X508Y1047D02*
X108Y1047D01*
D02*
X108Y1047D02*
X108Y1107D01*
G54D16*
D02*
X238Y1107D02*
X238Y1047D01*
D02*
X378Y1107D02*
X378Y1047D01*
G54D14*
D02*
X738Y351D02*
X878Y351D01*
D02*
X644Y617D02*
X644Y757D01*
G54D17*
X690Y1196D02*
X696Y1196D01*
X711Y1196D02*
X717Y1196D01*
X764Y1196D02*
X770Y1196D01*
X690Y1195D02*
X696Y1195D01*
X711Y1195D02*
X717Y1195D01*
X764Y1195D02*
X770Y1195D01*
X690Y1194D02*
X696Y1194D01*
X711Y1194D02*
X717Y1194D01*
X764Y1194D02*
X770Y1194D01*
X690Y1193D02*
X696Y1193D01*
X710Y1193D02*
X717Y1193D01*
X764Y1193D02*
X770Y1193D01*
X690Y1192D02*
X696Y1192D01*
X710Y1192D02*
X716Y1192D01*
X738Y1192D02*
X742Y1192D01*
X764Y1192D02*
X770Y1192D01*
X690Y1191D02*
X697Y1191D01*
X710Y1191D02*
X716Y1191D01*
X737Y1191D02*
X744Y1191D01*
X764Y1191D02*
X770Y1191D01*
X690Y1190D02*
X698Y1190D01*
X708Y1190D02*
X716Y1190D01*
X737Y1190D02*
X746Y1190D01*
X764Y1190D02*
X770Y1190D01*
X691Y1189D02*
X716Y1189D01*
X737Y1189D02*
X770Y1189D01*
X691Y1188D02*
X715Y1188D01*
X737Y1188D02*
X770Y1188D01*
X692Y1187D02*
X714Y1187D01*
X737Y1187D02*
X770Y1187D01*
X693Y1186D02*
X714Y1186D01*
X739Y1186D02*
X769Y1186D01*
X694Y1185D02*
X712Y1185D01*
X741Y1185D02*
X768Y1185D01*
X696Y1184D02*
X711Y1184D01*
X743Y1184D02*
X767Y1184D01*
X698Y1183D02*
X708Y1183D01*
X747Y1183D02*
X765Y1183D01*
X723Y1129D02*
X724Y1129D01*
X721Y1128D02*
X726Y1128D01*
X721Y1127D02*
X726Y1127D01*
X748Y1127D02*
X753Y1127D01*
X721Y1126D02*
X726Y1126D01*
X747Y1126D02*
X755Y1126D01*
X720Y1125D02*
X726Y1125D01*
X747Y1125D02*
X756Y1125D01*
X720Y1124D02*
X726Y1124D01*
X747Y1124D02*
X756Y1124D01*
X720Y1123D02*
X726Y1123D01*
X746Y1123D02*
X756Y1123D01*
X720Y1122D02*
X726Y1122D01*
X746Y1122D02*
X755Y1122D01*
X720Y1121D02*
X726Y1121D01*
X746Y1121D02*
X755Y1121D01*
X720Y1120D02*
X726Y1120D01*
X746Y1120D02*
X752Y1120D01*
X720Y1119D02*
X726Y1119D01*
X746Y1119D02*
X752Y1119D01*
X720Y1118D02*
X726Y1118D01*
X746Y1118D02*
X752Y1118D01*
X720Y1117D02*
X726Y1117D01*
X746Y1117D02*
X752Y1117D01*
X720Y1116D02*
X726Y1116D01*
X746Y1116D02*
X752Y1116D01*
X720Y1115D02*
X726Y1115D01*
X746Y1115D02*
X752Y1115D01*
X720Y1114D02*
X726Y1114D01*
X746Y1114D02*
X752Y1114D01*
X720Y1113D02*
X726Y1113D01*
X746Y1113D02*
X752Y1113D01*
X720Y1112D02*
X726Y1112D01*
X746Y1112D02*
X752Y1112D01*
X719Y1111D02*
X725Y1111D01*
X746Y1111D02*
X752Y1111D01*
X719Y1110D02*
X725Y1110D01*
X746Y1110D02*
X752Y1110D01*
X719Y1109D02*
X725Y1109D01*
X745Y1109D02*
X751Y1109D01*
X719Y1108D02*
X725Y1108D01*
X745Y1108D02*
X751Y1108D01*
X719Y1107D02*
X725Y1107D01*
X745Y1107D02*
X751Y1107D01*
X719Y1106D02*
X725Y1106D01*
X745Y1106D02*
X751Y1106D01*
X719Y1105D02*
X725Y1105D01*
X745Y1105D02*
X751Y1105D01*
X719Y1104D02*
X725Y1104D01*
X745Y1104D02*
X751Y1104D01*
X719Y1103D02*
X725Y1103D01*
X745Y1103D02*
X751Y1103D01*
X719Y1102D02*
X725Y1102D01*
X745Y1102D02*
X751Y1102D01*
X700Y1101D02*
X702Y1101D01*
X719Y1101D02*
X725Y1101D01*
X745Y1101D02*
X751Y1101D01*
X1800Y1101D02*
X1802Y1101D01*
X699Y1100D02*
X703Y1100D01*
X719Y1100D02*
X725Y1100D01*
X745Y1100D02*
X751Y1100D01*
X1798Y1100D02*
X1803Y1100D01*
X698Y1099D02*
X704Y1099D01*
X719Y1099D02*
X725Y1099D01*
X745Y1099D02*
X751Y1099D01*
X1798Y1099D02*
X1803Y1099D01*
X698Y1098D02*
X704Y1098D01*
X719Y1098D02*
X725Y1098D01*
X745Y1098D02*
X751Y1098D01*
X1798Y1098D02*
X1804Y1098D01*
X698Y1097D02*
X704Y1097D01*
X718Y1097D02*
X724Y1097D01*
X745Y1097D02*
X763Y1097D01*
X1798Y1097D02*
X1804Y1097D01*
X698Y1096D02*
X704Y1096D01*
X718Y1096D02*
X724Y1096D01*
X745Y1096D02*
X775Y1096D01*
X1797Y1096D02*
X1804Y1096D01*
X698Y1095D02*
X704Y1095D01*
X718Y1095D02*
X724Y1095D01*
X744Y1095D02*
X777Y1095D01*
X1797Y1095D02*
X1803Y1095D01*
X698Y1094D02*
X704Y1094D01*
X718Y1094D02*
X724Y1094D01*
X744Y1094D02*
X778Y1094D01*
X1797Y1094D02*
X1803Y1094D01*
X697Y1093D02*
X703Y1093D01*
X718Y1093D02*
X724Y1093D01*
X744Y1093D02*
X778Y1093D01*
X1797Y1093D02*
X1803Y1093D01*
X697Y1092D02*
X703Y1092D01*
X718Y1092D02*
X724Y1092D01*
X744Y1092D02*
X778Y1092D01*
X1797Y1092D02*
X1803Y1092D01*
X697Y1091D02*
X703Y1091D01*
X718Y1091D02*
X724Y1091D01*
X744Y1091D02*
X778Y1091D01*
X1797Y1091D02*
X1803Y1091D01*
X697Y1090D02*
X703Y1090D01*
X718Y1090D02*
X724Y1090D01*
X744Y1090D02*
X750Y1090D01*
X763Y1090D02*
X778Y1090D01*
X1797Y1090D02*
X1803Y1090D01*
X697Y1089D02*
X703Y1089D01*
X718Y1089D02*
X724Y1089D01*
X744Y1089D02*
X750Y1089D01*
X772Y1089D02*
X778Y1089D01*
X1797Y1089D02*
X1803Y1089D01*
X697Y1088D02*
X703Y1088D01*
X718Y1088D02*
X724Y1088D01*
X744Y1088D02*
X750Y1088D01*
X772Y1088D02*
X778Y1088D01*
X1797Y1088D02*
X1803Y1088D01*
X697Y1087D02*
X703Y1087D01*
X718Y1087D02*
X724Y1087D01*
X744Y1087D02*
X750Y1087D01*
X772Y1087D02*
X778Y1087D01*
X1797Y1087D02*
X1803Y1087D01*
X697Y1086D02*
X703Y1086D01*
X718Y1086D02*
X724Y1086D01*
X744Y1086D02*
X750Y1086D01*
X771Y1086D02*
X778Y1086D01*
X1797Y1086D02*
X1803Y1086D01*
X697Y1085D02*
X704Y1085D01*
X717Y1085D02*
X724Y1085D01*
X744Y1085D02*
X750Y1085D01*
X771Y1085D02*
X777Y1085D01*
X1797Y1085D02*
X1803Y1085D01*
X697Y1084D02*
X704Y1084D01*
X717Y1084D02*
X723Y1084D01*
X744Y1084D02*
X750Y1084D01*
X771Y1084D02*
X777Y1084D01*
X1797Y1084D02*
X1804Y1084D01*
X698Y1083D02*
X709Y1083D01*
X715Y1083D02*
X723Y1083D01*
X744Y1083D02*
X750Y1083D01*
X771Y1083D02*
X777Y1083D01*
X1798Y1083D02*
X1809Y1083D01*
X698Y1082D02*
X723Y1082D01*
X744Y1082D02*
X750Y1082D01*
X771Y1082D02*
X777Y1082D01*
X699Y1081D02*
X722Y1081D01*
X744Y1081D02*
X749Y1081D01*
X771Y1081D02*
X777Y1081D01*
X1799Y1081D02*
X1822Y1081D01*
X700Y1080D02*
X722Y1080D01*
X743Y1080D02*
X752Y1080D01*
X771Y1080D02*
X777Y1080D01*
X1799Y1080D02*
X1821Y1080D01*
X701Y1079D02*
X721Y1079D01*
X743Y1079D02*
X766Y1079D01*
X771Y1079D02*
X777Y1079D01*
X1800Y1079D02*
X1821Y1079D01*
X702Y1078D02*
X720Y1078D01*
X743Y1078D02*
X777Y1078D01*
X1802Y1078D02*
X1819Y1078D01*
X704Y1077D02*
X718Y1077D01*
X743Y1077D02*
X777Y1077D01*
X1803Y1077D02*
X1818Y1077D01*
X710Y1076D02*
X715Y1076D01*
X743Y1076D02*
X777Y1076D01*
X1810Y1076D02*
X1815Y1076D01*
X744Y1075D02*
X777Y1075D01*
X745Y1074D02*
X777Y1074D01*
X753Y1073D02*
X776Y1073D01*
X767Y1072D02*
X775Y1072D01*
X359Y1070D02*
X380Y1070D01*
X358Y1069D02*
X380Y1069D01*
X357Y1068D02*
X381Y1068D01*
X357Y1067D02*
X381Y1067D01*
X358Y1066D02*
X381Y1066D01*
X358Y1065D02*
X381Y1065D01*
X360Y1064D02*
X381Y1064D01*
X375Y1063D02*
X381Y1063D01*
X375Y1062D02*
X381Y1062D01*
X375Y1061D02*
X381Y1061D01*
X375Y1060D02*
X381Y1060D01*
X375Y1059D02*
X381Y1059D01*
X375Y1058D02*
X381Y1058D01*
X374Y1057D02*
X381Y1057D01*
X328Y1056D02*
X381Y1056D01*
X328Y1055D02*
X381Y1055D01*
X328Y1054D02*
X381Y1054D01*
X328Y1053D02*
X381Y1053D01*
X328Y1052D02*
X381Y1052D01*
X328Y1051D02*
X381Y1051D01*
X328Y1050D02*
X381Y1050D01*
X328Y1049D02*
X334Y1049D01*
X375Y1049D02*
X381Y1049D01*
X328Y1048D02*
X334Y1048D01*
X375Y1048D02*
X381Y1048D01*
X328Y1047D02*
X334Y1047D01*
X375Y1047D02*
X381Y1047D01*
X328Y1046D02*
X334Y1046D01*
X375Y1046D02*
X381Y1046D01*
X328Y1045D02*
X334Y1045D01*
X375Y1045D02*
X381Y1045D01*
X328Y1044D02*
X334Y1044D01*
X375Y1044D02*
X381Y1044D01*
X328Y1043D02*
X334Y1043D01*
X375Y1043D02*
X381Y1043D01*
X328Y1042D02*
X334Y1042D01*
X375Y1042D02*
X381Y1042D01*
X328Y1041D02*
X334Y1041D01*
X375Y1041D02*
X381Y1041D01*
X328Y1040D02*
X334Y1040D01*
X375Y1040D02*
X381Y1040D01*
X328Y1039D02*
X334Y1039D01*
X375Y1039D02*
X381Y1039D01*
X328Y1038D02*
X333Y1038D01*
X375Y1038D02*
X380Y1038D01*
X329Y1037D02*
X332Y1037D01*
X376Y1037D02*
X380Y1037D01*
X1422Y1029D02*
X1424Y1029D01*
X1421Y1028D02*
X1426Y1028D01*
X1421Y1027D02*
X1426Y1027D01*
X1450Y1027D02*
X1452Y1027D01*
X1420Y1026D02*
X1426Y1026D01*
X1449Y1026D02*
X1453Y1026D01*
X1420Y1025D02*
X1426Y1025D01*
X1448Y1025D02*
X1454Y1025D01*
X1420Y1024D02*
X1426Y1024D01*
X1448Y1024D02*
X1454Y1024D01*
X1420Y1023D02*
X1426Y1023D01*
X1448Y1023D02*
X1454Y1023D01*
X1420Y1022D02*
X1426Y1022D01*
X1448Y1022D02*
X1454Y1022D01*
X1420Y1021D02*
X1426Y1021D01*
X1448Y1021D02*
X1454Y1021D01*
X351Y1020D02*
X358Y1020D01*
X1420Y1020D02*
X1426Y1020D01*
X1448Y1020D02*
X1454Y1020D01*
X348Y1019D02*
X361Y1019D01*
X1420Y1019D02*
X1426Y1019D01*
X1448Y1019D02*
X1454Y1019D01*
X1469Y1019D02*
X1473Y1019D01*
X346Y1018D02*
X363Y1018D01*
X1420Y1018D02*
X1426Y1018D01*
X1448Y1018D02*
X1454Y1018D01*
X1469Y1018D02*
X1474Y1018D01*
X344Y1017D02*
X365Y1017D01*
X1420Y1017D02*
X1426Y1017D01*
X1448Y1017D02*
X1454Y1017D01*
X1468Y1017D02*
X1474Y1017D01*
X342Y1016D02*
X367Y1016D01*
X1420Y1016D02*
X1426Y1016D01*
X1448Y1016D02*
X1454Y1016D01*
X1468Y1016D02*
X1474Y1016D01*
X340Y1015D02*
X369Y1015D01*
X1420Y1015D02*
X1426Y1015D01*
X1447Y1015D02*
X1453Y1015D01*
X1468Y1015D02*
X1474Y1015D01*
X338Y1014D02*
X371Y1014D01*
X1420Y1014D02*
X1426Y1014D01*
X1447Y1014D02*
X1453Y1014D01*
X1468Y1014D02*
X1474Y1014D01*
X336Y1013D02*
X351Y1013D01*
X358Y1013D02*
X373Y1013D01*
X1419Y1013D02*
X1426Y1013D01*
X1447Y1013D02*
X1453Y1013D01*
X1468Y1013D02*
X1474Y1013D01*
X334Y1012D02*
X349Y1012D01*
X360Y1012D02*
X375Y1012D01*
X1419Y1012D02*
X1425Y1012D01*
X1447Y1012D02*
X1453Y1012D01*
X1468Y1012D02*
X1474Y1012D01*
X332Y1011D02*
X347Y1011D01*
X362Y1011D02*
X377Y1011D01*
X1419Y1011D02*
X1425Y1011D01*
X1447Y1011D02*
X1453Y1011D01*
X1468Y1011D02*
X1474Y1011D01*
X331Y1010D02*
X345Y1010D01*
X364Y1010D02*
X378Y1010D01*
X1419Y1010D02*
X1425Y1010D01*
X1447Y1010D02*
X1453Y1010D01*
X1468Y1010D02*
X1474Y1010D01*
X330Y1009D02*
X343Y1009D01*
X366Y1009D02*
X379Y1009D01*
X1419Y1009D02*
X1425Y1009D01*
X1447Y1009D02*
X1453Y1009D01*
X1468Y1009D02*
X1474Y1009D01*
X329Y1008D02*
X341Y1008D01*
X368Y1008D02*
X379Y1008D01*
X1419Y1008D02*
X1425Y1008D01*
X1447Y1008D02*
X1453Y1008D01*
X1468Y1008D02*
X1474Y1008D01*
X329Y1007D02*
X339Y1007D01*
X370Y1007D02*
X380Y1007D01*
X1419Y1007D02*
X1425Y1007D01*
X1447Y1007D02*
X1453Y1007D01*
X1468Y1007D02*
X1474Y1007D01*
X328Y1006D02*
X337Y1006D01*
X372Y1006D02*
X380Y1006D01*
X1419Y1006D02*
X1425Y1006D01*
X1447Y1006D02*
X1453Y1006D01*
X1468Y1006D02*
X1474Y1006D01*
X328Y1005D02*
X335Y1005D01*
X374Y1005D02*
X381Y1005D01*
X1419Y1005D02*
X1425Y1005D01*
X1447Y1005D02*
X1453Y1005D01*
X1467Y1005D02*
X1474Y1005D01*
X328Y1004D02*
X334Y1004D01*
X375Y1004D02*
X381Y1004D01*
X1419Y1004D02*
X1425Y1004D01*
X1447Y1004D02*
X1453Y1004D01*
X1467Y1004D02*
X1473Y1004D01*
X328Y1003D02*
X334Y1003D01*
X375Y1003D02*
X381Y1003D01*
X1419Y1003D02*
X1425Y1003D01*
X1447Y1003D02*
X1453Y1003D01*
X1467Y1003D02*
X1473Y1003D01*
X328Y1002D02*
X334Y1002D01*
X375Y1002D02*
X381Y1002D01*
X1419Y1002D02*
X1425Y1002D01*
X1447Y1002D02*
X1453Y1002D01*
X1467Y1002D02*
X1473Y1002D01*
X328Y1001D02*
X334Y1001D01*
X375Y1001D02*
X381Y1001D01*
X1400Y1001D02*
X1402Y1001D01*
X1419Y1001D02*
X1425Y1001D01*
X1446Y1001D02*
X1453Y1001D01*
X1467Y1001D02*
X1473Y1001D01*
X1800Y1001D02*
X1802Y1001D01*
X328Y1000D02*
X334Y1000D01*
X375Y1000D02*
X381Y1000D01*
X1398Y1000D02*
X1403Y1000D01*
X1419Y1000D02*
X1425Y1000D01*
X1446Y1000D02*
X1452Y1000D01*
X1467Y1000D02*
X1473Y1000D01*
X1798Y1000D02*
X1803Y1000D01*
X328Y999D02*
X381Y999D01*
X1398Y999D02*
X1403Y999D01*
X1418Y999D02*
X1425Y999D01*
X1446Y999D02*
X1452Y999D01*
X1467Y999D02*
X1473Y999D01*
X1798Y999D02*
X1803Y999D01*
X328Y998D02*
X381Y998D01*
X1398Y998D02*
X1404Y998D01*
X1418Y998D02*
X1424Y998D01*
X1446Y998D02*
X1453Y998D01*
X1467Y998D02*
X1473Y998D01*
X1798Y998D02*
X1804Y998D01*
X328Y997D02*
X381Y997D01*
X1398Y997D02*
X1404Y997D01*
X1418Y997D02*
X1424Y997D01*
X1446Y997D02*
X1464Y997D01*
X1467Y997D02*
X1473Y997D01*
X1798Y997D02*
X1804Y997D01*
X328Y996D02*
X381Y996D01*
X1398Y996D02*
X1404Y996D01*
X1418Y996D02*
X1424Y996D01*
X1446Y996D02*
X1474Y996D01*
X1797Y996D02*
X1804Y996D01*
X328Y995D02*
X381Y995D01*
X1397Y995D02*
X1404Y995D01*
X1418Y995D02*
X1424Y995D01*
X1446Y995D02*
X1475Y995D01*
X1797Y995D02*
X1803Y995D01*
X328Y994D02*
X381Y994D01*
X1397Y994D02*
X1403Y994D01*
X1418Y994D02*
X1424Y994D01*
X1446Y994D02*
X1476Y994D01*
X1797Y994D02*
X1803Y994D01*
X328Y993D02*
X381Y993D01*
X1397Y993D02*
X1403Y993D01*
X1418Y993D02*
X1424Y993D01*
X1446Y993D02*
X1476Y993D01*
X1797Y993D02*
X1803Y993D01*
X328Y992D02*
X334Y992D01*
X375Y992D02*
X381Y992D01*
X1397Y992D02*
X1403Y992D01*
X1418Y992D02*
X1424Y992D01*
X1446Y992D02*
X1476Y992D01*
X1797Y992D02*
X1803Y992D01*
X328Y991D02*
X334Y991D01*
X375Y991D02*
X381Y991D01*
X1397Y991D02*
X1403Y991D01*
X1418Y991D02*
X1424Y991D01*
X1450Y991D02*
X1476Y991D01*
X1797Y991D02*
X1803Y991D01*
X328Y990D02*
X334Y990D01*
X375Y990D02*
X381Y990D01*
X1397Y990D02*
X1403Y990D01*
X1418Y990D02*
X1424Y990D01*
X1464Y990D02*
X1475Y990D01*
X1797Y990D02*
X1803Y990D01*
X328Y989D02*
X334Y989D01*
X375Y989D02*
X381Y989D01*
X1397Y989D02*
X1403Y989D01*
X1418Y989D02*
X1424Y989D01*
X1466Y989D02*
X1472Y989D01*
X1797Y989D02*
X1803Y989D01*
X328Y988D02*
X333Y988D01*
X375Y988D02*
X381Y988D01*
X1397Y988D02*
X1403Y988D01*
X1418Y988D02*
X1424Y988D01*
X1466Y988D02*
X1472Y988D01*
X1797Y988D02*
X1803Y988D01*
X329Y987D02*
X333Y987D01*
X376Y987D02*
X380Y987D01*
X1397Y987D02*
X1403Y987D01*
X1418Y987D02*
X1424Y987D01*
X1466Y987D02*
X1472Y987D01*
X1797Y987D02*
X1803Y987D01*
X1397Y986D02*
X1403Y986D01*
X1418Y986D02*
X1424Y986D01*
X1466Y986D02*
X1472Y986D01*
X1797Y986D02*
X1803Y986D01*
X1397Y985D02*
X1403Y985D01*
X1417Y985D02*
X1424Y985D01*
X1466Y985D02*
X1472Y985D01*
X1797Y985D02*
X1803Y985D01*
X1397Y984D02*
X1404Y984D01*
X1417Y984D02*
X1423Y984D01*
X1466Y984D02*
X1472Y984D01*
X1797Y984D02*
X1804Y984D01*
X1398Y983D02*
X1410Y983D01*
X1415Y983D02*
X1423Y983D01*
X1466Y983D02*
X1472Y983D01*
X1798Y983D02*
X1810Y983D01*
X1398Y982D02*
X1423Y982D01*
X1466Y982D02*
X1472Y982D01*
X1399Y981D02*
X1422Y981D01*
X1466Y981D02*
X1472Y981D01*
X1799Y981D02*
X1822Y981D01*
X1399Y980D02*
X1421Y980D01*
X1466Y980D02*
X1472Y980D01*
X1799Y980D02*
X1821Y980D01*
X1400Y979D02*
X1421Y979D01*
X1466Y979D02*
X1472Y979D01*
X1800Y979D02*
X1820Y979D01*
X1402Y978D02*
X1419Y978D01*
X1466Y978D02*
X1472Y978D01*
X1802Y978D02*
X1819Y978D01*
X1404Y977D02*
X1418Y977D01*
X1466Y977D02*
X1472Y977D01*
X1804Y977D02*
X1818Y977D01*
X1411Y976D02*
X1415Y976D01*
X1465Y976D02*
X1472Y976D01*
X1811Y976D02*
X1815Y976D01*
X1466Y975D02*
X1471Y975D01*
X1466Y974D02*
X1471Y974D01*
X1467Y973D02*
X1470Y973D01*
X313Y937D02*
X314Y937D01*
X340Y937D02*
X356Y937D01*
X390Y937D02*
X415Y937D01*
X312Y936D02*
X316Y936D01*
X338Y936D02*
X356Y936D01*
X388Y936D02*
X417Y936D01*
X311Y935D02*
X316Y935D01*
X337Y935D02*
X356Y935D01*
X387Y935D02*
X418Y935D01*
X311Y934D02*
X317Y934D01*
X337Y934D02*
X356Y934D01*
X387Y934D02*
X419Y934D01*
X311Y933D02*
X317Y933D01*
X337Y933D02*
X356Y933D01*
X387Y933D02*
X420Y933D01*
X311Y932D02*
X317Y932D01*
X337Y932D02*
X356Y932D01*
X387Y932D02*
X420Y932D01*
X311Y931D02*
X317Y931D01*
X338Y931D02*
X356Y931D01*
X388Y931D02*
X420Y931D01*
X311Y930D02*
X317Y930D01*
X350Y930D02*
X356Y930D01*
X414Y930D02*
X420Y930D01*
X311Y929D02*
X317Y929D01*
X350Y929D02*
X356Y929D01*
X414Y929D02*
X420Y929D01*
X311Y928D02*
X317Y928D01*
X350Y928D02*
X356Y928D01*
X414Y928D02*
X420Y928D01*
X311Y927D02*
X317Y927D01*
X350Y927D02*
X356Y927D01*
X414Y927D02*
X420Y927D01*
X311Y926D02*
X317Y926D01*
X350Y926D02*
X356Y926D01*
X414Y926D02*
X420Y926D01*
X311Y925D02*
X317Y925D01*
X350Y925D02*
X356Y925D01*
X414Y925D02*
X420Y925D01*
X311Y924D02*
X317Y924D01*
X350Y924D02*
X356Y924D01*
X414Y924D02*
X420Y924D01*
X311Y923D02*
X317Y923D01*
X350Y923D02*
X356Y923D01*
X414Y923D02*
X420Y923D01*
X311Y922D02*
X317Y922D01*
X350Y922D02*
X356Y922D01*
X414Y922D02*
X420Y922D01*
X311Y921D02*
X317Y921D01*
X350Y921D02*
X356Y921D01*
X414Y921D02*
X420Y921D01*
X311Y920D02*
X317Y920D01*
X350Y920D02*
X356Y920D01*
X414Y920D02*
X420Y920D01*
X311Y919D02*
X317Y919D01*
X350Y919D02*
X356Y919D01*
X414Y919D02*
X420Y919D01*
X311Y918D02*
X317Y918D01*
X350Y918D02*
X356Y918D01*
X414Y918D02*
X420Y918D01*
X311Y917D02*
X317Y917D01*
X350Y917D02*
X356Y917D01*
X414Y917D02*
X420Y917D01*
X311Y916D02*
X317Y916D01*
X350Y916D02*
X356Y916D01*
X414Y916D02*
X420Y916D01*
X311Y915D02*
X317Y915D01*
X350Y915D02*
X356Y915D01*
X414Y915D02*
X420Y915D01*
X311Y914D02*
X317Y914D01*
X350Y914D02*
X356Y914D01*
X414Y914D02*
X420Y914D01*
X311Y913D02*
X317Y913D01*
X350Y913D02*
X356Y913D01*
X391Y913D02*
X420Y913D01*
X311Y912D02*
X317Y912D01*
X350Y912D02*
X356Y912D01*
X390Y912D02*
X420Y912D01*
X311Y911D02*
X317Y911D01*
X350Y911D02*
X356Y911D01*
X389Y911D02*
X420Y911D01*
X311Y910D02*
X317Y910D01*
X350Y910D02*
X356Y910D01*
X388Y910D02*
X419Y910D01*
X1654Y910D02*
X1678Y910D01*
X1707Y910D02*
X1711Y910D01*
X311Y909D02*
X317Y909D01*
X350Y909D02*
X356Y909D01*
X387Y909D02*
X419Y909D01*
X1654Y909D02*
X1682Y909D01*
X1705Y909D02*
X1712Y909D01*
X311Y908D02*
X317Y908D01*
X350Y908D02*
X356Y908D01*
X387Y908D02*
X418Y908D01*
X1654Y908D02*
X1683Y908D01*
X1704Y908D02*
X1713Y908D01*
X291Y907D02*
X294Y907D01*
X311Y907D02*
X317Y907D01*
X350Y907D02*
X356Y907D01*
X366Y907D02*
X369Y907D01*
X387Y907D02*
X416Y907D01*
X1654Y907D02*
X1684Y907D01*
X1704Y907D02*
X1713Y907D01*
X290Y906D02*
X295Y906D01*
X311Y906D02*
X317Y906D01*
X350Y906D02*
X356Y906D01*
X365Y906D02*
X370Y906D01*
X387Y906D02*
X393Y906D01*
X1654Y906D02*
X1685Y906D01*
X1704Y906D02*
X1713Y906D01*
X290Y905D02*
X296Y905D01*
X311Y905D02*
X317Y905D01*
X350Y905D02*
X356Y905D01*
X364Y905D02*
X370Y905D01*
X387Y905D02*
X393Y905D01*
X1654Y905D02*
X1686Y905D01*
X1704Y905D02*
X1713Y905D01*
X290Y904D02*
X296Y904D01*
X311Y904D02*
X317Y904D01*
X350Y904D02*
X356Y904D01*
X364Y904D02*
X370Y904D01*
X387Y904D02*
X393Y904D01*
X1654Y904D02*
X1686Y904D01*
X1704Y904D02*
X1712Y904D01*
X290Y903D02*
X296Y903D01*
X311Y903D02*
X317Y903D01*
X350Y903D02*
X356Y903D01*
X364Y903D02*
X370Y903D01*
X387Y903D02*
X393Y903D01*
X1654Y903D02*
X1660Y903D01*
X1679Y903D02*
X1687Y903D01*
X1704Y903D02*
X1710Y903D01*
X290Y902D02*
X296Y902D01*
X311Y902D02*
X317Y902D01*
X350Y902D02*
X356Y902D01*
X364Y902D02*
X370Y902D01*
X387Y902D02*
X393Y902D01*
X1654Y902D02*
X1660Y902D01*
X1680Y902D02*
X1687Y902D01*
X1704Y902D02*
X1710Y902D01*
X290Y901D02*
X296Y901D01*
X311Y901D02*
X317Y901D01*
X350Y901D02*
X356Y901D01*
X364Y901D02*
X370Y901D01*
X387Y901D02*
X393Y901D01*
X1654Y901D02*
X1660Y901D01*
X1681Y901D02*
X1687Y901D01*
X1704Y901D02*
X1710Y901D01*
X1799Y901D02*
X1802Y901D01*
X290Y900D02*
X296Y900D01*
X311Y900D02*
X317Y900D01*
X350Y900D02*
X356Y900D01*
X364Y900D02*
X370Y900D01*
X387Y900D02*
X393Y900D01*
X1654Y900D02*
X1660Y900D01*
X1681Y900D02*
X1687Y900D01*
X1704Y900D02*
X1710Y900D01*
X1798Y900D02*
X1803Y900D01*
X290Y899D02*
X296Y899D01*
X311Y899D02*
X317Y899D01*
X350Y899D02*
X356Y899D01*
X364Y899D02*
X370Y899D01*
X387Y899D02*
X393Y899D01*
X1654Y899D02*
X1660Y899D01*
X1681Y899D02*
X1687Y899D01*
X1704Y899D02*
X1710Y899D01*
X1798Y899D02*
X1803Y899D01*
X290Y898D02*
X296Y898D01*
X311Y898D02*
X317Y898D01*
X342Y898D02*
X347Y898D01*
X350Y898D02*
X356Y898D01*
X364Y898D02*
X393Y898D01*
X942Y898D02*
X947Y898D01*
X973Y898D02*
X975Y898D01*
X1654Y898D02*
X1660Y898D01*
X1681Y898D02*
X1687Y898D01*
X1704Y898D02*
X1710Y898D01*
X1798Y898D02*
X1804Y898D01*
X290Y897D02*
X296Y897D01*
X311Y897D02*
X317Y897D01*
X340Y897D02*
X356Y897D01*
X364Y897D02*
X393Y897D01*
X940Y897D02*
X949Y897D01*
X972Y897D02*
X976Y897D01*
X1654Y897D02*
X1660Y897D01*
X1681Y897D02*
X1687Y897D01*
X1704Y897D02*
X1710Y897D01*
X1798Y897D02*
X1804Y897D01*
X290Y896D02*
X296Y896D01*
X311Y896D02*
X317Y896D01*
X339Y896D02*
X356Y896D01*
X364Y896D02*
X393Y896D01*
X939Y896D02*
X950Y896D01*
X971Y896D02*
X977Y896D01*
X1654Y896D02*
X1660Y896D01*
X1681Y896D02*
X1687Y896D01*
X1704Y896D02*
X1710Y896D01*
X1797Y896D02*
X1804Y896D01*
X290Y895D02*
X296Y895D01*
X311Y895D02*
X317Y895D01*
X338Y895D02*
X356Y895D01*
X364Y895D02*
X393Y895D01*
X938Y895D02*
X951Y895D01*
X971Y895D02*
X977Y895D01*
X1654Y895D02*
X1660Y895D01*
X1681Y895D02*
X1687Y895D01*
X1704Y895D02*
X1710Y895D01*
X1797Y895D02*
X1803Y895D01*
X290Y894D02*
X296Y894D01*
X311Y894D02*
X317Y894D01*
X337Y894D02*
X356Y894D01*
X364Y894D02*
X393Y894D01*
X937Y894D02*
X951Y894D01*
X971Y894D02*
X977Y894D01*
X1654Y894D02*
X1660Y894D01*
X1681Y894D02*
X1687Y894D01*
X1704Y894D02*
X1710Y894D01*
X1797Y894D02*
X1803Y894D01*
X290Y893D02*
X296Y893D01*
X310Y893D02*
X317Y893D01*
X335Y893D02*
X356Y893D01*
X364Y893D02*
X393Y893D01*
X935Y893D02*
X952Y893D01*
X971Y893D02*
X977Y893D01*
X1654Y893D02*
X1660Y893D01*
X1680Y893D02*
X1687Y893D01*
X1704Y893D02*
X1710Y893D01*
X1797Y893D02*
X1803Y893D01*
X290Y892D02*
X296Y892D01*
X310Y892D02*
X316Y892D01*
X334Y892D02*
X356Y892D01*
X364Y892D02*
X393Y892D01*
X934Y892D02*
X952Y892D01*
X971Y892D02*
X977Y892D01*
X993Y892D02*
X996Y892D01*
X1654Y892D02*
X1687Y892D01*
X1704Y892D02*
X1710Y892D01*
X1797Y892D02*
X1803Y892D01*
X290Y891D02*
X297Y891D01*
X309Y891D02*
X316Y891D01*
X333Y891D02*
X343Y891D01*
X346Y891D02*
X356Y891D01*
X364Y891D02*
X370Y891D01*
X383Y891D02*
X393Y891D01*
X933Y891D02*
X943Y891D01*
X946Y891D02*
X952Y891D01*
X971Y891D02*
X977Y891D01*
X992Y891D02*
X997Y891D01*
X1654Y891D02*
X1686Y891D01*
X1704Y891D02*
X1710Y891D01*
X1797Y891D02*
X1803Y891D01*
X291Y890D02*
X316Y890D01*
X332Y890D02*
X370Y890D01*
X383Y890D02*
X417Y890D01*
X932Y890D02*
X942Y890D01*
X946Y890D02*
X952Y890D01*
X971Y890D02*
X977Y890D01*
X992Y890D02*
X997Y890D01*
X1654Y890D02*
X1685Y890D01*
X1704Y890D02*
X1710Y890D01*
X1797Y890D02*
X1803Y890D01*
X291Y889D02*
X316Y889D01*
X331Y889D02*
X370Y889D01*
X383Y889D02*
X419Y889D01*
X931Y889D02*
X941Y889D01*
X946Y889D02*
X953Y889D01*
X971Y889D02*
X977Y889D01*
X991Y889D02*
X997Y889D01*
X1654Y889D02*
X1685Y889D01*
X1704Y889D02*
X1710Y889D01*
X1797Y889D02*
X1803Y889D01*
X291Y888D02*
X315Y888D01*
X330Y888D02*
X370Y888D01*
X383Y888D02*
X420Y888D01*
X929Y888D02*
X939Y888D01*
X946Y888D02*
X953Y888D01*
X971Y888D02*
X977Y888D01*
X991Y888D02*
X997Y888D01*
X1654Y888D02*
X1684Y888D01*
X1704Y888D02*
X1710Y888D01*
X1797Y888D02*
X1803Y888D01*
X292Y887D02*
X314Y887D01*
X328Y887D02*
X370Y887D01*
X383Y887D02*
X420Y887D01*
X928Y887D02*
X938Y887D01*
X946Y887D02*
X953Y887D01*
X971Y887D02*
X977Y887D01*
X991Y887D02*
X997Y887D01*
X1654Y887D02*
X1682Y887D01*
X1704Y887D02*
X1710Y887D01*
X1797Y887D02*
X1803Y887D01*
X293Y886D02*
X313Y886D01*
X327Y886D02*
X370Y886D01*
X383Y886D02*
X420Y886D01*
X927Y886D02*
X937Y886D01*
X946Y886D02*
X953Y886D01*
X971Y886D02*
X977Y886D01*
X991Y886D02*
X997Y886D01*
X1654Y886D02*
X1680Y886D01*
X1704Y886D02*
X1710Y886D01*
X1797Y886D02*
X1803Y886D01*
X294Y885D02*
X312Y885D01*
X326Y885D02*
X370Y885D01*
X383Y885D02*
X420Y885D01*
X926Y885D02*
X936Y885D01*
X946Y885D02*
X953Y885D01*
X971Y885D02*
X977Y885D01*
X991Y885D02*
X997Y885D01*
X1654Y885D02*
X1660Y885D01*
X1666Y885D02*
X1673Y885D01*
X1704Y885D02*
X1710Y885D01*
X1797Y885D02*
X1803Y885D01*
X296Y884D02*
X310Y884D01*
X325Y884D02*
X335Y884D01*
X338Y884D02*
X369Y884D01*
X383Y884D02*
X419Y884D01*
X925Y884D02*
X935Y884D01*
X946Y884D02*
X953Y884D01*
X971Y884D02*
X977Y884D01*
X991Y884D02*
X997Y884D01*
X1654Y884D02*
X1660Y884D01*
X1666Y884D02*
X1674Y884D01*
X1704Y884D02*
X1710Y884D01*
X1797Y884D02*
X1804Y884D01*
X301Y883D02*
X306Y883D01*
X324Y883D02*
X333Y883D01*
X340Y883D02*
X366Y883D01*
X383Y883D02*
X417Y883D01*
X924Y883D02*
X933Y883D01*
X946Y883D02*
X953Y883D01*
X971Y883D02*
X977Y883D01*
X991Y883D02*
X997Y883D01*
X1654Y883D02*
X1660Y883D01*
X1667Y883D02*
X1674Y883D01*
X1704Y883D02*
X1710Y883D01*
X1798Y883D02*
X1811Y883D01*
X323Y882D02*
X332Y882D01*
X347Y882D02*
X353Y882D01*
X383Y882D02*
X389Y882D01*
X923Y882D02*
X932Y882D01*
X946Y882D02*
X953Y882D01*
X971Y882D02*
X977Y882D01*
X991Y882D02*
X997Y882D01*
X1654Y882D02*
X1660Y882D01*
X1668Y882D02*
X1675Y882D01*
X1704Y882D02*
X1710Y882D01*
X322Y881D02*
X331Y881D01*
X347Y881D02*
X353Y881D01*
X383Y881D02*
X389Y881D01*
X922Y881D02*
X931Y881D01*
X946Y881D02*
X953Y881D01*
X971Y881D02*
X977Y881D01*
X991Y881D02*
X997Y881D01*
X1654Y881D02*
X1660Y881D01*
X1668Y881D02*
X1675Y881D01*
X1704Y881D02*
X1710Y881D01*
X1799Y881D02*
X1822Y881D01*
X321Y880D02*
X330Y880D01*
X347Y880D02*
X353Y880D01*
X383Y880D02*
X389Y880D01*
X921Y880D02*
X930Y880D01*
X946Y880D02*
X953Y880D01*
X971Y880D02*
X977Y880D01*
X991Y880D02*
X997Y880D01*
X1654Y880D02*
X1660Y880D01*
X1669Y880D02*
X1676Y880D01*
X1704Y880D02*
X1736Y880D01*
X1800Y880D02*
X1821Y880D01*
X321Y879D02*
X329Y879D01*
X347Y879D02*
X353Y879D01*
X383Y879D02*
X389Y879D01*
X920Y879D02*
X929Y879D01*
X946Y879D02*
X953Y879D01*
X971Y879D02*
X977Y879D01*
X991Y879D02*
X997Y879D01*
X1654Y879D02*
X1660Y879D01*
X1669Y879D02*
X1677Y879D01*
X1704Y879D02*
X1737Y879D01*
X1801Y879D02*
X1820Y879D01*
X320Y878D02*
X328Y878D01*
X347Y878D02*
X353Y878D01*
X383Y878D02*
X389Y878D01*
X920Y878D02*
X927Y878D01*
X946Y878D02*
X953Y878D01*
X971Y878D02*
X977Y878D01*
X991Y878D02*
X997Y878D01*
X1654Y878D02*
X1660Y878D01*
X1670Y878D02*
X1677Y878D01*
X1704Y878D02*
X1737Y878D01*
X1802Y878D02*
X1819Y878D01*
X320Y877D02*
X327Y877D01*
X347Y877D02*
X353Y877D01*
X383Y877D02*
X389Y877D01*
X920Y877D02*
X927Y877D01*
X946Y877D02*
X953Y877D01*
X971Y877D02*
X977Y877D01*
X991Y877D02*
X997Y877D01*
X1654Y877D02*
X1660Y877D01*
X1671Y877D02*
X1678Y877D01*
X1704Y877D02*
X1738Y877D01*
X1804Y877D02*
X1818Y877D01*
X319Y876D02*
X326Y876D01*
X347Y876D02*
X353Y876D01*
X383Y876D02*
X389Y876D01*
X919Y876D02*
X926Y876D01*
X946Y876D02*
X953Y876D01*
X971Y876D02*
X977Y876D01*
X991Y876D02*
X997Y876D01*
X1654Y876D02*
X1660Y876D01*
X1671Y876D02*
X1678Y876D01*
X1704Y876D02*
X1738Y876D01*
X1812Y876D02*
X1815Y876D01*
X319Y875D02*
X325Y875D01*
X347Y875D02*
X353Y875D01*
X383Y875D02*
X389Y875D01*
X919Y875D02*
X925Y875D01*
X946Y875D02*
X953Y875D01*
X971Y875D02*
X977Y875D01*
X991Y875D02*
X997Y875D01*
X1654Y875D02*
X1660Y875D01*
X1672Y875D02*
X1679Y875D01*
X1704Y875D02*
X1738Y875D01*
X319Y874D02*
X325Y874D01*
X347Y874D02*
X353Y874D01*
X383Y874D02*
X389Y874D01*
X919Y874D02*
X925Y874D01*
X946Y874D02*
X953Y874D01*
X971Y874D02*
X977Y874D01*
X991Y874D02*
X997Y874D01*
X1654Y874D02*
X1660Y874D01*
X1672Y874D02*
X1679Y874D01*
X1704Y874D02*
X1738Y874D01*
X319Y873D02*
X325Y873D01*
X347Y873D02*
X353Y873D01*
X383Y873D02*
X389Y873D01*
X919Y873D02*
X925Y873D01*
X946Y873D02*
X953Y873D01*
X971Y873D02*
X977Y873D01*
X991Y873D02*
X997Y873D01*
X1654Y873D02*
X1660Y873D01*
X1673Y873D02*
X1680Y873D01*
X1704Y873D02*
X1710Y873D01*
X1732Y873D02*
X1738Y873D01*
X319Y872D02*
X325Y872D01*
X347Y872D02*
X353Y872D01*
X383Y872D02*
X389Y872D01*
X919Y872D02*
X925Y872D01*
X946Y872D02*
X953Y872D01*
X971Y872D02*
X977Y872D01*
X991Y872D02*
X997Y872D01*
X1654Y872D02*
X1660Y872D01*
X1673Y872D02*
X1681Y872D01*
X1704Y872D02*
X1710Y872D01*
X1732Y872D02*
X1738Y872D01*
X319Y871D02*
X325Y871D01*
X347Y871D02*
X353Y871D01*
X383Y871D02*
X389Y871D01*
X919Y871D02*
X925Y871D01*
X946Y871D02*
X953Y871D01*
X971Y871D02*
X977Y871D01*
X991Y871D02*
X997Y871D01*
X1654Y871D02*
X1660Y871D01*
X1674Y871D02*
X1681Y871D01*
X1704Y871D02*
X1710Y871D01*
X1732Y871D02*
X1738Y871D01*
X319Y870D02*
X325Y870D01*
X347Y870D02*
X353Y870D01*
X383Y870D02*
X389Y870D01*
X919Y870D02*
X925Y870D01*
X946Y870D02*
X952Y870D01*
X971Y870D02*
X977Y870D01*
X991Y870D02*
X997Y870D01*
X1654Y870D02*
X1660Y870D01*
X1675Y870D02*
X1682Y870D01*
X1704Y870D02*
X1710Y870D01*
X1732Y870D02*
X1738Y870D01*
X319Y869D02*
X325Y869D01*
X346Y869D02*
X352Y869D01*
X383Y869D02*
X389Y869D01*
X919Y869D02*
X925Y869D01*
X946Y869D02*
X952Y869D01*
X971Y869D02*
X998Y869D01*
X1654Y869D02*
X1660Y869D01*
X1675Y869D02*
X1682Y869D01*
X1704Y869D02*
X1710Y869D01*
X1732Y869D02*
X1738Y869D01*
X319Y868D02*
X325Y868D01*
X334Y868D02*
X338Y868D01*
X346Y868D02*
X352Y868D01*
X383Y868D02*
X389Y868D01*
X398Y868D02*
X402Y868D01*
X919Y868D02*
X925Y868D01*
X934Y868D02*
X937Y868D01*
X946Y868D02*
X952Y868D01*
X971Y868D02*
X1000Y868D01*
X1654Y868D02*
X1660Y868D01*
X1676Y868D02*
X1683Y868D01*
X1704Y868D02*
X1710Y868D01*
X1732Y868D02*
X1738Y868D01*
X319Y867D02*
X325Y867D01*
X333Y867D02*
X338Y867D01*
X346Y867D02*
X352Y867D01*
X383Y867D02*
X389Y867D01*
X397Y867D02*
X402Y867D01*
X919Y867D02*
X925Y867D01*
X933Y867D02*
X938Y867D01*
X946Y867D02*
X952Y867D01*
X971Y867D02*
X1001Y867D01*
X1654Y867D02*
X1660Y867D01*
X1676Y867D02*
X1684Y867D01*
X1704Y867D02*
X1710Y867D01*
X1732Y867D02*
X1738Y867D01*
X319Y866D02*
X325Y866D01*
X333Y866D02*
X339Y866D01*
X345Y866D02*
X352Y866D01*
X383Y866D02*
X389Y866D01*
X397Y866D02*
X403Y866D01*
X919Y866D02*
X925Y866D01*
X933Y866D02*
X939Y866D01*
X945Y866D02*
X952Y866D01*
X971Y866D02*
X1001Y866D01*
X1654Y866D02*
X1660Y866D01*
X1677Y866D02*
X1684Y866D01*
X1704Y866D02*
X1710Y866D01*
X1732Y866D02*
X1738Y866D01*
X319Y865D02*
X325Y865D01*
X333Y865D02*
X339Y865D01*
X344Y865D02*
X351Y865D01*
X383Y865D02*
X389Y865D01*
X397Y865D02*
X403Y865D01*
X919Y865D02*
X925Y865D01*
X933Y865D02*
X939Y865D01*
X944Y865D02*
X951Y865D01*
X971Y865D02*
X1001Y865D01*
X1654Y865D02*
X1660Y865D01*
X1678Y865D02*
X1685Y865D01*
X1704Y865D02*
X1710Y865D01*
X1732Y865D02*
X1738Y865D01*
X319Y864D02*
X325Y864D01*
X333Y864D02*
X340Y864D01*
X343Y864D02*
X351Y864D01*
X383Y864D02*
X389Y864D01*
X397Y864D02*
X403Y864D01*
X919Y864D02*
X925Y864D01*
X933Y864D02*
X940Y864D01*
X943Y864D02*
X951Y864D01*
X971Y864D02*
X1001Y864D01*
X1654Y864D02*
X1660Y864D01*
X1678Y864D02*
X1685Y864D01*
X1704Y864D02*
X1710Y864D01*
X1732Y864D02*
X1738Y864D01*
X319Y863D02*
X325Y863D01*
X333Y863D02*
X340Y863D01*
X342Y863D02*
X350Y863D01*
X383Y863D02*
X389Y863D01*
X397Y863D02*
X403Y863D01*
X919Y863D02*
X925Y863D01*
X933Y863D02*
X940Y863D01*
X942Y863D02*
X950Y863D01*
X971Y863D02*
X1000Y863D01*
X1654Y863D02*
X1660Y863D01*
X1679Y863D02*
X1686Y863D01*
X1704Y863D02*
X1738Y863D01*
X319Y862D02*
X325Y862D01*
X334Y862D02*
X350Y862D01*
X383Y862D02*
X389Y862D01*
X397Y862D02*
X403Y862D01*
X919Y862D02*
X925Y862D01*
X934Y862D02*
X950Y862D01*
X991Y862D02*
X998Y862D01*
X1654Y862D02*
X1660Y862D01*
X1679Y862D02*
X1686Y862D01*
X1704Y862D02*
X1738Y862D01*
X319Y861D02*
X325Y861D01*
X334Y861D02*
X349Y861D01*
X383Y861D02*
X389Y861D01*
X397Y861D02*
X403Y861D01*
X919Y861D02*
X925Y861D01*
X934Y861D02*
X949Y861D01*
X991Y861D02*
X997Y861D01*
X1654Y861D02*
X1660Y861D01*
X1680Y861D02*
X1687Y861D01*
X1704Y861D02*
X1738Y861D01*
X319Y860D02*
X325Y860D01*
X335Y860D02*
X348Y860D01*
X383Y860D02*
X389Y860D01*
X397Y860D02*
X403Y860D01*
X919Y860D02*
X925Y860D01*
X935Y860D02*
X948Y860D01*
X991Y860D02*
X997Y860D01*
X1654Y860D02*
X1660Y860D01*
X1680Y860D02*
X1687Y860D01*
X1704Y860D02*
X1738Y860D01*
X319Y859D02*
X325Y859D01*
X335Y859D02*
X347Y859D01*
X383Y859D02*
X389Y859D01*
X397Y859D02*
X403Y859D01*
X919Y859D02*
X925Y859D01*
X935Y859D02*
X947Y859D01*
X991Y859D02*
X997Y859D01*
X1654Y859D02*
X1660Y859D01*
X1681Y859D02*
X1687Y859D01*
X1704Y859D02*
X1737Y859D01*
X319Y858D02*
X325Y858D01*
X335Y858D02*
X346Y858D01*
X383Y858D02*
X389Y858D01*
X397Y858D02*
X403Y858D01*
X919Y858D02*
X925Y858D01*
X935Y858D02*
X946Y858D01*
X991Y858D02*
X997Y858D01*
X1654Y858D02*
X1659Y858D01*
X1682Y858D02*
X1687Y858D01*
X1704Y858D02*
X1737Y858D01*
X319Y857D02*
X325Y857D01*
X335Y857D02*
X345Y857D01*
X383Y857D02*
X389Y857D01*
X397Y857D02*
X403Y857D01*
X919Y857D02*
X925Y857D01*
X935Y857D02*
X945Y857D01*
X991Y857D02*
X997Y857D01*
X1655Y857D02*
X1659Y857D01*
X1683Y857D02*
X1686Y857D01*
X1705Y857D02*
X1736Y857D01*
X319Y856D02*
X325Y856D01*
X333Y856D02*
X343Y856D01*
X383Y856D02*
X389Y856D01*
X397Y856D02*
X403Y856D01*
X919Y856D02*
X925Y856D01*
X933Y856D02*
X943Y856D01*
X991Y856D02*
X997Y856D01*
X319Y855D02*
X325Y855D01*
X332Y855D02*
X343Y855D01*
X383Y855D02*
X389Y855D01*
X397Y855D02*
X403Y855D01*
X919Y855D02*
X925Y855D01*
X932Y855D02*
X943Y855D01*
X991Y855D02*
X997Y855D01*
X319Y854D02*
X325Y854D01*
X331Y854D02*
X343Y854D01*
X383Y854D02*
X389Y854D01*
X397Y854D02*
X403Y854D01*
X919Y854D02*
X925Y854D01*
X931Y854D02*
X943Y854D01*
X991Y854D02*
X997Y854D01*
X319Y853D02*
X325Y853D01*
X330Y853D02*
X344Y853D01*
X383Y853D02*
X389Y853D01*
X397Y853D02*
X403Y853D01*
X919Y853D02*
X925Y853D01*
X930Y853D02*
X944Y853D01*
X991Y853D02*
X997Y853D01*
X319Y852D02*
X325Y852D01*
X329Y852D02*
X344Y852D01*
X383Y852D02*
X389Y852D01*
X397Y852D02*
X403Y852D01*
X919Y852D02*
X925Y852D01*
X929Y852D02*
X944Y852D01*
X991Y852D02*
X997Y852D01*
X319Y851D02*
X350Y851D01*
X371Y851D02*
X403Y851D01*
X919Y851D02*
X950Y851D01*
X991Y851D02*
X997Y851D01*
X319Y850D02*
X336Y850D01*
X338Y850D02*
X352Y850D01*
X370Y850D02*
X403Y850D01*
X919Y850D02*
X936Y850D01*
X938Y850D02*
X952Y850D01*
X991Y850D02*
X997Y850D01*
X320Y849D02*
X335Y849D01*
X339Y849D02*
X352Y849D01*
X369Y849D02*
X403Y849D01*
X920Y849D02*
X935Y849D01*
X939Y849D02*
X952Y849D01*
X991Y849D02*
X997Y849D01*
X321Y848D02*
X334Y848D01*
X339Y848D02*
X353Y848D01*
X369Y848D02*
X403Y848D01*
X920Y848D02*
X934Y848D01*
X939Y848D02*
X952Y848D01*
X991Y848D02*
X997Y848D01*
X321Y847D02*
X333Y847D01*
X340Y847D02*
X352Y847D01*
X369Y847D02*
X403Y847D01*
X921Y847D02*
X933Y847D01*
X940Y847D02*
X952Y847D01*
X992Y847D02*
X997Y847D01*
X323Y846D02*
X331Y846D01*
X340Y846D02*
X352Y846D01*
X370Y846D02*
X402Y846D01*
X922Y846D02*
X931Y846D01*
X940Y846D02*
X952Y846D01*
X992Y846D02*
X997Y846D01*
X324Y845D02*
X330Y845D01*
X340Y845D02*
X351Y845D01*
X371Y845D02*
X401Y845D01*
X924Y845D02*
X930Y845D01*
X940Y845D02*
X951Y845D01*
X993Y845D02*
X996Y845D01*
X680Y818D02*
X686Y818D01*
X730Y818D02*
X733Y818D01*
X758Y818D02*
X761Y818D01*
X679Y817D02*
X687Y817D01*
X729Y817D02*
X734Y817D01*
X757Y817D02*
X762Y817D01*
X679Y816D02*
X688Y816D01*
X729Y816D02*
X735Y816D01*
X756Y816D02*
X762Y816D01*
X678Y815D02*
X688Y815D01*
X729Y815D02*
X735Y815D01*
X756Y815D02*
X762Y815D01*
X1117Y815D02*
X1120Y815D01*
X678Y814D02*
X688Y814D01*
X729Y814D02*
X736Y814D01*
X756Y814D02*
X762Y814D01*
X1116Y814D02*
X1121Y814D01*
X678Y813D02*
X687Y813D01*
X729Y813D02*
X737Y813D01*
X756Y813D02*
X762Y813D01*
X1115Y813D02*
X1121Y813D01*
X678Y812D02*
X686Y812D01*
X730Y812D02*
X737Y812D01*
X756Y812D02*
X762Y812D01*
X1094Y812D02*
X1137Y812D01*
X678Y811D02*
X684Y811D01*
X731Y811D02*
X738Y811D01*
X756Y811D02*
X762Y811D01*
X1092Y811D02*
X1138Y811D01*
X678Y810D02*
X684Y810D01*
X731Y810D02*
X738Y810D01*
X756Y810D02*
X762Y810D01*
X1092Y810D02*
X1139Y810D01*
X678Y809D02*
X684Y809D01*
X732Y809D02*
X739Y809D01*
X756Y809D02*
X762Y809D01*
X1092Y809D02*
X1139Y809D01*
X678Y808D02*
X684Y808D01*
X732Y808D02*
X739Y808D01*
X756Y808D02*
X762Y808D01*
X1092Y808D02*
X1139Y808D01*
X678Y807D02*
X684Y807D01*
X733Y807D02*
X740Y807D01*
X756Y807D02*
X762Y807D01*
X1092Y807D02*
X1138Y807D01*
X678Y806D02*
X684Y806D01*
X733Y806D02*
X741Y806D01*
X756Y806D02*
X762Y806D01*
X1093Y806D02*
X1137Y806D01*
X678Y805D02*
X684Y805D01*
X734Y805D02*
X741Y805D01*
X756Y805D02*
X762Y805D01*
X1115Y805D02*
X1121Y805D01*
X678Y804D02*
X684Y804D01*
X735Y804D02*
X742Y804D01*
X756Y804D02*
X762Y804D01*
X1115Y804D02*
X1121Y804D01*
X678Y803D02*
X684Y803D01*
X735Y803D02*
X742Y803D01*
X756Y803D02*
X762Y803D01*
X1115Y803D02*
X1121Y803D01*
X678Y802D02*
X684Y802D01*
X736Y802D02*
X743Y802D01*
X756Y802D02*
X762Y802D01*
X1115Y802D02*
X1121Y802D01*
X678Y801D02*
X684Y801D01*
X736Y801D02*
X744Y801D01*
X756Y801D02*
X762Y801D01*
X1115Y801D02*
X1121Y801D01*
X678Y800D02*
X684Y800D01*
X737Y800D02*
X744Y800D01*
X756Y800D02*
X762Y800D01*
X1115Y800D02*
X1121Y800D01*
X678Y799D02*
X684Y799D01*
X738Y799D02*
X745Y799D01*
X756Y799D02*
X762Y799D01*
X1115Y799D02*
X1121Y799D01*
X678Y798D02*
X684Y798D01*
X738Y798D02*
X745Y798D01*
X756Y798D02*
X762Y798D01*
X1115Y798D02*
X1121Y798D01*
X678Y797D02*
X684Y797D01*
X739Y797D02*
X746Y797D01*
X756Y797D02*
X762Y797D01*
X1115Y797D02*
X1121Y797D01*
X678Y796D02*
X684Y796D01*
X739Y796D02*
X746Y796D01*
X756Y796D02*
X762Y796D01*
X1115Y796D02*
X1121Y796D01*
X678Y795D02*
X684Y795D01*
X740Y795D02*
X747Y795D01*
X756Y795D02*
X762Y795D01*
X1115Y795D02*
X1121Y795D01*
X678Y794D02*
X684Y794D01*
X740Y794D02*
X748Y794D01*
X756Y794D02*
X762Y794D01*
X1115Y794D02*
X1121Y794D01*
X678Y793D02*
X684Y793D01*
X741Y793D02*
X748Y793D01*
X756Y793D02*
X762Y793D01*
X1115Y793D02*
X1121Y793D01*
X678Y792D02*
X684Y792D01*
X742Y792D02*
X749Y792D01*
X756Y792D02*
X762Y792D01*
X1115Y792D02*
X1121Y792D01*
X678Y791D02*
X684Y791D01*
X742Y791D02*
X749Y791D01*
X756Y791D02*
X762Y791D01*
X1087Y791D02*
X1121Y791D01*
X678Y790D02*
X684Y790D01*
X743Y790D02*
X750Y790D01*
X756Y790D02*
X762Y790D01*
X1086Y790D02*
X1121Y790D01*
X678Y789D02*
X710Y789D01*
X737Y789D02*
X762Y789D01*
X1086Y789D02*
X1121Y789D01*
X678Y788D02*
X711Y788D01*
X734Y788D02*
X762Y788D01*
X1086Y788D02*
X1121Y788D01*
X678Y787D02*
X712Y787D01*
X733Y787D02*
X762Y787D01*
X1086Y787D02*
X1121Y787D01*
X678Y786D02*
X712Y786D01*
X732Y786D02*
X762Y786D01*
X1086Y786D02*
X1121Y786D01*
X678Y785D02*
X712Y785D01*
X731Y785D02*
X762Y785D01*
X1088Y785D02*
X1121Y785D01*
X678Y784D02*
X712Y784D01*
X730Y784D02*
X762Y784D01*
X678Y783D02*
X712Y783D01*
X730Y783D02*
X762Y783D01*
X678Y782D02*
X685Y782D01*
X706Y782D02*
X712Y782D01*
X729Y782D02*
X737Y782D01*
X756Y782D02*
X762Y782D01*
X678Y781D02*
X684Y781D01*
X706Y781D02*
X712Y781D01*
X729Y781D02*
X736Y781D01*
X756Y781D02*
X762Y781D01*
X678Y780D02*
X684Y780D01*
X706Y780D02*
X712Y780D01*
X729Y780D02*
X735Y780D01*
X756Y780D02*
X762Y780D01*
X678Y779D02*
X684Y779D01*
X706Y779D02*
X712Y779D01*
X729Y779D02*
X735Y779D01*
X756Y779D02*
X762Y779D01*
X678Y778D02*
X684Y778D01*
X706Y778D02*
X712Y778D01*
X729Y778D02*
X735Y778D01*
X756Y778D02*
X762Y778D01*
X678Y777D02*
X684Y777D01*
X706Y777D02*
X712Y777D01*
X729Y777D02*
X735Y777D01*
X756Y777D02*
X762Y777D01*
X678Y776D02*
X684Y776D01*
X706Y776D02*
X712Y776D01*
X729Y776D02*
X735Y776D01*
X756Y776D02*
X762Y776D01*
X678Y775D02*
X684Y775D01*
X706Y775D02*
X712Y775D01*
X729Y775D02*
X735Y775D01*
X756Y775D02*
X762Y775D01*
X678Y774D02*
X684Y774D01*
X706Y774D02*
X712Y774D01*
X729Y774D02*
X735Y774D01*
X748Y774D02*
X762Y774D01*
X678Y773D02*
X684Y773D01*
X706Y773D02*
X712Y773D01*
X729Y773D02*
X735Y773D01*
X747Y773D02*
X762Y773D01*
X678Y772D02*
X684Y772D01*
X706Y772D02*
X712Y772D01*
X729Y772D02*
X737Y772D01*
X746Y772D02*
X764Y772D01*
X678Y771D02*
X712Y771D01*
X729Y771D02*
X767Y771D01*
X678Y770D02*
X712Y770D01*
X730Y770D02*
X768Y770D01*
X678Y769D02*
X712Y769D01*
X731Y769D02*
X770Y769D01*
X678Y768D02*
X712Y768D01*
X731Y768D02*
X772Y768D01*
X679Y767D02*
X712Y767D01*
X733Y767D02*
X773Y767D01*
X1094Y767D02*
X1101Y767D01*
X1135Y767D02*
X1137Y767D01*
X679Y766D02*
X711Y766D01*
X734Y766D02*
X775Y766D01*
X1091Y766D02*
X1104Y766D01*
X1133Y766D02*
X1138Y766D01*
X680Y765D02*
X710Y765D01*
X736Y765D02*
X776Y765D01*
X1090Y765D02*
X1105Y765D01*
X1131Y765D02*
X1139Y765D01*
X758Y764D02*
X777Y764D01*
X1089Y764D02*
X1106Y764D01*
X1130Y764D02*
X1139Y764D01*
X761Y763D02*
X778Y763D01*
X1088Y763D02*
X1107Y763D01*
X1128Y763D02*
X1139Y763D01*
X764Y762D02*
X780Y762D01*
X1087Y762D02*
X1108Y762D01*
X1126Y762D02*
X1138Y762D01*
X766Y761D02*
X781Y761D01*
X1087Y761D02*
X1108Y761D01*
X1125Y761D02*
X1137Y761D01*
X767Y760D02*
X782Y760D01*
X1086Y760D02*
X1094Y760D01*
X1101Y760D02*
X1109Y760D01*
X1123Y760D02*
X1136Y760D01*
X769Y759D02*
X783Y759D01*
X1086Y759D02*
X1093Y759D01*
X1102Y759D02*
X1109Y759D01*
X1121Y759D02*
X1134Y759D01*
X770Y758D02*
X783Y758D01*
X1086Y758D02*
X1092Y758D01*
X1103Y758D02*
X1109Y758D01*
X1119Y758D02*
X1132Y758D01*
X771Y757D02*
X784Y757D01*
X1086Y757D02*
X1092Y757D01*
X1103Y757D02*
X1109Y757D01*
X1118Y757D02*
X1131Y757D01*
X773Y756D02*
X785Y756D01*
X1086Y756D02*
X1092Y756D01*
X1103Y756D02*
X1109Y756D01*
X1116Y756D02*
X1129Y756D01*
X774Y755D02*
X786Y755D01*
X1086Y755D02*
X1092Y755D01*
X1103Y755D02*
X1109Y755D01*
X1114Y755D02*
X1127Y755D01*
X775Y754D02*
X787Y754D01*
X1086Y754D02*
X1092Y754D01*
X1103Y754D02*
X1109Y754D01*
X1112Y754D02*
X1126Y754D01*
X776Y753D02*
X788Y753D01*
X1086Y753D02*
X1092Y753D01*
X1103Y753D02*
X1124Y753D01*
X777Y752D02*
X788Y752D01*
X1086Y752D02*
X1092Y752D01*
X1103Y752D02*
X1122Y752D01*
X778Y751D02*
X789Y751D01*
X1086Y751D02*
X1092Y751D01*
X1103Y751D02*
X1120Y751D01*
X778Y750D02*
X790Y750D01*
X1086Y750D02*
X1092Y750D01*
X1103Y750D02*
X1119Y750D01*
X779Y749D02*
X790Y749D01*
X1086Y749D02*
X1092Y749D01*
X1103Y749D02*
X1117Y749D01*
X780Y748D02*
X791Y748D01*
X1086Y748D02*
X1092Y748D01*
X1103Y748D02*
X1115Y748D01*
X781Y747D02*
X792Y747D01*
X1086Y747D02*
X1092Y747D01*
X1103Y747D02*
X1114Y747D01*
X781Y746D02*
X792Y746D01*
X1086Y746D02*
X1092Y746D01*
X1103Y746D02*
X1112Y746D01*
X782Y745D02*
X793Y745D01*
X1086Y745D02*
X1092Y745D01*
X1103Y745D02*
X1110Y745D01*
X783Y744D02*
X793Y744D01*
X1086Y744D02*
X1092Y744D01*
X1103Y744D02*
X1109Y744D01*
X783Y743D02*
X794Y743D01*
X1086Y743D02*
X1092Y743D01*
X1103Y743D02*
X1109Y743D01*
X784Y742D02*
X794Y742D01*
X1086Y742D02*
X1092Y742D01*
X1103Y742D02*
X1109Y742D01*
X785Y741D02*
X795Y741D01*
X1086Y741D02*
X1092Y741D01*
X1103Y741D02*
X1109Y741D01*
X785Y740D02*
X795Y740D01*
X1086Y740D02*
X1092Y740D01*
X1103Y740D02*
X1110Y740D01*
X786Y739D02*
X796Y739D01*
X1086Y739D02*
X1137Y739D01*
X786Y738D02*
X796Y738D01*
X1086Y738D02*
X1138Y738D01*
X787Y737D02*
X797Y737D01*
X1086Y737D02*
X1139Y737D01*
X787Y736D02*
X797Y736D01*
X1086Y736D02*
X1139Y736D01*
X788Y735D02*
X798Y735D01*
X1086Y735D02*
X1139Y735D01*
X1256Y735D02*
X1274Y735D01*
X788Y734D02*
X798Y734D01*
X1086Y734D02*
X1138Y734D01*
X1254Y734D02*
X1276Y734D01*
X789Y733D02*
X799Y733D01*
X1086Y733D02*
X1136Y733D01*
X1253Y733D02*
X1276Y733D01*
X789Y732D02*
X799Y732D01*
X1253Y732D02*
X1277Y732D01*
X790Y731D02*
X799Y731D01*
X1253Y731D02*
X1277Y731D01*
X790Y730D02*
X800Y730D01*
X1254Y730D02*
X1277Y730D01*
X790Y729D02*
X800Y729D01*
X1254Y729D02*
X1277Y729D01*
X791Y728D02*
X800Y728D01*
X1270Y728D02*
X1277Y728D01*
X791Y727D02*
X801Y727D01*
X1271Y727D02*
X1277Y727D01*
X792Y726D02*
X801Y726D01*
X1271Y726D02*
X1277Y726D01*
X792Y725D02*
X801Y725D01*
X1271Y725D02*
X1277Y725D01*
X792Y724D02*
X802Y724D01*
X1271Y724D02*
X1277Y724D01*
X793Y723D02*
X802Y723D01*
X1271Y723D02*
X1277Y723D01*
X793Y722D02*
X802Y722D01*
X1271Y722D02*
X1277Y722D01*
X793Y721D02*
X803Y721D01*
X1224Y721D02*
X1277Y721D01*
X794Y720D02*
X803Y720D01*
X1224Y720D02*
X1277Y720D01*
X794Y719D02*
X803Y719D01*
X1224Y719D02*
X1277Y719D01*
X794Y718D02*
X803Y718D01*
X1224Y718D02*
X1277Y718D01*
X794Y717D02*
X804Y717D01*
X1224Y717D02*
X1277Y717D01*
X795Y716D02*
X804Y716D01*
X1224Y716D02*
X1277Y716D01*
X795Y715D02*
X804Y715D01*
X1224Y715D02*
X1277Y715D01*
X795Y714D02*
X804Y714D01*
X1224Y714D02*
X1230Y714D01*
X1271Y714D02*
X1277Y714D01*
X795Y713D02*
X805Y713D01*
X1224Y713D02*
X1230Y713D01*
X1271Y713D02*
X1277Y713D01*
X796Y712D02*
X805Y712D01*
X1224Y712D02*
X1230Y712D01*
X1271Y712D02*
X1277Y712D01*
X796Y711D02*
X805Y711D01*
X1224Y711D02*
X1230Y711D01*
X1271Y711D02*
X1277Y711D01*
X654Y710D02*
X679Y710D01*
X706Y710D02*
X733Y710D01*
X796Y710D02*
X805Y710D01*
X1224Y710D02*
X1230Y710D01*
X1271Y710D02*
X1277Y710D01*
X654Y709D02*
X682Y709D01*
X705Y709D02*
X735Y709D01*
X796Y709D02*
X805Y709D01*
X1224Y709D02*
X1230Y709D01*
X1271Y709D02*
X1277Y709D01*
X654Y708D02*
X683Y708D01*
X704Y708D02*
X736Y708D01*
X796Y708D02*
X805Y708D01*
X1224Y708D02*
X1230Y708D01*
X1271Y708D02*
X1277Y708D01*
X654Y707D02*
X685Y707D01*
X704Y707D02*
X737Y707D01*
X797Y707D02*
X806Y707D01*
X1224Y707D02*
X1230Y707D01*
X1271Y707D02*
X1277Y707D01*
X654Y706D02*
X685Y706D01*
X704Y706D02*
X737Y706D01*
X797Y706D02*
X806Y706D01*
X1224Y706D02*
X1230Y706D01*
X1271Y706D02*
X1277Y706D01*
X654Y705D02*
X686Y705D01*
X705Y705D02*
X737Y705D01*
X797Y705D02*
X806Y705D01*
X1224Y705D02*
X1230Y705D01*
X1271Y705D02*
X1277Y705D01*
X654Y704D02*
X687Y704D01*
X706Y704D02*
X738Y704D01*
X797Y704D02*
X806Y704D01*
X1224Y704D02*
X1230Y704D01*
X1271Y704D02*
X1277Y704D01*
X654Y703D02*
X660Y703D01*
X679Y703D02*
X687Y703D01*
X732Y703D02*
X738Y703D01*
X797Y703D02*
X806Y703D01*
X1224Y703D02*
X1229Y703D01*
X1271Y703D02*
X1277Y703D01*
X654Y702D02*
X660Y702D01*
X681Y702D02*
X687Y702D01*
X732Y702D02*
X738Y702D01*
X797Y702D02*
X806Y702D01*
X1224Y702D02*
X1229Y702D01*
X1271Y702D02*
X1276Y702D01*
X654Y701D02*
X660Y701D01*
X681Y701D02*
X687Y701D01*
X732Y701D02*
X738Y701D01*
X797Y701D02*
X806Y701D01*
X1225Y701D02*
X1228Y701D01*
X1273Y701D02*
X1275Y701D01*
X654Y700D02*
X660Y700D01*
X681Y700D02*
X688Y700D01*
X732Y700D02*
X738Y700D01*
X798Y700D02*
X807Y700D01*
X654Y699D02*
X660Y699D01*
X682Y699D02*
X688Y699D01*
X732Y699D02*
X738Y699D01*
X798Y699D02*
X807Y699D01*
X654Y698D02*
X660Y698D01*
X682Y698D02*
X688Y698D01*
X732Y698D02*
X738Y698D01*
X798Y698D02*
X807Y698D01*
X654Y697D02*
X660Y697D01*
X682Y697D02*
X688Y697D01*
X732Y697D02*
X738Y697D01*
X798Y697D02*
X807Y697D01*
X654Y696D02*
X660Y696D01*
X681Y696D02*
X688Y696D01*
X732Y696D02*
X738Y696D01*
X798Y696D02*
X807Y696D01*
X654Y695D02*
X660Y695D01*
X681Y695D02*
X687Y695D01*
X732Y695D02*
X738Y695D01*
X798Y695D02*
X807Y695D01*
X654Y694D02*
X660Y694D01*
X681Y694D02*
X687Y694D01*
X732Y694D02*
X738Y694D01*
X798Y694D02*
X807Y694D01*
X654Y693D02*
X660Y693D01*
X679Y693D02*
X687Y693D01*
X732Y693D02*
X738Y693D01*
X798Y693D02*
X807Y693D01*
X654Y692D02*
X687Y692D01*
X732Y692D02*
X738Y692D01*
X798Y692D02*
X807Y692D01*
X654Y691D02*
X686Y691D01*
X732Y691D02*
X738Y691D01*
X798Y691D02*
X807Y691D01*
X654Y690D02*
X685Y690D01*
X732Y690D02*
X738Y690D01*
X798Y690D02*
X807Y690D01*
X654Y689D02*
X685Y689D01*
X732Y689D02*
X738Y689D01*
X798Y689D02*
X807Y689D01*
X654Y688D02*
X683Y688D01*
X732Y688D02*
X738Y688D01*
X798Y688D02*
X807Y688D01*
X654Y687D02*
X682Y687D01*
X732Y687D02*
X738Y687D01*
X798Y687D02*
X807Y687D01*
X654Y686D02*
X680Y686D01*
X708Y686D02*
X738Y686D01*
X798Y686D02*
X807Y686D01*
X654Y685D02*
X660Y685D01*
X666Y685D02*
X673Y685D01*
X707Y685D02*
X737Y685D01*
X798Y685D02*
X807Y685D01*
X654Y684D02*
X660Y684D01*
X667Y684D02*
X674Y684D01*
X706Y684D02*
X737Y684D01*
X798Y684D02*
X807Y684D01*
X1225Y684D02*
X1228Y684D01*
X1272Y684D02*
X1276Y684D01*
X654Y683D02*
X660Y683D01*
X667Y683D02*
X674Y683D01*
X705Y683D02*
X737Y683D01*
X798Y683D02*
X807Y683D01*
X1224Y683D02*
X1229Y683D01*
X1271Y683D02*
X1276Y683D01*
X654Y682D02*
X660Y682D01*
X668Y682D02*
X675Y682D01*
X705Y682D02*
X736Y682D01*
X798Y682D02*
X807Y682D01*
X1224Y682D02*
X1230Y682D01*
X1271Y682D02*
X1277Y682D01*
X654Y681D02*
X660Y681D01*
X668Y681D02*
X676Y681D01*
X704Y681D02*
X735Y681D01*
X798Y681D02*
X807Y681D01*
X1224Y681D02*
X1230Y681D01*
X1271Y681D02*
X1277Y681D01*
X654Y680D02*
X660Y680D01*
X669Y680D02*
X676Y680D01*
X704Y680D02*
X732Y680D01*
X798Y680D02*
X807Y680D01*
X1224Y680D02*
X1230Y680D01*
X1271Y680D02*
X1277Y680D01*
X654Y679D02*
X660Y679D01*
X670Y679D02*
X677Y679D01*
X704Y679D02*
X710Y679D01*
X798Y679D02*
X807Y679D01*
X1224Y679D02*
X1230Y679D01*
X1271Y679D02*
X1277Y679D01*
X654Y678D02*
X660Y678D01*
X670Y678D02*
X677Y678D01*
X704Y678D02*
X710Y678D01*
X798Y678D02*
X807Y678D01*
X1224Y678D02*
X1230Y678D01*
X1271Y678D02*
X1277Y678D01*
X654Y677D02*
X660Y677D01*
X671Y677D02*
X678Y677D01*
X704Y677D02*
X710Y677D01*
X798Y677D02*
X807Y677D01*
X1224Y677D02*
X1230Y677D01*
X1271Y677D02*
X1277Y677D01*
X654Y676D02*
X660Y676D01*
X671Y676D02*
X679Y676D01*
X704Y676D02*
X710Y676D01*
X798Y676D02*
X807Y676D01*
X1224Y676D02*
X1230Y676D01*
X1271Y676D02*
X1277Y676D01*
X654Y675D02*
X660Y675D01*
X672Y675D02*
X679Y675D01*
X704Y675D02*
X710Y675D01*
X798Y675D02*
X807Y675D01*
X1224Y675D02*
X1230Y675D01*
X1271Y675D02*
X1277Y675D01*
X654Y674D02*
X660Y674D01*
X673Y674D02*
X680Y674D01*
X704Y674D02*
X710Y674D01*
X798Y674D02*
X807Y674D01*
X1224Y674D02*
X1230Y674D01*
X1271Y674D02*
X1277Y674D01*
X654Y673D02*
X660Y673D01*
X673Y673D02*
X680Y673D01*
X704Y673D02*
X710Y673D01*
X798Y673D02*
X807Y673D01*
X1224Y673D02*
X1230Y673D01*
X1271Y673D02*
X1277Y673D01*
X654Y672D02*
X660Y672D01*
X674Y672D02*
X681Y672D01*
X704Y672D02*
X710Y672D01*
X798Y672D02*
X807Y672D01*
X1224Y672D02*
X1230Y672D01*
X1271Y672D02*
X1277Y672D01*
X654Y671D02*
X660Y671D01*
X674Y671D02*
X681Y671D01*
X704Y671D02*
X710Y671D01*
X798Y671D02*
X807Y671D01*
X1224Y671D02*
X1230Y671D01*
X1271Y671D02*
X1277Y671D01*
X654Y670D02*
X660Y670D01*
X675Y670D02*
X682Y670D01*
X704Y670D02*
X710Y670D01*
X797Y670D02*
X806Y670D01*
X1224Y670D02*
X1230Y670D01*
X1271Y670D02*
X1277Y670D01*
X654Y669D02*
X660Y669D01*
X675Y669D02*
X683Y669D01*
X704Y669D02*
X710Y669D01*
X797Y669D02*
X806Y669D01*
X1224Y669D02*
X1230Y669D01*
X1271Y669D02*
X1277Y669D01*
X654Y668D02*
X660Y668D01*
X676Y668D02*
X683Y668D01*
X704Y668D02*
X710Y668D01*
X797Y668D02*
X806Y668D01*
X1224Y668D02*
X1230Y668D01*
X1271Y668D02*
X1277Y668D01*
X654Y667D02*
X660Y667D01*
X677Y667D02*
X684Y667D01*
X704Y667D02*
X710Y667D01*
X797Y667D02*
X806Y667D01*
X1224Y667D02*
X1230Y667D01*
X1270Y667D02*
X1277Y667D01*
X654Y666D02*
X660Y666D01*
X677Y666D02*
X684Y666D01*
X704Y666D02*
X710Y666D01*
X797Y666D02*
X806Y666D01*
X1224Y666D02*
X1231Y666D01*
X1270Y666D02*
X1277Y666D01*
X654Y665D02*
X660Y665D01*
X678Y665D02*
X685Y665D01*
X704Y665D02*
X710Y665D01*
X797Y665D02*
X806Y665D01*
X1224Y665D02*
X1232Y665D01*
X1268Y665D02*
X1276Y665D01*
X654Y664D02*
X660Y664D01*
X678Y664D02*
X686Y664D01*
X704Y664D02*
X710Y664D01*
X797Y664D02*
X806Y664D01*
X1225Y664D02*
X1234Y664D01*
X1266Y664D02*
X1276Y664D01*
X654Y663D02*
X660Y663D01*
X679Y663D02*
X686Y663D01*
X704Y663D02*
X735Y663D01*
X796Y663D02*
X806Y663D01*
X1225Y663D02*
X1236Y663D01*
X1264Y663D02*
X1275Y663D01*
X654Y662D02*
X660Y662D01*
X680Y662D02*
X687Y662D01*
X704Y662D02*
X737Y662D01*
X796Y662D02*
X805Y662D01*
X1226Y662D02*
X1238Y662D01*
X1262Y662D02*
X1274Y662D01*
X654Y661D02*
X660Y661D01*
X680Y661D02*
X687Y661D01*
X704Y661D02*
X737Y661D01*
X796Y661D02*
X805Y661D01*
X1227Y661D02*
X1240Y661D01*
X1260Y661D02*
X1274Y661D01*
X654Y660D02*
X660Y660D01*
X681Y660D02*
X687Y660D01*
X704Y660D02*
X738Y660D01*
X796Y660D02*
X805Y660D01*
X1228Y660D02*
X1242Y660D01*
X1258Y660D02*
X1272Y660D01*
X654Y659D02*
X660Y659D01*
X681Y659D02*
X687Y659D01*
X704Y659D02*
X738Y659D01*
X796Y659D02*
X805Y659D01*
X1229Y659D02*
X1244Y659D01*
X1256Y659D02*
X1271Y659D01*
X654Y658D02*
X659Y658D01*
X682Y658D02*
X687Y658D01*
X704Y658D02*
X737Y658D01*
X795Y658D02*
X805Y658D01*
X1231Y658D02*
X1246Y658D01*
X1254Y658D02*
X1269Y658D01*
X655Y657D02*
X659Y657D01*
X683Y657D02*
X686Y657D01*
X704Y657D02*
X736Y657D01*
X795Y657D02*
X804Y657D01*
X1233Y657D02*
X1267Y657D01*
X795Y656D02*
X804Y656D01*
X1235Y656D02*
X1265Y656D01*
X795Y655D02*
X804Y655D01*
X1238Y655D02*
X1263Y655D01*
X795Y654D02*
X804Y654D01*
X1240Y654D02*
X1261Y654D01*
X794Y653D02*
X804Y653D01*
X1242Y653D02*
X1259Y653D01*
X794Y652D02*
X803Y652D01*
X1244Y652D02*
X1257Y652D01*
X794Y651D02*
X803Y651D01*
X1246Y651D02*
X1254Y651D01*
X793Y650D02*
X803Y650D01*
X793Y649D02*
X802Y649D01*
X793Y648D02*
X802Y648D01*
X793Y647D02*
X802Y647D01*
X792Y646D02*
X802Y646D01*
X792Y645D02*
X801Y645D01*
X791Y644D02*
X801Y644D01*
X791Y643D02*
X801Y643D01*
X791Y642D02*
X800Y642D01*
X790Y641D02*
X800Y641D01*
X790Y640D02*
X800Y640D01*
X789Y639D02*
X799Y639D01*
X789Y638D02*
X799Y638D01*
X789Y637D02*
X798Y637D01*
X788Y636D02*
X798Y636D01*
X788Y635D02*
X798Y635D01*
X787Y634D02*
X797Y634D01*
X787Y633D02*
X797Y633D01*
X786Y632D02*
X796Y632D01*
X785Y631D02*
X796Y631D01*
X785Y630D02*
X795Y630D01*
X784Y629D02*
X795Y629D01*
X784Y628D02*
X794Y628D01*
X783Y627D02*
X794Y627D01*
X782Y626D02*
X793Y626D01*
X782Y625D02*
X793Y625D01*
X781Y624D02*
X792Y624D01*
X780Y623D02*
X791Y623D01*
X780Y622D02*
X791Y622D01*
X779Y621D02*
X790Y621D01*
X778Y620D02*
X789Y620D01*
X777Y619D02*
X789Y619D01*
X1Y618D02*
X11Y618D01*
X30Y618D02*
X33Y618D01*
X58Y618D02*
X61Y618D01*
X776Y618D02*
X788Y618D01*
X1Y617D02*
X12Y617D01*
X29Y617D02*
X34Y617D01*
X57Y617D02*
X62Y617D01*
X775Y617D02*
X787Y617D01*
X1Y616D02*
X12Y616D01*
X29Y616D02*
X35Y616D01*
X56Y616D02*
X62Y616D01*
X774Y616D02*
X787Y616D01*
X1Y615D02*
X12Y615D01*
X29Y615D02*
X36Y615D01*
X56Y615D02*
X62Y615D01*
X773Y615D02*
X786Y615D01*
X1Y614D02*
X12Y614D01*
X29Y614D02*
X36Y614D01*
X56Y614D02*
X62Y614D01*
X772Y614D02*
X785Y614D01*
X1Y613D02*
X11Y613D01*
X30Y613D02*
X37Y613D01*
X56Y613D02*
X62Y613D01*
X771Y613D02*
X784Y613D01*
X1Y612D02*
X10Y612D01*
X30Y612D02*
X37Y612D01*
X56Y612D02*
X62Y612D01*
X770Y612D02*
X783Y612D01*
X31Y611D02*
X38Y611D01*
X56Y611D02*
X62Y611D01*
X768Y611D02*
X782Y611D01*
X31Y610D02*
X38Y610D01*
X56Y610D02*
X62Y610D01*
X767Y610D02*
X781Y610D01*
X32Y609D02*
X39Y609D01*
X56Y609D02*
X62Y609D01*
X765Y609D02*
X780Y609D01*
X32Y608D02*
X40Y608D01*
X56Y608D02*
X62Y608D01*
X763Y608D02*
X779Y608D01*
X33Y607D02*
X40Y607D01*
X56Y607D02*
X62Y607D01*
X760Y607D02*
X778Y607D01*
X34Y606D02*
X41Y606D01*
X56Y606D02*
X62Y606D01*
X757Y606D02*
X777Y606D01*
X34Y605D02*
X41Y605D01*
X56Y605D02*
X62Y605D01*
X750Y605D02*
X775Y605D01*
X35Y604D02*
X42Y604D01*
X56Y604D02*
X62Y604D01*
X748Y604D02*
X774Y604D01*
X35Y603D02*
X43Y603D01*
X56Y603D02*
X62Y603D01*
X747Y603D02*
X773Y603D01*
X36Y602D02*
X43Y602D01*
X56Y602D02*
X62Y602D01*
X747Y602D02*
X771Y602D01*
X37Y601D02*
X44Y601D01*
X56Y601D02*
X62Y601D01*
X746Y601D02*
X769Y601D01*
X37Y600D02*
X44Y600D01*
X56Y600D02*
X62Y600D01*
X746Y600D02*
X768Y600D01*
X38Y599D02*
X45Y599D01*
X56Y599D02*
X62Y599D01*
X747Y599D02*
X766Y599D01*
X38Y598D02*
X45Y598D01*
X56Y598D02*
X62Y598D01*
X747Y598D02*
X763Y598D01*
X39Y597D02*
X46Y597D01*
X56Y597D02*
X62Y597D01*
X748Y597D02*
X760Y597D01*
X39Y596D02*
X47Y596D01*
X56Y596D02*
X62Y596D01*
X749Y596D02*
X756Y596D01*
X40Y595D02*
X47Y595D01*
X56Y595D02*
X62Y595D01*
X41Y594D02*
X48Y594D01*
X56Y594D02*
X62Y594D01*
X41Y593D02*
X48Y593D01*
X56Y593D02*
X62Y593D01*
X42Y592D02*
X49Y592D01*
X56Y592D02*
X62Y592D01*
X42Y591D02*
X50Y591D01*
X56Y591D02*
X62Y591D01*
X43Y590D02*
X50Y590D01*
X56Y590D02*
X62Y590D01*
X37Y589D02*
X62Y589D01*
X34Y588D02*
X62Y588D01*
X33Y587D02*
X62Y587D01*
X32Y586D02*
X62Y586D01*
X31Y585D02*
X62Y585D01*
X30Y584D02*
X62Y584D01*
X30Y583D02*
X62Y583D01*
X483Y583D02*
X511Y583D01*
X535Y583D02*
X563Y583D01*
X29Y582D02*
X37Y582D01*
X56Y582D02*
X62Y582D01*
X483Y582D02*
X512Y582D01*
X534Y582D02*
X565Y582D01*
X29Y581D02*
X36Y581D01*
X56Y581D02*
X62Y581D01*
X483Y581D02*
X514Y581D01*
X534Y581D02*
X566Y581D01*
X29Y580D02*
X35Y580D01*
X56Y580D02*
X62Y580D01*
X483Y580D02*
X515Y580D01*
X534Y580D02*
X566Y580D01*
X29Y579D02*
X35Y579D01*
X56Y579D02*
X62Y579D01*
X483Y579D02*
X515Y579D01*
X534Y579D02*
X567Y579D01*
X29Y578D02*
X35Y578D01*
X56Y578D02*
X62Y578D01*
X483Y578D02*
X516Y578D01*
X535Y578D02*
X567Y578D01*
X29Y577D02*
X35Y577D01*
X56Y577D02*
X62Y577D01*
X483Y577D02*
X516Y577D01*
X536Y577D02*
X567Y577D01*
X29Y576D02*
X35Y576D01*
X56Y576D02*
X62Y576D01*
X483Y576D02*
X489Y576D01*
X510Y576D02*
X517Y576D01*
X561Y576D02*
X567Y576D01*
X29Y575D02*
X35Y575D01*
X56Y575D02*
X62Y575D01*
X483Y575D02*
X489Y575D01*
X510Y575D02*
X517Y575D01*
X561Y575D02*
X567Y575D01*
X29Y574D02*
X35Y574D01*
X56Y574D02*
X62Y574D01*
X483Y574D02*
X489Y574D01*
X511Y574D02*
X517Y574D01*
X561Y574D02*
X567Y574D01*
X29Y573D02*
X36Y573D01*
X56Y573D02*
X62Y573D01*
X483Y573D02*
X489Y573D01*
X511Y573D02*
X517Y573D01*
X561Y573D02*
X567Y573D01*
X29Y572D02*
X37Y572D01*
X56Y572D02*
X62Y572D01*
X483Y572D02*
X489Y572D01*
X511Y572D02*
X517Y572D01*
X561Y572D02*
X567Y572D01*
X1Y571D02*
X11Y571D01*
X30Y571D02*
X62Y571D01*
X483Y571D02*
X489Y571D01*
X511Y571D02*
X517Y571D01*
X561Y571D02*
X567Y571D01*
X1Y570D02*
X12Y570D01*
X30Y570D02*
X62Y570D01*
X483Y570D02*
X489Y570D01*
X511Y570D02*
X517Y570D01*
X561Y570D02*
X567Y570D01*
X1Y569D02*
X12Y569D01*
X31Y569D02*
X62Y569D01*
X483Y569D02*
X489Y569D01*
X511Y569D02*
X517Y569D01*
X561Y569D02*
X567Y569D01*
X1Y568D02*
X12Y568D01*
X32Y568D02*
X62Y568D01*
X483Y568D02*
X489Y568D01*
X510Y568D02*
X517Y568D01*
X561Y568D02*
X567Y568D01*
X1Y567D02*
X12Y567D01*
X33Y567D02*
X62Y567D01*
X483Y567D02*
X489Y567D01*
X510Y567D02*
X517Y567D01*
X561Y567D02*
X567Y567D01*
X1Y566D02*
X11Y566D01*
X34Y566D02*
X62Y566D01*
X483Y566D02*
X516Y566D01*
X561Y566D02*
X567Y566D01*
X1Y565D02*
X10Y565D01*
X37Y565D02*
X62Y565D01*
X483Y565D02*
X516Y565D01*
X561Y565D02*
X567Y565D01*
X483Y564D02*
X515Y564D01*
X561Y564D02*
X567Y564D01*
X483Y563D02*
X514Y563D01*
X561Y563D02*
X567Y563D01*
X483Y562D02*
X513Y562D01*
X561Y562D02*
X567Y562D01*
X483Y561D02*
X512Y561D01*
X560Y561D02*
X567Y561D01*
X483Y560D02*
X510Y560D01*
X543Y560D02*
X566Y560D01*
X483Y559D02*
X490Y559D01*
X495Y559D02*
X503Y559D01*
X541Y559D02*
X566Y559D01*
X483Y558D02*
X489Y558D01*
X496Y558D02*
X503Y558D01*
X541Y558D02*
X565Y558D01*
X483Y557D02*
X489Y557D01*
X496Y557D02*
X504Y557D01*
X541Y557D02*
X565Y557D01*
X483Y556D02*
X489Y556D01*
X497Y556D02*
X504Y556D01*
X541Y556D02*
X565Y556D01*
X483Y555D02*
X489Y555D01*
X498Y555D02*
X505Y555D01*
X541Y555D02*
X566Y555D01*
X483Y554D02*
X489Y554D01*
X498Y554D02*
X505Y554D01*
X542Y554D02*
X566Y554D01*
X483Y553D02*
X489Y553D01*
X499Y553D02*
X506Y553D01*
X559Y553D02*
X567Y553D01*
X483Y552D02*
X489Y552D01*
X499Y552D02*
X507Y552D01*
X560Y552D02*
X567Y552D01*
X483Y551D02*
X489Y551D01*
X500Y551D02*
X507Y551D01*
X561Y551D02*
X567Y551D01*
X483Y550D02*
X489Y550D01*
X501Y550D02*
X508Y550D01*
X561Y550D02*
X567Y550D01*
X483Y549D02*
X489Y549D01*
X501Y549D02*
X508Y549D01*
X561Y549D02*
X567Y549D01*
X483Y548D02*
X489Y548D01*
X502Y548D02*
X509Y548D01*
X561Y548D02*
X567Y548D01*
X483Y547D02*
X489Y547D01*
X502Y547D02*
X510Y547D01*
X561Y547D02*
X567Y547D01*
X483Y546D02*
X489Y546D01*
X503Y546D02*
X510Y546D01*
X561Y546D02*
X567Y546D01*
X483Y545D02*
X489Y545D01*
X504Y545D02*
X511Y545D01*
X561Y545D02*
X567Y545D01*
X483Y544D02*
X489Y544D01*
X504Y544D02*
X511Y544D01*
X561Y544D02*
X567Y544D01*
X483Y543D02*
X489Y543D01*
X505Y543D02*
X512Y543D01*
X561Y543D02*
X567Y543D01*
X483Y542D02*
X489Y542D01*
X505Y542D02*
X512Y542D01*
X561Y542D02*
X567Y542D01*
X483Y541D02*
X489Y541D01*
X506Y541D02*
X513Y541D01*
X561Y541D02*
X567Y541D01*
X483Y540D02*
X489Y540D01*
X506Y540D02*
X514Y540D01*
X561Y540D02*
X567Y540D01*
X483Y539D02*
X489Y539D01*
X507Y539D02*
X514Y539D01*
X561Y539D02*
X567Y539D01*
X483Y538D02*
X489Y538D01*
X508Y538D02*
X515Y538D01*
X561Y538D02*
X567Y538D01*
X483Y537D02*
X489Y537D01*
X508Y537D02*
X515Y537D01*
X561Y537D02*
X567Y537D01*
X478Y536D02*
X516Y536D01*
X528Y536D02*
X567Y536D01*
X477Y535D02*
X516Y535D01*
X528Y535D02*
X567Y535D01*
X477Y534D02*
X517Y534D01*
X527Y534D02*
X567Y534D01*
X477Y533D02*
X517Y533D01*
X527Y533D02*
X566Y533D01*
X477Y532D02*
X517Y532D01*
X528Y532D02*
X565Y532D01*
X478Y531D02*
X516Y531D01*
X528Y531D02*
X564Y531D01*
X480Y530D02*
X511Y530D01*
X513Y530D02*
X515Y530D01*
X530Y530D02*
X562Y530D01*
X222Y529D02*
X225Y529D01*
X505Y529D02*
X511Y529D01*
X536Y529D02*
X551Y529D01*
X555Y529D02*
X561Y529D01*
X221Y528D02*
X226Y528D01*
X505Y528D02*
X511Y528D01*
X536Y528D02*
X550Y528D01*
X555Y528D02*
X561Y528D01*
X221Y527D02*
X226Y527D01*
X248Y527D02*
X262Y527D01*
X505Y527D02*
X511Y527D01*
X536Y527D02*
X548Y527D01*
X555Y527D02*
X561Y527D01*
X221Y526D02*
X227Y526D01*
X247Y526D02*
X277Y526D01*
X505Y526D02*
X511Y526D01*
X537Y526D02*
X547Y526D01*
X555Y526D02*
X561Y526D01*
X220Y525D02*
X226Y525D01*
X247Y525D02*
X279Y525D01*
X505Y525D02*
X511Y525D01*
X536Y525D02*
X546Y525D01*
X555Y525D02*
X561Y525D01*
X220Y524D02*
X226Y524D01*
X247Y524D02*
X280Y524D01*
X505Y524D02*
X511Y524D01*
X535Y524D02*
X545Y524D01*
X555Y524D02*
X561Y524D01*
X220Y523D02*
X226Y523D01*
X246Y523D02*
X280Y523D01*
X505Y523D02*
X511Y523D01*
X534Y523D02*
X544Y523D01*
X555Y523D02*
X561Y523D01*
X220Y522D02*
X226Y522D01*
X246Y522D02*
X280Y522D01*
X505Y522D02*
X511Y522D01*
X533Y522D02*
X545Y522D01*
X555Y522D02*
X561Y522D01*
X220Y521D02*
X226Y521D01*
X246Y521D02*
X280Y521D01*
X505Y521D02*
X511Y521D01*
X532Y521D02*
X545Y521D01*
X555Y521D02*
X561Y521D01*
X220Y520D02*
X226Y520D01*
X246Y520D02*
X252Y520D01*
X263Y520D02*
X280Y520D01*
X505Y520D02*
X511Y520D01*
X531Y520D02*
X546Y520D01*
X555Y520D02*
X561Y520D01*
X220Y519D02*
X226Y519D01*
X246Y519D02*
X252Y519D01*
X274Y519D02*
X280Y519D01*
X505Y519D02*
X511Y519D01*
X530Y519D02*
X546Y519D01*
X555Y519D02*
X561Y519D01*
X220Y518D02*
X226Y518D01*
X246Y518D02*
X252Y518D01*
X274Y518D02*
X280Y518D01*
X505Y518D02*
X511Y518D01*
X529Y518D02*
X538Y518D01*
X540Y518D02*
X546Y518D01*
X555Y518D02*
X561Y518D01*
X220Y517D02*
X226Y517D01*
X246Y517D02*
X252Y517D01*
X274Y517D02*
X280Y517D01*
X505Y517D02*
X511Y517D01*
X529Y517D02*
X537Y517D01*
X540Y517D02*
X547Y517D01*
X555Y517D02*
X561Y517D01*
X220Y516D02*
X226Y516D01*
X246Y516D02*
X252Y516D01*
X274Y516D02*
X280Y516D01*
X505Y516D02*
X511Y516D01*
X528Y516D02*
X535Y516D01*
X541Y516D02*
X547Y516D01*
X555Y516D02*
X561Y516D01*
X220Y515D02*
X226Y515D01*
X246Y515D02*
X252Y515D01*
X274Y515D02*
X280Y515D01*
X505Y515D02*
X511Y515D01*
X528Y515D02*
X535Y515D01*
X541Y515D02*
X547Y515D01*
X555Y515D02*
X561Y515D01*
X220Y514D02*
X226Y514D01*
X246Y514D02*
X252Y514D01*
X273Y514D02*
X280Y514D01*
X505Y514D02*
X511Y514D01*
X528Y514D02*
X534Y514D01*
X542Y514D02*
X547Y514D01*
X555Y514D02*
X561Y514D01*
X220Y513D02*
X226Y513D01*
X246Y513D02*
X252Y513D01*
X273Y513D02*
X279Y513D01*
X482Y513D02*
X511Y513D01*
X527Y513D02*
X534Y513D01*
X542Y513D02*
X546Y513D01*
X555Y513D02*
X561Y513D01*
X220Y512D02*
X226Y512D01*
X246Y512D02*
X252Y512D01*
X273Y512D02*
X279Y512D01*
X480Y512D02*
X510Y512D01*
X527Y512D02*
X533Y512D01*
X555Y512D02*
X561Y512D01*
X219Y511D02*
X226Y511D01*
X246Y511D02*
X252Y511D01*
X273Y511D02*
X279Y511D01*
X479Y511D02*
X510Y511D01*
X527Y511D02*
X533Y511D01*
X555Y511D02*
X561Y511D01*
X219Y510D02*
X225Y510D01*
X246Y510D02*
X252Y510D01*
X273Y510D02*
X279Y510D01*
X478Y510D02*
X510Y510D01*
X527Y510D02*
X533Y510D01*
X555Y510D02*
X561Y510D01*
X219Y509D02*
X225Y509D01*
X246Y509D02*
X266Y509D01*
X273Y509D02*
X279Y509D01*
X478Y509D02*
X509Y509D01*
X527Y509D02*
X533Y509D01*
X555Y509D02*
X561Y509D01*
X219Y508D02*
X225Y508D01*
X245Y508D02*
X279Y508D01*
X477Y508D02*
X508Y508D01*
X527Y508D02*
X533Y508D01*
X555Y508D02*
X561Y508D01*
X1353Y508D02*
X1353Y508D01*
X1463Y508D02*
X1463Y508D01*
X219Y507D02*
X225Y507D01*
X245Y507D02*
X279Y507D01*
X477Y507D02*
X506Y507D01*
X527Y507D02*
X533Y507D01*
X555Y507D02*
X561Y507D01*
X1350Y507D02*
X1356Y507D01*
X1460Y507D02*
X1466Y507D01*
X219Y506D02*
X225Y506D01*
X245Y506D02*
X279Y506D01*
X477Y506D02*
X483Y506D01*
X527Y506D02*
X533Y506D01*
X554Y506D02*
X561Y506D01*
X1349Y506D02*
X1357Y506D01*
X1459Y506D02*
X1467Y506D01*
X219Y505D02*
X225Y505D01*
X246Y505D02*
X279Y505D01*
X477Y505D02*
X483Y505D01*
X527Y505D02*
X533Y505D01*
X554Y505D02*
X560Y505D01*
X1349Y505D02*
X1357Y505D01*
X1459Y505D02*
X1467Y505D01*
X219Y504D02*
X225Y504D01*
X247Y504D02*
X279Y504D01*
X477Y504D02*
X483Y504D01*
X527Y504D02*
X533Y504D01*
X553Y504D02*
X560Y504D01*
X1348Y504D02*
X1358Y504D01*
X1458Y504D02*
X1468Y504D01*
X219Y503D02*
X225Y503D01*
X252Y503D02*
X279Y503D01*
X477Y503D02*
X483Y503D01*
X527Y503D02*
X533Y503D01*
X552Y503D02*
X560Y503D01*
X1348Y503D02*
X1358Y503D01*
X1458Y503D02*
X1468Y503D01*
X219Y502D02*
X225Y502D01*
X267Y502D02*
X279Y502D01*
X477Y502D02*
X483Y502D01*
X527Y502D02*
X533Y502D01*
X551Y502D02*
X559Y502D01*
X1348Y502D02*
X1358Y502D01*
X1458Y502D02*
X1468Y502D01*
X199Y501D02*
X203Y501D01*
X219Y501D02*
X225Y501D01*
X273Y501D02*
X279Y501D01*
X477Y501D02*
X483Y501D01*
X527Y501D02*
X533Y501D01*
X550Y501D02*
X558Y501D01*
X1348Y501D02*
X1358Y501D01*
X1458Y501D02*
X1468Y501D01*
X198Y500D02*
X203Y500D01*
X219Y500D02*
X225Y500D01*
X273Y500D02*
X279Y500D01*
X477Y500D02*
X483Y500D01*
X527Y500D02*
X533Y500D01*
X548Y500D02*
X558Y500D01*
X1348Y500D02*
X1358Y500D01*
X1458Y500D02*
X1468Y500D01*
X198Y499D02*
X204Y499D01*
X219Y499D02*
X225Y499D01*
X272Y499D02*
X278Y499D01*
X477Y499D02*
X483Y499D01*
X527Y499D02*
X533Y499D01*
X547Y499D02*
X557Y499D01*
X1348Y499D02*
X1358Y499D01*
X1458Y499D02*
X1468Y499D01*
X198Y498D02*
X204Y498D01*
X219Y498D02*
X225Y498D01*
X272Y498D02*
X278Y498D01*
X477Y498D02*
X483Y498D01*
X527Y498D02*
X533Y498D01*
X546Y498D02*
X556Y498D01*
X1348Y498D02*
X1358Y498D01*
X1458Y498D02*
X1468Y498D01*
X198Y497D02*
X204Y497D01*
X218Y497D02*
X225Y497D01*
X272Y497D02*
X278Y497D01*
X477Y497D02*
X483Y497D01*
X527Y497D02*
X533Y497D01*
X545Y497D02*
X555Y497D01*
X1348Y497D02*
X1358Y497D01*
X1458Y497D02*
X1468Y497D01*
X198Y496D02*
X204Y496D01*
X218Y496D02*
X224Y496D01*
X272Y496D02*
X278Y496D01*
X477Y496D02*
X483Y496D01*
X527Y496D02*
X533Y496D01*
X544Y496D02*
X554Y496D01*
X1348Y496D02*
X1358Y496D01*
X1458Y496D02*
X1468Y496D01*
X198Y495D02*
X204Y495D01*
X218Y495D02*
X224Y495D01*
X272Y495D02*
X278Y495D01*
X477Y495D02*
X483Y495D01*
X527Y495D02*
X533Y495D01*
X542Y495D02*
X552Y495D01*
X1348Y495D02*
X1358Y495D01*
X1458Y495D02*
X1468Y495D01*
X198Y494D02*
X204Y494D01*
X218Y494D02*
X224Y494D01*
X272Y494D02*
X278Y494D01*
X477Y494D02*
X483Y494D01*
X527Y494D02*
X533Y494D01*
X541Y494D02*
X551Y494D01*
X1348Y494D02*
X1358Y494D01*
X1458Y494D02*
X1468Y494D01*
X197Y493D02*
X204Y493D01*
X218Y493D02*
X224Y493D01*
X272Y493D02*
X278Y493D01*
X477Y493D02*
X483Y493D01*
X527Y493D02*
X533Y493D01*
X540Y493D02*
X550Y493D01*
X1348Y493D02*
X1358Y493D01*
X1458Y493D02*
X1468Y493D01*
X197Y492D02*
X203Y492D01*
X218Y492D02*
X224Y492D01*
X272Y492D02*
X278Y492D01*
X477Y492D02*
X483Y492D01*
X527Y492D02*
X533Y492D01*
X539Y492D02*
X549Y492D01*
X1348Y492D02*
X1358Y492D01*
X1458Y492D02*
X1468Y492D01*
X197Y491D02*
X203Y491D01*
X218Y491D02*
X224Y491D01*
X272Y491D02*
X278Y491D01*
X477Y491D02*
X483Y491D01*
X527Y491D02*
X533Y491D01*
X538Y491D02*
X548Y491D01*
X1348Y491D02*
X1358Y491D01*
X1458Y491D02*
X1468Y491D01*
X197Y490D02*
X203Y490D01*
X218Y490D02*
X224Y490D01*
X272Y490D02*
X278Y490D01*
X477Y490D02*
X483Y490D01*
X527Y490D02*
X534Y490D01*
X536Y490D02*
X546Y490D01*
X1348Y490D02*
X1358Y490D01*
X1458Y490D02*
X1468Y490D01*
X197Y489D02*
X203Y489D01*
X218Y489D02*
X224Y489D01*
X272Y489D02*
X278Y489D01*
X477Y489D02*
X509Y489D01*
X528Y489D02*
X545Y489D01*
X1348Y489D02*
X1358Y489D01*
X1458Y489D02*
X1468Y489D01*
X197Y488D02*
X203Y488D01*
X218Y488D02*
X224Y488D01*
X272Y488D02*
X278Y488D01*
X477Y488D02*
X510Y488D01*
X528Y488D02*
X544Y488D01*
X1348Y488D02*
X1358Y488D01*
X1458Y488D02*
X1468Y488D01*
X197Y487D02*
X203Y487D01*
X218Y487D02*
X224Y487D01*
X272Y487D02*
X278Y487D01*
X478Y487D02*
X510Y487D01*
X528Y487D02*
X543Y487D01*
X1348Y487D02*
X1358Y487D01*
X1458Y487D02*
X1468Y487D01*
X197Y486D02*
X203Y486D01*
X218Y486D02*
X224Y486D01*
X272Y486D02*
X278Y486D01*
X478Y486D02*
X511Y486D01*
X529Y486D02*
X542Y486D01*
X1348Y486D02*
X1358Y486D01*
X1458Y486D02*
X1468Y486D01*
X197Y485D02*
X204Y485D01*
X217Y485D02*
X224Y485D01*
X271Y485D02*
X277Y485D01*
X479Y485D02*
X510Y485D01*
X530Y485D02*
X540Y485D01*
X1348Y485D02*
X1358Y485D01*
X1458Y485D02*
X1468Y485D01*
X198Y484D02*
X205Y484D01*
X216Y484D02*
X223Y484D01*
X271Y484D02*
X277Y484D01*
X480Y484D02*
X510Y484D01*
X531Y484D02*
X539Y484D01*
X1348Y484D02*
X1358Y484D01*
X1458Y484D02*
X1468Y484D01*
X198Y483D02*
X223Y483D01*
X271Y483D02*
X277Y483D01*
X482Y483D02*
X508Y483D01*
X534Y483D02*
X537Y483D01*
X1348Y483D02*
X1358Y483D01*
X1458Y483D02*
X1468Y483D01*
X198Y482D02*
X223Y482D01*
X271Y482D02*
X277Y482D01*
X1348Y482D02*
X1358Y482D01*
X1458Y482D02*
X1468Y482D01*
X199Y481D02*
X222Y481D01*
X271Y481D02*
X277Y481D01*
X1348Y481D02*
X1358Y481D01*
X1458Y481D02*
X1468Y481D01*
X200Y480D02*
X221Y480D01*
X271Y480D02*
X277Y480D01*
X1348Y480D02*
X1358Y480D01*
X1458Y480D02*
X1468Y480D01*
X201Y479D02*
X220Y479D01*
X270Y479D02*
X277Y479D01*
X1348Y479D02*
X1358Y479D01*
X1458Y479D02*
X1468Y479D01*
X203Y478D02*
X219Y478D01*
X268Y478D02*
X277Y478D01*
X1348Y478D02*
X1358Y478D01*
X1458Y478D02*
X1468Y478D01*
X205Y477D02*
X217Y477D01*
X268Y477D02*
X277Y477D01*
X1348Y477D02*
X1358Y477D01*
X1458Y477D02*
X1468Y477D01*
X267Y476D02*
X277Y476D01*
X1348Y476D02*
X1358Y476D01*
X1458Y476D02*
X1468Y476D01*
X267Y475D02*
X277Y475D01*
X1348Y475D02*
X1358Y475D01*
X1458Y475D02*
X1468Y475D01*
X268Y474D02*
X276Y474D01*
X1348Y474D02*
X1358Y474D01*
X1458Y474D02*
X1468Y474D01*
X269Y473D02*
X276Y473D01*
X1348Y473D02*
X1358Y473D01*
X1458Y473D02*
X1468Y473D01*
X1348Y472D02*
X1358Y472D01*
X1458Y472D02*
X1468Y472D01*
X1348Y471D02*
X1358Y471D01*
X1458Y471D02*
X1468Y471D01*
X1349Y470D02*
X1357Y470D01*
X1459Y470D02*
X1467Y470D01*
X1349Y469D02*
X1357Y469D01*
X1459Y469D02*
X1467Y469D01*
X1351Y468D02*
X1355Y468D01*
X1461Y468D02*
X1465Y468D01*
X876Y439D02*
X876Y439D01*
X904Y439D02*
X928Y439D01*
X872Y438D02*
X880Y438D01*
X902Y438D02*
X931Y438D01*
X871Y437D02*
X881Y437D01*
X901Y437D02*
X932Y437D01*
X870Y436D02*
X882Y436D01*
X901Y436D02*
X933Y436D01*
X869Y435D02*
X883Y435D01*
X901Y435D02*
X934Y435D01*
X868Y434D02*
X883Y434D01*
X901Y434D02*
X934Y434D01*
X866Y433D02*
X884Y433D01*
X902Y433D02*
X934Y433D01*
X865Y432D02*
X884Y432D01*
X928Y432D02*
X934Y432D01*
X864Y431D02*
X874Y431D01*
X878Y431D02*
X884Y431D01*
X928Y431D02*
X934Y431D01*
X863Y430D02*
X873Y430D01*
X878Y430D02*
X884Y430D01*
X928Y430D02*
X934Y430D01*
X222Y429D02*
X225Y429D01*
X862Y429D02*
X872Y429D01*
X878Y429D02*
X884Y429D01*
X928Y429D02*
X934Y429D01*
X221Y428D02*
X226Y428D01*
X860Y428D02*
X870Y428D01*
X878Y428D02*
X884Y428D01*
X928Y428D02*
X934Y428D01*
X221Y427D02*
X226Y427D01*
X255Y427D02*
X263Y427D01*
X859Y427D02*
X869Y427D01*
X878Y427D02*
X884Y427D01*
X928Y427D02*
X934Y427D01*
X221Y426D02*
X227Y426D01*
X254Y426D02*
X271Y426D01*
X858Y426D02*
X868Y426D01*
X878Y426D02*
X884Y426D01*
X928Y426D02*
X934Y426D01*
X220Y425D02*
X226Y425D01*
X254Y425D02*
X273Y425D01*
X857Y425D02*
X867Y425D01*
X878Y425D02*
X884Y425D01*
X928Y425D02*
X934Y425D01*
X220Y424D02*
X226Y424D01*
X254Y424D02*
X273Y424D01*
X856Y424D02*
X866Y424D01*
X878Y424D02*
X884Y424D01*
X928Y424D02*
X934Y424D01*
X220Y423D02*
X226Y423D01*
X253Y423D02*
X273Y423D01*
X855Y423D02*
X864Y423D01*
X878Y423D02*
X884Y423D01*
X928Y423D02*
X934Y423D01*
X220Y422D02*
X226Y422D01*
X253Y422D02*
X273Y422D01*
X854Y422D02*
X863Y422D01*
X878Y422D02*
X884Y422D01*
X928Y422D02*
X934Y422D01*
X220Y421D02*
X226Y421D01*
X253Y421D02*
X273Y421D01*
X853Y421D02*
X862Y421D01*
X878Y421D02*
X884Y421D01*
X928Y421D02*
X934Y421D01*
X220Y420D02*
X226Y420D01*
X253Y420D02*
X259Y420D01*
X264Y420D02*
X273Y420D01*
X852Y420D02*
X861Y420D01*
X878Y420D02*
X884Y420D01*
X928Y420D02*
X934Y420D01*
X220Y419D02*
X226Y419D01*
X253Y419D02*
X259Y419D01*
X267Y419D02*
X273Y419D01*
X852Y419D02*
X860Y419D01*
X878Y419D02*
X884Y419D01*
X928Y419D02*
X934Y419D01*
X220Y418D02*
X226Y418D01*
X253Y418D02*
X259Y418D01*
X267Y418D02*
X273Y418D01*
X852Y418D02*
X859Y418D01*
X878Y418D02*
X884Y418D01*
X928Y418D02*
X934Y418D01*
X220Y417D02*
X226Y417D01*
X253Y417D02*
X259Y417D01*
X267Y417D02*
X273Y417D01*
X851Y417D02*
X858Y417D01*
X878Y417D02*
X884Y417D01*
X928Y417D02*
X934Y417D01*
X220Y416D02*
X226Y416D01*
X253Y416D02*
X259Y416D01*
X267Y416D02*
X273Y416D01*
X851Y416D02*
X857Y416D01*
X878Y416D02*
X884Y416D01*
X926Y416D02*
X934Y416D01*
X220Y415D02*
X226Y415D01*
X253Y415D02*
X259Y415D01*
X267Y415D02*
X273Y415D01*
X851Y415D02*
X857Y415D01*
X878Y415D02*
X884Y415D01*
X909Y415D02*
X934Y415D01*
X220Y414D02*
X226Y414D01*
X253Y414D02*
X259Y414D01*
X267Y414D02*
X272Y414D01*
X851Y414D02*
X857Y414D01*
X878Y414D02*
X884Y414D01*
X908Y414D02*
X933Y414D01*
X220Y413D02*
X226Y413D01*
X253Y413D02*
X259Y413D01*
X266Y413D02*
X272Y413D01*
X851Y413D02*
X857Y413D01*
X878Y413D02*
X884Y413D01*
X908Y413D02*
X932Y413D01*
X220Y412D02*
X226Y412D01*
X253Y412D02*
X259Y412D01*
X266Y412D02*
X272Y412D01*
X851Y412D02*
X857Y412D01*
X878Y412D02*
X884Y412D01*
X908Y412D02*
X932Y412D01*
X219Y411D02*
X226Y411D01*
X253Y411D02*
X259Y411D01*
X266Y411D02*
X272Y411D01*
X851Y411D02*
X857Y411D01*
X878Y411D02*
X884Y411D01*
X908Y411D02*
X932Y411D01*
X219Y410D02*
X225Y410D01*
X253Y410D02*
X258Y410D01*
X266Y410D02*
X272Y410D01*
X851Y410D02*
X857Y410D01*
X878Y410D02*
X884Y410D01*
X908Y410D02*
X933Y410D01*
X219Y409D02*
X225Y409D01*
X252Y409D02*
X258Y409D01*
X266Y409D02*
X272Y409D01*
X851Y409D02*
X857Y409D01*
X866Y409D02*
X869Y409D01*
X878Y409D02*
X884Y409D01*
X906Y409D02*
X934Y409D01*
X219Y408D02*
X225Y408D01*
X252Y408D02*
X258Y408D01*
X266Y408D02*
X272Y408D01*
X851Y408D02*
X857Y408D01*
X865Y408D02*
X870Y408D01*
X877Y408D02*
X884Y408D01*
X904Y408D02*
X924Y408D01*
X927Y408D02*
X934Y408D01*
X219Y407D02*
X225Y407D01*
X252Y407D02*
X258Y407D01*
X266Y407D02*
X272Y407D01*
X851Y407D02*
X857Y407D01*
X865Y407D02*
X870Y407D01*
X877Y407D02*
X884Y407D01*
X903Y407D02*
X924Y407D01*
X928Y407D02*
X934Y407D01*
X219Y406D02*
X225Y406D01*
X252Y406D02*
X258Y406D01*
X266Y406D02*
X272Y406D01*
X851Y406D02*
X857Y406D01*
X864Y406D02*
X871Y406D01*
X876Y406D02*
X883Y406D01*
X902Y406D02*
X924Y406D01*
X928Y406D02*
X934Y406D01*
X219Y405D02*
X225Y405D01*
X252Y405D02*
X258Y405D01*
X266Y405D02*
X272Y405D01*
X851Y405D02*
X857Y405D01*
X865Y405D02*
X871Y405D01*
X875Y405D02*
X883Y405D01*
X902Y405D02*
X923Y405D01*
X928Y405D02*
X934Y405D01*
X219Y404D02*
X225Y404D01*
X250Y404D02*
X258Y404D01*
X266Y404D02*
X272Y404D01*
X851Y404D02*
X857Y404D01*
X865Y404D02*
X871Y404D01*
X874Y404D02*
X882Y404D01*
X901Y404D02*
X922Y404D01*
X928Y404D02*
X934Y404D01*
X219Y403D02*
X225Y403D01*
X248Y403D02*
X272Y403D01*
X851Y403D02*
X857Y403D01*
X865Y403D02*
X882Y403D01*
X901Y403D02*
X908Y403D01*
X928Y403D02*
X934Y403D01*
X219Y402D02*
X225Y402D01*
X247Y402D02*
X274Y402D01*
X851Y402D02*
X857Y402D01*
X866Y402D02*
X881Y402D01*
X900Y402D02*
X907Y402D01*
X928Y402D02*
X934Y402D01*
X199Y401D02*
X203Y401D01*
X219Y401D02*
X225Y401D01*
X246Y401D02*
X276Y401D01*
X851Y401D02*
X857Y401D01*
X866Y401D02*
X880Y401D01*
X900Y401D02*
X906Y401D01*
X928Y401D02*
X934Y401D01*
X198Y400D02*
X203Y400D01*
X219Y400D02*
X225Y400D01*
X245Y400D02*
X277Y400D01*
X851Y400D02*
X857Y400D01*
X866Y400D02*
X879Y400D01*
X900Y400D02*
X906Y400D01*
X928Y400D02*
X934Y400D01*
X198Y399D02*
X204Y399D01*
X219Y399D02*
X225Y399D01*
X245Y399D02*
X277Y399D01*
X851Y399D02*
X857Y399D01*
X867Y399D02*
X878Y399D01*
X900Y399D02*
X906Y399D01*
X928Y399D02*
X934Y399D01*
X198Y398D02*
X204Y398D01*
X219Y398D02*
X225Y398D01*
X245Y398D02*
X278Y398D01*
X851Y398D02*
X857Y398D01*
X867Y398D02*
X877Y398D01*
X900Y398D02*
X906Y398D01*
X928Y398D02*
X934Y398D01*
X198Y397D02*
X204Y397D01*
X218Y397D02*
X225Y397D01*
X245Y397D02*
X251Y397D01*
X256Y397D02*
X278Y397D01*
X851Y397D02*
X857Y397D01*
X866Y397D02*
X875Y397D01*
X900Y397D02*
X906Y397D01*
X928Y397D02*
X934Y397D01*
X198Y396D02*
X204Y396D01*
X218Y396D02*
X224Y396D01*
X245Y396D02*
X251Y396D01*
X270Y396D02*
X278Y396D01*
X851Y396D02*
X857Y396D01*
X864Y396D02*
X875Y396D01*
X900Y396D02*
X906Y396D01*
X928Y396D02*
X934Y396D01*
X198Y395D02*
X204Y395D01*
X218Y395D02*
X224Y395D01*
X245Y395D02*
X250Y395D01*
X272Y395D02*
X278Y395D01*
X851Y395D02*
X857Y395D01*
X863Y395D02*
X875Y395D01*
X900Y395D02*
X906Y395D01*
X928Y395D02*
X934Y395D01*
X198Y394D02*
X204Y394D01*
X218Y394D02*
X224Y394D01*
X244Y394D02*
X250Y394D01*
X272Y394D02*
X278Y394D01*
X851Y394D02*
X857Y394D01*
X862Y394D02*
X875Y394D01*
X900Y394D02*
X906Y394D01*
X928Y394D02*
X934Y394D01*
X197Y393D02*
X203Y393D01*
X218Y393D02*
X224Y393D01*
X244Y393D02*
X250Y393D01*
X272Y393D02*
X278Y393D01*
X851Y393D02*
X857Y393D01*
X861Y393D02*
X876Y393D01*
X900Y393D02*
X906Y393D01*
X928Y393D02*
X934Y393D01*
X197Y392D02*
X203Y392D01*
X218Y392D02*
X224Y392D01*
X244Y392D02*
X250Y392D01*
X272Y392D02*
X278Y392D01*
X851Y392D02*
X876Y392D01*
X900Y392D02*
X907Y392D01*
X928Y392D02*
X934Y392D01*
X197Y391D02*
X203Y391D01*
X218Y391D02*
X224Y391D01*
X244Y391D02*
X250Y391D01*
X272Y391D02*
X278Y391D01*
X851Y391D02*
X868Y391D01*
X870Y391D02*
X883Y391D01*
X901Y391D02*
X934Y391D01*
X197Y390D02*
X203Y390D01*
X218Y390D02*
X224Y390D01*
X244Y390D02*
X250Y390D01*
X272Y390D02*
X278Y390D01*
X851Y390D02*
X867Y390D01*
X870Y390D02*
X884Y390D01*
X901Y390D02*
X934Y390D01*
X197Y389D02*
X203Y389D01*
X218Y389D02*
X224Y389D01*
X244Y389D02*
X250Y389D01*
X272Y389D02*
X278Y389D01*
X852Y389D02*
X866Y389D01*
X871Y389D02*
X884Y389D01*
X901Y389D02*
X952Y389D01*
X197Y388D02*
X203Y388D01*
X218Y388D02*
X224Y388D01*
X244Y388D02*
X250Y388D01*
X272Y388D02*
X278Y388D01*
X853Y388D02*
X865Y388D01*
X871Y388D02*
X884Y388D01*
X901Y388D02*
X953Y388D01*
X197Y387D02*
X203Y387D01*
X218Y387D02*
X224Y387D01*
X244Y387D02*
X250Y387D01*
X272Y387D02*
X278Y387D01*
X854Y387D02*
X864Y387D01*
X872Y387D02*
X884Y387D01*
X901Y387D02*
X953Y387D01*
X197Y386D02*
X203Y386D01*
X218Y386D02*
X224Y386D01*
X244Y386D02*
X250Y386D01*
X272Y386D02*
X278Y386D01*
X855Y386D02*
X862Y386D01*
X872Y386D02*
X883Y386D01*
X902Y386D02*
X953Y386D01*
X197Y385D02*
X204Y385D01*
X217Y385D02*
X224Y385D01*
X244Y385D02*
X250Y385D01*
X271Y385D02*
X277Y385D01*
X859Y385D02*
X859Y385D01*
X873Y385D02*
X881Y385D01*
X904Y385D02*
X953Y385D01*
X198Y384D02*
X205Y384D01*
X216Y384D02*
X223Y384D01*
X244Y384D02*
X250Y384D01*
X271Y384D02*
X277Y384D01*
X384Y384D02*
X407Y384D01*
X437Y384D02*
X467Y384D01*
X906Y384D02*
X953Y384D01*
X198Y383D02*
X223Y383D01*
X244Y383D02*
X250Y383D01*
X271Y383D02*
X277Y383D01*
X383Y383D02*
X411Y383D01*
X435Y383D02*
X467Y383D01*
X908Y383D02*
X951Y383D01*
X199Y382D02*
X223Y382D01*
X244Y382D02*
X250Y382D01*
X271Y382D02*
X277Y382D01*
X383Y382D02*
X413Y382D01*
X434Y382D02*
X467Y382D01*
X199Y381D02*
X222Y381D01*
X244Y381D02*
X250Y381D01*
X271Y381D02*
X277Y381D01*
X383Y381D02*
X414Y381D01*
X434Y381D02*
X467Y381D01*
X200Y380D02*
X221Y380D01*
X244Y380D02*
X260Y380D01*
X271Y380D02*
X277Y380D01*
X383Y380D02*
X415Y380D01*
X434Y380D02*
X467Y380D01*
X201Y379D02*
X220Y379D01*
X244Y379D02*
X277Y379D01*
X383Y379D02*
X415Y379D01*
X434Y379D02*
X467Y379D01*
X203Y378D02*
X219Y378D01*
X244Y378D02*
X277Y378D01*
X383Y378D02*
X416Y378D01*
X434Y378D02*
X467Y378D01*
X205Y377D02*
X217Y377D01*
X245Y377D02*
X277Y377D01*
X383Y377D02*
X390Y377D01*
X407Y377D02*
X416Y377D01*
X434Y377D02*
X440Y377D01*
X461Y377D02*
X467Y377D01*
X245Y376D02*
X276Y376D01*
X383Y376D02*
X389Y376D01*
X410Y376D02*
X417Y376D01*
X434Y376D02*
X439Y376D01*
X461Y376D02*
X467Y376D01*
X247Y375D02*
X276Y375D01*
X383Y375D02*
X389Y375D01*
X411Y375D02*
X417Y375D01*
X435Y375D02*
X438Y375D01*
X461Y375D02*
X467Y375D01*
X249Y374D02*
X275Y374D01*
X383Y374D02*
X389Y374D01*
X411Y374D02*
X417Y374D01*
X461Y374D02*
X467Y374D01*
X261Y373D02*
X273Y373D01*
X383Y373D02*
X389Y373D01*
X411Y373D02*
X417Y373D01*
X461Y373D02*
X467Y373D01*
X383Y372D02*
X389Y372D01*
X411Y372D02*
X417Y372D01*
X461Y372D02*
X467Y372D01*
X383Y371D02*
X389Y371D01*
X411Y371D02*
X417Y371D01*
X461Y371D02*
X467Y371D01*
X383Y370D02*
X389Y370D01*
X411Y370D02*
X417Y370D01*
X461Y370D02*
X467Y370D01*
X383Y369D02*
X389Y369D01*
X411Y369D02*
X417Y369D01*
X461Y369D02*
X467Y369D01*
X383Y368D02*
X389Y368D01*
X410Y368D02*
X417Y368D01*
X461Y368D02*
X467Y368D01*
X383Y367D02*
X389Y367D01*
X409Y367D02*
X417Y367D01*
X461Y367D02*
X467Y367D01*
X383Y366D02*
X416Y366D01*
X461Y366D02*
X467Y366D01*
X383Y365D02*
X416Y365D01*
X461Y365D02*
X467Y365D01*
X383Y364D02*
X415Y364D01*
X461Y364D02*
X467Y364D01*
X383Y363D02*
X414Y363D01*
X459Y363D02*
X467Y363D01*
X916Y363D02*
X937Y363D01*
X383Y362D02*
X413Y362D01*
X458Y362D02*
X467Y362D01*
X907Y362D02*
X938Y362D01*
X383Y361D02*
X412Y361D01*
X457Y361D02*
X467Y361D01*
X905Y361D02*
X939Y361D01*
X383Y360D02*
X410Y360D01*
X456Y360D02*
X466Y360D01*
X904Y360D02*
X939Y360D01*
X383Y359D02*
X390Y359D01*
X395Y359D02*
X403Y359D01*
X455Y359D02*
X465Y359D01*
X903Y359D02*
X938Y359D01*
X1484Y359D02*
X1484Y359D01*
X1532Y359D02*
X1532Y359D01*
X383Y358D02*
X389Y358D01*
X396Y358D02*
X403Y358D01*
X454Y358D02*
X463Y358D01*
X902Y358D02*
X938Y358D01*
X1482Y358D02*
X1486Y358D01*
X1530Y358D02*
X1534Y358D01*
X383Y357D02*
X389Y357D01*
X397Y357D02*
X404Y357D01*
X452Y357D02*
X462Y357D01*
X901Y357D02*
X936Y357D01*
X1481Y357D02*
X1487Y357D01*
X1529Y357D02*
X1535Y357D01*
X383Y356D02*
X389Y356D01*
X397Y356D02*
X404Y356D01*
X451Y356D02*
X461Y356D01*
X901Y356D02*
X915Y356D01*
X1480Y356D02*
X1487Y356D01*
X1529Y356D02*
X1536Y356D01*
X383Y355D02*
X389Y355D01*
X398Y355D02*
X405Y355D01*
X450Y355D02*
X460Y355D01*
X901Y355D02*
X908Y355D01*
X1480Y355D02*
X1487Y355D01*
X1529Y355D02*
X1536Y355D01*
X383Y354D02*
X389Y354D01*
X398Y354D02*
X406Y354D01*
X449Y354D02*
X459Y354D01*
X900Y354D02*
X907Y354D01*
X1479Y354D02*
X1487Y354D01*
X1529Y354D02*
X1537Y354D01*
X383Y353D02*
X389Y353D01*
X399Y353D02*
X406Y353D01*
X448Y353D02*
X458Y353D01*
X900Y353D02*
X906Y353D01*
X1478Y353D02*
X1487Y353D01*
X1529Y353D02*
X1538Y353D01*
X383Y352D02*
X389Y352D01*
X400Y352D02*
X407Y352D01*
X448Y352D02*
X456Y352D01*
X900Y352D02*
X906Y352D01*
X1478Y352D02*
X1486Y352D01*
X1530Y352D02*
X1538Y352D01*
X383Y351D02*
X389Y351D01*
X400Y351D02*
X407Y351D01*
X447Y351D02*
X455Y351D01*
X900Y351D02*
X906Y351D01*
X1477Y351D02*
X1485Y351D01*
X1531Y351D02*
X1539Y351D01*
X383Y350D02*
X389Y350D01*
X401Y350D02*
X408Y350D01*
X447Y350D02*
X454Y350D01*
X900Y350D02*
X906Y350D01*
X1477Y350D02*
X1485Y350D01*
X1531Y350D02*
X1539Y350D01*
X383Y349D02*
X389Y349D01*
X401Y349D02*
X408Y349D01*
X447Y349D02*
X453Y349D01*
X900Y349D02*
X906Y349D01*
X1477Y349D02*
X1484Y349D01*
X1532Y349D02*
X1539Y349D01*
X383Y348D02*
X389Y348D01*
X402Y348D02*
X409Y348D01*
X447Y348D02*
X453Y348D01*
X900Y348D02*
X906Y348D01*
X1476Y348D02*
X1484Y348D01*
X1532Y348D02*
X1540Y348D01*
X383Y347D02*
X389Y347D01*
X402Y347D02*
X410Y347D01*
X447Y347D02*
X453Y347D01*
X900Y347D02*
X907Y347D01*
X1476Y347D02*
X1483Y347D01*
X1533Y347D02*
X1540Y347D01*
X383Y346D02*
X389Y346D01*
X403Y346D02*
X410Y346D01*
X447Y346D02*
X453Y346D01*
X901Y346D02*
X907Y346D01*
X1476Y346D02*
X1483Y346D01*
X1533Y346D02*
X1540Y346D01*
X383Y345D02*
X389Y345D01*
X404Y345D02*
X411Y345D01*
X447Y345D02*
X453Y345D01*
X901Y345D02*
X908Y345D01*
X1476Y345D02*
X1482Y345D01*
X1534Y345D02*
X1540Y345D01*
X383Y344D02*
X389Y344D01*
X404Y344D02*
X411Y344D01*
X447Y344D02*
X453Y344D01*
X901Y344D02*
X908Y344D01*
X1475Y344D02*
X1482Y344D01*
X1534Y344D02*
X1541Y344D01*
X383Y343D02*
X389Y343D01*
X405Y343D02*
X412Y343D01*
X447Y343D02*
X453Y343D01*
X902Y343D02*
X909Y343D01*
X1475Y343D02*
X1482Y343D01*
X1534Y343D02*
X1541Y343D01*
X383Y342D02*
X389Y342D01*
X405Y342D02*
X413Y342D01*
X447Y342D02*
X453Y342D01*
X902Y342D02*
X910Y342D01*
X1179Y342D02*
X1230Y342D01*
X1475Y342D02*
X1482Y342D01*
X1534Y342D02*
X1541Y342D01*
X383Y341D02*
X389Y341D01*
X406Y341D02*
X413Y341D01*
X447Y341D02*
X453Y341D01*
X903Y341D02*
X910Y341D01*
X1178Y341D02*
X1230Y341D01*
X1475Y341D02*
X1482Y341D01*
X1534Y341D02*
X1541Y341D01*
X383Y340D02*
X389Y340D01*
X407Y340D02*
X414Y340D01*
X447Y340D02*
X453Y340D01*
X904Y340D02*
X911Y340D01*
X1177Y340D02*
X1230Y340D01*
X1475Y340D02*
X1481Y340D01*
X1535Y340D02*
X1541Y340D01*
X383Y339D02*
X389Y339D01*
X407Y339D02*
X414Y339D01*
X447Y339D02*
X453Y339D01*
X904Y339D02*
X912Y339D01*
X1177Y339D02*
X1230Y339D01*
X1475Y339D02*
X1481Y339D01*
X1535Y339D02*
X1541Y339D01*
X383Y338D02*
X389Y338D01*
X408Y338D02*
X415Y338D01*
X447Y338D02*
X453Y338D01*
X905Y338D02*
X912Y338D01*
X1177Y338D02*
X1230Y338D01*
X1475Y338D02*
X1481Y338D01*
X1535Y338D02*
X1541Y338D01*
X212Y337D02*
X215Y337D01*
X238Y337D02*
X266Y337D01*
X383Y337D02*
X389Y337D01*
X408Y337D02*
X415Y337D01*
X447Y337D02*
X453Y337D01*
X906Y337D02*
X913Y337D01*
X1178Y337D02*
X1230Y337D01*
X1475Y337D02*
X1481Y337D01*
X1535Y337D02*
X1541Y337D01*
X211Y336D02*
X216Y336D01*
X237Y336D02*
X268Y336D01*
X383Y336D02*
X389Y336D01*
X409Y336D02*
X416Y336D01*
X447Y336D02*
X453Y336D01*
X903Y336D02*
X936Y336D01*
X1179Y336D02*
X1230Y336D01*
X1475Y336D02*
X1481Y336D01*
X1535Y336D02*
X1541Y336D01*
X211Y335D02*
X216Y335D01*
X237Y335D02*
X269Y335D01*
X383Y335D02*
X389Y335D01*
X409Y335D02*
X417Y335D01*
X447Y335D02*
X453Y335D01*
X901Y335D02*
X938Y335D01*
X1207Y335D02*
X1213Y335D01*
X1224Y335D02*
X1230Y335D01*
X1475Y335D02*
X1481Y335D01*
X1534Y335D02*
X1541Y335D01*
X211Y334D02*
X217Y334D01*
X237Y334D02*
X269Y334D01*
X383Y334D02*
X389Y334D01*
X410Y334D02*
X417Y334D01*
X447Y334D02*
X453Y334D01*
X901Y334D02*
X938Y334D01*
X1207Y334D02*
X1213Y334D01*
X1224Y334D02*
X1230Y334D01*
X1475Y334D02*
X1482Y334D01*
X1534Y334D02*
X1541Y334D01*
X211Y333D02*
X217Y333D01*
X237Y333D02*
X270Y333D01*
X384Y333D02*
X389Y333D01*
X411Y333D02*
X417Y333D01*
X447Y333D02*
X453Y333D01*
X900Y333D02*
X939Y333D01*
X1207Y333D02*
X1213Y333D01*
X1224Y333D02*
X1230Y333D01*
X1475Y333D02*
X1482Y333D01*
X1534Y333D02*
X1541Y333D01*
X211Y332D02*
X217Y332D01*
X237Y332D02*
X270Y332D01*
X384Y332D02*
X389Y332D01*
X411Y332D02*
X417Y332D01*
X448Y332D02*
X453Y332D01*
X900Y332D02*
X939Y332D01*
X1207Y332D02*
X1213Y332D01*
X1224Y332D02*
X1230Y332D01*
X1475Y332D02*
X1482Y332D01*
X1534Y332D02*
X1541Y332D01*
X211Y331D02*
X217Y331D01*
X239Y331D02*
X270Y331D01*
X384Y331D02*
X388Y331D01*
X412Y331D02*
X416Y331D01*
X448Y331D02*
X452Y331D01*
X901Y331D02*
X938Y331D01*
X1207Y331D02*
X1213Y331D01*
X1224Y331D02*
X1230Y331D01*
X1475Y331D02*
X1482Y331D01*
X1534Y331D02*
X1541Y331D01*
X211Y330D02*
X217Y330D01*
X264Y330D02*
X270Y330D01*
X386Y330D02*
X386Y330D01*
X414Y330D02*
X414Y330D01*
X450Y330D02*
X450Y330D01*
X902Y330D02*
X937Y330D01*
X1206Y330D02*
X1213Y330D01*
X1224Y330D02*
X1230Y330D01*
X1476Y330D02*
X1483Y330D01*
X1533Y330D02*
X1540Y330D01*
X211Y329D02*
X217Y329D01*
X264Y329D02*
X270Y329D01*
X1204Y329D02*
X1213Y329D01*
X1224Y329D02*
X1230Y329D01*
X1476Y329D02*
X1483Y329D01*
X1533Y329D02*
X1540Y329D01*
X211Y328D02*
X217Y328D01*
X264Y328D02*
X270Y328D01*
X1202Y328D02*
X1213Y328D01*
X1224Y328D02*
X1230Y328D01*
X1476Y328D02*
X1483Y328D01*
X1533Y328D02*
X1540Y328D01*
X211Y327D02*
X217Y327D01*
X264Y327D02*
X270Y327D01*
X1201Y327D02*
X1213Y327D01*
X1224Y327D02*
X1230Y327D01*
X1476Y327D02*
X1484Y327D01*
X1532Y327D02*
X1540Y327D01*
X211Y326D02*
X217Y326D01*
X264Y326D02*
X270Y326D01*
X1199Y326D02*
X1213Y326D01*
X1224Y326D02*
X1230Y326D01*
X1477Y326D02*
X1484Y326D01*
X1532Y326D02*
X1539Y326D01*
X211Y325D02*
X217Y325D01*
X264Y325D02*
X270Y325D01*
X1197Y325D02*
X1213Y325D01*
X1224Y325D02*
X1230Y325D01*
X1477Y325D02*
X1485Y325D01*
X1531Y325D02*
X1539Y325D01*
X211Y324D02*
X217Y324D01*
X264Y324D02*
X270Y324D01*
X1195Y324D02*
X1213Y324D01*
X1224Y324D02*
X1230Y324D01*
X1478Y324D02*
X1486Y324D01*
X1530Y324D02*
X1538Y324D01*
X211Y323D02*
X217Y323D01*
X264Y323D02*
X270Y323D01*
X1194Y323D02*
X1213Y323D01*
X1224Y323D02*
X1230Y323D01*
X1478Y323D02*
X1486Y323D01*
X1530Y323D02*
X1538Y323D01*
X211Y322D02*
X217Y322D01*
X264Y322D02*
X270Y322D01*
X1192Y322D02*
X1213Y322D01*
X1224Y322D02*
X1230Y322D01*
X1478Y322D02*
X1487Y322D01*
X1529Y322D02*
X1537Y322D01*
X211Y321D02*
X217Y321D01*
X264Y321D02*
X270Y321D01*
X1190Y321D02*
X1203Y321D01*
X1207Y321D02*
X1213Y321D01*
X1224Y321D02*
X1230Y321D01*
X1479Y321D02*
X1487Y321D01*
X1529Y321D02*
X1537Y321D01*
X211Y320D02*
X217Y320D01*
X264Y320D02*
X270Y320D01*
X1189Y320D02*
X1202Y320D01*
X1207Y320D02*
X1213Y320D01*
X1224Y320D02*
X1230Y320D01*
X1480Y320D02*
X1487Y320D01*
X1529Y320D02*
X1536Y320D01*
X211Y319D02*
X217Y319D01*
X264Y319D02*
X270Y319D01*
X1187Y319D02*
X1200Y319D01*
X1207Y319D02*
X1213Y319D01*
X1224Y319D02*
X1230Y319D01*
X1480Y319D02*
X1487Y319D01*
X1529Y319D02*
X1536Y319D01*
X211Y318D02*
X217Y318D01*
X264Y318D02*
X270Y318D01*
X1185Y318D02*
X1198Y318D01*
X1207Y318D02*
X1213Y318D01*
X1224Y318D02*
X1230Y318D01*
X1481Y318D02*
X1487Y318D01*
X1529Y318D02*
X1535Y318D01*
X211Y317D02*
X217Y317D01*
X264Y317D02*
X270Y317D01*
X1183Y317D02*
X1196Y317D01*
X1207Y317D02*
X1213Y317D01*
X1224Y317D02*
X1230Y317D01*
X1482Y317D02*
X1485Y317D01*
X1530Y317D02*
X1534Y317D01*
X211Y316D02*
X217Y316D01*
X264Y316D02*
X270Y316D01*
X1182Y316D02*
X1195Y316D01*
X1207Y316D02*
X1214Y316D01*
X1223Y316D02*
X1230Y316D01*
X211Y315D02*
X217Y315D01*
X263Y315D02*
X270Y315D01*
X1180Y315D02*
X1193Y315D01*
X1207Y315D02*
X1215Y315D01*
X1222Y315D02*
X1230Y315D01*
X211Y314D02*
X217Y314D01*
X247Y314D02*
X270Y314D01*
X904Y314D02*
X935Y314D01*
X1179Y314D02*
X1191Y314D01*
X1208Y314D02*
X1229Y314D01*
X211Y313D02*
X217Y313D01*
X245Y313D02*
X269Y313D01*
X901Y313D02*
X938Y313D01*
X1178Y313D02*
X1190Y313D01*
X1208Y313D02*
X1229Y313D01*
X211Y312D02*
X217Y312D01*
X244Y312D02*
X269Y312D01*
X901Y312D02*
X938Y312D01*
X1177Y312D02*
X1188Y312D01*
X1209Y312D02*
X1228Y312D01*
X211Y311D02*
X217Y311D01*
X244Y311D02*
X268Y311D01*
X900Y311D02*
X939Y311D01*
X1177Y311D02*
X1186Y311D01*
X1210Y311D02*
X1227Y311D01*
X211Y310D02*
X217Y310D01*
X244Y310D02*
X268Y310D01*
X900Y310D02*
X939Y310D01*
X1178Y310D02*
X1184Y310D01*
X1211Y310D02*
X1226Y310D01*
X1354Y310D02*
X1380Y310D01*
X1411Y310D02*
X1436Y310D01*
X211Y309D02*
X217Y309D01*
X244Y309D02*
X269Y309D01*
X901Y309D02*
X938Y309D01*
X1178Y309D02*
X1183Y309D01*
X1213Y309D02*
X1225Y309D01*
X1354Y309D02*
X1382Y309D01*
X1411Y309D02*
X1437Y309D01*
X193Y308D02*
X193Y308D01*
X211Y308D02*
X217Y308D01*
X245Y308D02*
X269Y308D01*
X901Y308D02*
X937Y308D01*
X1180Y308D02*
X1180Y308D01*
X1215Y308D02*
X1222Y308D01*
X1354Y308D02*
X1384Y308D01*
X1411Y308D02*
X1437Y308D01*
X191Y307D02*
X195Y307D01*
X211Y307D02*
X217Y307D01*
X261Y307D02*
X270Y307D01*
X928Y307D02*
X937Y307D01*
X1354Y307D02*
X1385Y307D01*
X1411Y307D02*
X1438Y307D01*
X190Y306D02*
X196Y306D01*
X211Y306D02*
X217Y306D01*
X263Y306D02*
X270Y306D01*
X929Y306D02*
X937Y306D01*
X1354Y306D02*
X1386Y306D01*
X1411Y306D02*
X1437Y306D01*
X190Y305D02*
X196Y305D01*
X211Y305D02*
X217Y305D01*
X264Y305D02*
X270Y305D01*
X930Y305D02*
X938Y305D01*
X1354Y305D02*
X1386Y305D01*
X1411Y305D02*
X1437Y305D01*
X190Y304D02*
X196Y304D01*
X211Y304D02*
X217Y304D01*
X264Y304D02*
X270Y304D01*
X931Y304D02*
X938Y304D01*
X1354Y304D02*
X1387Y304D01*
X1411Y304D02*
X1436Y304D01*
X190Y303D02*
X196Y303D01*
X211Y303D02*
X217Y303D01*
X264Y303D02*
X270Y303D01*
X932Y303D02*
X938Y303D01*
X1354Y303D02*
X1360Y303D01*
X1380Y303D02*
X1387Y303D01*
X1411Y303D02*
X1417Y303D01*
X190Y302D02*
X196Y302D01*
X211Y302D02*
X217Y302D01*
X264Y302D02*
X270Y302D01*
X932Y302D02*
X939Y302D01*
X1354Y302D02*
X1360Y302D01*
X1381Y302D02*
X1387Y302D01*
X1411Y302D02*
X1417Y302D01*
X190Y301D02*
X196Y301D01*
X211Y301D02*
X217Y301D01*
X264Y301D02*
X270Y301D01*
X933Y301D02*
X939Y301D01*
X1354Y301D02*
X1360Y301D01*
X1381Y301D02*
X1387Y301D01*
X1411Y301D02*
X1417Y301D01*
X190Y300D02*
X196Y300D01*
X211Y300D02*
X217Y300D01*
X264Y300D02*
X270Y300D01*
X932Y300D02*
X939Y300D01*
X1354Y300D02*
X1360Y300D01*
X1381Y300D02*
X1387Y300D01*
X1411Y300D02*
X1417Y300D01*
X190Y299D02*
X196Y299D01*
X211Y299D02*
X217Y299D01*
X264Y299D02*
X270Y299D01*
X902Y299D02*
X938Y299D01*
X1354Y299D02*
X1360Y299D01*
X1381Y299D02*
X1387Y299D01*
X1411Y299D02*
X1417Y299D01*
X190Y298D02*
X196Y298D01*
X211Y298D02*
X217Y298D01*
X264Y298D02*
X270Y298D01*
X901Y298D02*
X938Y298D01*
X1354Y298D02*
X1360Y298D01*
X1381Y298D02*
X1387Y298D01*
X1411Y298D02*
X1417Y298D01*
X190Y297D02*
X196Y297D01*
X211Y297D02*
X217Y297D01*
X264Y297D02*
X270Y297D01*
X900Y297D02*
X938Y297D01*
X1354Y297D02*
X1360Y297D01*
X1381Y297D02*
X1387Y297D01*
X1411Y297D02*
X1417Y297D01*
X190Y296D02*
X196Y296D01*
X211Y296D02*
X217Y296D01*
X264Y296D02*
X270Y296D01*
X900Y296D02*
X937Y296D01*
X1354Y296D02*
X1360Y296D01*
X1381Y296D02*
X1387Y296D01*
X1411Y296D02*
X1417Y296D01*
X190Y295D02*
X196Y295D01*
X211Y295D02*
X217Y295D01*
X264Y295D02*
X270Y295D01*
X901Y295D02*
X936Y295D01*
X1354Y295D02*
X1360Y295D01*
X1381Y295D02*
X1387Y295D01*
X1411Y295D02*
X1417Y295D01*
X190Y294D02*
X196Y294D01*
X211Y294D02*
X217Y294D01*
X264Y294D02*
X270Y294D01*
X901Y294D02*
X936Y294D01*
X1354Y294D02*
X1360Y294D01*
X1380Y294D02*
X1387Y294D01*
X1411Y294D02*
X1417Y294D01*
X190Y293D02*
X196Y293D01*
X210Y293D02*
X217Y293D01*
X264Y293D02*
X270Y293D01*
X903Y293D02*
X937Y293D01*
X1354Y293D02*
X1360Y293D01*
X1378Y293D02*
X1387Y293D01*
X1411Y293D02*
X1417Y293D01*
X190Y292D02*
X197Y292D01*
X210Y292D02*
X216Y292D01*
X264Y292D02*
X270Y292D01*
X929Y292D02*
X937Y292D01*
X1183Y292D02*
X1201Y292D01*
X1354Y292D02*
X1386Y292D01*
X1411Y292D02*
X1417Y292D01*
X190Y291D02*
X198Y291D01*
X209Y291D02*
X216Y291D01*
X264Y291D02*
X270Y291D01*
X930Y291D02*
X938Y291D01*
X1180Y291D02*
X1204Y291D01*
X1354Y291D02*
X1386Y291D01*
X1411Y291D02*
X1417Y291D01*
X191Y290D02*
X216Y290D01*
X239Y290D02*
X270Y290D01*
X931Y290D02*
X938Y290D01*
X1179Y290D02*
X1205Y290D01*
X1354Y290D02*
X1385Y290D01*
X1411Y290D02*
X1417Y290D01*
X191Y289D02*
X215Y289D01*
X237Y289D02*
X270Y289D01*
X932Y289D02*
X938Y289D01*
X1178Y289D02*
X1206Y289D01*
X1354Y289D02*
X1384Y289D01*
X1411Y289D02*
X1417Y289D01*
X192Y288D02*
X215Y288D01*
X237Y288D02*
X270Y288D01*
X933Y288D02*
X938Y288D01*
X1178Y288D02*
X1206Y288D01*
X1354Y288D02*
X1383Y288D01*
X1411Y288D02*
X1417Y288D01*
X193Y287D02*
X214Y287D01*
X237Y287D02*
X269Y287D01*
X932Y287D02*
X938Y287D01*
X1177Y287D02*
X1207Y287D01*
X1354Y287D02*
X1381Y287D01*
X1411Y287D02*
X1432Y287D01*
X194Y286D02*
X213Y286D01*
X237Y286D02*
X269Y286D01*
X919Y286D02*
X938Y286D01*
X1177Y286D02*
X1207Y286D01*
X1354Y286D02*
X1378Y286D01*
X1411Y286D02*
X1434Y286D01*
X195Y285D02*
X211Y285D01*
X237Y285D02*
X268Y285D01*
X902Y285D02*
X938Y285D01*
X1177Y285D02*
X1183Y285D01*
X1201Y285D02*
X1228Y285D01*
X1354Y285D02*
X1360Y285D01*
X1366Y285D02*
X1373Y285D01*
X1411Y285D02*
X1435Y285D01*
X197Y284D02*
X209Y284D01*
X238Y284D02*
X266Y284D01*
X901Y284D02*
X938Y284D01*
X1177Y284D02*
X1183Y284D01*
X1201Y284D02*
X1230Y284D01*
X1354Y284D02*
X1360Y284D01*
X1367Y284D02*
X1374Y284D01*
X1411Y284D02*
X1436Y284D01*
X900Y283D02*
X937Y283D01*
X1177Y283D02*
X1183Y283D01*
X1201Y283D02*
X1230Y283D01*
X1354Y283D02*
X1360Y283D01*
X1367Y283D02*
X1375Y283D01*
X1411Y283D02*
X1437Y283D01*
X900Y282D02*
X936Y282D01*
X1177Y282D02*
X1183Y282D01*
X1201Y282D02*
X1230Y282D01*
X1354Y282D02*
X1360Y282D01*
X1368Y282D02*
X1375Y282D01*
X1411Y282D02*
X1437Y282D01*
X900Y281D02*
X935Y281D01*
X1177Y281D02*
X1183Y281D01*
X1201Y281D02*
X1230Y281D01*
X1354Y281D02*
X1360Y281D01*
X1369Y281D02*
X1376Y281D01*
X1411Y281D02*
X1438Y281D01*
X901Y280D02*
X933Y280D01*
X1177Y280D02*
X1183Y280D01*
X1201Y280D02*
X1230Y280D01*
X1354Y280D02*
X1360Y280D01*
X1369Y280D02*
X1376Y280D01*
X1431Y280D02*
X1438Y280D01*
X902Y279D02*
X918Y279D01*
X1177Y279D02*
X1183Y279D01*
X1201Y279D02*
X1230Y279D01*
X1354Y279D02*
X1360Y279D01*
X1370Y279D02*
X1377Y279D01*
X1432Y279D02*
X1438Y279D01*
X1177Y278D02*
X1183Y278D01*
X1201Y278D02*
X1207Y278D01*
X1224Y278D02*
X1230Y278D01*
X1354Y278D02*
X1360Y278D01*
X1370Y278D02*
X1377Y278D01*
X1432Y278D02*
X1438Y278D01*
X1177Y277D02*
X1183Y277D01*
X1201Y277D02*
X1207Y277D01*
X1224Y277D02*
X1230Y277D01*
X1354Y277D02*
X1360Y277D01*
X1371Y277D02*
X1378Y277D01*
X1432Y277D02*
X1438Y277D01*
X1177Y276D02*
X1183Y276D01*
X1201Y276D02*
X1207Y276D01*
X1224Y276D02*
X1230Y276D01*
X1354Y276D02*
X1360Y276D01*
X1371Y276D02*
X1379Y276D01*
X1432Y276D02*
X1438Y276D01*
X1177Y275D02*
X1183Y275D01*
X1201Y275D02*
X1207Y275D01*
X1224Y275D02*
X1230Y275D01*
X1354Y275D02*
X1360Y275D01*
X1372Y275D02*
X1379Y275D01*
X1432Y275D02*
X1438Y275D01*
X1177Y274D02*
X1183Y274D01*
X1201Y274D02*
X1207Y274D01*
X1224Y274D02*
X1230Y274D01*
X1354Y274D02*
X1360Y274D01*
X1373Y274D02*
X1380Y274D01*
X1432Y274D02*
X1438Y274D01*
X1177Y273D02*
X1183Y273D01*
X1201Y273D02*
X1207Y273D01*
X1224Y273D02*
X1230Y273D01*
X1354Y273D02*
X1360Y273D01*
X1373Y273D02*
X1380Y273D01*
X1432Y273D02*
X1438Y273D01*
X1177Y272D02*
X1183Y272D01*
X1201Y272D02*
X1207Y272D01*
X1224Y272D02*
X1230Y272D01*
X1354Y272D02*
X1360Y272D01*
X1374Y272D02*
X1381Y272D01*
X1432Y272D02*
X1438Y272D01*
X1177Y271D02*
X1183Y271D01*
X1201Y271D02*
X1230Y271D01*
X1354Y271D02*
X1360Y271D01*
X1374Y271D02*
X1382Y271D01*
X1432Y271D02*
X1438Y271D01*
X1177Y270D02*
X1183Y270D01*
X1201Y270D02*
X1230Y270D01*
X1354Y270D02*
X1360Y270D01*
X1375Y270D02*
X1382Y270D01*
X1432Y270D02*
X1438Y270D01*
X1177Y269D02*
X1183Y269D01*
X1201Y269D02*
X1230Y269D01*
X1354Y269D02*
X1360Y269D01*
X1376Y269D02*
X1383Y269D01*
X1432Y269D02*
X1438Y269D01*
X1177Y268D02*
X1183Y268D01*
X1201Y268D02*
X1230Y268D01*
X1354Y268D02*
X1360Y268D01*
X1376Y268D02*
X1383Y268D01*
X1432Y268D02*
X1438Y268D01*
X1177Y267D02*
X1183Y267D01*
X1201Y267D02*
X1230Y267D01*
X1354Y267D02*
X1360Y267D01*
X1377Y267D02*
X1384Y267D01*
X1432Y267D02*
X1438Y267D01*
X1177Y266D02*
X1183Y266D01*
X1201Y266D02*
X1230Y266D01*
X1354Y266D02*
X1360Y266D01*
X1377Y266D02*
X1384Y266D01*
X1406Y266D02*
X1408Y266D01*
X1432Y266D02*
X1438Y266D01*
X1177Y265D02*
X1183Y265D01*
X1201Y265D02*
X1228Y265D01*
X1354Y265D02*
X1360Y265D01*
X1378Y265D02*
X1385Y265D01*
X1405Y265D02*
X1411Y265D01*
X1432Y265D02*
X1438Y265D01*
X1177Y264D02*
X1207Y264D01*
X1354Y264D02*
X1360Y264D01*
X1378Y264D02*
X1386Y264D01*
X1404Y264D02*
X1413Y264D01*
X1432Y264D02*
X1438Y264D01*
X888Y263D02*
X938Y263D01*
X1177Y263D02*
X1207Y263D01*
X1354Y263D02*
X1360Y263D01*
X1379Y263D02*
X1386Y263D01*
X1404Y263D02*
X1438Y263D01*
X886Y262D02*
X939Y262D01*
X1178Y262D02*
X1206Y262D01*
X1354Y262D02*
X1360Y262D01*
X1380Y262D02*
X1387Y262D01*
X1404Y262D02*
X1437Y262D01*
X886Y261D02*
X940Y261D01*
X1178Y261D02*
X1206Y261D01*
X1354Y261D02*
X1360Y261D01*
X1380Y261D02*
X1387Y261D01*
X1405Y261D02*
X1437Y261D01*
X886Y260D02*
X940Y260D01*
X1179Y260D02*
X1205Y260D01*
X1354Y260D02*
X1360Y260D01*
X1381Y260D02*
X1387Y260D01*
X1406Y260D02*
X1437Y260D01*
X886Y259D02*
X940Y259D01*
X1180Y259D02*
X1204Y259D01*
X1354Y259D02*
X1360Y259D01*
X1381Y259D02*
X1387Y259D01*
X1408Y259D02*
X1436Y259D01*
X886Y258D02*
X940Y258D01*
X1182Y258D02*
X1202Y258D01*
X1355Y258D02*
X1359Y258D01*
X1382Y258D02*
X1387Y258D01*
X1410Y258D02*
X1435Y258D01*
X887Y257D02*
X939Y257D01*
X1356Y257D02*
X1358Y257D01*
X1383Y257D02*
X1386Y257D01*
X1412Y257D02*
X1433Y257D01*
X903Y256D02*
X913Y256D01*
X926Y256D02*
X935Y256D01*
X903Y255D02*
X912Y255D01*
X927Y255D02*
X936Y255D01*
X902Y254D02*
X911Y254D01*
X928Y254D02*
X937Y254D01*
X901Y253D02*
X910Y253D01*
X929Y253D02*
X938Y253D01*
X900Y252D02*
X909Y252D01*
X930Y252D02*
X939Y252D01*
X900Y251D02*
X908Y251D01*
X931Y251D02*
X939Y251D01*
X889Y250D02*
X892Y250D01*
X899Y250D02*
X907Y250D01*
X932Y250D02*
X940Y250D01*
X719Y249D02*
X723Y249D01*
X888Y249D02*
X894Y249D01*
X899Y249D02*
X906Y249D01*
X933Y249D02*
X940Y249D01*
X718Y248D02*
X724Y248D01*
X887Y248D02*
X895Y248D01*
X899Y248D02*
X905Y248D01*
X934Y248D02*
X940Y248D01*
X717Y247D02*
X725Y247D01*
X886Y247D02*
X895Y247D01*
X899Y247D02*
X905Y247D01*
X934Y247D02*
X940Y247D01*
X717Y246D02*
X725Y246D01*
X886Y246D02*
X895Y246D01*
X899Y246D02*
X905Y246D01*
X934Y246D02*
X940Y246D01*
X716Y245D02*
X725Y245D01*
X886Y245D02*
X895Y245D01*
X899Y245D02*
X905Y245D01*
X934Y245D02*
X940Y245D01*
X717Y244D02*
X726Y244D01*
X886Y244D02*
X895Y244D01*
X899Y244D02*
X905Y244D01*
X934Y244D02*
X940Y244D01*
X717Y243D02*
X726Y243D01*
X886Y243D02*
X895Y243D01*
X899Y243D02*
X906Y243D01*
X933Y243D02*
X940Y243D01*
X717Y242D02*
X726Y242D01*
X886Y242D02*
X895Y242D01*
X899Y242D02*
X906Y242D01*
X932Y242D02*
X940Y242D01*
X717Y241D02*
X726Y241D01*
X886Y241D02*
X895Y241D01*
X900Y241D02*
X907Y241D01*
X932Y241D02*
X939Y241D01*
X717Y240D02*
X726Y240D01*
X886Y240D02*
X895Y240D01*
X900Y240D02*
X908Y240D01*
X931Y240D02*
X939Y240D01*
X717Y239D02*
X726Y239D01*
X885Y239D02*
X895Y239D01*
X901Y239D02*
X909Y239D01*
X930Y239D02*
X938Y239D01*
X1596Y239D02*
X1605Y239D01*
X717Y238D02*
X727Y238D01*
X885Y238D02*
X894Y238D01*
X902Y238D02*
X910Y238D01*
X929Y238D02*
X937Y238D01*
X1594Y238D02*
X1608Y238D01*
X718Y237D02*
X727Y237D01*
X885Y237D02*
X894Y237D01*
X903Y237D02*
X911Y237D01*
X928Y237D02*
X937Y237D01*
X1592Y237D02*
X1610Y237D01*
X718Y236D02*
X727Y236D01*
X885Y236D02*
X894Y236D01*
X903Y236D02*
X912Y236D01*
X927Y236D02*
X936Y236D01*
X1590Y236D02*
X1612Y236D01*
X718Y235D02*
X727Y235D01*
X884Y235D02*
X894Y235D01*
X904Y235D02*
X935Y235D01*
X1588Y235D02*
X1614Y235D01*
X718Y234D02*
X728Y234D01*
X884Y234D02*
X893Y234D01*
X905Y234D02*
X934Y234D01*
X1586Y234D02*
X1616Y234D01*
X719Y233D02*
X728Y233D01*
X883Y233D02*
X893Y233D01*
X906Y233D02*
X933Y233D01*
X1584Y233D02*
X1618Y233D01*
X719Y232D02*
X729Y232D01*
X883Y232D02*
X892Y232D01*
X907Y232D02*
X932Y232D01*
X1582Y232D02*
X1596Y232D01*
X1605Y232D02*
X1620Y232D01*
X720Y231D02*
X729Y231D01*
X882Y231D02*
X892Y231D01*
X908Y231D02*
X931Y231D01*
X1580Y231D02*
X1594Y231D01*
X1607Y231D02*
X1622Y231D01*
X720Y230D02*
X730Y230D01*
X882Y230D02*
X892Y230D01*
X909Y230D02*
X929Y230D01*
X1578Y230D02*
X1592Y230D01*
X1609Y230D02*
X1624Y230D01*
X720Y229D02*
X731Y229D01*
X881Y229D02*
X891Y229D01*
X912Y229D02*
X927Y229D01*
X1577Y229D02*
X1590Y229D01*
X1611Y229D02*
X1625Y229D01*
X721Y228D02*
X731Y228D01*
X881Y228D02*
X891Y228D01*
X1576Y228D02*
X1588Y228D01*
X1613Y228D02*
X1625Y228D01*
X721Y227D02*
X732Y227D01*
X880Y227D02*
X890Y227D01*
X1576Y227D02*
X1586Y227D01*
X1615Y227D02*
X1626Y227D01*
X722Y226D02*
X733Y226D01*
X879Y226D02*
X890Y226D01*
X1575Y226D02*
X1584Y226D01*
X1617Y226D02*
X1626Y226D01*
X723Y225D02*
X733Y225D01*
X878Y225D02*
X889Y225D01*
X1575Y225D02*
X1582Y225D01*
X1619Y225D02*
X1627Y225D01*
X723Y224D02*
X734Y224D01*
X877Y224D02*
X888Y224D01*
X1574Y224D02*
X1581Y224D01*
X1621Y224D02*
X1627Y224D01*
X724Y223D02*
X735Y223D01*
X876Y223D02*
X888Y223D01*
X1574Y223D02*
X1580Y223D01*
X1621Y223D02*
X1627Y223D01*
X724Y222D02*
X736Y222D01*
X875Y222D02*
X887Y222D01*
X1574Y222D02*
X1580Y222D01*
X1621Y222D02*
X1627Y222D01*
X725Y221D02*
X737Y221D01*
X874Y221D02*
X886Y221D01*
X1574Y221D02*
X1580Y221D01*
X1621Y221D02*
X1627Y221D01*
X726Y220D02*
X738Y220D01*
X873Y220D02*
X886Y220D01*
X1574Y220D02*
X1580Y220D01*
X1621Y220D02*
X1627Y220D01*
X727Y219D02*
X739Y219D01*
X872Y219D02*
X885Y219D01*
X1574Y219D02*
X1580Y219D01*
X1621Y219D02*
X1627Y219D01*
X728Y218D02*
X741Y218D01*
X871Y218D02*
X884Y218D01*
X1574Y218D02*
X1580Y218D01*
X1621Y218D02*
X1627Y218D01*
X728Y217D02*
X742Y217D01*
X870Y217D02*
X883Y217D01*
X1574Y217D02*
X1580Y217D01*
X1621Y217D02*
X1627Y217D01*
X729Y216D02*
X743Y216D01*
X869Y216D02*
X882Y216D01*
X1574Y216D02*
X1580Y216D01*
X1621Y216D02*
X1627Y216D01*
X730Y215D02*
X745Y215D01*
X867Y215D02*
X881Y215D01*
X1574Y215D02*
X1580Y215D01*
X1621Y215D02*
X1627Y215D01*
X731Y214D02*
X746Y214D01*
X866Y214D02*
X880Y214D01*
X1574Y214D02*
X1580Y214D01*
X1621Y214D02*
X1627Y214D01*
X732Y213D02*
X748Y213D01*
X864Y213D02*
X879Y213D01*
X911Y213D02*
X927Y213D01*
X1574Y213D02*
X1580Y213D01*
X1621Y213D02*
X1627Y213D01*
X733Y212D02*
X749Y212D01*
X862Y212D02*
X878Y212D01*
X908Y212D02*
X931Y212D01*
X1574Y212D02*
X1580Y212D01*
X1621Y212D02*
X1627Y212D01*
X735Y211D02*
X751Y211D01*
X861Y211D02*
X877Y211D01*
X906Y211D02*
X932Y211D01*
X1574Y211D02*
X1580Y211D01*
X1621Y211D02*
X1627Y211D01*
X736Y210D02*
X753Y210D01*
X859Y210D02*
X876Y210D01*
X905Y210D02*
X934Y210D01*
X1574Y210D02*
X1580Y210D01*
X1621Y210D02*
X1627Y210D01*
X737Y209D02*
X755Y209D01*
X857Y209D02*
X875Y209D01*
X904Y209D02*
X934Y209D01*
X1574Y209D02*
X1580Y209D01*
X1621Y209D02*
X1627Y209D01*
X738Y208D02*
X757Y208D01*
X855Y208D02*
X873Y208D01*
X904Y208D02*
X935Y208D01*
X1574Y208D02*
X1580Y208D01*
X1621Y208D02*
X1627Y208D01*
X740Y207D02*
X759Y207D01*
X853Y207D02*
X872Y207D01*
X903Y207D02*
X936Y207D01*
X1575Y207D02*
X1580Y207D01*
X1622Y207D02*
X1627Y207D01*
X741Y206D02*
X761Y206D01*
X850Y206D02*
X871Y206D01*
X902Y206D02*
X911Y206D01*
X915Y206D02*
X921Y206D01*
X928Y206D02*
X937Y206D01*
X1576Y206D02*
X1579Y206D01*
X1623Y206D02*
X1626Y206D01*
X743Y205D02*
X764Y205D01*
X848Y205D02*
X869Y205D01*
X901Y205D02*
X909Y205D01*
X915Y205D02*
X921Y205D01*
X930Y205D02*
X938Y205D01*
X744Y204D02*
X767Y204D01*
X845Y204D02*
X868Y204D01*
X901Y204D02*
X908Y204D01*
X915Y204D02*
X921Y204D01*
X931Y204D02*
X938Y204D01*
X746Y203D02*
X770Y203D01*
X842Y203D02*
X866Y203D01*
X901Y203D02*
X908Y203D01*
X915Y203D02*
X921Y203D01*
X931Y203D02*
X938Y203D01*
X748Y202D02*
X774Y202D01*
X838Y202D02*
X864Y202D01*
X900Y202D02*
X907Y202D01*
X915Y202D02*
X921Y202D01*
X932Y202D02*
X939Y202D01*
X749Y201D02*
X778Y201D01*
X834Y201D02*
X862Y201D01*
X900Y201D02*
X906Y201D01*
X915Y201D02*
X921Y201D01*
X933Y201D02*
X939Y201D01*
X751Y200D02*
X783Y200D01*
X829Y200D02*
X860Y200D01*
X900Y200D02*
X906Y200D01*
X915Y200D02*
X921Y200D01*
X933Y200D02*
X939Y200D01*
X754Y199D02*
X789Y199D01*
X822Y199D02*
X858Y199D01*
X900Y199D02*
X906Y199D01*
X915Y199D02*
X921Y199D01*
X933Y199D02*
X939Y199D01*
X756Y198D02*
X856Y198D01*
X900Y198D02*
X906Y198D01*
X915Y198D02*
X921Y198D01*
X933Y198D02*
X939Y198D01*
X758Y197D02*
X853Y197D01*
X900Y197D02*
X906Y197D01*
X915Y197D02*
X921Y197D01*
X933Y197D02*
X939Y197D01*
X761Y196D02*
X851Y196D01*
X900Y196D02*
X906Y196D01*
X915Y196D02*
X921Y196D01*
X933Y196D02*
X939Y196D01*
X764Y195D02*
X848Y195D01*
X900Y195D02*
X906Y195D01*
X915Y195D02*
X921Y195D01*
X933Y195D02*
X939Y195D01*
X767Y194D02*
X845Y194D01*
X900Y194D02*
X906Y194D01*
X915Y194D02*
X921Y194D01*
X933Y194D02*
X939Y194D01*
X770Y193D02*
X842Y193D01*
X900Y193D02*
X906Y193D01*
X915Y193D02*
X921Y193D01*
X933Y193D02*
X939Y193D01*
X774Y192D02*
X838Y192D01*
X900Y192D02*
X906Y192D01*
X915Y192D02*
X921Y192D01*
X933Y192D02*
X939Y192D01*
X778Y191D02*
X834Y191D01*
X900Y191D02*
X906Y191D01*
X915Y191D02*
X921Y191D01*
X933Y191D02*
X939Y191D01*
X783Y190D02*
X828Y190D01*
X900Y190D02*
X906Y190D01*
X915Y190D02*
X921Y190D01*
X932Y190D02*
X939Y190D01*
X790Y189D02*
X821Y189D01*
X900Y189D02*
X906Y189D01*
X915Y189D02*
X921Y189D01*
X932Y189D02*
X938Y189D01*
X1574Y189D02*
X1600Y189D01*
X1623Y189D02*
X1626Y189D01*
X900Y188D02*
X906Y188D01*
X915Y188D02*
X921Y188D01*
X931Y188D02*
X938Y188D01*
X1574Y188D02*
X1601Y188D01*
X1622Y188D02*
X1627Y188D01*
X900Y187D02*
X906Y187D01*
X915Y187D02*
X921Y187D01*
X930Y187D02*
X938Y187D01*
X1574Y187D02*
X1602Y187D01*
X1621Y187D02*
X1627Y187D01*
X900Y186D02*
X906Y186D01*
X915Y186D02*
X921Y186D01*
X929Y186D02*
X937Y186D01*
X1574Y186D02*
X1603Y186D01*
X1621Y186D02*
X1627Y186D01*
X900Y185D02*
X906Y185D01*
X915Y185D02*
X936Y185D01*
X1574Y185D02*
X1603Y185D01*
X1621Y185D02*
X1627Y185D01*
X900Y184D02*
X906Y184D01*
X915Y184D02*
X936Y184D01*
X1574Y184D02*
X1604Y184D01*
X1621Y184D02*
X1627Y184D01*
X900Y183D02*
X906Y183D01*
X915Y183D02*
X935Y183D01*
X1574Y183D02*
X1604Y183D01*
X1621Y183D02*
X1627Y183D01*
X900Y182D02*
X906Y182D01*
X915Y182D02*
X934Y182D01*
X1574Y182D02*
X1580Y182D01*
X1598Y182D02*
X1604Y182D01*
X1621Y182D02*
X1627Y182D01*
X900Y181D02*
X906Y181D01*
X915Y181D02*
X933Y181D01*
X1574Y181D02*
X1580Y181D01*
X1598Y181D02*
X1604Y181D01*
X1621Y181D02*
X1627Y181D01*
X901Y180D02*
X905Y180D01*
X916Y180D02*
X931Y180D01*
X1574Y180D02*
X1580Y180D01*
X1598Y180D02*
X1604Y180D01*
X1621Y180D02*
X1627Y180D01*
X902Y179D02*
X904Y179D01*
X917Y179D02*
X929Y179D01*
X1574Y179D02*
X1580Y179D01*
X1598Y179D02*
X1604Y179D01*
X1621Y179D02*
X1627Y179D01*
X1574Y178D02*
X1580Y178D01*
X1598Y178D02*
X1604Y178D01*
X1621Y178D02*
X1627Y178D01*
X1574Y177D02*
X1580Y177D01*
X1598Y177D02*
X1604Y177D01*
X1621Y177D02*
X1627Y177D01*
X1574Y176D02*
X1580Y176D01*
X1598Y176D02*
X1604Y176D01*
X1621Y176D02*
X1627Y176D01*
X1574Y175D02*
X1580Y175D01*
X1598Y175D02*
X1604Y175D01*
X1621Y175D02*
X1627Y175D01*
X1574Y174D02*
X1580Y174D01*
X1598Y174D02*
X1604Y174D01*
X1621Y174D02*
X1627Y174D01*
X1574Y173D02*
X1580Y173D01*
X1598Y173D02*
X1604Y173D01*
X1621Y173D02*
X1627Y173D01*
X1574Y172D02*
X1580Y172D01*
X1598Y172D02*
X1604Y172D01*
X1621Y172D02*
X1627Y172D01*
X1574Y171D02*
X1580Y171D01*
X1598Y171D02*
X1604Y171D01*
X1621Y171D02*
X1627Y171D01*
X1574Y170D02*
X1580Y170D01*
X1598Y170D02*
X1604Y170D01*
X1621Y170D02*
X1627Y170D01*
X1574Y169D02*
X1580Y169D01*
X1598Y169D02*
X1604Y169D01*
X1621Y169D02*
X1627Y169D01*
X1574Y168D02*
X1580Y168D01*
X1598Y168D02*
X1604Y168D01*
X1621Y168D02*
X1627Y168D01*
X1574Y167D02*
X1580Y167D01*
X1598Y167D02*
X1604Y167D01*
X1621Y167D02*
X1627Y167D01*
X1574Y166D02*
X1580Y166D01*
X1598Y166D02*
X1604Y166D01*
X1621Y166D02*
X1627Y166D01*
X1574Y165D02*
X1580Y165D01*
X1598Y165D02*
X1604Y165D01*
X1621Y165D02*
X1627Y165D01*
X1574Y164D02*
X1580Y164D01*
X1598Y164D02*
X1604Y164D01*
X1621Y164D02*
X1627Y164D01*
X1574Y163D02*
X1580Y163D01*
X1598Y163D02*
X1604Y163D01*
X1621Y163D02*
X1627Y163D01*
X901Y162D02*
X938Y162D01*
X1574Y162D02*
X1580Y162D01*
X1598Y162D02*
X1627Y162D01*
X901Y161D02*
X938Y161D01*
X1574Y161D02*
X1580Y161D01*
X1598Y161D02*
X1627Y161D01*
X900Y160D02*
X939Y160D01*
X1574Y160D02*
X1580Y160D01*
X1598Y160D02*
X1627Y160D01*
X900Y159D02*
X939Y159D01*
X1574Y159D02*
X1580Y159D01*
X1599Y159D02*
X1626Y159D01*
X901Y158D02*
X938Y158D01*
X1574Y158D02*
X1580Y158D01*
X1599Y158D02*
X1626Y158D01*
X901Y157D02*
X938Y157D01*
X1575Y157D02*
X1580Y157D01*
X1600Y157D02*
X1625Y157D01*
X904Y156D02*
X935Y156D01*
X1576Y156D02*
X1579Y156D01*
X1602Y156D02*
X1623Y156D01*
X924Y155D02*
X932Y155D01*
X924Y154D02*
X933Y154D01*
X925Y153D02*
X934Y153D01*
X926Y152D02*
X934Y152D01*
X927Y151D02*
X935Y151D01*
X928Y150D02*
X936Y150D01*
X929Y149D02*
X937Y149D01*
X930Y148D02*
X938Y148D01*
X930Y147D02*
X938Y147D01*
X931Y146D02*
X939Y146D01*
X932Y145D02*
X939Y145D01*
X933Y144D02*
X939Y144D01*
X933Y143D02*
X939Y143D01*
X933Y142D02*
X939Y142D01*
X933Y141D02*
X939Y141D01*
X933Y140D02*
X939Y140D01*
X933Y139D02*
X939Y139D01*
X933Y138D02*
X939Y138D01*
X932Y137D02*
X939Y137D01*
X931Y136D02*
X938Y136D01*
X926Y135D02*
X938Y135D01*
X925Y134D02*
X937Y134D01*
X924Y133D02*
X937Y133D01*
X924Y132D02*
X936Y132D01*
X924Y131D02*
X935Y131D01*
X925Y130D02*
X934Y130D01*
X926Y129D02*
X932Y129D01*
X34Y119D02*
X57Y119D01*
X81Y119D02*
X110Y119D01*
X131Y119D02*
X132Y119D01*
X159Y119D02*
X160Y119D01*
X32Y118D02*
X59Y118D01*
X80Y118D02*
X111Y118D01*
X130Y118D02*
X134Y118D01*
X157Y118D02*
X161Y118D01*
X30Y117D02*
X60Y117D01*
X79Y117D02*
X112Y117D01*
X129Y117D02*
X135Y117D01*
X157Y117D02*
X162Y117D01*
X30Y116D02*
X61Y116D01*
X79Y116D02*
X112Y116D01*
X129Y116D02*
X135Y116D01*
X156Y116D02*
X162Y116D01*
X29Y115D02*
X61Y115D01*
X79Y115D02*
X112Y115D01*
X129Y115D02*
X136Y115D01*
X156Y115D02*
X162Y115D01*
X29Y114D02*
X62Y114D01*
X79Y114D02*
X112Y114D01*
X129Y114D02*
X136Y114D01*
X156Y114D02*
X162Y114D01*
X28Y113D02*
X62Y113D01*
X79Y113D02*
X111Y113D01*
X130Y113D02*
X137Y113D01*
X156Y113D02*
X162Y113D01*
X28Y112D02*
X35Y112D01*
X56Y112D02*
X62Y112D01*
X79Y112D02*
X85Y112D01*
X92Y112D02*
X99Y112D01*
X130Y112D02*
X138Y112D01*
X156Y112D02*
X162Y112D01*
X902Y112D02*
X905Y112D01*
X949Y112D02*
X952Y112D01*
X28Y111D02*
X34Y111D01*
X56Y111D02*
X62Y111D01*
X79Y111D02*
X85Y111D01*
X92Y111D02*
X98Y111D01*
X131Y111D02*
X138Y111D01*
X156Y111D02*
X162Y111D01*
X901Y111D02*
X906Y111D01*
X948Y111D02*
X953Y111D01*
X28Y110D02*
X34Y110D01*
X56Y110D02*
X62Y110D01*
X79Y110D02*
X85Y110D01*
X92Y110D02*
X98Y110D01*
X132Y110D02*
X139Y110D01*
X156Y110D02*
X162Y110D01*
X900Y110D02*
X906Y110D01*
X948Y110D02*
X953Y110D01*
X28Y109D02*
X34Y109D01*
X56Y109D02*
X62Y109D01*
X79Y109D02*
X85Y109D01*
X92Y109D02*
X98Y109D01*
X132Y109D02*
X139Y109D01*
X156Y109D02*
X162Y109D01*
X900Y109D02*
X906Y109D01*
X947Y109D02*
X953Y109D01*
X28Y108D02*
X34Y108D01*
X56Y108D02*
X62Y108D01*
X79Y108D02*
X85Y108D01*
X92Y108D02*
X98Y108D01*
X133Y108D02*
X140Y108D01*
X156Y108D02*
X162Y108D01*
X900Y108D02*
X906Y108D01*
X947Y108D02*
X953Y108D01*
X28Y107D02*
X34Y107D01*
X56Y107D02*
X62Y107D01*
X79Y107D02*
X85Y107D01*
X92Y107D02*
X98Y107D01*
X133Y107D02*
X140Y107D01*
X156Y107D02*
X162Y107D01*
X900Y107D02*
X906Y107D01*
X947Y107D02*
X953Y107D01*
X28Y106D02*
X34Y106D01*
X56Y106D02*
X62Y106D01*
X79Y106D02*
X85Y106D01*
X92Y106D02*
X98Y106D01*
X134Y106D02*
X141Y106D01*
X156Y106D02*
X162Y106D01*
X900Y106D02*
X906Y106D01*
X947Y106D02*
X953Y106D01*
X28Y105D02*
X34Y105D01*
X56Y105D02*
X62Y105D01*
X79Y105D02*
X85Y105D01*
X92Y105D02*
X98Y105D01*
X134Y105D02*
X142Y105D01*
X156Y105D02*
X162Y105D01*
X900Y105D02*
X906Y105D01*
X947Y105D02*
X953Y105D01*
X28Y104D02*
X34Y104D01*
X56Y104D02*
X62Y104D01*
X79Y104D02*
X85Y104D01*
X92Y104D02*
X98Y104D01*
X135Y104D02*
X142Y104D01*
X156Y104D02*
X162Y104D01*
X900Y104D02*
X906Y104D01*
X947Y104D02*
X953Y104D01*
X28Y103D02*
X34Y103D01*
X56Y103D02*
X62Y103D01*
X79Y103D02*
X85Y103D01*
X92Y103D02*
X98Y103D01*
X136Y103D02*
X143Y103D01*
X156Y103D02*
X162Y103D01*
X900Y103D02*
X906Y103D01*
X947Y103D02*
X953Y103D01*
X28Y102D02*
X34Y102D01*
X56Y102D02*
X62Y102D01*
X79Y102D02*
X85Y102D01*
X92Y102D02*
X98Y102D01*
X136Y102D02*
X143Y102D01*
X156Y102D02*
X162Y102D01*
X900Y102D02*
X906Y102D01*
X947Y102D02*
X953Y102D01*
X28Y101D02*
X34Y101D01*
X56Y101D02*
X62Y101D01*
X79Y101D02*
X85Y101D01*
X92Y101D02*
X98Y101D01*
X137Y101D02*
X144Y101D01*
X156Y101D02*
X162Y101D01*
X900Y101D02*
X906Y101D01*
X947Y101D02*
X953Y101D01*
X28Y100D02*
X34Y100D01*
X56Y100D02*
X62Y100D01*
X79Y100D02*
X85Y100D01*
X92Y100D02*
X98Y100D01*
X137Y100D02*
X145Y100D01*
X156Y100D02*
X162Y100D01*
X900Y100D02*
X906Y100D01*
X947Y100D02*
X953Y100D01*
X28Y99D02*
X34Y99D01*
X56Y99D02*
X62Y99D01*
X79Y99D02*
X85Y99D01*
X92Y99D02*
X98Y99D01*
X138Y99D02*
X145Y99D01*
X156Y99D02*
X162Y99D01*
X900Y99D02*
X953Y99D01*
X28Y98D02*
X34Y98D01*
X56Y98D02*
X62Y98D01*
X79Y98D02*
X85Y98D01*
X92Y98D02*
X98Y98D01*
X139Y98D02*
X146Y98D01*
X156Y98D02*
X162Y98D01*
X900Y98D02*
X953Y98D01*
X28Y97D02*
X34Y97D01*
X56Y97D02*
X62Y97D01*
X79Y97D02*
X84Y97D01*
X92Y97D02*
X98Y97D01*
X139Y97D02*
X146Y97D01*
X156Y97D02*
X162Y97D01*
X900Y97D02*
X953Y97D01*
X28Y96D02*
X34Y96D01*
X56Y96D02*
X62Y96D01*
X79Y96D02*
X84Y96D01*
X92Y96D02*
X98Y96D01*
X140Y96D02*
X147Y96D01*
X156Y96D02*
X162Y96D01*
X900Y96D02*
X953Y96D01*
X28Y95D02*
X34Y95D01*
X56Y95D02*
X62Y95D01*
X80Y95D02*
X83Y95D01*
X92Y95D02*
X98Y95D01*
X140Y95D02*
X147Y95D01*
X156Y95D02*
X162Y95D01*
X900Y95D02*
X953Y95D01*
X28Y94D02*
X34Y94D01*
X56Y94D02*
X62Y94D01*
X92Y94D02*
X98Y94D01*
X141Y94D02*
X148Y94D01*
X156Y94D02*
X162Y94D01*
X900Y94D02*
X953Y94D01*
X28Y93D02*
X34Y93D01*
X56Y93D02*
X62Y93D01*
X92Y93D02*
X98Y93D01*
X141Y93D02*
X149Y93D01*
X156Y93D02*
X162Y93D01*
X900Y93D02*
X953Y93D01*
X28Y92D02*
X34Y92D01*
X56Y92D02*
X62Y92D01*
X92Y92D02*
X98Y92D01*
X142Y92D02*
X149Y92D01*
X156Y92D02*
X162Y92D01*
X900Y92D02*
X907Y92D01*
X28Y91D02*
X34Y91D01*
X56Y91D02*
X62Y91D01*
X92Y91D02*
X98Y91D01*
X143Y91D02*
X150Y91D01*
X156Y91D02*
X162Y91D01*
X900Y91D02*
X906Y91D01*
X28Y90D02*
X34Y90D01*
X56Y90D02*
X62Y90D01*
X92Y90D02*
X98Y90D01*
X143Y90D02*
X151Y90D01*
X156Y90D02*
X162Y90D01*
X900Y90D02*
X906Y90D01*
X28Y89D02*
X34Y89D01*
X56Y89D02*
X62Y89D01*
X92Y89D02*
X98Y89D01*
X135Y89D02*
X162Y89D01*
X900Y89D02*
X906Y89D01*
X28Y88D02*
X34Y88D01*
X56Y88D02*
X62Y88D01*
X92Y88D02*
X98Y88D01*
X134Y88D02*
X162Y88D01*
X900Y88D02*
X906Y88D01*
X28Y87D02*
X34Y87D01*
X56Y87D02*
X62Y87D01*
X92Y87D02*
X98Y87D01*
X132Y87D02*
X162Y87D01*
X900Y87D02*
X906Y87D01*
X28Y86D02*
X34Y86D01*
X56Y86D02*
X62Y86D01*
X92Y86D02*
X98Y86D01*
X131Y86D02*
X162Y86D01*
X900Y86D02*
X906Y86D01*
X28Y85D02*
X34Y85D01*
X56Y85D02*
X62Y85D01*
X92Y85D02*
X98Y85D01*
X131Y85D02*
X162Y85D01*
X900Y85D02*
X922Y85D01*
X28Y84D02*
X34Y84D01*
X56Y84D02*
X62Y84D01*
X92Y84D02*
X98Y84D01*
X130Y84D02*
X162Y84D01*
X900Y84D02*
X923Y84D01*
X28Y83D02*
X34Y83D01*
X56Y83D02*
X62Y83D01*
X92Y83D02*
X98Y83D01*
X129Y83D02*
X162Y83D01*
X900Y83D02*
X924Y83D01*
X28Y82D02*
X34Y82D01*
X56Y82D02*
X62Y82D01*
X92Y82D02*
X98Y82D01*
X129Y82D02*
X136Y82D01*
X156Y82D02*
X162Y82D01*
X900Y82D02*
X924Y82D01*
X28Y81D02*
X34Y81D01*
X56Y81D02*
X62Y81D01*
X92Y81D02*
X98Y81D01*
X129Y81D02*
X135Y81D01*
X156Y81D02*
X162Y81D01*
X900Y81D02*
X924Y81D01*
X28Y80D02*
X34Y80D01*
X56Y80D02*
X62Y80D01*
X92Y80D02*
X98Y80D01*
X129Y80D02*
X135Y80D01*
X156Y80D02*
X162Y80D01*
X901Y80D02*
X923Y80D01*
X28Y79D02*
X34Y79D01*
X56Y79D02*
X62Y79D01*
X92Y79D02*
X98Y79D01*
X129Y79D02*
X135Y79D01*
X156Y79D02*
X162Y79D01*
X902Y79D02*
X923Y79D01*
X28Y78D02*
X34Y78D01*
X56Y78D02*
X62Y78D01*
X92Y78D02*
X98Y78D01*
X129Y78D02*
X135Y78D01*
X156Y78D02*
X162Y78D01*
X28Y77D02*
X34Y77D01*
X56Y77D02*
X62Y77D01*
X92Y77D02*
X98Y77D01*
X129Y77D02*
X135Y77D01*
X156Y77D02*
X162Y77D01*
X28Y76D02*
X34Y76D01*
X56Y76D02*
X62Y76D01*
X92Y76D02*
X98Y76D01*
X129Y76D02*
X135Y76D01*
X156Y76D02*
X162Y76D01*
X28Y75D02*
X34Y75D01*
X56Y75D02*
X62Y75D01*
X92Y75D02*
X98Y75D01*
X129Y75D02*
X135Y75D01*
X156Y75D02*
X162Y75D01*
X28Y74D02*
X34Y74D01*
X56Y74D02*
X62Y74D01*
X92Y74D02*
X98Y74D01*
X129Y74D02*
X135Y74D01*
X156Y74D02*
X162Y74D01*
X28Y73D02*
X34Y73D01*
X56Y73D02*
X62Y73D01*
X92Y73D02*
X98Y73D01*
X129Y73D02*
X136Y73D01*
X156Y73D02*
X162Y73D01*
X28Y72D02*
X62Y72D01*
X92Y72D02*
X109Y72D01*
X129Y72D02*
X162Y72D01*
X28Y71D02*
X62Y71D01*
X92Y71D02*
X111Y71D01*
X130Y71D02*
X162Y71D01*
X29Y70D02*
X62Y70D01*
X92Y70D02*
X112Y70D01*
X130Y70D02*
X162Y70D01*
X29Y69D02*
X61Y69D01*
X92Y69D02*
X112Y69D01*
X131Y69D02*
X162Y69D01*
X30Y68D02*
X61Y68D01*
X92Y68D02*
X112Y68D01*
X132Y68D02*
X162Y68D01*
X31Y67D02*
X60Y67D01*
X92Y67D02*
X112Y67D01*
X133Y67D02*
X162Y67D01*
X32Y66D02*
X58Y66D01*
X92Y66D02*
X111Y66D01*
X135Y66D02*
X162Y66D01*
D02*
G04 End of Silk1*
M02*