; NON-PLATED HOLES START AT T1
; THROUGH (PLATED) HOLES START AT T100
M48
INCH
T100C0.042000
T101C0.035000
T102C0.038000
T103C0.030000
T104C0.039370
%
T100
X004076Y009874
X002076Y009874
X014076Y009874
X003076Y007874
X006056Y007874
X003076Y009874
X009076Y009874
X015076Y009874
X010076Y009874
X015111Y001704
X008076Y009874
X009111Y001704
X013076Y009874
T101
X007076Y006874
X011076Y007874
X001076Y006874
X007076Y007874
X002076Y002874
X016076Y007874
X012076Y006874
X012076Y008874
X009076Y002874
X014076Y005874
X006076Y002874
X002076Y005874
X007076Y002874
X007076Y005874
X008076Y008874
X002076Y001874
X012076Y007874
X008076Y007874
X006076Y001874
X008076Y002874
X006076Y005874
X007076Y004874
X010076Y005874
X005076Y006874
X012076Y002874
X011076Y003874
X003076Y004874
X014076Y004874
T102
X001076Y002874
X006076Y009874
X013076Y008874
X001076Y001874
X017076Y007874
X017076Y008874
X001076Y003874
X017076Y009874
T103
X015076Y003874
X015076Y002873
T104
X006076Y010874
X002076Y007874
T00
M30
